<?xml version="1.0" encoding="utf-8"?>
<!DOCTYPE svg PUBLIC "-//W3C//DTD SVG 1.1//EN" "http://www.w3.org/Graphics/SVG/1.1/DTD/svg11.dtd">
<svg aria-labelledby="title" version="1.1" xmlns="http://www.w3.org/2000/svg" xmlns:xlink="http://www.w3.org/1999/xlink" width="32" height="32" viewBox="0 0 32 32">
<title id="title" lang="en">Info</title>

<path fill="#2d373e" class="icons-background" d="M19.3 10.1c-0.5 0.5-1.1 0.7-1.8 0.7s-1.3-0.2-1.8-0.7c-0.5-0.5-0.8-1-0.8-1.7s0.3-1.2 0.8-1.7c0.4-0.5 1-0.7 1.8-0.7 0.7 0 1.3 0.2 1.8 0.7s0.7 1 0.7 1.7c0 0.7-0.2 1.2-0.7 1.7zM19.4 25c-0.9 0.3-1.5 0.6-2.1 0.8-0.5 0.2-1.1 0.3-1.8 0.3-1 0-1.9-0.2-2.4-0.8-0.6-0.5-0.9-1.2-0.9-1.9 0-0.3 0-0.6 0.1-0.9 0-0.3 0.1-0.7 0.2-1.1l1.1-3.8c0.1-0.4 0.2-0.7 0.2-1 0.1-0.3 0.1-0.6 0.1-0.9 0-0.5-0.1-0.8-0.3-1s-0.6-0.3-1.2-0.3c-0.3 0-0.6 0-0.8 0.1-0.3 0.1-0.5 0.2-0.7 0.3l0.3-1.2c0.7-0.3 1.4-0.5 2-0.7s1.2-0.3 1.8-0.3c1 0 1.8 0.2 2.4 0.7s0.8 1.1 0.8 1.9c0 0.2 0 0.5-0.1 0.9 0 0.4-0.1 0.8-0.2 1.1l-0.9 3.7c-0.1 0.3-0.2 0.7-0.2 1-0.1 0.4-0.1 0.7-0.1 0.9 0 0.5 0.1 0.8 0.3 1s0.6 0.3 1.2 0.3c0.3 0 0.6 0 0.9-0.1s0.6-0.2 0.7-0.2l-0.4 1.2zM32 16c0 8.8-7.2 16-16 16s-16-7.2-16-16 7.2-16 16-16 16 7.2 16 16zM16 2c-7.7 0-14 6.3-14 14s6.3 14 14 14 14-6.3 14-14-6.3-14-14-14z"></path>
</svg>
