<?xml version="1.0" encoding="utf-8"?>
<!DOCTYPE svg PUBLIC "-//W3C//DTD SVG 1.1//EN" "http://www.w3.org/Graphics/SVG/1.1/DTD/svg11.dtd">
<svg version="1.1" xmlns="http://www.w3.org/2000/svg" xmlns:xlink="http://www.w3.org/1999/xlink" width="32" height="32" viewBox="0 0 32 32">
<path fill="#716f7d" class="icons-background" d="M16 0c-1.5 0-2.3 0.9-2.7 1.6-0.5 0.7-9.7 17.9-12.1 22.8-1.5 3-1.5 5.2-0.1 6.5 0.8 0.7 1.9 1.1 2.9 1.1h24c1 0 2.1-0.4 2.9-1.1 1.5-1.3 1.5-3.5-0.1-6.5-2.4-4.9-11.6-22.1-12.1-22.8-0.4-0.7-1.2-1.6-2.7-1.6zM16 2c0.5 0 0.7 0.1 1 0.6 0.5 0.9 9.5 17.7 12 22.7 0.7 1.4 1.4 3.3 0.5 4.1-0.3 0.4-0.5 0.6-1.5 0.6h-24c-1 0-1.2-0.2-1.6-0.6-0.9-0.8-0.2-2.7 0.5-4.1 2.5-5 11.5-21.7 12-22.6 0.4-0.6 0.6-0.7 1.1-0.7zM16 9c1.1 0 2 0.9 2 2v9c0 1.1-0.9 2-2 2s-2-0.9-2-2v-9c0-1.1 0.9-2 2-2zM18 26c0 1.1-0.9 2-2 2s-2-0.9-2-2 0.9-2 2-2c1.1 0 2 0.9 2 2z"></path>
</svg>
