<?xml version="1.0" encoding="utf-8"?>
<!DOCTYPE svg PUBLIC "-//W3C//DTD SVG 1.1//EN" "http://www.w3.org/Graphics/SVG/1.1/DTD/svg11.dtd">
<svg version="1.1" xmlns="http://www.w3.org/2000/svg" xmlns:xlink="http://www.w3.org/1999/xlink" width="32" height="32" viewBox="0 0 32 32">
<path fill="#0d0d0d" class="icons-background" d="M27.9 12.1c0.1-0.4 0.1-0.7 0.1-1.1 0-2.8-2.2-5-5-5-0.4 0-0.9 0.1-1.3 0.2-0.8-2.4-3-4.2-5.7-4.2s-5 1.8-5.8 4.3c-0.7-0.2-1.4-0.3-2.2-0.3-4.4 0-8 3.6-8 8s3.6 8 8 8h4v6h8v-6h7c2.8 0 5-2.2 5-5 0-2.5-1.8-4.5-4.1-4.9zM18 20v6h-4v-6h-5l7-7 7 7h-5z"></path>
</svg>
