<?xml version="1.0" encoding="utf-8"?>
<!DOCTYPE svg PUBLIC "-//W3C//DTD SVG 1.1//EN" "http://www.w3.org/Graphics/SVG/1.1/DTD/svg11.dtd">
<svg aria-labelledby="title" version="1.1" xmlns="http://www.w3.org/2000/svg" xmlns:xlink="http://www.w3.org/1999/xlink" width="32" height="32" viewBox="0 0 32 32">
<title id="title" lang="en">Twitter</title>

<path fill="#20262d" class="icons-background" d="M32 29c0 1.7-1.3 3-3 3h-26c-1.7 0-3-1.3-3-3v-26c0-1.7 1.3-3 3-3h26c1.7 0 3 1.3 3 3v26zM28.8 7.9c-0.9 0.4-2 0.7-3 0.8 1.1-0.7 1.9-1.7 2.3-3-1 0.6-2.1 1.1-3.3 1.3-1-1-2.3-1.7-3.8-1.7-2.9 0-5.3 2.4-5.3 5.3 0 0.4 0 0.8 0.1 1.2-4.4 0-8.2-2.2-10.8-5.4-0.5 0.8-0.7 1.7-0.7 2.7 0 1.9 0.8 3.5 2.2 4.5-0.9 0-1.5-0.3-2.5-0.7 0 0 0 0 0 0.1 0 2.6 1.9 4.8 4.3 5.2-0.4 0.1-0.9 0.2-1.3 0.2-0.3 0-0.6 0-1-0.1 0.7 2.1 2.6 3.7 4.9 3.7-1.8 1.4-4.1 2.3-6.5 2.3-0.4 0-0.8 0-1.3-0.1 2.3 1.5 5.1 2.4 8.1 2.4 9.7 0 15-8.2 15-15.2 0-0.2 0-0.5 0-0.7 1-0.8 1.9-1.7 2.6-2.8z"></path>
</svg>