<?xml version="1.0" encoding="utf-8"?>
<!DOCTYPE svg PUBLIC "-//W3C//DTD SVG 1.0//EN" "http://www.w3.org/TR/2001/REC-SVG-20010904/DTD/svg10.dtd">
<svg version="1.0" xmlns="http://www.w3.org/2000/svg" xmlns:xlink="http://www.w3.org/1999/xlink" x="0px" y="0px" width="32px" height="32px" viewBox="0 0 32 32" enable-background="new 0 0 32 32" xml:space="preserve">
<path fill="#fff" d="M6,31.5c-5.4,0-5.5-5.3-5.5-5.5V6c0-5.4,5.3-5.5,5.5-5.5h20c5.4,0,5.5,5.3,5.5,5.5v20 c0,5.4-5.3,5.5-5.5,5.5H6z"/>
<path fill="#621A4B" d="M26,1c4.8,0,5,4.5,5,5v20c0,4.8-4.5,5-5,5H6c-4.8,0-5-4.5-5-5V6c0-4.8,4.5-5,5-5H26 M26,0H6c0,0-6,0-6,6 v20c0,0,0,6,6,6h20c0,0,6,0,6-6V6C32,6,32,0,26,0L26,0z"/>
</svg>
