<?xml version="1.0" encoding="utf-8"?>
<!DOCTYPE svg PUBLIC "-//W3C//DTD SVG 1.1//EN" "http://www.w3.org/Graphics/SVG/1.1/DTD/svg11.dtd">
<svg aria-labelledby="title" version="1.1" xmlns="http://www.w3.org/2000/svg" xmlns:xlink="http://www.w3.org/1999/xlink" width="32" height="32" viewBox="0 0 32 32">
<title id="title" lang="en">Business-person</title>

<path fill="#333" class="icons-background" d="M10.8 15.2c0.4 2.7 2.5 4.7 2.5 4.7 1.2 1 1.8 1 2.8 1s1.5-0.1 2.8-1c0 0 2-2 2.5-4.7 1.2 0 1.9-2.9 0.7-3.9 0-1.1 1.5-8.4-6-8.4s-6 7.3-6 8.4c-1.2 1.1-0.4 3.9 0.7 3.9z"></path>
<path fill="#333" class="icons-background" d="M18 22h-4l1.5 3.5-1.5 4.5h4l-1.5-4.5z"></path>
<path fill="#333" class="icons-background" d="M20 22l-1 3 1 5h10c0-3.6-7-7.1-10-8z"></path>
<path fill="#333" class="icons-background" d="M12 22c-3 0.9-10 4.4-10 8h10l1-5-1-3z"></path>
</svg>
