<?xml version="1.0" encoding="utf-8"?>
<!DOCTYPE svg PUBLIC "-//W3C//DTD SVG 1.0//EN" "http://www.w3.org/TR/2001/REC-SVG-20010904/DTD/svg10.dtd">
<svg aria-labelledby="title" version="1.0" xmlns="http://www.w3.org/2000/svg" xmlns:xlink="http://www.w3.org/1999/xlink" x="0px" y="0px" width="80px" height="25px" viewBox="0 0 80 25" enable-background="new 0 0 80 25" xml:space="preserve">
<title id="title" lang="en">Visa</title>

<g>
	<g>
		<polyline fill="#0023A0" points="27,24.4 30.9,0.4 37.1,0.4 33.2,24.4 27,24.4 				"/>
		<path fill="#0023A0" d="M55.7,1c-1.2-0.5-3.2-1-5.6-1C44,0,39.7,3.3,39.6,7.9c0,3.5,3.1,5.4,5.4,6.5c2.4,1.2,3.2,1.9,3.2,3
			c0,1.6-1.9,2.3-3.7,2.3c-2.5,0-3.8-0.4-5.8-1.3l-0.8-0.4l-0.9,5.4c1.4,0.7,4.1,1.2,6.9,1.3c6.5,0,10.8-3.2,10.8-8.2
			c0-2.7-1.6-4.8-5.2-6.5c-2.2-1.1-3.5-1.9-3.5-3c0-1,1.1-2.1,3.6-2.1c2,0,3.5,0.4,4.6,0.9l0.6,0.3L55.7,1"/>
		<path fill="#0023A0" d="M71.6,0.4h-4.8c-1.5,0-2.6,0.4-3.3,2l-9.2,22h6.5c0,0,1.1-3,1.3-3.6c0.7,0,7,0,7.9,0
			c0.2,0.8,0.8,3.6,0.8,3.6h5.8L71.6,0.4 M63.9,15.9c0.5-1.4,2.5-6.7,2.5-6.7c0,0.1,0.5-1.4,0.8-2.3L67.7,9c0,0,1.2,5.7,1.4,6.9
			C68.1,15.9,65.2,15.9,63.9,15.9z"/>
		<path fill="#0023A0" d="M21.8,0.4l-6.1,16.4l-0.7-3.3c-1.1-3.8-4.7-8-8.6-10.1l5.6,21l6.6,0l9.8-24H21.8"/>
		<path fill="#FFA000" d="M10.1,0.4h-10L0,0.9c7.8,2,12.9,6.8,15.1,12.6l-2.2-11C12.5,0.9,11.4,0.5,10.1,0.4z"/>
	</g>
	<g>
		<path fill="#0023A0" d="M78.6,21.6c0.8,0,1.4,0.6,1.4,1.4c0,0.8-0.6,1.4-1.4,1.4c-0.8,0-1.4-0.6-1.4-1.4
			C77.3,22.2,77.9,21.6,78.6,21.6z M78.6,24.1c0.6,0,1.1-0.5,1.1-1.2c0-0.6-0.5-1.2-1.1-1.2c-0.6,0-1.1,0.5-1.1,1.2
			C77.5,23.6,78,24.1,78.6,24.1z M78.1,22.3h0.6c0.1,0,0.5,0,0.5,0.4c0,0.1,0,0.2-0.2,0.3v0c0.2,0,0.2,0.2,0.2,0.3
			c0,0.2,0,0.3,0.1,0.3h-0.3c-0.1-0.1,0-0.1-0.1-0.3c0-0.1,0-0.3-0.3-0.3h-0.2v0.6h-0.3V22.3z M78.4,22.9h0.3
			c0.2,0,0.3-0.1,0.3-0.2c0-0.2-0.1-0.2-0.3-0.2h-0.3V22.9z"/>
	</g>
</g>
</svg>
