<?xml version="1.0" encoding="utf-8"?>
<!DOCTYPE svg PUBLIC "-//W3C//DTD SVG 1.1//EN" "http://www.w3.org/Graphics/SVG/1.1/DTD/svg11.dtd">
<svg version="1.1" xmlns="http://www.w3.org/2000/svg" xmlns:xlink="http://www.w3.org/1999/xlink" width="32" height="32" viewBox="0 0 32 32">
<path fill="#858370" class="icons-background" d="M27 4c0.6 0 1 0.4 1 1v5h-26v-5c0-0.6 0.4-1 1-1h3v4h2v-4h14v4h2v-4h3zM6 4h2v-4h-2v4zM22 4h2v-4h-2v4zM4 30h6v-4h-6v4zM4 24h6v-4h-6v4zM4 18h6v-4h-6v4zM12 30h6v-4h-6v4zM12 24h6v-4h-6v4zM12 18h6v-4h-6v4zM20 30h6v-4h-6v4zM20 24h6v-4h-6v4zM20 18h6v-4h-6v4zM2 12h26v18c0 1.1-0.9 2-2 2h-22c-1.1 0-2-0.9-2-2v-18z"></path>
</svg>
