<?xml version="1.0" encoding="utf-8"?>
<!DOCTYPE svg PUBLIC "-//W3C//DTD SVG 1.1//EN" "http://www.w3.org/Graphics/SVG/1.1/DTD/svg11.dtd">
<svg version="1.1" xmlns="http://www.w3.org/2000/svg" xmlns:xlink="http://www.w3.org/1999/xlink" width="32" height="32" viewBox="0 0 32 32">
<path fill="#716f7d" class="icons-background" d="M4.3 12.3c0.4 0.5 0.7 1.1 0.9 1.7s0.3 1.3 0.3 2c0 0.7-0.1 1.4-0.3 2s-0.5 1.2-0.9 1.7c-0.5 0.7-0.4 1.7 0.3 2.2s1.7 0.4 2.2-0.3c0.6-0.8 1-1.6 1.4-2.6s0.5-2 0.5-3c0-1-0.2-2-0.5-3-0.3-0.9-0.8-1.8-1.4-2.6-0.5-0.7-1.5-0.8-2.2-0.3s-0.8 1.5-0.3 2.2z"></path>
<path fill="#716f7d" class="icons-background" d="M9.8 9.4c1.2 1.9 1.9 4.2 1.9 6.6s-0.7 4.7-1.9 6.6c-0.5 0.7-0.2 1.7 0.5 2.2 0.8 0.5 1.7 0.2 2.2-0.5 1.5-2.4 2.4-5.2 2.4-8.3 0-3-0.9-5.9-2.4-8.3-0.5-0.7-1.5-1-2.2-0.5s-1 1.4-0.5 2.2z"></path>
<path fill="#716f7d" class="icons-background" d="M15.6 6.4c1.7 2.8 2.6 6.1 2.6 9.6s-1 6.8-2.6 9.6c-0.4 0.8-0.2 1.7 0.6 2.2 0.8 0.4 1.7 0.2 2.2-0.6 2-3.3 3.1-7.1 3.1-11.2s-1.1-7.9-3.1-11.2c-0.4-0.8-1.4-1-2.2-0.6-0.8 0.5-1 1.4-0.6 2.2z"></path>
<path fill="#716f7d" class="icons-background" d="M21.4 3.4c2.1 3.7 3.4 8 3.4 12.6s-1.2 8.9-3.4 12.6c-0.4 0.8-0.2 1.7 0.6 2.2 0.8 0.4 1.7 0.2 2.2-0.6 2.4-4.2 3.8-9 3.8-14.2s-1.4-10-3.8-14.2c-0.4-0.8-1.4-1-2.2-0.6s-1 1.4-0.6 2.2z"></path>
</svg>
