<?xml version="1.0" encoding="utf-8"?>
<!DOCTYPE svg PUBLIC "-//W3C//DTD SVG 1.1//EN" "http://www.w3.org/Graphics/SVG/1.1/DTD/svg11.dtd">
<svg version="1.1" xmlns="http://www.w3.org/2000/svg" xmlns:xlink="http://www.w3.org/1999/xlink" width="32" height="32" viewBox="0 0 32 32">
<path fill="#2d373e" class="icons-background" d="M24 32h-20c-2.2 0-4-1.8-4-4v-20c0-2.2 1.8-4 4-4h12v2h-12c-1.1 0-2 0.9-2 2v20c0 1.1 0.9 2 2 2h20c1.1 0 2-0.9 2-2v-12h2v12c0 2.2-1.8 4-4 4zM25 0c-3.9 0-7 3.1-7 7s3.1 7 7 7 7-3.1 7-7-3.1-7-7-7z"></path>
</svg>
