<?xml version="1.0" encoding="utf-8"?>
<!DOCTYPE svg PUBLIC "-//W3C//DTD SVG 1.1//EN" "http://www.w3.org/Graphics/SVG/1.1/DTD/svg11.dtd">
<svg aria-labelledby="title" version="1.1" id="Art" xmlns="http://www.w3.org/2000/svg" xmlns:xlink="http://www.w3.org/1999/xlink" x="0px" y="0px"
	 width="82px" height="44px" viewBox="0 0 82 44" enable-background="new 0 0 82 44" xml:space="preserve">
<title id="title" lang="en">Bank SA logo</title>

<rect opacity="0" fill="#FFFFFF" width="82" height="44"/>
<g>
	<path fill="#E91B2B" d="M44.5,28c-1,0-1.5-0.5-1.5-1.5c0-0.6,0-17,0-17c0-1,0.5-1.5,1.5-1.5h24c1,0,1.5,0.5,1.5,1.5v29.8
		c0,0.4-0.3,0.7-0.8,0.7c0,0,0.3,0,0,0c-0.5,0-0.6-0.4-0.8-0.6C61.4,27.7,44.5,28,44.5,28z"/>
	<g>
		<g>
			<path fill="#FFFFFF" d="M61.9,13.4l-1.6,6.6c0,0,0,0.1,0,0.1l3.4,0c0,0,0.1,0,0-0.1l-1.6-6.6C62.1,13.1,62,13.1,61.9,13.4z
				 M63.7,10.1c0.3,0,0.5,0.2,0.6,0.4l3.7,14.3c0,0.2,0.1,0.3,0.1,0.4c0,0.2-0.2,0.5-0.5,0.5l-1.8,0c-0.3,0-0.5-0.2-0.5-0.5
				l-0.7-2.7c0,0,0,0,0,0l-4.6,0c0,0,0,0,0,0L59,25.2c-0.1,0.3-0.2,0.5-0.5,0.5l-1.8,0c-0.3,0-0.5-0.2-0.5-0.5c0,0,0-0.2,0.1-0.4
				l3.7-14.3c0-0.2,0.3-0.4,0.6-0.4L63.7,10.1z"/>
		</g>
		<path fill="#FFFFFF" d="M48.2,13.8c0,1.1,0.6,1.5,1.8,2.2l2.7,1.6c1.8,1.1,2.6,2.2,2.6,4.3c0,2.8-2.1,4.1-5,4.1
			c-2.9,0-5-1.4-5-4.2l0-0.9c0-0.3,0.3-0.6,0.7-0.6l1.5,0c0.4,0,0.7,0.3,0.7,0.6l0,0.9c0,1.1,0.8,1.8,2,1.8c1.3,0,2-0.5,2-1.7h0
			c0-1.4-1.2-2-2-2.5l-3-1.8c-1.4-0.8-2-2.3-2-3.6c0-2.8,2-4.4,5-4.4c2.9,0,5,1.4,5,4.3l0,0.5c0,0.3-0.3,0.6-0.7,0.6L53,15
			c-0.4,0-0.7-0.3-0.7-0.6l0-0.5c0-1.1-0.7-2-2-2C48.9,11.9,48.2,12.6,48.2,13.8L48.2,13.8z"/>
	</g>
	<g>
		<path fill="#002F6C" d="M16.7,20.2C16.7,20.1,16.7,20.1,16.7,20.2L14,21.3c-0.8,0.3-0.9,0.9-0.9,1.3c0,0.7,0.2,1.5,1.8,1.5
			c1.1,0,1.9-0.8,1.9-1.7L16.7,20.2z M10.1,22.9c0-1.8,0.9-2.8,2.4-3.3l3-1.1c0.9-0.3,1.2-0.6,1.2-1.2c0-0.8-0.6-1.3-1.7-1.3
			c-1,0-1.7,0.6-1.7,1.4l0,0c0,0.3-0.3,0.6-0.7,0.6l-1.3,0c-0.4,0-0.7-0.3-0.7-0.6l0,0c0-2.1,1.8-3.6,4.5-3.6c2.9,0,4.3,1.7,4.3,3.8
			l0,7.6c0,0.3-0.3,0.6-0.7,0.6l-1.3,0c-0.4,0-0.7-0.3-0.7-0.6l0-0.1c0-0.2-0.1-0.2-0.2-0.1c-0.7,0.7-1.7,1.1-2.8,1.1
			C12.2,26,10.1,25.3,10.1,22.9"/>
		<path fill="#002F6C" d="M32,10.9c0-0.3,0.3-0.6,0.7-0.6l1.3,0c0.4,0,0.7,0.3,0.7,0.6l0,7.4c0,0.2,0.1,0.3,0.2,0.1l3-3.6
			c0.3-0.3,0.4-0.5,0.8-0.5l1.6,0c0.4,0,0.7,0.2,0.7,0.4c0,0.1,0,0.3-0.1,0.4l-3.4,4.1c0,0,0,0.1,0,0.2l3.9,5.4
			c0.1,0.1,0.1,0.3,0.1,0.3c0,0.3-0.3,0.5-0.7,0.5l-1.5,0c-0.4,0-0.7-0.3-0.8-0.6L35,20.4c-0.1-0.2-0.3-0.2-0.3,0.1l0,4.7
			c0,0.3-0.3,0.6-0.7,0.6l-1.3,0c-0.4,0-0.7-0.3-0.7-0.6L32,10.9z"/>
		<path fill="#002F6C" d="M30.2,17c0-1.7-1.3-3.2-3.2-3.2c-1.2,0-2.2,0.5-2.7,1.3c-0.1,0.2-0.3,0.2-0.3-0.1v-0.2
			c0-0.3-0.3-0.6-0.7-0.6l-1.3,0c-0.4,0-0.7,0.3-0.7,0.6l0,3.9v6.1h0l0,0.5c0,0.3,0.3,0.6,0.7,0.6l1.3,0c0.4,0,0.7-0.3,0.7-0.6
			l0-0.5V17c0.2-0.4,0.7-0.9,1.3-1c0.1,0,0.3-0.1,0.4-0.1c0.5,0,0.9,0.2,1.2,0.4c0,0,0,0,0,0c0,0,0,0,0,0c0.2,0.2,0.4,0.5,0.4,0.9
			c0,0.1,0,0.3,0,0.4l0,7.5c0,0.3,0.3,0.6,0.7,0.6l1.3,0c0.4,0,0.7-0.3,0.7-0.6L30.2,17z"/>
		<path fill="#002F6C" d="M8.9,16.8c0-1.7-1.5-3-3.2-3c-1.2,0-2.2,0.5-2.7,1.3c-0.1,0.2-0.3,0.2-0.3-0.1l0-4c0-0.3-0.3-0.6-0.7-0.6
			l-1.3,0c-0.4,0-0.7,0.3-0.7,0.6l0,14.2c0,0.3,0.3,0.6,0.7,0.6l1.3,0c0.4,0,0.7-0.3,0.7-0.6V25c0-0.2,0.1-0.3,0.3-0.1
			C3.6,25.7,4.5,26,5.7,26c1.8,0,3.2-1.3,3.2-3.1c0,0,0.1-1.2,0.1-3S8.9,16.8,8.9,16.8z M6.2,22.2c0,1-0.6,1.7-1.7,1.7
			c-0.7,0-1.5-0.4-1.7-1.1v-5.8c0.3-0.6,1-1,1.7-1c1.1,0,1.7,0.7,1.7,1.7c0,0,0,0.6,0,2C6.2,21.4,6.2,22.2,6.2,22.2z"/>
	</g>
</g>
</svg>
