<?xml version="1.0" encoding="utf-8"?>
<!DOCTYPE svg PUBLIC "-//W3C//DTD SVG 1.1//EN" "http://www.w3.org/Graphics/SVG/1.1/DTD/svg11.dtd">
<svg version="1.1" xmlns="http://www.w3.org/2000/svg" xmlns:xlink="http://www.w3.org/1999/xlink" width="32" height="32" viewBox="0 0 32 32">
<path fill="#2d373e" class="icons-background" d="M30 3v26c0 1.7-1.3 3-3 3h-23v-2h2v-4h-2v-2h2v-4h-2v-2h2v-4h-2v-2h2v-4h-2v-2h2v-4h-2v-2h23c1.7 0 3 1.3 3 3zM2 14v4h2v-4h-2zM2 8v4h2v-4h-2zM2 20v4h2v-4h-2zM2 26v4h2v-4h-2zM2 2v4h2v-4h-2zM14 12c0 2.2 1.8 4 4 4s4-1.8 4-4c0-2.2-1.8-4-4-4s-4 1.8-4 4zM24 22c0-2.2-1.8-4-4-4h-4c-2.2 0-4 1.8-4 4v2h12v-2z"></path>
</svg>
