<?xml version="1.0" encoding="utf-8"?>
<!DOCTYPE svg PUBLIC "-//W3C//DTD SVG 1.1//EN" "http://www.w3.org/Graphics/SVG/1.1/DTD/svg11.dtd">
<svg version="1.1" xmlns="http://www.w3.org/2000/svg" xmlns:xlink="http://www.w3.org/1999/xlink" width="32" height="32" viewBox="0 0 32 32">
<path fill="#2d373e" class="icons-background" d="M22.5 21l1.9 2.5c-2.2 2.7-5.6 4.5-9.4 4.5-6.6 0-12-5.4-12-12 0-0.3 0-0.7 0.1-1h-3.1l4.5-6 4.5 6h-2.9c-0.1 0.3-0.1 0.7-0.1 1 0 5 4 9 9 9 3.1 0 5.9-1.6 7.5-4v0zM26.9 15c-0.5-6.1-5.6-11-11.9-11-3.3 0-6.4 1.4-8.6 3.6l1.9 2.4c1.6-1.9 4-3 6.7-3 4.6 0 8.4 3.5 8.9 8h-2.9l4.5 6 4.5-6h-3.1z"></path>
</svg>
