<?xml version="1.0" encoding="utf-8"?>
<!DOCTYPE svg PUBLIC "-//W3C//DTD SVG 1.1//EN" "http://www.w3.org/Graphics/SVG/1.1/DTD/svg11.dtd">
<svg aria-labelledby="title" version="1.1" xmlns="http://www.w3.org/2000/svg" xmlns:xlink="http://www.w3.org/1999/xlink" width="32" height="32" viewBox="0 0 32 32">
<title id="title" lang="en">Search</title>

<path fill="#2d373e" class="icons-background" d="M30.1 26.9l-8.1-8.2c1.3-1.9 2-4.2 2-6.7 0-6.6-5.4-12-12-12s-12 5.4-12 12 5.4 12 12 12c2 0 3.8-0.5 5.4-1.3l8.4 8.4c0.6 0.6 1.4 0.9 2.1 0.9s1.5-0.3 2.1-0.9c1.3-1.2 1.3-3 0.1-4.2zM4 12c0-4.4 3.6-8 8-8s8 3.6 8 8-3.6 8-8 8-8-3.6-8-8z"></path>
</svg>
