<?xml version="1.0" encoding="utf-8"?>
<!DOCTYPE svg PUBLIC "-//W3C//DTD SVG 1.1//EN" "http://www.w3.org/Graphics/SVG/1.1/DTD/svg11.dtd">
<svg aria-labelledby="title" version="1.1" xmlns="http://www.w3.org/2000/svg" xmlns:xlink="http://www.w3.org/1999/xlink" width="32" height="32" viewBox="0 0 32 32">
<title id="title" lang="en">Money-out</title>

<path fill="#0d0d0d" class="icons-background" d="M16.3,21.4c0.3-0.1,0.5-0.2,0.8-0.4c0.2-0.2,0.4-0.4,0.6-0.6c0.1-0.3,0.2-0.6,0.2-0.9c0-0.6-0.2-1-0.5-1.3 c-0.4-0.3-1-0.5-1.8-0.8v4.2C15.8,21.5,16,21.5,16.3,21.4 M13.5,10.4c-0.2,0.1-0.4,0.2-0.6,0.3c-0.2,0.2-0.3,0.3-0.5,0.6 c-0.1,0.2-0.2,0.5-0.2,0.8c0,0.5,0.2,0.9,0.5,1.1c0.3,0.3,0.8,0.5,1.5,0.6v-3.6C14,10.3,13.7,10.3,13.5,10.4 M12.5,20.7 c0.5,0.5,1,0.8,1.7,0.9V17c-0.1,0-0.2-0.1-0.3-0.1s-0.3-0.1-0.4-0.1c-0.5-0.1-1.1-0.3-1.6-0.5c-0.5-0.2-1-0.5-1.4-0.8 c-0.4-0.3-0.8-0.7-1-1.2c-0.2-0.5-0.4-1.1-0.4-1.8c0-0.7,0.1-1.4,0.4-2c0.3-0.6,0.7-1.1,1.1-1.4c0.5-0.4,1-0.7,1.6-0.9 c0.6-0.2,1.3-0.3,1.9-0.4V6h1.3v1.7c0.7,0.1,1.3,0.2,1.9,0.4c0.6,0.2,1.1,0.5,1.5,0.9c0.4,0.4,0.8,0.8,1.1,1.4 c0.3,0.6,0.4,1.2,0.5,2h-3.1c0-0.6-0.2-1.1-0.5-1.5c-0.4-0.4-0.8-0.6-1.3-0.6v3.9c0.2,0,0.4,0.1,0.5,0.1c0.2,0,0.4,0.1,0.6,0.2 c1.1,0.3,1.9,0.7,2.5,1.1c0.6,0.4,1,0.9,1.3,1.4c0.3,0.5,0.4,0.9,0.5,1.4c0.1,0.5,0.1,0.9,0.1,1.3c0,0.3-0.1,0.7-0.2,1.2 c-0.2,0.5-0.5,1-0.9,1.4c-0.4,0.5-1,0.9-1.7,1.3c-0.7,0.4-1.6,0.6-2.7,0.7V26h-1.3v-1.9c-1.6-0.1-2.9-0.6-3.8-1.5 c-0.9-0.9-1.5-2.2-1.6-3.9h3.1C11.8,19.5,12.1,20.2,12.5,20.7 M24,24V8l8,8L24,24z M0,16C0,7.2,7.2,0,16,0c5.4,0,10.2,2.7,13.1,6.9 l-1.4,1.4C25.2,4.5,20.9,2,16,2C8.3,2,2,8.3,2,16c0,7.7,6.3,14,14,14c4.9,0,9.2-2.5,11.7-6.3l1.4,1.4C26.2,29.3,21.4,32,16,32 C7.2,32,0,24.8,0,16z"></path>
</svg>
