<?xml version="1.0" encoding="utf-8"?>
<!DOCTYPE svg PUBLIC "-//W3C//DTD SVG 1.1//EN" "http://www.w3.org/Graphics/SVG/1.1/DTD/svg11.dtd">
<svg aria-labelledby="title" version="1.1" xmlns="http://www.w3.org/2000/svg" xmlns:xlink="http://www.w3.org/1999/xlink" width="32" height="32" viewBox="0 0 32 32">
<title id="title" lang="en">Zip-file</title>

<path fill="#20262d" class="icons-background" d="M12 6h4v2h-4v-2zM8 8h4v2h-4v-2zM12 10h4v2h-4v-2zM8 12h4v2h-4v-2zM12 14h4v2h-4v-2zM8 16h4v2h-4v-2zM12 18v2h-4v7c0 0.6 0.4 1 1 1h6c0.6 0 1-0.4 1-1v-9h-4zM14 26h-4v-2h4v2zM22 0h-20v32h28v-24l-8-8zM28 30h-24v-28h18v6h6v22z"></path>
</svg>