<?xml version="1.0" encoding="utf-8"?>
<!DOCTYPE svg PUBLIC "-//W3C//DTD SVG 1.1//EN" "http://www.w3.org/Graphics/SVG/1.1/DTD/svg11.dtd">
<svg aria-labelledby="title" version="1.1" xmlns="http://www.w3.org/2000/svg" xmlns:xlink="http://www.w3.org/1999/xlink" width="32" height="32" viewBox="0 0 32 32">
<title id="title" lang="en">Dollar</title>

<path fill="#20262d" class="icons-background" d="M17.6 21.4c0.3-0.1 0.5-0.2 0.8-0.4 0.2-0.2 0.4-0.4 0.6-0.6 0.1-0.3 0.2-0.6 0.2-0.9 0-0.6-0.2-1-0.5-1.3-0.4-0.3-1-0.5-1.8-0.8v4.2c0.1-0.1 0.4-0.1 0.7-0.2zM14.7 10.4c-0.2 0.1-0.4 0.2-0.6 0.3-0.2 0.2-0.3 0.3-0.5 0.6-0.1 0.2-0.2 0.5-0.2 0.8 0 0.5 0.2 0.9 0.5 1.1 0.3 0.3 0.8 0.5 1.5 0.6v-3.6c-0.2 0.1-0.4 0.1-0.7 0.2zM13.8 20.7c0.5 0.5 1 0.8 1.7 0.9v-4.6c-0.1 0-0.2-0.1-0.3-0.1s-0.3-0.1-0.4-0.1c-0.5-0.1-1.1-0.3-1.6-0.5s-1-0.5-1.4-0.8c-0.4-0.3-0.8-0.7-1-1.2s-0.4-1.1-0.4-1.8c0-0.7 0.1-1.4 0.4-2s0.7-1.1 1.1-1.4c0.5-0.4 1-0.7 1.6-0.9s1.3-0.3 1.9-0.4v-1.8h1.3v1.7c0.7 0.1 1.3 0.2 1.9 0.4s1.1 0.5 1.5 0.9c0.4 0.4 0.8 0.8 1.1 1.4s0.4 1.2 0.5 2h-3.1c0-0.6-0.2-1.1-0.5-1.5-0.4-0.4-0.8-0.6-1.3-0.6v3.9c0.2 0 0.4 0.1 0.5 0.1 0.2 0 0.4 0.1 0.6 0.2 1.1 0.3 1.9 0.7 2.5 1.1s1 0.9 1.3 1.4c0.3 0.5 0.4 0.9 0.5 1.4s0.1 0.9 0.1 1.3c0 0.3-0.1 0.7-0.2 1.2-0.2 0.5-0.5 1-0.9 1.4-0.4 0.5-1 0.9-1.7 1.3s-1.6 0.6-2.7 0.7v1.7h-1.3v-1.9c-1.6-0.1-2.9-0.6-3.8-1.5s-1.5-2.2-1.6-3.9h3.1c-0.1 0.8 0.1 1.5 0.6 2zM32 16c0 8.8-7.2 16-16 16s-16-7.2-16-16 7.2-16 16-16 16 7.2 16 16zM16 2c-7.7 0-14 6.3-14 14s6.3 14 14 14 14-6.3 14-14-6.3-14-14-14z"></path>
</svg>