<?xml version="1.0" encoding="utf-8"?>
<!DOCTYPE svg PUBLIC "-//W3C//DTD SVG 1.1//EN" "http://www.w3.org/Graphics/SVG/1.1/DTD/svg11.dtd">
<svg aria-labelledby="title" version="1.1" xmlns="http://www.w3.org/2000/svg" xmlns:xlink="http://www.w3.org/1999/xlink" width="32" height="32" viewBox="0 0 32 32">
<title id="title" lang="en">Switch</title>

<path fill="#20262d" class="icons-background" d="M32 8l-8-8v6c-4.1 0-7.2 1-9.6 3-0.2 0.1-0.3 0.3-0.5 0.4 0.9 1.2 1.5 2.4 2.1 3.6 1.5-1.8 3.7-3 7.9-3v12c-6.8 0-8.3-3-10.2-6.9-1-2.1-2.1-4.4-4.1-6.1-2.4-2-5.5-3-9.6-3v4c6.8 0 8.3 3 10.2 6.9 1.1 2.1 2.2 4.4 4.2 6.1 2.3 2 5.5 3 9.6 3v6l8-8-8-8 8-8zM0 22v4c4.1 0 7.2-1 9.6-3 0.2-0.1 0.3-0.3 0.5-0.4-0.9-1.2-1.5-2.4-2.1-3.6-1.6 1.8-3.8 3-8 3z"></path>
</svg>