<?xml version="1.0" encoding="utf-8"?>
<!DOCTYPE svg PUBLIC "-//W3C//DTD SVG 1.1//EN" "http://www.w3.org/Graphics/SVG/1.1/DTD/svg11.dtd">
<svg version="1.1" xmlns="http://www.w3.org/2000/svg" xmlns:xlink="http://www.w3.org/1999/xlink" width="32" height="32" viewBox="0 0 32 32">
<path fill="#858370" class="icons-background" d="M32 29c0 1.7-1.3 3-3 3h-26c-1.7 0-3-1.3-3-3v-26c0-1.7 1.3-3 3-3h26c1.7 0 3 1.3 3 3v26zM28 12h-6v-3c0-1.3 0.2-2 1.5-2h4.5v-5h-5.5c-4.8 0-6.5 2-6.5 6.5v3.5h-3v4h3v14h6v-14h5l1-4z"></path>
</svg>
