<?xml version="1.0" encoding="utf-8"?>
<!DOCTYPE svg PUBLIC "-//W3C//DTD SVG 1.1//EN" "http://www.w3.org/Graphics/SVG/1.1/DTD/svg11.dtd">
<svg aria-labelledby="title" version="1.1" xmlns="http://www.w3.org/2000/svg" xmlns:xlink="http://www.w3.org/1999/xlink" width="32" height="32" viewBox="0 0 32 32">
<title id="title" lang="en">Bpay</title>

<path fill="#0d0d0d" class="icons-background" d="M16.6 24.6c-0.1-0.2-0.1-0.3-0.4-0.3h-0.7c-0.3 0-0.3 0.1-0.4 0.3s-2.1 5.5-2.1 5.5-0.1 0.2 0.2 0.2c0.3 0 0.4 0 0.5 0s0.3 0 0.4-0.2c0.1-0.2 0.4-1 0.4-1h2.9c0 0 0.3 0.8 0.4 1s0.2 0.2 0.4 0.2c0.1 0 0.2 0 0.5 0s0.2-0.2 0.2-0.2-2.2-5.4-2.3-5.5zM14.8 28.1l1-2.8 1.1 2.8h-2.1zM12.5 7.2h4.1c1.1 0 2 0.9 2 1.9s-0.9 1.9-2 1.9h-0.7c-0.4 0-0.6 0.2-0.6 0.6v2.4c0 0.4 0.3 0.6 0.6 0.6h1.8c1.2 0 2.1 0.9 2.1 2.1 0 1.1-0.9 2-1.9 2h-4.8c-0.4 0-0.6-0.2-0.6-0.6v-10.9zM4 2v0c0-1 1-2 2-2 0 0 0.8 0 2.8 0v3.7h-4.8c0-2 0-1.7 0-1.7zM28 30c0 1-1 2-2 2h-19c0.9 0-1 0-1 0-1 0-2-1-2-2 0 0 0-13.4 0-22.7h7.3l-2.5 0.9v13.6c0 0.4 0.2 0.6 0.5 0.6h8.7c2.9-0.1 5.3-2.4 5.3-5.3 0-1.9-1-3.5-2.5-4.5 1-0.8 1.7-2.2 1.7-3.5 0-3.5-2.6-5.5-6.2-5.5h-3.6v-3.6c5.9 0 13.3 0 13.3 0 1 0 2 1 2 2v28zM11.3 24.3h-2.3c-0.2 0-0.2 0.2-0.2 0.3s0 5.6 0 5.6c0 0.2 0.2 0.2 0.2 0.2h0.6c0.1 0 0.2-0.1 0.2-0.2v-2h1.5c1.1 0 2-0.9 2-1.9 0-1.1-0.9-2-2-2zM11.3 27.2h-1.5v-1.9h1.4c0.5 0 1 0.4 1 1 0 0.5-0.4 0.9-0.9 0.9zM22.8 24.3c-0.3 0-0.5 0-0.6 0s-0.3 0-0.4 0.2l-0.2 0.5-1.1 2-1.2-2-0.3-0.4c-0.1-0.2-0.2-0.2-0.4-0.2-0.1 0-0.3 0-0.6 0s-0.2 0.2-0.2 0.2 1.1 2 2.1 3.6c0 0 0 1.9 0 2s0.1 0.2 0.2 0.2h0.5c0.1 0 0.3 0 0.3-0.2v-2c0.9-1.6 2.1-3.6 2.1-3.6s0.1-0.3-0.2-0.3z"></path>
</svg>
