<?xml version="1.0" encoding="utf-8"?>
<!DOCTYPE svg PUBLIC "-//W3C//DTD SVG 1.1//EN" "http://www.w3.org/Graphics/SVG/1.1/DTD/svg11.dtd">
<svg aria-labelledby="title" version="1.1" xmlns="http://www.w3.org/2000/svg" xmlns:xlink="http://www.w3.org/1999/xlink" width="32" height="32" viewBox="0 0 32 32">
	<title id="title" lang="en">Telephone</title>

	<path fill="#004833" class="icons-background" d="M9.9,10.8c-1.2,0.9-0.4,2.5,0.6,4.1c1.4,2.2,3,4.3,4.4,5.8c1.7,1.8,2.8,2.8,3.7,2.8c0.3,0,0.5-0.1,0.8-0.3 l6.2,8.1c-0.4,0.3-1.3,0.7-2.7,0.7c-3.2,0-8.6-1.9-15-10.5C-0.8,9.7,2.4,3.7,3.6,2.5L9.9,10.8z M23,20.7c-0.2,0-0.5,0.1-0.7,0.2 l-2.3,1.8l6.2,8.1l2.3-1.8l0,0c0.5-0.4,0.6-1.1,0.2-1.6l0,0l-4.8-6.3C23.7,20.9,23.4,20.7,23,20.7 M7.2,0C7,0,6.7,0.1,6.5,0.2 L4.2,2l6.3,8.3l2.3-1.8v0c0.5-0.4,0.6-1.1,0.2-1.6l0,0l-5-6.5C7.9,0.1,7.5,0,7.2,0"/>
</svg>