<?xml version="1.0" encoding="utf-8"?>
<!DOCTYPE svg PUBLIC "-//W3C//DTD SVG 1.1//EN" "http://www.w3.org/Graphics/SVG/1.1/DTD/svg11.dtd">
<svg aria-labelledby="title[Filename]" version="1.1" id="Art" xmlns="http://www.w3.org/2000/svg" xmlns:xlink="http://www.w3.org/1999/xlink" x="0px" y="0px" width="82px" height="44px" viewBox="0 0 82 44" enable-background="new 0 0 82 44" xml:space="preserve">
	<title id="title[Filename]" lang="en">BT logo</title>

	<path d="M8.1 22.9c-0.5 0-0.9-0.4-0.9-0.9 0-0.5 0.4-0.9 0.9-0.9h13c-0.2-1.5-0.8-2.9-1.9-4 0 0 0 0-0.1-0.1l-1.6-1.6c0 0 0 0-0.1-0.1L12 10 0 22l12 12 5.3-5.3c0 0 0.1-0.1 0.1-0.1L19 27c0 0 0.1-0.1 0.1-0.1 1.1-1.1 1.7-2.5 1.9-4H8.1z" fill="#7998AC"/>
	<polygon points="58.5 10.8 41.9 10.8 41.9 15.1 48 15.1 48 33.7 52.6 33.7 52.6 15.1 58.7 15.1 58.7 10.8 "/>
	<path d="M38.9 21.5c1.4-1.1 2.1-2.6 2.1-4.4 0-2-0.6-3.5-1.8-4.6 -1.2-1.1-3-1.7-5.2-1.7H23.6h-0.2v9.1l2.6 2.1 -2.6 2.1v9.6h11.2c4.4 0 7.3-2.7 7.3-6.8C41.9 24.5 40.9 22.6 38.9 21.5M28.1 15h6c1.5 0 2.5 0.9 2.5 2.3 0 1.4-1 2.4-2.5 2.4h-6V15zM34.1 29.5h-6v-5.5H34c2.1 0 3.2 1 3.2 2.8C37.2 29 35.5 29.5 34.1 29.5"/>
</svg>