<?xml version="1.0" encoding="utf-8"?>
<!DOCTYPE svg PUBLIC "-//W3C//DTD SVG 1.1//EN" "http://www.w3.org/Graphics/SVG/1.1/DTD/svg11.dtd">
<svg aria-labelledby="title" version="1.1" xmlns="http://www.w3.org/2000/svg" xmlns:xlink="http://www.w3.org/1999/xlink" width="32" height="32" viewBox="0 0 32 32">
<title id="title" lang="en">Limit</title>

<path fill="#004833" class="icons-background" d="M16 0c-8.8 0-16 7.2-16 16s7.2 16 16 16 16-7.2 16-16-7.2-16-16-16zM30 16c0 2.9-0.9 5.6-2.4 7.9l-19.5-19.5c2.3-1.5 5-2.4 7.9-2.4 7.7 0 14 6.3 14 14zM2 16c0-2.6 0.7-5.1 2-7.2l19.2 19.2c-2.1 1.3-4.6 2-7.2 2-7.7 0-14-6.3-14-14z"></path>
</svg>
