<?xml version="1.0" encoding="utf-8"?>
<!DOCTYPE svg PUBLIC "-//W3C//DTD SVG 1.1//EN" "http://www.w3.org/Graphics/SVG/1.1/DTD/svg11.dtd">
<svg aria-labelledby="title" version="1.1" xmlns="http://www.w3.org/2000/svg" xmlns:xlink="http://www.w3.org/1999/xlink" width="32" height="32" viewBox="0 0 32 32">
<title id="title" lang="en">ATM</title>

<path fill="#333" class="icons-background" d="M29 14h-1l-0.5-2h1.5c0.6 0 1-0.4 1-1v-8c0-0.6-0.4-1-1-1h-26c-0.6 0-1 0.4-1 1v8c0 0.6 0.4 1 1 1h1.5l-0.5 2h-1c-2 0-3-1.3-3-3v-8c0-1.7 1.3-3 3-3h26c1.7 0 3 1.3 3 3v8c0 1.7-1 3-3 3zM28 26h-24v2h24v-2zM28 30h-24v2h24v-2zM4 24h24l-4-20h-16l-4 20zM17.6 17.7c0.3-0.1 0.6-0.2 0.8-0.3s0.4-0.3 0.5-0.4c0.1-0.2 0.2-0.4 0.2-0.6 0-0.4-0.2-0.6-0.6-0.8s-1-0.3-1.8-0.5l0.1 2.7c0.3 0 0.6-0.1 0.8-0.1zM14.8 11.3c-0.2 0-0.4 0.1-0.6 0.2s-0.3 0.2-0.4 0.3c-0.1 0.1-0.2 0.3-0.2 0.4 0 0.3 0.1 0.4 0.4 0.6 0.3 0.1 0.7 0.3 1.4 0.3v-1.9c-0.1 0.1-0.4 0.1-0.6 0.1zM13.7 17.2c0.5 0.3 1 0.5 1.7 0.6v-2.9c-0.1 0-0.2 0-0.3-0.1-0.1 0-0.3 0-0.4-0.1-0.5-0.1-1-0.2-1.5-0.3s-0.9-0.3-1.3-0.5c-0.4-0.2-0.7-0.4-0.9-0.7s-0.3-0.6-0.2-1c0-0.4 0.2-0.7 0.5-1s0.6-0.5 1.1-0.7c0.4-0.2 0.9-0.3 1.4-0.4s1.1-0.2 1.7-0.2v-0.8h1.1v0.8c0.6 0 1.1 0.1 1.6 0.2s1 0.2 1.4 0.4c0.4 0.2 0.7 0.4 1 0.7s0.5 0.6 0.6 1h-2.9c0-0.3-0.2-0.6-0.5-0.8s-0.7-0.3-1.2-0.3v2c0.2 0 0.3 0 0.5 0.1 0.2 0 0.4 0.1 0.6 0.1 1 0.2 1.8 0.4 2.4 0.6s1 0.5 1.3 0.8c0.3 0.3 0.5 0.6 0.6 0.8 0.1 0.3 0.2 0.6 0.2 0.8s0 0.5-0.1 0.8c-0.1 0.3-0.4 0.7-0.8 1s-1 0.6-1.7 0.9c-0.7 0.3-1.7 0.4-2.9 0.5v1.4h-1.5v-1.4c-1.8-0.1-3.1-0.5-4.1-1.1-0.7-0.5-1.1-1.4-1.1-2.5h3.1c0 0.5 0.2 1 0.6 1.3z"></path>
</svg>
