<?xml version="1.0" encoding="utf-8"?>
<!DOCTYPE svg PUBLIC "-//W3C//DTD SVG 1.1//EN" "http://www.w3.org/Graphics/SVG/1.1/DTD/svg11.dtd">
<svg version="1.1" xmlns="http://www.w3.org/2000/svg" xmlns:xlink="http://www.w3.org/1999/xlink" width="32" height="32" viewBox="0 0 32 32">
<path fill="#333" class="icons-background" d="M23 23.1c-0.6-0.1-0.6-1.7-0.6-1.7s1.7-1.7 2.1-4c1 0 1.6-2.4 0.6-3.3 0-0.9 1.3-7.1-5.1-7.1s-5.2 6.2-5.1 7.1c-1 0.9-0.4 3.3 0.6 3.3 0.4 2.3 2.1 4 2.1 4s0 1.6-0.6 1.7c-1.9 0.3-9 3.4-9 6.8h24c0-3.4-7.1-6.5-9-6.8zM10.8 23.7c1.4-0.8 3.1-1.6 4.4-2.1-0.5-0.7-1-1.7-1.4-2.8-0.5-0.4-0.9-1-1.1-1.6-0.3-0.7-0.3-1.5-0.3-2.2 0.1-0.5 0.2-1 0.4-1.4-0.1-1.5-0.2-4.3 1.6-6.4 0.7-0.8 1.6-1.4 2.7-1.7-0.1-2.1-1.1-4.5-5.1-4.5-6.4 0-5.2 6.2-5.1 7.1-1 0.9-0.4 3.3 0.6 3.3 0.4 2.3 2.1 4 2.1 4s0 1.6-0.6 1.7c-1.9 0.3-9 3.4-9 6.8h10.3c0.1-0.1 0.3-0.1 0.5-0.2z"></path>
</svg>
