<?xml version="1.0" encoding="utf-8"?>
<!DOCTYPE svg PUBLIC "-//W3C//DTD SVG 1.1//EN" "http://www.w3.org/Graphics/SVG/1.1/DTD/svg11.dtd">
<svg version="1.1" xmlns="http://www.w3.org/2000/svg" xmlns:xlink="http://www.w3.org/1999/xlink" width="32" height="32" viewBox="0 0 32 32">
<path fill="#2d373e" class="icons-background" d="M7.4 17.7c2.9 0.1 4.8-2.9 4.3-6.7s-3.2-6.8-6.1-6.9c-2.9-0.1-4.8 2.8-4.3 6.6s3.2 6.9 6.1 7zM0 17v8c1.7-0.8 3.7-1.1 5.8-1.1 0.7 0 1.3 0 1.9 0-0.8-0.8-1.5-1.8-1.5-3.1 0-0.7 0.2-1.4 0.6-2.1-0.3 0-0.7 0-1 0-2.4 0.1-4.3-0.5-5.8-1.7zM14.3 32c0.1-0.3 0.1-0.7 0.1-1.1s0-0.8-0.1-1.1c-0.5-1.8-2.1-2.7-4.5-4.4-0.9-0.3-1.8-0.4-2.8-0.4-2.8 0-5.5 1.4-7 3v1c0 1.7 1.3 3 3 3h26c1.7 0 3-1.3 3-3v-19h-6v6h-2v-6h-6v-2h6v-6h2v6h6v-5c0-1.7-1.3-3-3-3h-26c-1.7 0-3 1.3-3 3v2c1.8-1.6 4.4-3 7-3 2.8 0 11.2 0 11.2 0l-2.5 2h-3.5c2.3 1 3.6 3.8 3.6 6.6 0 2.4-1.3 4.5-3.2 5.9-1.8 1.4-2.1 2-2.1 3.2 0 1 1.9 2.8 2.9 3.5 2.9 2.1 3.9 4 3.9 7.2 0 0.5-0.1 1-0.2 1.5z"></path>
</svg>
