<?xml version="1.0" encoding="utf-8"?>
<!DOCTYPE svg PUBLIC "-//W3C//DTD SVG 1.1//EN" "http://www.w3.org/Graphics/SVG/1.1/DTD/svg11.dtd">
<svg version="1.1" xmlns="http://www.w3.org/2000/svg" xmlns:xlink="http://www.w3.org/1999/xlink" width="32" height="32" viewBox="0 0 32 32">
<path fill="#2d373e" class="icons-background" d="M32 29c0 1.7-1.3 3-3 3h-26c-1.7 0-3-1.3-3-3v-26c0-1.7 1.3-3 3-3h26c1.7 0 3 1.3 3 3v26zM12 12h-4v14h4v-14zM12 8c0-1.1-0.9-2-2-2s-2 0.9-2 2 0.9 2 2 2c1.1 0 2-0.9 2-2zM26 17c0-2.8-1.5-5-4-5-2 0-3 1.3-4 2.5v-2.5h-4v14h4v-8c0-1.1 0.9-2 2-2s2 0.9 2 2v8h4v-9z"></path>
</svg>
