<?xml version="1.0" encoding="utf-8"?>
<!DOCTYPE svg PUBLIC "-//W3C//DTD SVG 1.1//EN" "http://www.w3.org/Graphics/SVG/1.1/DTD/svg11.dtd">
<svg version="1.1" xmlns="http://www.w3.org/2000/svg" xmlns:xlink="http://www.w3.org/1999/xlink" width="32" height="32" viewBox="0 0 32 32">
<path fill="#2d373e" class="icons-background" d="M32 29c0 1.7-1.3 3-3 3h-26c-1.7 0-3-1.3-3-3v-26c0-1.7 1.3-3 3-3h26c1.7 0 3 1.3 3 3v26zM11.4 23.3c0-1.5-1.2-2.7-2.7-2.7s-2.7 1.2-2.7 2.7c0 1.5 1.2 2.7 2.7 2.7s2.7-1.2 2.7-2.7zM15.5 26h3.9c0-7.4-6.5-13.5-13.5-13.5v3.9c3 0 4.9 1 6.7 2.8 2 1.8 2.9 4.2 2.9 6.8v0zM22.5 26h3.9c0-11.3-9.4-20.4-20.4-20.4v3.9c9 0 16.5 7.4 16.5 16.5v0z"></path>
</svg>
