<?xml version="1.0" encoding="utf-8"?>
<!DOCTYPE svg PUBLIC "-//W3C//DTD SVG 1.1//EN" "http://www.w3.org/Graphics/SVG/1.1/DTD/svg11.dtd">
<svg version="1.1" xmlns="http://www.w3.org/2000/svg" xmlns:xlink="http://www.w3.org/1999/xlink" width="32" height="32" viewBox="0 0 32 32">
<path fill="#2d373e" class="icons-background" d="M16 32l8.7-17.6c0 0-0.8 1.5 0 0 0.5-1.1 1.3-2.4 1.3-4.4 0-5-4.5-10-10-10s-10 5-10 10c0 2 0.8 3.3 1.3 4.4 0.8 1.5 0 0 0 0l8.7 17.6zM23 10c0 3.9-3.1 7-7 7s-7-3.1-7-7 3.1-7 7-7c3.9 0 7 3.1 7 7z"></path>
</svg>
