<?xml version="1.0" standalone="no"?>
<!DOCTYPE svg PUBLIC "-//W3C//DTD SVG 1.1//EN" "http://www.w3.org/Graphics/SVG/1.1/DTD/svg11.dtd" >
<svg xmlns="http://www.w3.org/2000/svg" width="100%" height="100%">
<metadata>
Created by FontXChange 20110211 at Wed Jul 24 15:31:04 2013
 By ,S-1-5-21-43413881-2021330805-242692186-49119
(c)2008 Schwartzco Inc.
</metadata>
<defs>
<font id="Stag-Light" horiz-adv-x="600" >
  <font-face 
    font-family="Stag Light"
    font-weight="300"
    font-stretch="normal"
    units-per-em="1000"
    panose-1="2 0 6 3 6 0 0 2 0 4"
    ascent="800"
    descent="-200"
    x-height="522"
    cap-height="700"
    bbox="-173 -188 1119 916"
    underline-thickness="20"
    underline-position="-113"
    stemh="42"
    stemv="57"
    unicode-range="U+0020-FB04"
  />
<missing-glyph horiz-adv-x="507" 
 />
    <glyph glyph-name="f_i" unicode="fi" horiz-adv-x="520" 
d="M297 0v36h65v448h-210v-448h71v-36h-202v36h43c15 0 30 14 30 29v419h-78v38h78v53c0 94 57 130 136 130c38 0 58 -5 73 -10v-42h-30c-7 6 -19 12 -40 12c-48 0 -81 -21 -81 -92v-51h253c11 0 15 -7 15 -31v-426c0 -15 15 -29 29 -29h50v-36h-202zM384 596
c-22 0 -39 17 -39 39s17 39 39 39s39 -17 39 -39s-17 -39 -39 -39z" />
    <glyph glyph-name="f_l" unicode="fl" horiz-adv-x="520" 
d="M21 0v36h43c15 0 30 14 30 29v419h-78v38h78v54c0 89 58 129 167 129c27 0 62 -2 80 -5h65c10 0 14 -6 14 -18v-617c0 -15 14 -29 29 -29h50v-36h-202v36h65v586c0 33 -16 43 -98 43c-79 0 -112 -24 -112 -91v-52h120v-38h-120v-448h71v-36h-202z" />
    <glyph glyph-name="f_f" unicode="ff" horiz-adv-x="570" 
d="M297 0v36h65v448h-210v-448h71v-36h-202v36h43c15 0 30 14 30 29v419h-78v38h78v46c0 94 54 130 133 130c38 0 61 -5 76 -10v-42h-30c-7 6 -20 12 -41 12c-50 0 -80 -21 -80 -92v-44h210v53c0 94 57 130 136 130c38 0 62 -5 77 -10v-42h-30c-7 6 -21 12 -42 12
c-50 0 -83 -21 -83 -92v-51h123v-38h-123v-419c0 -15 15 -29 30 -29h57v-36h-210z" />
    <glyph glyph-name="f_b" unicode="fb" horiz-adv-x="862" 
d="M362 0v622c0 33 -16 43 -98 43c-79 0 -112 -24 -112 -91v-52h120v-38h-120v-448h87v-36h-218v36h43c15 0 30 14 30 29v419h-78v38h78v54c0 89 58 129 167 129c27 0 62 -2 80 -5h65c10 0 14 -6 14 -18v-260c42 52 104 105 203 105c100 0 206 -58 206 -260
c0 -206 -122 -271 -235 -271c-91 0 -136 30 -174 68v-23c0 -19 -19 -41 -29 -41h-29zM586 35c84 0 184 46 184 228c0 175 -82 220 -166 220c-80 0 -141 -54 -184 -106v-267c40 -45 86 -75 166 -75z" />
    <glyph glyph-name="f_h" unicode="fh" horiz-adv-x="871" 
d="M420 394v-358h90v-36h-213v36h65v586c0 33 -16 43 -98 43c-79 0 -112 -24 -112 -91v-52h120v-38h-120v-448h71v-36h-202v36h43c15 0 30 14 30 29v419h-78v38h78v54c0 89 58 129 167 129c27 0 62 -2 80 -5h65c10 0 14 -6 14 -18v-252c57 50 137 97 222 97
c78 0 140 -26 140 -130v-332c0 -15 15 -29 29 -29h39v-36h-216v36h90v344c0 83 -42 100 -101 100c-75 0 -144 -38 -203 -86z" />
    <glyph glyph-name="f_j" unicode="fj" horiz-adv-x="489" 
d="M384 596c-22 0 -39 17 -39 39s17 39 39 39s39 -17 39 -39s-17 -39 -39 -39zM362 -53v537h-210v-448h71v-36h-202v36h43c15 0 30 14 30 29v419h-78v38h78v53c0 94 57 130 136 130c38 0 58 -5 73 -10v-42h-30c-7 6 -19 12 -40 12c-48 0 -81 -21 -81 -92v-51h253
c11 0 15 -7 15 -31v-544c0 -78 -40 -112 -118 -112c-35 0 -58 6 -78 12v41h29c9 -7 21 -15 43 -15c50 0 66 24 66 74z" />
    <glyph glyph-name="f_k" unicode="fk" horiz-adv-x="803" 
d="M420 682v-462l218 231c14 15 5 33 -12 33h-30v38h183v-38h-32c-13 0 -36 -14 -48 -26l-148 -153l165 -235c14 -20 36 -34 51 -34h18v-36h-88l-184 265l-93 -97v-132h87v-36h-210v36h65v586c0 33 -16 43 -98 43c-79 0 -112 -24 -112 -91v-52h120v-38h-120v-448h71v-36
h-202v36h43c15 0 30 14 30 29v419h-78v38h78v54c0 89 58 129 167 129c27 0 62 -2 80 -5h65c10 0 14 -6 14 -18z" />
    <glyph glyph-name="f_t" unicode="ft" horiz-adv-x="588" 
d="M489 -5c-83 0 -127 33 -127 118v371h-210v-448h87v-36h-218v36h43c15 0 30 14 30 29v419h-78v38h78v53c0 94 57 130 134 130c38 0 61 -5 76 -10v-42h-30c-7 6 -20 12 -41 12c-48 0 -81 -21 -81 -92v-51h210v144h58v-144h136v-38h-136v-368c0 -62 18 -81 70 -81
c22 0 41 5 49 10h28v-38c-17 -6 -48 -12 -78 -12z" />
    <glyph glyph-name="f_f_i" unicode="ffi" horiz-adv-x="788" 
d="M565 0v36h65v448h-210v-448h71v-36h-194v36h65v448h-210v-448h71v-36h-202v36h43c15 0 30 14 30 29v419h-78v38h78v46c0 94 54 130 133 130c38 0 61 -5 76 -10v-42h-30c-7 6 -20 12 -41 12c-50 0 -80 -21 -80 -92v-44h210v53c0 94 57 130 136 130c38 0 58 -5 73 -10v-42
h-30c-7 6 -19 12 -40 12c-48 0 -81 -21 -81 -92v-51h253c11 0 15 -7 15 -31v-426c0 -15 15 -29 29 -29h50v-36h-202zM652 596c-22 0 -39 17 -39 39s17 39 39 39s39 -17 39 -39s-17 -39 -39 -39z" />
    <glyph glyph-name="f_f_l" unicode="ffl" horiz-adv-x="788" 
d="M297 0v36h65v448h-210v-448h71v-36h-202v36h43c15 0 30 14 30 29v419h-78v38h78v46c0 94 54 130 133 130c38 0 61 -5 76 -10v-42h-30c-7 6 -20 12 -41 12c-50 0 -80 -21 -80 -92v-44h210v54c0 89 58 129 167 129c27 0 62 -2 80 -5h65c10 0 14 -6 14 -18v-617
c0 -15 14 -29 29 -29h50v-36h-202v36h65v586c0 33 -16 43 -98 43c-79 0 -112 -24 -112 -91v-52h120v-38h-120v-448h71v-36h-194z" />
    <glyph glyph-name="f_f_b" unicode="ffb" horiz-adv-x="1119" 
d="M688 682v-261c42 52 104 106 203 106c100 0 206 -58 206 -260c0 -206 -122 -271 -235 -271c-91 0 -136 31 -174 69v-24c0 -19 -19 -41 -29 -41h-29v622c0 33 -16 43 -98 43c-79 0 -112 -24 -112 -91v-52h120v-38h-120v-448h87v-36h-210v36h65v448h-210v-448h71v-36h-202
v36h43c15 0 30 14 30 29v419h-78v38h78v46c0 94 54 130 133 130c38 0 61 -5 76 -10v-42h-30c-7 6 -20 12 -41 12c-50 0 -80 -21 -80 -92v-44h210v54c0 89 58 129 167 129c27 0 62 -2 80 -5h65c10 0 14 -6 14 -18zM688 380v-273c40 -45 86 -72 166 -72c84 0 184 46 184 228
c0 175 -82 220 -166 220c-80 0 -141 -51 -184 -103z" />
    <glyph glyph-name="f_f_h" unicode="ffh" horiz-adv-x="1139" 
d="M688 682v-252c57 50 137 97 222 97c78 0 140 -26 140 -130v-332c0 -15 15 -29 29 -29h39v-36h-216v36h90v344c0 83 -42 100 -101 100c-75 0 -144 -38 -203 -86v-358h90v-36h-213v36h65v586c0 33 -16 43 -98 43c-79 0 -112 -24 -112 -91v-52h120v-38h-120v-448h71v-36
h-194v36h65v448h-210v-448h71v-36h-202v36h43c15 0 30 14 30 29v419h-78v38h78v46c0 94 54 130 133 130c38 0 61 -5 76 -10v-42h-30c-7 6 -20 12 -41 12c-50 0 -80 -21 -80 -92v-44h210v54c0 89 58 129 167 129c27 0 62 -2 80 -5h65c10 0 14 -6 14 -18z" />
    <glyph glyph-name="f_f_j" unicode="ffj" horiz-adv-x="757" 
d="M21 0v36h43c15 0 30 14 30 29v419h-78v38h78v46c0 94 54 130 133 130c38 0 61 -5 76 -10v-42h-30c-7 6 -20 12 -41 12c-50 0 -80 -21 -80 -92v-44h210v53c0 94 57 130 136 130c38 0 58 -5 73 -10v-42h-30c-7 6 -19 12 -40 12c-48 0 -81 -21 -81 -92v-51h253
c11 0 15 -7 15 -31v-544c0 -78 -40 -112 -118 -112c-35 0 -58 6 -78 12v41h29c9 -7 21 -15 43 -15c50 0 66 25 66 72v539h-210v-448h71v-36h-194v36h65v448h-210v-448h71v-36h-202zM652 596c-22 0 -39 17 -39 39s17 39 39 39s39 -17 39 -39s-17 -39 -39 -39z" />
    <glyph glyph-name="f_f_k" unicode="ffk" horiz-adv-x="1071" 
d="M688 220l218 231c14 15 5 33 -12 33h-30v38h183v-38h-32c-13 0 -36 -14 -48 -26l-148 -153l165 -235c14 -20 36 -34 51 -34h18v-36h-88l-184 265l-93 -97v-132h87v-36h-210v36h65v586c0 33 -16 43 -98 43c-79 0 -112 -24 -112 -91v-52h120v-38h-120v-448h71v-36h-194v36
h65v448h-210v-448h71v-36h-202v36h43c15 0 30 14 30 29v419h-78v38h78v46c0 94 54 130 133 130c38 0 61 -5 76 -10v-42h-30c-7 6 -20 12 -41 12c-50 0 -80 -21 -80 -92v-44h210v54c0 89 58 129 167 129c27 0 62 -2 80 -5h65c10 0 14 -6 14 -18v-462z" />
    <glyph glyph-name="f_f_t" unicode="fft" horiz-adv-x="856" 
d="M21 0v36h43c15 0 30 14 30 29v419h-78v38h78v46c0 94 54 130 133 130c38 0 61 -5 76 -10v-41h-30c-7 6 -20 12 -41 12c-50 0 -80 -22 -80 -93v-44h210v53c0 94 57 130 134 130c38 0 61 -5 76 -10v-41h-30c-7 6 -20 12 -41 12c-48 0 -81 -22 -81 -93v-51h210v144h58v-144
h136v-38h-136v-368c0 -62 18 -81 70 -81c22 0 41 5 49 10h28v-38c-17 -6 -48 -12 -78 -12c-83 0 -127 33 -127 118v371h-210v-448h87v-36h-210v36h65v448h-210v-448h71v-36h-202z" />
    <glyph glyph-name="f_igrave" unicode="f&#xec;" horiz-adv-x="520" 
d="M373 573l-58 101v26h58l38 -127h-38zM21 0v36h43c15 0 30 14 30 29v419h-78v38h78v53c0 94 54 130 124 130c35 0 51 -4 66 -8v-41h-28c-6 5 -14 10 -32 10c-43 0 -72 -19 -72 -93v-51h252c11 0 16 -7 16 -31v-426c0 -15 14 -29 29 -29h49v-36h-201v36h65v448h-210v-448
h71v-36h-202z" />
    <glyph glyph-name="f_iacute" unicode="f&#xed;" horiz-adv-x="520" 
d="M297 0v36h65v448h-210v-448h71v-36h-202v36h43c15 0 30 14 30 29v419h-78v38h78v53c0 94 57 130 136 130c38 0 58 -5 73 -10v-42h-30c-7 6 -19 12 -40 12c-48 0 -81 -21 -81 -92v-51h253c11 0 15 -7 15 -31v-426c0 -15 15 -29 29 -29h50v-36h-202zM361 573l71 127h58v-25
l-90 -102h-39z" />
    <glyph glyph-name="f_icircumflex" unicode="f&#xee;" horiz-adv-x="520" 
d="M282 573v20l73 107h56l72 -107v-20h-32l-68 88l-70 -88h-31zM21 0v36h43c15 0 30 14 30 29v419h-78v38h78v53c0 94 54 130 124 130c35 0 51 -4 66 -8v-42h-28c-6 6 -14 10 -32 10c-43 0 -72 -18 -72 -92v-51h252c11 0 16 -7 16 -31v-426c0 -15 14 -29 29 -29h49v-36h-201
v36h65v448h-210v-448h71v-36h-202z" />
    <glyph glyph-name="f_idieresis" unicode="f&#xef;" horiz-adv-x="520" 
d="M21 0v36h43c15 0 30 14 30 29v419h-78v38h78v53c0 94 55 130 120 130c35 0 48 -4 62 -8v-42h-28c-5 6 -14 10 -28 10c-38 0 -68 -18 -68 -92v-51h252c11 0 16 -7 16 -31v-426c0 -15 14 -29 29 -29h49v-36h-201v36h65v448h-210v-448h71v-36h-202zM330 597
c-21 0 -38 17 -38 38s17 38 38 38s38 -17 38 -38s-17 -38 -38 -38zM452 597c-21 0 -38 17 -38 38s17 38 38 38s38 -17 38 -38s-17 -38 -38 -38z" />
    <glyph glyph-name="f_iogonek" unicode="f&#x12f;" horiz-adv-x="520" 
d="M297 0v36h65v448h-210v-448h71v-36h-202v36h43c15 0 30 14 30 29v419h-78v38h78v53c0 94 57 130 136 130c38 0 58 -5 73 -10v-42h-30c-7 6 -19 12 -40 12c-48 0 -81 -21 -81 -92v-51h253c11 0 15 -7 15 -31v-426c0 -15 15 -29 29 -29h50v-36h-33c-38 -28 -64 -52 -64 -86
c0 -27 15 -43 40 -43c14 0 21 3 27 7h21v-33c-16 -6 -31 -9 -53 -9c-53 0 -86 28 -86 69c0 46 37 76 72 95h-126zM384 596c-22 0 -39 17 -39 39s17 39 39 39s39 -17 39 -39s-17 -39 -39 -39z" />
    <glyph glyph-name="f_imacron" unicode="f&#x12b;" horiz-adv-x="520" 
d="M21 0v36h43c15 0 30 14 30 29v419h-78v38h78v53c0 94 55 130 120 130c35 0 48 -4 62 -8v-42h-28c-5 6 -14 10 -28 10c-38 0 -68 -18 -68 -92v-51h252c11 0 16 -7 16 -31v-426c0 -15 14 -29 29 -29h49v-36h-201v36h65v448h-210v-448h71v-36h-202zM296 609v42h180v-42h-180
z" />
    <glyph glyph-name="f_f_igrave" unicode="ff&#xec;" horiz-adv-x="788" 
d="M21 0v36h43c15 0 30 14 30 29v419h-78v38h78v46c0 94 54 130 133 130c38 0 61 -3 76 -8v-44h-30c-7 6 -20 12 -41 12c-50 0 -80 -21 -80 -92v-44h210v53c0 94 54 130 124 130c35 0 51 -4 66 -8v-42h-28c-6 5 -14 10 -32 10c-43 0 -72 -18 -72 -92v-51h252
c11 0 16 -7 16 -31v-426c0 -15 14 -29 29 -29h49v-36h-201v36h65v448h-210v-448h71v-36h-194v36h65v448h-210v-448h71v-36h-202zM641 573l-58 101v26h58l38 -127h-38z" />
    <glyph glyph-name="f_f_iacute" unicode="ff&#xed;" horiz-adv-x="788" 
d="M21 0v36h43c15 0 30 14 30 29v419h-78v38h78v46c0 94 54 130 133 130c38 0 61 -5 76 -10v-42h-30c-7 6 -20 12 -41 12c-50 0 -80 -21 -80 -92v-44h210v53c0 94 57 130 136 130c38 0 58 -5 73 -10v-42h-30c-7 6 -19 12 -40 12c-48 0 -81 -21 -81 -92v-51h253
c11 0 15 -7 15 -31v-426c0 -15 15 -29 29 -29h50v-36h-202v36h65v448h-210v-448h71v-36h-194v36h65v448h-210v-448h71v-36h-202zM629 573l71 127h58v-25l-90 -102h-39z" />
    <glyph glyph-name="f_f_icircumflex" unicode="ff&#xee;" horiz-adv-x="788" 
d="M21 0v36h43c15 0 30 14 30 29v419h-78v38h78v46c0 94 54 130 133 130c38 0 61 -5 76 -10v-42h-30c-7 6 -20 12 -41 12c-50 0 -80 -21 -80 -92v-44h210v53c0 94 54 130 124 130c35 0 51 -4 66 -8v-42h-28c-6 5 -14 10 -32 10c-43 0 -72 -18 -72 -92v-51h252
c11 0 16 -7 16 -31v-426c0 -15 14 -29 29 -29h49v-36h-201v36h65v448h-210v-448h71v-36h-194v36h65v448h-210v-448h71v-36h-202zM550 573v20l73 107h56l72 -107v-20h-32l-68 88l-70 -88h-31z" />
    <glyph glyph-name="f_f_idieresis" unicode="ff&#xef;" horiz-adv-x="788" 
d="M21 0v36h43c15 0 30 14 30 29v419h-78v38h78v46c0 94 54 130 133 130c38 0 61 -5 76 -10v-42h-30c-7 6 -20 12 -41 12c-50 0 -80 -21 -80 -92v-44h210v53c0 94 55 130 120 130c35 0 48 -4 62 -8v-42h-28c-5 6 -14 10 -28 10c-38 0 -68 -18 -68 -92v-51h252
c11 0 16 -7 16 -31v-426c0 -15 14 -29 29 -29h49v-36h-201v36h65v448h-210v-448h71v-36h-194v36h65v448h-210v-448h71v-36h-202zM598 597c-21 0 -38 17 -38 38s17 38 38 38s38 -17 38 -38s-17 -38 -38 -38zM720 597c-21 0 -38 17 -38 38s17 38 38 38s38 -17 38 -38
s-17 -38 -38 -38z" />
    <glyph glyph-name="f_f_iogonek" unicode="ff&#x12f;" horiz-adv-x="788" 
d="M21 0v36h43c15 0 30 14 30 29v419h-78v38h78v46c0 94 54 130 133 130c38 0 61 -5 76 -10v-42h-30c-7 6 -20 12 -41 12c-50 0 -80 -21 -80 -92v-44h210v53c0 94 57 130 136 130c38 0 58 -5 73 -10v-42h-30c-7 6 -19 12 -40 12c-48 0 -81 -21 -81 -92v-51h253
c11 0 15 -7 15 -31v-426c0 -15 15 -29 29 -29h50v-36h-33c-38 -28 -64 -52 -64 -86c0 -27 15 -43 40 -43c14 0 21 3 27 7h21v-33c-16 -6 -31 -9 -53 -9c-53 0 -86 28 -86 69c0 46 37 76 72 95h-126v36h65v448h-210v-448h71v-36h-194v36h65v448h-210v-448h71v-36h-202z
M652 596c-22 0 -39 17 -39 39s17 39 39 39s39 -17 39 -39s-17 -39 -39 -39z" />
    <glyph glyph-name="f_f_imacron" unicode="ff&#x12b;" horiz-adv-x="788" 
d="M21 0v36h43c15 0 30 14 30 29v419h-78v38h78v46c0 94 54 130 133 130c38 0 61 -5 76 -10v-42h-30c-7 6 -20 12 -41 12c-50 0 -80 -21 -80 -92v-44h210v53c0 94 55 130 120 130c35 0 48 -4 62 -8v-42h-28c-5 6 -14 10 -28 10c-38 0 -68 -18 -68 -92v-51h252
c11 0 16 -7 16 -31v-426c0 -15 14 -29 29 -29h49v-36h-201v36h65v448h-210v-448h71v-36h-194v36h65v448h-210v-448h71v-36h-202zM564 609v42h180v-42h-180z" />
    <glyph glyph-name=".notdef" horiz-adv-x="507" 
 />
    <glyph glyph-name="space" unicode=" " horiz-adv-x="163" 
 />
    <glyph glyph-name="exclam" unicode="!" horiz-adv-x="154" 
d="M58 144l-13 520v36h64v-36l-13 -520h-38zM77 -4c-24 0 -42 18 -42 40c0 23 18 41 42 41s42 -18 42 -41c0 -22 -18 -40 -42 -40z" />
    <glyph glyph-name="quotedbl" unicode="&#x22;" horiz-adv-x="235" 
d="M46 524l-13 131v45h60v-45l-13 -131h-34zM155 524l-13 131v45h60v-45l-13 -131h-34z" />
    <glyph glyph-name="numbersign" unicode="#" horiz-adv-x="473" 
d="M54 425v49h89l34 226h45l-34 -226h128l34 226h45l-34 -226h84v-49h-91l-18 -124h83v-49h-90l-36 -252h-45l36 252h-128l-36 -252h-45l36 252h-83v49h90l18 124h-82zM181 425l-18 -124h128l18 124h-128z" />
    <glyph glyph-name="dollar" unicode="$" horiz-adv-x="508" 
d="M228 -102v98c-69 2 -142 17 -195 38v125h40c5 -54 13 -82 31 -94c25 -16 71 -27 124 -28v304c-124 34 -189 73 -189 187c0 90 57 166 189 175v61h43v-60c64 -2 119 -14 170 -33v-120h-40c-5 54 -13 77 -31 89c-23 14 -55 21 -99 23v-278c125 -35 202 -70 202 -191
s-72 -190 -202 -197v-99h-43zM416 189c0 83 -56 113 -145 140v-291c96 7 145 57 145 151zM94 531c0 -78 39 -106 134 -134v265c-100 -8 -134 -63 -134 -131z" />
    <glyph glyph-name="percent" unicode="%" horiz-adv-x="724" 
d="M187 356c-83 0 -153 58 -153 174s70 175 153 175c82 0 152 -59 152 -175s-70 -174 -152 -174zM187 392c59 0 99 45 99 138c0 92 -40 138 -99 138c-60 0 -100 -46 -100 -138c0 -93 40 -138 100 -138zM91 -34l493 763h49l-493 -763h-49zM538 -5c-83 0 -153 58 -153 174
s70 175 153 175c82 0 152 -59 152 -175s-70 -174 -152 -174zM538 31c59 0 99 45 99 138c0 92 -40 138 -99 138c-60 0 -100 -46 -100 -138c0 -93 40 -138 100 -138z" />
    <glyph glyph-name="ampersand" unicode="&#x26;" horiz-adv-x="685" 
d="M266 -5c-156 0 -234 88 -234 200c0 110 71 179 160 213c-26 34 -48 74 -48 135c0 96 71 162 178 162c63 0 97 -18 112 -26c8 0 12 7 14 21h41v-164h-43l-11 83c-26 26 -63 44 -111 44c-78 0 -120 -49 -120 -118c0 -64 31 -103 79 -155l201 -221c29 50 51 115 60 186h-66
v36h183v-36h-43c-15 0 -25 -8 -29 -26c-14 -69 -37 -136 -72 -193l65 -71c20 -22 32 -29 47 -29h33v-36h-101l-82 90c-49 -58 -118 -95 -213 -95zM267 37c84 0 141 32 182 84l-232 257c-71 -28 -121 -84 -121 -177c0 -86 50 -164 171 -164z" />
    <glyph glyph-name="quoteright" unicode="&#x2019;" horiz-adv-x="142" 
d="M25 542v30c26 7 42 22 42 44c0 12 -10 15 -18 21c-11 8 -17 17 -17 33c0 19 17 34 37 34c23 0 44 -16 44 -53c0 -68 -35 -100 -88 -109z" />
    <glyph glyph-name="parenleft" unicode="(" horiz-adv-x="288" 
d="M237 -49c-82 39 -205 149 -205 400c0 248 126 351 206 390h29v-32c-70 -36 -176 -121 -176 -358c0 -241 106 -330 176 -369v-31h-30z" />
    <glyph glyph-name="parenright" unicode=")" horiz-adv-x="288" 
d="M51 -49h-30v31c70 39 176 128 176 369c0 237 -106 322 -176 358v32h29c80 -39 206 -142 206 -390c0 -251 -123 -361 -205 -400z" />
    <glyph glyph-name="asterisk" unicode="*" horiz-adv-x="358" 
d="M161 377l-9 35l19 112l-88 -72l-35 -10l-18 31l27 26l109 38l-109 41l-27 26l18 31l35 -10l88 -75l-19 114l9 36h37l8 -36l-20 -114l89 75l35 10l18 -31l-27 -26l-109 -41l109 -38l27 -26l-17 -31l-36 10l-89 72l20 -112l-8 -35h-37z" />
    <glyph glyph-name="plus" unicode="+" horiz-adv-x="479" 
d="M217 134v190h-180v43h180v190h46v-190h179v-43h-179v-190h-46z" />
    <glyph glyph-name="comma" unicode="," horiz-adv-x="154" 
d="M25 -93v31c28 7 46 23 46 46c0 13 -10 17 -19 23c-11 8 -18 18 -18 34c0 20 18 36 40 36c24 0 46 -17 46 -56c0 -72 -38 -104 -95 -114z" />
    <glyph glyph-name="hyphen" unicode="-" horiz-adv-x="240" 
d="M29 276v44h182v-44h-182z" />
    <glyph glyph-name="period" unicode="." horiz-adv-x="152" 
d="M76 -4c-24 0 -42 18 -42 40c0 23 18 41 42 41s42 -18 42 -41c0 -22 -18 -40 -42 -40z" />
    <glyph glyph-name="slash" unicode="/" horiz-adv-x="318" 
d="M12 -49l242 790h49l-242 -790h-49z" />
    <glyph glyph-name="zero" unicode="0" horiz-adv-x="647" 
d="M324 -5c-154 0 -286 118 -286 355s132 355 286 355s285 -118 285 -355s-131 -355 -285 -355zM324 37c129 0 221 98 221 312s-92 314 -221 314c-130 0 -222 -100 -222 -314s92 -312 222 -312z" />
    <glyph glyph-name="one" unicode="1" horiz-adv-x="331" 
d="M23 0v36h81c17 0 33 18 33 34v575l-97 -53h-21v36l138 72h42v-630c0 -16 17 -34 34 -34h75v-36h-285z" />
    <glyph glyph-name="two" unicode="2" horiz-adv-x="510" 
d="M28 0v39c0 133 106 206 206 272c95 63 179 112 179 210c0 90 -47 143 -155 143c-58 0 -100 -9 -127 -28c-18 -12 -26 -35 -31 -89h-40v120c58 24 123 38 199 38c145 0 217 -67 217 -183c0 -122 -97 -177 -209 -247c-96 -60 -183 -125 -185 -227h332l8 115h44v-163h-438z
" />
    <glyph glyph-name="three" unicode="3" horiz-adv-x="498" 
d="M219 -5c-80 0 -143 19 -192 38v109h40c5 -43 12 -66 28 -78c19 -15 64 -28 123 -28c125 0 182 60 182 163c0 104 -76 143 -168 143h-63v41h55c98 0 164 45 164 141c0 92 -46 140 -153 140c-59 0 -96 -10 -118 -25c-16 -10 -24 -35 -29 -76h-40v105c55 22 116 37 190 37
c137 0 210 -60 210 -176c0 -92 -59 -146 -136 -163v-2c95 -20 150 -74 150 -167c1 -128 -81 -202 -243 -202z" />
    <glyph glyph-name="four" unicode="4" horiz-adv-x="542" 
d="M337 36c16 0 33 18 33 34v114h-347v50l353 466h55v-474h88v-42h-88v-114c0 -16 16 -34 33 -34h55v-36h-238v36h56zM69 228v-2h301v397h-2z" />
    <glyph glyph-name="five" unicode="5" horiz-adv-x="508" 
d="M217 -5c-80 0 -137 16 -190 40v106h40c5 -45 10 -66 26 -78c25 -16 62 -26 124 -26c116 0 194 67 194 188s-75 168 -160 168c-83 0 -136 -37 -163 -71h-40v378h400v-126h-42l-8 78h-304v-279h2c26 28 82 62 165 62c112 0 212 -61 212 -208c0 -144 -105 -232 -256 -232z
" />
    <glyph glyph-name="six" unicode="6" horiz-adv-x="571" 
d="M298 -5c-144 0 -260 102 -260 340c0 240 138 370 322 370c65 0 109 -9 141 -23v-50h-36c-18 16 -52 31 -109 31c-146 0 -255 -109 -255 -316v-22c47 57 126 100 216 100c115 0 218 -57 218 -201c0 -143 -98 -229 -237 -229zM298 37c109 0 175 68 175 185
s-77 161 -167 161c-87 0 -162 -44 -204 -100c12 -171 91 -246 196 -246z" />
    <glyph glyph-name="seven" unicode="7" horiz-adv-x="512" 
d="M124 0v29l318 621v2h-366l-8 -118h-42v166h463v-54l-309 -646h-56z" />
    <glyph glyph-name="eight" unicode="8" horiz-adv-x="565" 
d="M282 -5c-162 0 -247 81 -247 196c0 93 59 158 158 182v2c-72 20 -125 77 -125 155c0 103 83 175 214 175s214 -72 214 -175c0 -78 -56 -135 -129 -155v-2c100 -21 163 -89 163 -182c0 -115 -86 -196 -248 -196zM282 37c125 0 186 66 186 157c0 92 -63 159 -186 159
c-124 0 -185 -67 -185 -159c0 -91 59 -157 185 -157zM282 395c98 0 154 50 154 133c0 81 -56 135 -154 135c-99 0 -154 -55 -154 -135c0 -83 55 -133 154 -133z" />
    <glyph glyph-name="nine" unicode="9" horiz-adv-x="571" 
d="M273 705c144 0 260 -101 260 -340c0 -240 -124 -370 -322 -370c-69 0 -114 11 -150 29v50h36c28 -24 58 -37 118 -37c159 0 255 109 255 316v22c-47 -57 -126 -100 -216 -100c-115 0 -218 59 -218 203c0 142 100 227 237 227zM273 663c-109 0 -176 -66 -176 -183
c0 -120 78 -163 168 -163c87 0 162 44 204 100c-13 170 -91 246 -196 246z" />
    <glyph glyph-name="colon" unicode=":" horiz-adv-x="156" 
d="M78 -4c-24 0 -42 18 -42 40c0 23 18 41 42 41s42 -18 42 -41c0 -22 -18 -40 -42 -40zM78 304c-24 0 -42 18 -42 40c0 23 18 41 42 41s42 -18 42 -41c0 -22 -18 -40 -42 -40z" />
    <glyph glyph-name="semicolon" unicode=";" horiz-adv-x="158" 
d="M78 304c-24 0 -42 18 -42 40c0 23 18 41 42 41s42 -18 42 -41c0 -22 -18 -40 -42 -40zM27 -93v31c28 7 46 23 46 46c0 13 -10 17 -19 23c-11 8 -18 18 -18 34c0 20 18 36 40 36c24 0 46 -17 46 -56c0 -72 -38 -104 -95 -114z" />
    <glyph glyph-name="less" unicode="&#x3c;" horiz-adv-x="463" 
d="M407 112l-373 197v41l373 197h19v-41l-336 -175v-2l336 -176v-41h-19z" />
    <glyph glyph-name="equal" unicode="=" horiz-adv-x="487" 
d="M34 209v44h419v-44h-419zM34 376v44h419v-44h-419z" />
    <glyph glyph-name="greater" unicode="&#x3e;" horiz-adv-x="463" 
d="M38 112v40l335 175v2l-335 176v42h18l374 -198v-41l-374 -196h-18z" />
    <glyph glyph-name="question" unicode="?" horiz-adv-x="438" 
d="M149 144c-13 97 16 152 76 216c48 52 117 105 117 183c0 79 -43 121 -130 121c-46 0 -78 -8 -100 -20c-20 -11 -30 -27 -34 -79h-39v104c39 18 89 36 175 36c118 0 190 -51 190 -162c0 -94 -67 -142 -130 -203c-59 -57 -93 -104 -84 -196h-41zM174 -4
c-24 0 -42 18 -42 40c0 23 18 41 42 41s42 -18 42 -41c0 -22 -18 -40 -42 -40z" />
    <glyph glyph-name="at" unicode="@" horiz-adv-x="872" 
d="M624 107c79 0 163 65 163 229c0 183 -137 283 -328 283c-181 0 -370 -124 -370 -373c0 -235 152 -329 345 -329c103 0 191 26 248 68h29v-32c-63 -45 -164 -75 -277 -75c-209 0 -399 106 -399 368c0 269 224 413 424 413c206 0 378 -114 378 -323
c0 -186 -115 -265 -222 -265c-78 0 -105 35 -104 84c-35 -41 -87 -85 -159 -85c-68 0 -116 43 -116 126c0 87 39 156 83 202c40 41 93 67 154 67c52 0 80 -16 102 -34c10 13 26 32 39 32h19l-64 -273c-12 -48 0 -83 55 -83zM366 110c62 0 106 42 146 85l48 207
c-20 14 -44 23 -82 23c-49 0 -83 -20 -114 -53c-36 -39 -69 -98 -69 -178c0 -60 31 -84 71 -84z" />
    <glyph glyph-name="A" unicode="A" horiz-adv-x="705" 
d="M565 36l-67 193h-304l-45 -127c-15 -41 -8 -66 31 -66h56v-36h-222v36h27c23 0 42 16 50 38l198 552c8 22 -3 37 -25 37h-55v37h188l216 -623c8 -22 29 -41 49 -41h29v-36h-233v36h107zM346 654l-137 -385h275l-133 385h-5z" />
    <glyph glyph-name="B" unicode="B" horiz-adv-x="589" 
d="M23 0v36h46c17 0 34 18 34 34v558c0 16 -17 35 -34 35h-46v37h268c130 0 230 -42 230 -175c0 -93 -60 -137 -138 -154v-2c96 -12 172 -62 172 -176c0 -136 -105 -193 -249 -193h-283zM165 38h140c113 0 188 46 188 157s-71 152 -199 152h-129v-309zM165 386h123
c99 0 173 36 173 138c0 108 -74 136 -171 136h-125v-274z" />
    <glyph glyph-name="C" unicode="C" horiz-adv-x="636" 
d="M358 -5c-190 0 -320 121 -320 357s147 353 329 353c91 0 137 -22 162 -33c7 0 16 13 17 28h41v-197h-43l-11 103c-31 27 -86 57 -165 57c-147 0 -266 -94 -266 -309c0 -213 100 -317 258 -317c108 0 174 39 210 93h34v-45c-54 -53 -124 -90 -246 -90z" />
    <glyph glyph-name="D" unicode="D" horiz-adv-x="691" 
d="M23 0v36h46c17 0 34 18 34 34v558c0 16 -17 35 -34 35h-46v37h275c231 0 355 -101 355 -349c0 -247 -124 -351 -357 -351h-273zM165 39h131c199 0 294 86 294 311c0 226 -95 311 -294 311h-131v-622z" />
    <glyph glyph-name="E" unicode="E" horiz-adv-x="585" 
d="M23 0v36h46c17 0 34 18 34 34v558c0 16 -17 35 -34 35h-46v37h517v-168h-42l-10 129h-323v-280h186l8 89h41v-218h-41l-8 90h-186v-303h335l9 141h44v-180h-530z" />
    <glyph glyph-name="F" unicode="F" horiz-adv-x="565" 
d="M23 0v36h46c17 0 34 18 34 34v558c0 16 -17 35 -34 35h-46v37h514v-170h-43l-9 131h-320v-297h185l8 93h41v-227h-41l-8 95h-185v-289h96v-36h-238z" />
    <glyph glyph-name="G" unicode="G" horiz-adv-x="689" 
d="M355 -5c-196 0 -317 121 -317 357s145 353 330 353c91 0 143 -23 163 -32c9 0 19 8 21 27h40v-191h-44l-10 97c-31 27 -85 57 -169 57c-149 0 -267 -94 -267 -309c0 -213 91 -317 255 -317c87 0 140 28 179 56v185h-102v37h233v-37h-36c-17 0 -34 -18 -34 -34v-244h-38
c-1 21 -9 36 -22 36c-25 -11 -87 -41 -182 -41z" />
    <glyph glyph-name="H" unicode="H" horiz-adv-x="724" 
d="M23 0v36h46c17 0 34 18 34 34v558c0 16 -17 35 -34 35h-46v37h245v-37h-103v-282h393v282h-102v37h245v-37h-47c-17 0 -34 -19 -34 -35v-558c0 -16 17 -34 34 -34h47v-36h-245v36h102v305h-393v-305h103v-36h-245z" />
    <glyph glyph-name="I" unicode="I" horiz-adv-x="286" 
d="M23 0v36h56c17 0 33 18 33 34v558c0 16 -16 35 -33 35h-56v37h241v-37h-56c-17 0 -34 -19 -34 -35v-558c0 -16 17 -34 34 -34h56v-36h-241z" />
    <glyph glyph-name="J" unicode="J" horiz-adv-x="454" 
d="M162 -5c-69 0 -113 18 -146 36v50h38c16 -22 50 -44 107 -44c89 0 125 41 125 121v470c0 16 -16 35 -33 35h-52v37h230v-37h-49c-17 0 -34 -19 -34 -35v-471c0 -106 -57 -162 -186 -162z" />
    <glyph glyph-name="K" unicode="K" horiz-adv-x="675" 
d="M547 628l-213 -220l223 -333c15 -22 39 -39 61 -39h34v-36h-139v35l-221 330l-127 -132v-197h99v-36h-241v36h46c17 0 34 18 34 34v558c0 16 -17 35 -34 35h-46v37h241v-37h-99v-369l309 325c21 22 15 44 -13 44h-32v37h210v-37h-32c-19 0 -42 -16 -60 -35z" />
    <glyph glyph-name="L" unicode="L" horiz-adv-x="568" 
d="M23 0v36h46c17 0 34 18 34 34v558c0 16 -17 35 -34 35h-46v37h253v-37h-111v-624h322l9 155h45v-194h-518z" />
    <glyph glyph-name="M" unicode="M" horiz-adv-x="862" 
d="M23 0v36h46c17 0 34 18 34 34v558c0 16 -17 35 -34 35h-46v37h186l221 -610h2l221 610h186v-37h-47c-17 0 -34 -19 -34 -35l2 -558c0 -16 15 -34 32 -34h47v-36h-233v36h91v623h-12l-239 -659h-43l-239 659h-11v-623h91v-36h-221z" />
    <glyph glyph-name="N" unicode="N" horiz-adv-x="713" 
d="M23 0v36h46c17 0 34 18 34 34v558c0 16 -17 35 -34 35h-46v37h156l382 -601h1v564h-100v37h230v-37h-46c-17 0 -34 -19 -34 -35v-628h-55l-399 626h-5v-590h103v-36h-233z" />
    <glyph glyph-name="O" unicode="O" horiz-adv-x="728" 
d="M365 -5c-177 0 -327 125 -327 355s150 355 327 355c176 0 325 -125 325 -355s-149 -355 -325 -355zM365 37c147 0 261 106 261 312s-114 314 -261 314c-148 0 -263 -108 -263 -314s115 -312 263 -312z" />
    <glyph glyph-name="P" unicode="P" horiz-adv-x="574" 
d="M23 0v36h46c17 0 34 18 34 34v558c0 16 -17 35 -34 35h-46v37h269c150 0 251 -53 251 -203c0 -149 -96 -205 -252 -205h-126v-256h92v-36h-234zM165 331h126c125 0 190 43 190 166c0 120 -71 162 -190 162h-126v-328z" />
    <glyph glyph-name="Q" unicode="Q" horiz-adv-x="728" 
d="M673 -123c-51 83 -154 110 -308 118c-187 10 -327 125 -327 355s150 355 327 355c176 0 325 -125 325 -355c0 -192 -102 -295 -214 -326v-1c132 -12 200 -47 251 -111v-35h-54zM365 37c147 0 261 106 261 312s-114 314 -261 314c-148 0 -263 -108 -263 -314
s117 -312 263 -312z" />
    <glyph glyph-name="R" unicode="R" horiz-adv-x="642" 
d="M23 0v36h46c17 0 34 18 34 34v558c0 16 -17 35 -34 35h-46v37h265c140 0 247 -45 247 -188c0 -108 -69 -153 -154 -169v-2c60 -15 111 -42 141 -152l33 -123c5 -18 22 -30 34 -30h34v-36h-118l-44 188c-25 105 -78 135 -177 135h-119v-287h92v-36h-234zM165 362h122
c118 0 185 36 185 147c0 118 -77 153 -185 153h-122v-300z" />
    <glyph glyph-name="S" unicode="S" horiz-adv-x="518" 
d="M252 -5c-90 0 -143 30 -162 39c-7 0 -15 -11 -17 -34h-42v196h45l9 -98c32 -27 80 -61 165 -61c105 0 178 43 178 155c0 105 -90 119 -190 147c-108 30 -192 67 -192 186c0 110 72 180 212 180c76 0 121 -24 139 -32c8 0 13 11 15 27h41v-176h-43l-9 87
c-32 26 -72 52 -142 52c-110 0 -159 -51 -159 -135c0 -93 79 -115 172 -141c116 -32 212 -64 212 -193c0 -136 -95 -199 -232 -199z" />
    <glyph glyph-name="T" unicode="T" horiz-adv-x="638" 
d="M201 0v36h53c17 0 34 18 34 34v591h-203l-8 -152h-44v191h572v-191h-43l-9 152h-203v-591c0 -16 16 -34 33 -34h54v-36h-236z" />
    <glyph glyph-name="U" unicode="U" horiz-adv-x="715" 
d="M362 -5c-154 0 -263 65 -263 241v392c0 16 -16 35 -34 35h-42v37h238v-37h-100v-428c0 -153 89 -196 205 -196c114 0 202 40 202 196v428h-100v37h224v-37h-42c-17 0 -34 -19 -34 -35v-392c0 -175 -100 -241 -254 -241z" />
    <glyph glyph-name="V" unicode="V" horiz-adv-x="706" 
d="M323 0l-229 622c-7 20 -29 41 -49 41h-25v37h223v-37h-101l216 -594h2l197 534c14 39 4 60 -32 60h-52v37h213v-37h-23c-22 0 -41 -17 -50 -40l-232 -623h-58z" />
    <glyph glyph-name="W" unicode="W" horiz-adv-x="969" 
d="M253 0l-164 622c-6 21 -28 41 -48 41h-20v37h217v-37h-98l149 -571h3l174 608h46l174 -608h2l134 508c11 43 0 63 -37 63h-45v37h208v-37h-20c-22 0 -42 -17 -49 -42l-166 -621h-61l-168 587h-1l-168 -587h-62z" />
    <glyph glyph-name="X" unicode="X" horiz-adv-x="662" 
d="M23 0v36h27c14 0 39 14 49 29l193 297l-175 266c-14 22 -38 35 -55 35h-39v37h226v-37h-84l178 -271l139 223c18 28 5 48 -19 48h-38v37h214v-37h-47c-13 0 -39 -19 -49 -35l-172 -273l188 -284c14 -21 41 -35 56 -35h24v-36h-221v36h92l-191 290l-155 -243
c-15 -23 -4 -47 18 -47h51v-36h-210z" />
    <glyph glyph-name="Y" unicode="Y" horiz-adv-x="646" 
d="M207 0v38h53c17 0 34 18 34 34v223l-199 328c-13 22 -34 40 -58 40h-16v37h212v-37h-92l191 -316h2l155 255c24 40 9 61 -29 61h-38v37h204v-37h-21c-21 0 -37 -16 -50 -38l-200 -328v-225c0 -16 17 -34 34 -34h53v-38h-235z" />
    <glyph glyph-name="Z" unicode="Z" horiz-adv-x="555" 
d="M23 0v43l442 616v2h-363l-10 -127h-42v166h482v-45l-443 -615v-1h379l9 133h44v-172h-498z" />
    <glyph glyph-name="bracketleft" unicode="[" horiz-adv-x="238" 
d="M42 -49v790h173v-39h-118v-713h118v-38h-173z" />
    <glyph glyph-name="backslash" unicode="\" horiz-adv-x="318" 
d="M64 741l242 -790h-49l-242 790h49z" />
    <glyph glyph-name="bracketright" unicode="]" horiz-adv-x="238" 
d="M196 741v-790h-173v38h118v713h-118v39h173z" />
    <glyph glyph-name="asciicircum" unicode="^" horiz-adv-x="345" 
d="M44 538v19l103 143h50l104 -143v-19h-36l-91 114h-2l-94 -114h-34z" />
    <glyph glyph-name="underscore" unicode="_" horiz-adv-x="329" 
d="M-3 -162v36h335v-36h-335z" />
    <glyph glyph-name="quoteleft" unicode="&#x2018;" horiz-adv-x="142" 
d="M117 702v-30c-26 -7 -42 -22 -42 -44c0 -12 10 -15 18 -21c11 -8 17 -17 17 -33c0 -19 -17 -34 -37 -34c-23 0 -44 16 -44 53c0 68 35 100 88 109z" />
    <glyph glyph-name="a" unicode="a" horiz-adv-x="516" 
d="M199 -5c-103 0 -173 48 -173 152c0 105 87 152 208 152c51 0 95 -5 136 -16v94c0 84 -51 109 -125 109c-77 0 -126 -25 -156 -52h-29v49c41 23 103 44 190 44c106 0 178 -33 178 -145v-303c0 -31 13 -44 41 -44c12 0 26 3 26 3v-33c-6 -3 -24 -9 -45 -9
c-50 0 -80 21 -80 70v11c-40 -50 -94 -82 -171 -82zM207 35c78 0 123 36 163 85v126c-39 9 -81 15 -126 15c-99 0 -162 -33 -162 -114c0 -79 47 -112 125 -112z" />
    <glyph glyph-name="b" unicode="b" horiz-adv-x="564" 
d="M296 -4c-91 0 -136 31 -174 69v-24c0 -19 -19 -41 -29 -41h-29v633c0 14 -14 30 -29 30h-48v37h121c10 0 14 -6 14 -18v-261c42 52 104 106 203 106c100 0 206 -58 206 -260c0 -206 -122 -271 -235 -271zM288 35c84 0 184 46 184 228c0 175 -82 220 -166 220
c-80 0 -141 -51 -184 -103v-273c40 -45 86 -72 166 -72z" />
    <glyph glyph-name="c" unicode="c" horiz-adv-x="511" 
d="M284 -4c-164 0 -252 101 -252 266s105 265 258 265c86 0 136 -15 169 -30v-96h-40c-4 49 -13 61 -38 72c-22 10 -53 15 -92 15c-120 0 -198 -81 -198 -227c0 -145 67 -227 194 -227c85 0 129 34 151 66h32v-42c-30 -28 -91 -62 -184 -62z" />
    <glyph glyph-name="d" unicode="d" horiz-adv-x="598" 
d="M253 -4c-108 0 -219 58 -219 259c0 204 124 272 235 272c85 0 142 -35 176 -75v211h-88v37h132c10 0 14 -7 14 -18v-616c0 -15 15 -30 29 -30h45v-36h-117c-10 0 -14 11 -15 33v64c-39 -54 -103 -101 -192 -101zM260 35c85 0 142 47 185 103v274c-43 45 -86 71 -167 71
c-86 0 -185 -46 -185 -226s90 -222 167 -222z" />
    <glyph glyph-name="e" unicode="e" horiz-adv-x="530" 
d="M288 -4c-167 0 -256 101 -256 263c0 164 101 268 243 268c134 0 224 -73 224 -244c0 -11 -1 -22 -1 -24h-407c1 -146 69 -225 201 -225c84 0 133 29 160 61h34v-41c-37 -29 -99 -58 -198 -58zM93 298h348c-3 138 -68 191 -166 191c-102 0 -172 -69 -182 -191z" />
    <glyph glyph-name="f" unicode="f" horiz-adv-x="302" 
d="M21 0v36h43c15 0 30 14 30 29v419h-78v38h78v53c0 94 57 130 136 130c38 0 62 -5 77 -10v-42h-30c-7 7 -21 12 -42 12c-50 0 -83 -19 -83 -92v-51h123v-38h-123v-419c0 -15 15 -29 30 -29h57v-36h-218z" />
    <glyph glyph-name="g" unicode="g" horiz-adv-x="499" 
d="M234 -169c-159 0 -216 56 -216 130c0 62 44 98 97 123c-25 10 -47 32 -47 70c0 39 22 67 49 86c-35 28 -57 72 -57 123c0 92 66 164 186 164c19 0 38 -2 55 -5h176v-38h-65c-11 0 -21 -9 -21 -20c27 -26 40 -60 40 -101c0 -92 -66 -160 -185 -160c-43 0 -76 9 -103 23
c-16 -16 -26 -35 -26 -60c0 -31 23 -45 58 -45h149c92 0 150 -36 150 -125c0 -92 -64 -165 -240 -165zM236 -129c129 0 182 51 182 115c0 61 -35 83 -100 83h-169c-44 -22 -75 -53 -75 -102c0 -55 32 -96 162 -96zM246 241c88 0 129 51 129 122c0 70 -41 126 -129 126
s-130 -56 -130 -126c0 -71 42 -122 130 -122z" />
    <glyph glyph-name="h" unicode="h" horiz-adv-x="603" 
d="M152 394v-358h90v-36h-221v36h44c15 0 29 14 29 29v568c0 14 -14 30 -29 30h-48v37h121c10 0 14 -6 14 -18v-252c57 50 137 97 222 97c78 0 140 -26 140 -130v-332c0 -15 15 -29 29 -29h39v-36h-216v36h90v344c0 83 -42 100 -101 100c-75 0 -144 -38 -203 -86z" />
    <glyph glyph-name="i" unicode="i" horiz-adv-x="257" 
d="M21 0v36h49c15 0 29 14 29 29v389c0 14 -14 30 -29 30h-54v38h126c11 0 15 -7 15 -31v-426c0 -15 15 -29 29 -29h50v-36h-215zM121 596c-22 0 -39 17 -39 39s17 39 39 39s39 -17 39 -39s-17 -39 -39 -39z" />
    <glyph glyph-name="j" unicode="j" horiz-adv-x="226" 
d="M39 -165c-35 0 -58 6 -78 12v41h29c9 -7 21 -15 43 -15c50 0 66 25 66 72v509c0 14 -14 30 -29 30h-54v38h126c11 0 15 -7 15 -31v-544c0 -78 -40 -112 -118 -112zM121 596c-22 0 -39 17 -39 39s17 39 39 39s39 -17 39 -39s-17 -39 -39 -39z" />
    <glyph glyph-name="k" unicode="k" horiz-adv-x="535" 
d="M431 458l-148 -153l165 -235c14 -20 36 -34 51 -34h18v-36h-88l-184 265l-93 -97v-132h87v-36h-218v36h44c15 0 29 14 29 29v568c0 14 -14 30 -29 30h-48v37h121c10 0 14 -6 14 -18v-462l218 231c14 15 5 33 -12 33h-30v38h183v-38h-32c-13 0 -36 -14 -48 -26z" />
    <glyph glyph-name="l" unicode="l" horiz-adv-x="258" 
d="M21 0v36h49c15 0 30 14 30 29v568c0 14 -15 30 -30 30h-53v37h127c10 0 13 -6 13 -18v-617c0 -15 15 -29 30 -29h50v-36h-216z" />
    <glyph glyph-name="m" unicode="m" horiz-adv-x="905" 
d="M484 395v-359h80v-36h-218v36h80v344c0 82 -38 100 -87 100c-68 0 -128 -35 -187 -85v-359h90v-36h-221v36h44c15 0 29 14 29 29v389c0 14 -14 30 -29 30h-49v38h118c12 0 17 -7 18 -34v-58c57 52 122 97 203 97c60 0 116 -21 127 -98c63 57 126 98 205 98
c66 0 129 -26 129 -130v-332c0 -15 15 -29 29 -29h39v-36h-216v36h90v344c0 82 -38 100 -88 100c-67 0 -128 -39 -186 -85z" />
    <glyph glyph-name="n" unicode="n" horiz-adv-x="603" 
d="M21 0v36h44c15 0 29 14 29 29v389c0 14 -14 30 -29 30h-49v38h118c12 0 17 -7 18 -34v-58c57 50 137 97 222 97c78 0 140 -26 140 -130v-332c0 -15 15 -29 29 -29h39v-36h-216v36h90v344c0 83 -42 100 -101 100c-75 0 -144 -38 -203 -86v-358h90v-36h-221z" />
    <glyph glyph-name="o" unicode="o" horiz-adv-x="574" 
d="M287 -4c-146 0 -255 100 -255 265s109 266 255 266c147 0 255 -101 255 -266s-108 -265 -255 -265zM287 34c116 0 196 83 196 226c0 144 -80 227 -196 227s-196 -83 -196 -227c0 -143 80 -226 196 -226z" />
    <glyph glyph-name="p" unicode="p" horiz-adv-x="591" 
d="M21 -162v34h44c15 0 29 15 29 29v553c0 14 -14 30 -29 30h-49v38h118c11 0 18 -10 18 -39v-62c42 52 104 106 200 106c100 0 206 -62 206 -259c0 -203 -120 -267 -231 -267c-88 0 -138 29 -175 69v-198h93v-34h-224zM318 40c83 0 181 41 181 224c0 176 -87 219 -165 219
s-139 -51 -182 -103v-268c40 -45 87 -72 166 -72z" />
    <glyph glyph-name="q" unicode="q" horiz-adv-x="570" 
d="M349 -162v34h93v226c-35 -51 -104 -97 -192 -97c-105 0 -216 55 -216 255c0 203 123 271 233 271c83 0 140 -33 175 -69v11c0 24 16 53 28 53h30v-621c0 -14 15 -29 29 -29h45v-34h-225zM260 40c83 0 139 43 182 97v281c-40 39 -90 65 -164 65c-86 0 -185 -46 -185 -225
s90 -218 167 -218z" />
    <glyph glyph-name="r" unicode="r" horiz-adv-x="376" 
d="M21 0v36h44c15 0 29 14 29 29v389c0 14 -14 30 -29 30h-49v38h118c12 0 18 -7 18 -36v-66c40 52 94 105 173 105c13 0 22 -2 25 -3v-48s-14 1 -23 1c-77 0 -123 -35 -175 -93v-346h96v-36h-227z" />
    <glyph glyph-name="s" unicode="s" horiz-adv-x="434" 
d="M204 -4c-93 0 -140 16 -173 29v98h39c4 -48 11 -66 31 -74c25 -9 50 -15 102 -15c93 0 144 38 144 112c0 64 -48 84 -143 100c-101 17 -162 43 -162 139c0 90 65 142 181 142c84 0 129 -12 161 -25v-92h-38c-5 41 -10 56 -31 65c-22 9 -44 12 -93 12
c-86 0 -128 -36 -128 -95c0 -65 41 -82 135 -98c110 -18 172 -48 172 -141c0 -100 -63 -157 -197 -157z" />
    <glyph glyph-name="t" unicode="t" horiz-adv-x="317" 
d="M218 -5c-83 0 -127 33 -127 118v371h-75v38h75v144h58v-144h136v-38h-136v-366c0 -62 18 -83 70 -83c22 0 41 5 49 10h28v-38c-17 -6 -48 -12 -78 -12z" />
    <glyph glyph-name="u" unicode="u" horiz-adv-x="606" 
d="M230 -6c-73 0 -138 30 -138 129v331c0 15 -15 30 -29 30h-47v38h134v-382c0 -81 43 -101 97 -101c75 0 146 40 202 86v359h-83v38h140v-456c0 -15 15 -30 30 -30h49v-36h-119c-11 0 -16 6 -17 33v55c-61 -50 -131 -94 -219 -94z" />
    <glyph glyph-name="v" unicode="v" horiz-adv-x="582" 
d="M259 0l-179 447c-9 21 -24 37 -42 37h-22v38h198v-38h-87l164 -421h2l146 374c9 25 -1 47 -28 47h-41v38h186v-38h-20c-19 0 -35 -12 -44 -35l-180 -449h-53z" />
    <glyph glyph-name="w" unicode="w" horiz-adv-x="820" 
d="M215 0l-133 447c-7 23 -23 37 -42 37h-24v38h193v-38h-80l120 -408h2l136 446h50l136 -446h2l105 361c8 28 -3 47 -30 47h-40v38h184v-38h-21c-19 0 -37 -11 -44 -35l-133 -449h-55l-134 439h-1l-136 -439h-55z" />
    <glyph glyph-name="x" unicode="x" horiz-adv-x="550" 
d="M21 0v36h31c14 0 35 11 45 25l143 205l-136 183c-14 19 -36 35 -51 35h-37v38h200v-38h-69l138 -189l103 156c11 16 5 33 -14 33h-33v38h176v-38h-30c-13 0 -33 -12 -43 -26l-132 -190l147 -197c14 -19 38 -35 53 -35h17v-36h-191v36h79l-149 203l-113 -167
c-12 -18 -6 -36 13 -36h29v-36h-176z" />
    <glyph glyph-name="y" unicode="y" horiz-adv-x="581" 
d="M114 -162v36c56 20 107 66 148 148l-182 425c-10 22 -27 37 -45 37h-19v38h195v-38h-86l167 -398l143 351c11 27 1 47 -26 47h-42v38h188v-38h-23c-18 0 -33 -14 -43 -37l-176 -418c-41 -97 -98 -163 -151 -191h-48z" />
    <glyph glyph-name="z" unicode="z" horiz-adv-x="481" 
d="M23 0v41l365 441h-292l-7 -105h-42v145h408v-42l-366 -440h304l7 106h42v-146h-419z" />
    <glyph glyph-name="braceleft" unicode="{" horiz-adv-x="312" 
d="M236 -49c-76 0 -122 33 -122 114v211c0 36 -20 58 -63 58h-28v40h28c43 0 63 21 63 58v195c0 77 46 114 122 114h53v-39h-50c-44 0 -71 -26 -71 -72v-195c0 -49 -26 -71 -64 -80v-1c38 -9 64 -32 64 -81v-210c0 -48 27 -74 71 -74h50v-38h-53z" />
    <glyph glyph-name="bar" unicode="|" horiz-adv-x="150" 
d="M51 -49v790h48v-790h-48z" />
    <glyph glyph-name="braceright" unicode="}" horiz-adv-x="312" 
d="M76 -49h-53v38h50c44 0 71 26 71 74v210c0 49 26 72 64 81v1c-38 9 -64 31 -64 80v195c0 46 -27 72 -71 72h-50v39h53c76 0 122 -37 122 -114v-195c0 -37 20 -58 63 -58h28v-40h-28c-43 0 -63 -22 -63 -58v-211c0 -81 -46 -114 -122 -114z" />
    <glyph glyph-name="asciitilde" unicode="~" horiz-adv-x="346" 
d="M23 238v32c12 28 40 58 83 58c45 0 100 -37 135 -37c25 0 39 16 44 43h38v-32c-13 -29 -40 -58 -82 -58c-46 0 -101 37 -136 37c-24 0 -39 -15 -44 -43h-38z" />
    <glyph glyph-name="exclamdown" unicode="&#xa1;" horiz-adv-x="154" 
d="M96 480l13 -520v-36h-64v36l13 520h38zM77 628c24 0 42 -18 42 -40c0 -23 -18 -41 -42 -41s-42 18 -42 41c0 22 18 40 42 40z" />
    <glyph glyph-name="cent" unicode="&#xa2;" horiz-adv-x="511" 
d="M258 -102v99c-147 10 -226 109 -226 265c0 153 90 250 226 263v60h43v-58c79 -1 126 -16 158 -30v-96h-40c-4 49 -13 61 -38 72c-20 9 -47 14 -80 15v-454c74 4 114 36 135 66h32v-42c-28 -27 -84 -58 -167 -61v-99h-43zM91 261c0 -135 57 -215 167 -226v451
c-102 -13 -167 -92 -167 -225z" />
    <glyph glyph-name="sterling" unicode="&#xa3;" horiz-adv-x="515" 
d="M31 364h71c-12 55 -24 109 -24 153c0 113 76 188 212 188c84 0 130 -14 186 -38v-120h-40c-5 55 -13 75 -29 89c-25 21 -60 28 -116 28c-105 0 -150 -57 -150 -147c0 -47 10 -99 20 -153h189v-40h-182c8 -46 15 -94 15 -145c0 -38 -9 -69 -23 -94c76 -26 180 -37 270 -37
l8 117h43v-165h-35c-131 0 -231 16 -313 49c-25 -26 -57 -42 -82 -49h-32v36c66 18 112 53 112 138c0 48 -10 100 -20 150h-80v40z" />
    <glyph glyph-name="fraction" unicode="&#x2044;" horiz-adv-x="196" 
d="M-173 -34l493 763h49l-493 -763h-49z" />
    <glyph glyph-name="yen" unicode="&#xa5;" horiz-adv-x="582" 
d="M174 0v36h53c17 0 34 18 34 34v137h-188v40h188v71h-188v40h170l-154 265c-13 23 -34 40 -58 40h-13v37h206v-37h-90l162 -289h2l131 229c23 40 8 60 -29 60h-39v37h203v-37h-20c-22 0 -39 -17 -51 -38l-157 -267h174v-40h-188v-71h188v-40h-188v-137
c0 -16 16 -34 34 -34h53v-36h-235z" />
    <glyph glyph-name="florin" unicode="&#x192;" horiz-adv-x="356" 
d="M46 426h74l18 150c11 92 60 129 134 129c37 0 60 -8 74 -13v-42h-28c-5 6 -16 13 -41 13c-46 0 -72 -25 -80 -89l-18 -148h112v-38h-117l-41 -339c-9 -73 -43 -116 -97 -138h-29v36c31 15 60 40 68 105l40 336h-69v38z" />
    <glyph glyph-name="section" unicode="&#xa7;" horiz-adv-x="520" 
d="M237 -131c-86 0 -139 15 -169 27v104h39c4 -48 14 -65 26 -73c21 -14 50 -20 104 -20c89 0 137 32 137 107c0 72 -52 90 -163 122c-113 32 -178 72 -178 160c0 77 56 120 139 136c-52 25 -80 63 -80 131c0 83 67 142 179 142c85 0 125 -13 155 -24v-95h-40
c-4 42 -11 57 -29 67c-21 10 -40 14 -86 14c-84 0 -127 -39 -127 -101c0 -66 40 -96 144 -121c112 -27 199 -66 199 -163c0 -79 -56 -125 -132 -144c46 -24 75 -56 75 -122c0 -92 -65 -147 -193 -147zM233 183l72 -22c72 9 128 45 128 114c0 68 -68 100 -163 123l-47 12
c-89 -12 -137 -45 -137 -105c0 -63 44 -93 147 -122z" />
    <glyph glyph-name="quotesingle" unicode="'" horiz-adv-x="126" 
d="M46 524l-13 131v45h60v-45l-13 -131h-34z" />
    <glyph glyph-name="quotedblleft" unicode="&#x201c;" horiz-adv-x="257" 
d="M117 702v-30c-26 -7 -42 -22 -42 -44c0 -12 10 -15 18 -21c11 -8 17 -17 17 -33c0 -19 -17 -34 -37 -34c-23 0 -44 16 -44 53c0 68 35 100 88 109zM232 702v-30c-26 -7 -42 -22 -42 -44c0 -12 10 -15 18 -21c11 -8 17 -17 17 -33c0 -19 -17 -34 -37 -34
c-23 0 -44 16 -44 53c0 68 35 100 88 109z" />
    <glyph glyph-name="guillemotleft" unicode="&#xab;" horiz-adv-x="433" 
d="M198 47l-162 194v37l162 194h33v-24l-142 -187v-2l142 -187v-25h-33zM367 47l-162 194v37l162 194h33v-24l-141 -187v-2l141 -187v-25h-33z" />
    <glyph glyph-name="guilsinglleft" unicode="&#x2039;" horiz-adv-x="263" 
d="M198 47l-162 194v37l162 194h33v-24l-143 -187v-2l143 -187v-25h-33z" />
    <glyph glyph-name="guilsinglright" unicode="&#x203a;" horiz-adv-x="263" 
d="M33 47v24l141 187v3l-141 186v25h33l162 -193v-37l-162 -195h-33z" />
    <glyph glyph-name="endash" unicode="&#x2013;" horiz-adv-x="398" 
d="M29 270v37h340v-37h-340z" />
    <glyph glyph-name="dagger" unicode="&#x2020;" horiz-adv-x="427" 
d="M199 -49l-17 258v162l19 94l-145 -18l-25 12v35l25 12l145 -18l-16 83v96l10 33h38l10 -33v-96l-17 -83l145 18l25 -12v-35l-25 -12l-145 18l20 -94v-162l-17 -258h-30z" />
    <glyph glyph-name="daggerdbl" unicode="&#x2021;" horiz-adv-x="428" 
d="M195 -49l-10 33v89l16 84l-145 -19l-25 12v35l25 12l145 -19l-17 82v131l17 81l-145 -18l-25 12v35l25 12l145 -18l-16 83v89l10 33h38l10 -33v-89l-17 -83l145 18l25 -12v-35l-25 -12l-145 18l18 -81v-131l-18 -82l145 19l25 -12v-35l-25 -12l-145 19l17 -84v-89
l-10 -33h-38z" />
    <glyph glyph-name="periodcentered" unicode="&#xb7;" horiz-adv-x="152" 
d="M76 272c-24 0 -42 18 -42 40c0 23 18 41 42 41s42 -18 42 -41c0 -22 -18 -40 -42 -40z" />
    <glyph glyph-name="paragraph" unicode="&#xb6;" horiz-adv-x="552" 
d="M279 -91v428h-15c-131 2 -233 39 -233 182c0 147 103 181 240 181h258v-37h-47c-17 0 -34 -19 -34 -35v-719h-45v752h-79v-752h-45z" />
    <glyph glyph-name="bullet" unicode="&#x2022;" horiz-adv-x="306" 
d="M153 185c-65 0 -118 43 -118 115s53 117 118 117c67 0 118 -45 118 -117s-51 -115 -118 -115z" />
    <glyph glyph-name="quotesinglbase" unicode="&#x201a;" horiz-adv-x="142" 
d="M25 -74v30c26 7 42 22 42 44c0 12 -10 15 -18 21c-11 8 -17 17 -17 33c0 19 17 34 37 34c23 0 44 -16 44 -53c0 -68 -35 -100 -88 -109z" />
    <glyph glyph-name="quotedblbase" unicode="&#x201e;" horiz-adv-x="257" 
d="M140 -74v30c26 7 42 22 42 44c0 12 -10 15 -18 21c-11 8 -17 17 -17 33c0 19 17 34 37 34c23 0 44 -16 44 -53c0 -68 -35 -100 -88 -109zM25 -74v30c26 7 42 22 42 44c0 12 -10 15 -18 21c-11 8 -17 17 -17 33c0 19 17 34 37 34c23 0 44 -16 44 -53
c0 -68 -35 -100 -88 -109z" />
    <glyph glyph-name="quotedblright" unicode="&#x201d;" horiz-adv-x="257" 
d="M140 542v30c26 7 42 22 42 44c0 12 -10 15 -18 21c-11 8 -17 17 -17 33c0 19 17 34 37 34c23 0 44 -16 44 -53c0 -68 -35 -100 -88 -109zM25 542v30c26 7 42 22 42 44c0 12 -10 15 -18 21c-11 8 -17 17 -17 33c0 19 17 34 37 34c23 0 44 -16 44 -53
c0 -68 -35 -100 -88 -109z" />
    <glyph glyph-name="guillemotright" unicode="&#xbb;" horiz-adv-x="433" 
d="M33 47v24l141 187v3l-141 186v25h33l162 -193v-37l-162 -195h-33zM202 47v24l142 187v3l-142 186v25h33l162 -193v-37l-162 -195h-33z" />
    <glyph glyph-name="ellipsis" unicode="&#x2026;" horiz-adv-x="464" 
d="M388 -4c-24 0 -42 18 -42 40c0 23 18 41 42 41s42 -18 42 -41c0 -22 -18 -40 -42 -40zM232 -4c-24 0 -42 18 -42 40c0 23 18 41 42 41s42 -18 42 -41c0 -22 -18 -40 -42 -40zM76 -4c-24 0 -42 18 -42 40c0 23 18 41 42 41s42 -18 42 -41c0 -22 -18 -40 -42 -40z" />
    <glyph glyph-name="perthousand" unicode="&#x2030;" horiz-adv-x="1067" 
d="M187 356c-83 0 -153 58 -153 174s70 175 153 175c82 0 152 -59 152 -175s-70 -174 -152 -174zM187 392c59 0 99 45 99 138c0 92 -40 138 -99 138c-60 0 -100 -46 -100 -138c0 -93 40 -138 100 -138zM91 -34l493 763h49l-493 -763h-49zM538 -5c-83 0 -153 58 -153 174
s70 175 153 175c82 0 152 -59 152 -175s-70 -174 -152 -174zM538 31c59 0 99 45 99 138c0 92 -40 138 -99 138c-60 0 -100 -46 -100 -138c0 -93 40 -138 100 -138zM881 -5c-83 0 -153 58 -153 174s70 175 153 175c82 0 152 -59 152 -175s-70 -174 -152 -174zM881 31
c59 0 99 45 99 138c0 92 -40 138 -99 138c-60 0 -100 -46 -100 -138c0 -93 40 -138 100 -138z" />
    <glyph glyph-name="questiondown" unicode="&#xbf;" horiz-adv-x="438" 
d="M289 480c13 -97 -16 -152 -76 -216c-48 -52 -117 -105 -117 -183c0 -79 43 -121 130 -121c46 0 78 8 100 20c20 11 30 27 34 79h39v-104c-39 -18 -89 -36 -175 -36c-118 0 -190 51 -190 162c0 94 67 142 130 203c59 57 93 104 84 196h41zM264 628c24 0 42 -18 42 -40
c0 -23 -18 -41 -42 -41s-42 18 -42 41c0 22 18 40 42 40z" />
    <glyph glyph-name="grave" unicode="`" horiz-adv-x="400" 
d="M188 573l-90 102v25h58l71 -127h-39z" />
    <glyph glyph-name="acute" unicode="&#xb4;" horiz-adv-x="400" 
d="M173 573l71 127h58v-25l-90 -102h-39z" />
    <glyph glyph-name="circumflex" unicode="&#x2c6;" horiz-adv-x="400" 
d="M88 573v20l84 107h56l83 -107v-20h-29l-82 89l-83 -89h-29z" />
    <glyph glyph-name="tilde" unicode="&#x2dc;" horiz-adv-x="400" 
d="M59 586v28c11 27 35 59 78 59c45 0 92 -39 127 -39c24 0 39 18 44 42h33v-28c-12 -29 -35 -58 -78 -58c-45 0 -92 39 -127 39c-24 0 -39 -17 -44 -43h-33z" />
    <glyph glyph-name="macron" unicode="&#xaf;" horiz-adv-x="400" 
d="M83 609v40h234v-40h-234z" />
    <glyph glyph-name="breve" unicode="&#x2d8;" horiz-adv-x="400" 
d="M200 575c-66 0 -106 41 -119 89v23h39c5 -44 35 -70 80 -70c46 0 75 26 80 70h39v-23c-13 -48 -53 -89 -119 -89z" />
    <glyph glyph-name="dotaccent" unicode="&#x2d9;" horiz-adv-x="400" 
d="M200 596c-22 0 -39 17 -39 39s17 39 39 39s39 -17 39 -39s-17 -39 -39 -39z" />
    <glyph glyph-name="dieresis" unicode="&#xa8;" horiz-adv-x="400" 
d="M127 597c-21 0 -38 17 -38 38s17 38 38 38s38 -17 38 -38s-17 -38 -38 -38zM273 597c-21 0 -38 17 -38 38s17 38 38 38s38 -17 38 -38s-17 -38 -38 -38z" />
    <glyph glyph-name="ring" unicode="&#x2da;" horiz-adv-x="400" 
d="M200 574c-48 0 -92 34 -92 90c0 54 44 89 92 89s92 -35 92 -89c0 -56 -44 -90 -92 -90zM200 605c32 0 57 23 57 59s-25 58 -57 58c-33 0 -57 -22 -57 -58s24 -59 57 -59z" />
    <glyph glyph-name="cedilla" unicode="&#xb8;" horiz-adv-x="400" 
d="M197 -174c-35 0 -56 7 -76 17v33h23c7 -10 25 -18 46 -18c29 0 46 14 46 36c0 26 -19 35 -62 35h-12v71h36v-41c54 0 85 -21 85 -67c0 -42 -35 -66 -86 -66z" />
    <glyph glyph-name="hungarumlaut" unicode="&#x2dd;" horiz-adv-x="400" 
d="M121 573l46 127h51v-25l-60 -102h-37zM242 573l46 127h51v-25l-60 -102h-37z" />
    <glyph glyph-name="ogonek" unicode="&#x2db;" horiz-adv-x="400" 
d="M231 -164c-53 0 -86 28 -86 69c0 46 37 76 72 95h43c-38 -28 -64 -52 -64 -86c0 -27 15 -43 40 -43c14 0 21 3 27 7h21v-33c-16 -6 -31 -9 -53 -9z" />
    <glyph glyph-name="caron" unicode="&#x2c7;" horiz-adv-x="400" 
d="M312 700v-20l-84 -107h-56l-83 107v20h29l82 -89l83 89h29z" />
    <glyph glyph-name="emdash" unicode="&#x2014;" horiz-adv-x="651" 
d="M29 270v37h593v-37h-593z" />
    <glyph glyph-name="AE" unicode="&#xc6;" horiz-adv-x="975" 
d="M930 700v-168h-42l-10 129h-309v-280h172l8 89h41v-218h-41l-8 90h-172v-303h321l9 141h44v-180h-517v36h81v192h-274l-70 -126c-22 -39 -13 -66 25 -66h53v-36h-227v36h22c23 0 45 17 56 38l305 547c12 22 3 42 -20 42h-57v37h610zM474 660l-218 -390h251v390h-33z" />
    <glyph glyph-name="ordfeminine" unicode="&#xaa;" horiz-adv-x="438" 
d="M167 254c-86 0 -145 39 -145 127c0 90 73 132 176 132c43 0 78 -4 114 -13v77c0 69 -42 88 -105 88c-64 0 -104 -19 -129 -41h-27v43c35 19 88 38 166 38c87 0 150 -28 150 -124v-251c0 -27 11 -38 35 -38c7 0 22 2 22 2v-32c-6 -3 -23 -8 -41 -8c-47 0 -69 22 -71 68
c-35 -40 -78 -68 -145 -68zM174 292c64 0 106 29 138 71v102c-32 8 -67 13 -105 13c-79 0 -132 -28 -132 -94c0 -70 40 -92 99 -92z" />
    <glyph glyph-name="Lslash" unicode="&#x141;" horiz-adv-x="568" 
d="M23 0v36h46c17 0 34 18 34 34v195l-85 -37v42l85 37v321c0 16 -17 35 -34 35h-46v37h253v-37h-111v-329l224 98v-42l-224 -98v-253h322l9 155h45v-194h-518z" />
    <glyph glyph-name="Oslash" unicode="&#xd8;" horiz-adv-x="728" 
d="M365 -5c-72 0 -139 20 -194 60l-63 -84h-49l81 110c-63 60 -102 150 -102 269c0 230 150 355 327 355c72 0 139 -21 193 -61l58 77h50l-77 -103c62 -60 101 -151 101 -268c0 -230 -149 -355 -325 -355zM102 349c0 -99 25 -175 69 -227l359 483c-44 38 -101 58 -165 58
c-148 0 -263 -108 -263 -314zM365 37c147 0 261 106 261 312c0 98 -25 175 -68 227l-359 -483c44 -37 101 -56 166 -56z" />
    <glyph glyph-name="OE" unicode="&#x152;" horiz-adv-x="964" 
d="M393 0c-231 0 -355 101 -355 349c0 247 124 351 357 351h524v-168h-42l-10 129h-310v-280h173l8 89h41v-218h-41l-8 90h-173v-303h322l9 141h44v-180h-539zM495 661h-100c-199 0 -294 -88 -294 -311c0 -224 95 -311 294 -311h100v622z" />
    <glyph glyph-name="ordmasculine" unicode="&#xba;" horiz-adv-x="489" 
d="M245 254c-123 0 -217 84 -217 225c0 139 94 226 217 226c124 0 217 -87 217 -226c0 -141 -93 -225 -217 -225zM245 291c97 0 161 67 161 187s-64 188 -161 188s-161 -68 -161 -188s64 -187 161 -187z" />
    <glyph glyph-name="ae" unicode="&#xe6;" horiz-adv-x="858" 
d="M199 -5c-104 0 -173 49 -173 151c0 107 87 158 208 158c58 0 94 -5 136 -14v87c0 84 -51 109 -121 109c-81 0 -130 -26 -160 -52h-29v49c41 23 103 44 195 44c84 0 145 -24 158 -112c39 70 103 112 193 112c132 0 221 -74 221 -243c0 -10 -1 -25 -1 -27h-397
c1 -133 61 -223 192 -223c83 0 133 29 160 61h33v-41c-37 -29 -99 -58 -196 -58c-109 0 -182 50 -215 117c-50 -76 -109 -118 -204 -118zM207 35c85 0 133 40 179 113c-10 31 -16 65 -16 105c-39 8 -75 13 -126 13c-95 0 -162 -36 -162 -117c0 -83 48 -114 125 -114z
M429 296h340c-2 136 -64 193 -163 193c-104 0 -168 -74 -177 -193z" />
    <glyph glyph-name="dotlessi" unicode="&#x131;" horiz-adv-x="257" 
d="M21 0v36h49c15 0 29 14 29 29v389c0 14 -14 30 -29 30h-54v38h126c11 0 15 -7 15 -31v-426c0 -15 15 -29 29 -29h50v-36h-215z" />
    <glyph glyph-name="lslash" unicode="&#x142;" horiz-adv-x="257" 
d="M21 0v36h49c15 0 30 14 30 29v267l-81 -58v43l81 58v258c0 14 -15 30 -30 30h-53v37h127c10 0 13 -6 13 -18v-269l85 62v-43l-85 -61v-306c0 -15 15 -29 30 -29h50v-36h-216z" />
    <glyph glyph-name="oslash" unicode="&#xf8;" horiz-adv-x="574" 
d="M287 -4c-56 0 -107 15 -148 42l-48 -63h-46l65 86c-49 45 -78 114 -78 200c0 165 109 266 255 266c56 0 107 -15 148 -43l45 59h46l-63 -82c49 -46 79 -114 79 -200c0 -165 -108 -265 -255 -265zM287 34c116 0 196 82 196 226c0 69 -17 125 -49 163l-269 -351
c32 -25 73 -38 122 -38zM91 260c0 -69 17 -123 48 -162l269 351c-32 25 -73 38 -121 38c-116 0 -196 -82 -196 -227z" />
    <glyph glyph-name="oe" unicode="&#x153;" horiz-adv-x="969" 
d="M729 -4c-120 0 -193 54 -224 146c-36 -93 -115 -146 -220 -146c-146 0 -253 100 -253 265s107 266 253 266c106 0 187 -56 221 -151c33 95 108 151 210 151c134 0 222 -73 222 -244c0 -11 -1 -22 -1 -24h-403c1 -146 67 -225 199 -225c84 0 131 29 158 61h34v-41
c-37 -29 -97 -58 -196 -58zM285 34c116 0 194 83 194 226c0 144 -78 227 -194 227s-194 -83 -194 -227c0 -143 78 -226 194 -226zM536 298h344c-3 138 -66 191 -164 191c-102 0 -170 -69 -180 -191z" />
    <glyph glyph-name="germandbls" unicode="&#xdf;" horiz-adv-x="612" 
d="M405 -4c-59 0 -107 10 -138 23v95h38c3 -43 10 -58 27 -67c22 -11 39 -13 74 -13c69 0 120 32 120 104c0 64 -55 83 -116 105c-87 32 -124 58 -124 113c0 46 37 79 89 117c44 33 80 61 80 108c0 60 -53 84 -128 84c-116 0 -175 -61 -175 -170v-459h57v-36h-188v36h44
c15 0 29 14 29 29v419h-78v38h78c10 107 88 183 233 183c99 0 184 -31 184 -123c0 -58 -44 -96 -100 -135c-47 -33 -72 -55 -72 -84c0 -31 15 -42 91 -70c86 -32 149 -58 149 -148c0 -95 -67 -149 -174 -149z" />
    <glyph glyph-name="onesuperior" unicode="&#xb9;" horiz-adv-x="250" 
d="M19 327v31h58c11 0 23 14 23 24v273l-65 -38h-18v32l99 51h36v-318c0 -10 12 -24 23 -24h55v-31h-211z" />
    <glyph glyph-name="trademark" unicode="&#x2122;" horiz-adv-x="694" 
d="M84 427v25h27c8 0 15 8 15 15v204h-67l-5 -66h-30v95h250v-95h-30l-6 66h-66v-204c0 -7 7 -15 14 -15h28v-25h-130zM302 427v25h25c7 0 15 8 15 15v192c0 6 -8 14 -15 14h-25v27h109l76 -206h1l77 206h107v-27h-26c-6 0 -13 -8 -13 -14v-192c0 -7 7 -15 13 -15h26v-25
h-118v25h33v213h-2l-89 -238h-30l-88 238h-2v-213h33v-25h-107z" />
    <glyph glyph-name="Eth" unicode="&#xd0;" horiz-adv-x="691" 
d="M24 329v39h79v260c0 16 -17 35 -34 35h-46v37h275c231 0 355 -101 355 -349c0 -247 -124 -351 -357 -351h-273v36h46c17 0 34 18 34 34v259h-79zM165 39h131c199 0 294 86 294 311c0 226 -95 311 -294 311h-131v-293h202v-39h-202v-290z" />
    <glyph glyph-name="onehalf" unicode="&#xbd;" horiz-adv-x="707" 
d="M418 0v26c0 66 51 109 110 144c52 31 94 55 94 102c0 44 -27 70 -77 70c-29 0 -49 -4 -63 -13c-11 -7 -15 -21 -19 -46h-30v72c32 13 72 21 117 21c78 0 125 -37 125 -101c0 -65 -61 -98 -114 -129c-55 -32 -96 -58 -99 -108h170l5 58h33v-96h-252zM22 327v31h58
c11 0 23 14 23 24v273l-65 -38h-18v32l99 51h36v-318c0 -10 12 -24 23 -24h55v-31h-211zM70 -34l493 763h49l-493 -763h-49z" />
    <glyph glyph-name="Thorn" unicode="&#xde;" horiz-adv-x="574" 
d="M23 0v36h46c17 0 34 18 34 34v558c0 16 -17 35 -34 35h-46v37h238v-37h-96v-119h133c144 0 246 -43 246 -185c0 -141 -98 -187 -247 -187h-132v-136h98v-36h-240zM165 211h132c119 0 184 38 184 147s-72 145 -184 145h-132v-292z" />
    <glyph glyph-name="onequarter" unicode="&#xbc;" horiz-adv-x="670" 
d="M482 0v31h35c10 0 23 14 23 24v44h-186v36l188 238h49v-242h54v-32h-54v-44c0 -10 13 -24 23 -24h31v-31h-163zM393 131h147v187h-2l-145 -185v-2zM22 327v31h58c11 0 23 14 23 24v273l-65 -38h-18v32l99 51h36v-318c0 -10 12 -24 23 -24h55v-31h-211zM80 -34l493 763h49
l-493 -763h-49z" />
    <glyph glyph-name="divide" unicode="&#xf7;" horiz-adv-x="479" 
d="M240 158c-23 0 -40 17 -40 39s17 39 40 39c22 0 39 -17 39 -39s-17 -39 -39 -39zM240 455c-23 0 -40 17 -40 39s17 39 40 39c22 0 39 -17 39 -39s-17 -39 -39 -39zM37 324v43h405v-43h-405z" />
    <glyph glyph-name="brokenbar" unicode="&#xa6;" horiz-adv-x="150" 
d="M51 -49v360h48v-360h-48zM51 383v358h48v-358h-48z" />
    <glyph glyph-name="degree" unicode="&#xb0;" horiz-adv-x="326" 
d="M164 452c-69 0 -129 50 -129 126c0 77 60 127 129 127c68 0 128 -50 128 -127c0 -76 -60 -126 -128 -126zM164 487c46 0 84 38 84 91c0 55 -38 92 -84 92s-85 -37 -85 -92c0 -53 39 -91 85 -91z" />
    <glyph glyph-name="thorn" unicode="&#xfe;" horiz-adv-x="561" 
d="M-9 -162v34h44c15 0 29 15 29 29v732c0 14 -14 30 -29 30h-48v37h121c10 0 14 -6 14 -18v-261c42 52 104 106 200 106c99 0 207 -62 207 -259c0 -203 -121 -267 -232 -267c-90 0 -138 31 -175 67v-196h93v-34h-224zM288 40c83 0 182 41 182 224c0 176 -89 219 -166 219
c-78 0 -139 -51 -182 -103v-270c40 -41 87 -70 166 -70z" />
    <glyph glyph-name="threequarters" unicode="&#xbe;" horiz-adv-x="669" 
d="M132 324c-45 0 -80 9 -107 20v69h32c2 -22 5 -37 14 -44c10 -8 32 -12 60 -12c60 0 88 29 88 78s-38 68 -84 68h-36v32h33c47 0 80 22 80 68c0 42 -23 67 -73 67c-29 0 -46 -4 -58 -12c-8 -6 -12 -16 -15 -41h-30v66c30 12 67 20 107 20c74 0 120 -32 120 -93
c0 -51 -31 -78 -75 -89v-2c50 -8 83 -38 83 -87c0 -68 -49 -108 -139 -108zM481 0v31h35c10 0 23 14 23 24v44h-186v36l188 238h49v-242h54v-32h-54v-44c0 -10 13 -24 23 -24h31v-31h-163zM392 131h147v187h-2l-145 -185v-2zM83 -34l493 763h49l-493 -763h-49z" />
    <glyph glyph-name="twosuperior" unicode="&#xb2;" horiz-adv-x="309" 
d="M23 327v26c0 66 51 109 110 144c52 31 94 55 94 102c0 44 -27 70 -77 70c-29 0 -49 -4 -63 -13c-11 -7 -15 -21 -19 -46h-30v72c32 13 72 21 117 21c78 0 125 -37 125 -101c0 -65 -61 -98 -114 -129c-55 -32 -96 -58 -99 -108h170l5 58h33v-96h-252z" />
    <glyph glyph-name="registered" unicode="&#xae;" horiz-adv-x="406" 
d="M180 540h26c23 0 32 9 32 29c0 18 -6 29 -32 29h-26v-58zM203 350c-96 0 -181 66 -181 179c0 114 85 179 181 179c95 0 181 -65 181 -179c0 -113 -86 -179 -181 -179zM203 377c82 0 150 55 150 152s-68 152 -150 152s-150 -55 -150 -152s68 -152 150 -152zM122 443v21h12
c3 0 9 5 9 9v118c0 3 -6 9 -9 9h-12v21h86c47 0 69 -17 69 -50c0 -22 -13 -35 -37 -41v-1c17 -3 24 -13 32 -36l7 -21c1 -4 8 -8 10 -8h9v-21h-51l-12 50c-4 17 -10 26 -29 26h-25v-55h23v-21h-82z" />
    <glyph glyph-name="minus" unicode="&#x2212;" horiz-adv-x="479" 
d="M37 324v43h405v-43h-405z" />
    <glyph glyph-name="eth" unicode="&#xf0;" horiz-adv-x="574" 
d="M432 685l-72 -49c101 -66 182 -179 182 -359c0 -194 -108 -281 -255 -281c-146 0 -255 101 -255 264c0 162 106 266 247 266c83 0 135 -30 179 -83c-33 75 -77 127 -141 166l-83 -57h-40v15l90 61c-35 18 -73 28 -102 34v38h23c34 -8 79 -22 120 -45l67 45h40v-15z
M287 34c116 0 196 82 196 224c0 141 -78 229 -196 229c-116 0 -196 -82 -196 -227c0 -142 80 -226 196 -226z" />
    <glyph glyph-name="multiply" unicode="&#xd7;" horiz-adv-x="476" 
d="M85 152l-31 32l152 154l-152 155l31 31l152 -154l154 154l31 -31l-154 -155l154 -154l-31 -32l-154 155z" />
    <glyph glyph-name="threesuperior" unicode="&#xb3;" horiz-adv-x="295" 
d="M129 324c-45 0 -80 9 -107 20v69h32c2 -22 5 -37 14 -44c10 -8 32 -12 60 -12c60 0 88 29 88 78s-38 68 -84 68h-36v32h33c47 0 80 22 80 68c0 42 -23 67 -73 67c-29 0 -46 -4 -58 -12c-8 -6 -12 -16 -15 -41h-30v66c30 12 67 20 107 20c74 0 120 -32 120 -93
c0 -51 -31 -78 -75 -89v-2c50 -8 83 -38 83 -87c0 -68 -49 -108 -139 -108z" />
    <glyph glyph-name="copyright" unicode="&#xa9;" horiz-adv-x="765" 
d="M389 157c-110 0 -187 66 -187 195c0 130 85 193 183 193c54 0 81 -16 95 -23c5 0 11 11 12 19h33v-127h-34l-8 56c-24 23 -49 39 -97 39c-67 0 -128 -45 -128 -156c0 -107 50 -160 131 -160c59 0 94 23 114 52h29v-35c-31 -29 -75 -53 -143 -53zM382 -5
c-189 0 -351 125 -351 355s162 355 351 355c190 0 352 -125 352 -355s-162 -355 -352 -355zM382 29c174 0 312 114 312 321c0 208 -138 321 -312 321c-172 0 -311 -113 -311 -321c0 -207 139 -321 311 -321z" />
    <glyph glyph-name="Aacute" unicode="&#xc1;" horiz-adv-x="705" 
d="M567 36l-67 193h-304l-45 -127c-15 -41 -8 -66 31 -66h56v-36h-222v36h27c23 0 42 16 50 38l198 552c8 22 -3 37 -25 37h-55v37h188l216 -623c8 -22 29 -41 49 -41h29v-36h-233v36h107zM348 654l-137 -385h275l-133 385h-5zM316 736l71 127h58v-25l-90 -102h-39z" />
    <glyph glyph-name="Acircumflex" unicode="&#xc2;" horiz-adv-x="705" 
d="M567 36l-67 193h-304l-45 -127c-15 -41 -8 -66 31 -66h56v-36h-222v36h27c23 0 42 16 50 38l198 552c8 22 -3 37 -25 37h-55v37h188l216 -623c8 -22 29 -41 49 -41h29v-36h-233v36h107zM348 654l-137 -385h275l-133 385h-5zM228 736v20l84 107h56l83 -107v-20h-29l-82 89
l-83 -89h-29z" />
    <glyph glyph-name="Adieresis" unicode="&#xc4;" horiz-adv-x="705" 
d="M567 36l-67 193h-304l-45 -127c-15 -41 -8 -66 31 -66h56v-36h-222v36h27c23 0 42 16 50 38l198 552c8 22 -3 37 -25 37h-55v37h188l216 -623c8 -22 29 -41 49 -41h29v-36h-233v36h107zM348 654l-137 -385h275l-133 385h-5zM270 760c-21 0 -38 17 -38 38s17 38 38 38
s38 -17 38 -38s-17 -38 -38 -38zM416 760c-21 0 -38 17 -38 38s17 38 38 38s38 -17 38 -38s-17 -38 -38 -38z" />
    <glyph glyph-name="Agrave" unicode="&#xc0;" horiz-adv-x="705" 
d="M567 36l-67 193h-304l-45 -127c-15 -41 -8 -66 31 -66h56v-36h-222v36h27c23 0 42 16 50 38l198 552c8 22 -3 37 -25 37h-55v37h188l216 -623c8 -22 29 -41 49 -41h29v-36h-233v36h107zM348 654l-137 -385h275l-133 385h-5zM331 736l-90 102v25h58l71 -127h-39z" />
    <glyph glyph-name="Aring" unicode="&#xc5;" horiz-adv-x="707" 
d="M567 36l-67 193h-304l-45 -127c-15 -41 -8 -66 31 -66h56v-36h-222v36h27c23 0 42 16 50 38l198 552c8 22 -3 37 -25 37h-55v37h188l216 -623c8 -22 29 -41 49 -41h29v-36h-233v36h107zM348 654l-137 -385h275l-133 385h-5zM338 737c-48 0 -92 34 -92 90
c0 54 44 89 92 89s92 -35 92 -89c0 -56 -44 -90 -92 -90zM338 768c32 0 57 23 57 59s-25 58 -57 58c-33 0 -57 -22 -57 -58s24 -59 57 -59z" />
    <glyph glyph-name="Atilde" unicode="&#xc3;" horiz-adv-x="705" 
d="M567 36l-67 193h-304l-45 -127c-15 -41 -8 -66 31 -66h56v-36h-222v36h27c23 0 42 16 50 38l198 552c8 22 -3 37 -25 37h-55v37h188l216 -623c8 -22 29 -41 49 -41h29v-36h-233v36h107zM348 654l-137 -385h275l-133 385h-5zM195 749v28c11 27 35 59 78 59
c45 0 92 -39 127 -39c24 0 39 18 44 42h33v-28c-12 -29 -35 -58 -78 -58c-45 0 -92 39 -127 39c-24 0 -39 -17 -44 -43h-33z" />
    <glyph glyph-name="Ccedilla" unicode="&#xc7;" horiz-adv-x="636" 
d="M342 -174c-35 0 -56 7 -76 17v33h23c7 -10 25 -18 46 -18c29 0 46 14 46 36c0 26 -19 35 -62 35h-12v69c-162 20 -269 140 -269 354c0 236 147 353 329 353c91 0 137 -22 162 -33c7 0 16 13 17 28h41v-197h-43l-11 103c-31 27 -86 57 -165 57c-147 0 -266 -94 -266 -309
c0 -213 100 -317 258 -317c108 0 174 39 210 93h34v-45c-54 -53 -124 -90 -246 -90h-15v-36c54 0 85 -21 85 -67c0 -42 -35 -66 -86 -66z" />
    <glyph glyph-name="Eacute" unicode="&#xc9;" horiz-adv-x="585" 
d="M272 736l71 127h58v-25l-90 -102h-39zM23 0v36h46c17 0 34 18 34 34v558c0 16 -17 35 -34 35h-46v37h517v-168h-42l-10 129h-323v-280h186l8 89h41v-218h-41l-8 90h-186v-303h335l9 141h44v-180h-530z" />
    <glyph glyph-name="Ecircumflex" unicode="&#xca;" horiz-adv-x="585" 
d="M194 736v20l84 107h56l83 -107v-20h-29l-82 89l-83 -89h-29zM23 0v36h46c17 0 34 18 34 34v558c0 16 -17 35 -34 35h-46v37h517v-168h-42l-10 129h-323v-280h186l8 89h41v-218h-41l-8 90h-186v-303h335l9 141h44v-180h-530z" />
    <glyph glyph-name="Edieresis" unicode="&#xcb;" horiz-adv-x="585" 
d="M232 760c-21 0 -38 17 -38 38s17 38 38 38s38 -17 38 -38s-17 -38 -38 -38zM378 760c-21 0 -38 17 -38 38s17 38 38 38s38 -17 38 -38s-17 -38 -38 -38zM23 0v36h46c17 0 34 18 34 34v558c0 16 -17 35 -34 35h-46v37h517v-168h-42l-10 129h-323v-280h186l8 89h41v-218
h-41l-8 90h-186v-303h335l9 141h44v-180h-530z" />
    <glyph glyph-name="Egrave" unicode="&#xc8;" horiz-adv-x="585" 
d="M23 0v36h46c17 0 34 18 34 34v558c0 16 -17 35 -34 35h-46v37h517v-168h-42l-10 129h-323v-280h186l8 89h41v-218h-41l-8 90h-186v-303h335l9 141h44v-180h-530zM295 736l-90 102v25h58l71 -127h-39z" />
    <glyph glyph-name="Iacute" unicode="&#xcd;" horiz-adv-x="286" 
d="M23 0v36h56c17 0 33 18 33 34v558c0 16 -16 35 -33 35h-56v37h241v-37h-56c-17 0 -34 -19 -34 -35v-558c0 -16 17 -34 34 -34h56v-36h-241zM119 736l71 127h58v-25l-90 -102h-39z" />
    <glyph glyph-name="Icircumflex" unicode="&#xce;" horiz-adv-x="286" 
d="M23 0v36h56c17 0 33 18 33 34v558c0 16 -16 35 -33 35h-56v37h241v-37h-56c-17 0 -34 -19 -34 -35v-558c0 -16 17 -34 34 -34h56v-36h-241zM32 736v20l84 107h56l83 -107v-20h-29l-82 89l-83 -89h-29z" />
    <glyph glyph-name="Idieresis" unicode="&#xcf;" horiz-adv-x="286" 
d="M23 0v36h56c17 0 33 18 33 34v558c0 16 -16 35 -33 35h-56v37h241v-37h-56c-17 0 -34 -19 -34 -35v-558c0 -16 17 -34 34 -34h56v-36h-241zM70 760c-21 0 -38 17 -38 38s17 38 38 38s38 -17 38 -38s-17 -38 -38 -38zM216 760c-21 0 -38 17 -38 38s17 38 38 38
s38 -17 38 -38s-17 -38 -38 -38z" />
    <glyph glyph-name="Igrave" unicode="&#xcc;" horiz-adv-x="286" 
d="M23 0v36h56c17 0 33 18 33 34v558c0 16 -16 35 -33 35h-56v37h241v-37h-56c-17 0 -34 -19 -34 -35v-558c0 -16 17 -34 34 -34h56v-36h-241zM134 736l-90 102v25h58l71 -127h-39z" />
    <glyph glyph-name="Ntilde" unicode="&#xd1;" horiz-adv-x="713" 
d="M23 0v36h46c17 0 34 18 34 34v558c0 16 -17 35 -34 35h-46v37h156l382 -601h1v564h-100v37h230v-37h-46c-17 0 -34 -19 -34 -35v-628h-55l-399 626h-5v-590h103v-36h-233zM207 749v28c11 27 35 59 78 59c45 0 92 -39 127 -39c24 0 39 18 44 42h33v-28
c-12 -29 -35 -58 -78 -58c-45 0 -92 39 -127 39c-24 0 -39 -17 -44 -43h-33z" />
    <glyph glyph-name="Oacute" unicode="&#xd3;" horiz-adv-x="728" 
d="M339 737l71 127h58v-25l-90 -102h-39zM365 -5c-177 0 -327 125 -327 355s150 355 327 355c176 0 325 -125 325 -355s-149 -355 -325 -355zM365 37c147 0 261 106 261 312s-114 314 -261 314c-148 0 -263 -108 -263 -314s115 -312 263 -312z" />
    <glyph glyph-name="Ocircumflex" unicode="&#xd4;" horiz-adv-x="728" 
d="M252 737v20l84 107h56l83 -107v-20h-29l-82 89l-83 -89h-29zM365 -5c-177 0 -327 125 -327 355s150 355 327 355c176 0 325 -125 325 -355s-149 -355 -325 -355zM365 37c147 0 261 106 261 312s-114 314 -261 314c-148 0 -263 -108 -263 -314s115 -312 263 -312z" />
    <glyph glyph-name="Odieresis" unicode="&#xd6;" horiz-adv-x="728" 
d="M291 761c-21 0 -38 17 -38 38s17 38 38 38s38 -17 38 -38s-17 -38 -38 -38zM437 761c-21 0 -38 17 -38 38s17 38 38 38s38 -17 38 -38s-17 -38 -38 -38zM365 -5c-177 0 -327 125 -327 355s150 355 327 355c176 0 325 -125 325 -355s-149 -355 -325 -355zM365 37
c147 0 261 106 261 312s-114 314 -261 314c-148 0 -263 -108 -263 -314s115 -312 263 -312z" />
    <glyph glyph-name="Ograve" unicode="&#xd2;" horiz-adv-x="728" 
d="M365 -5c-177 0 -327 125 -327 355s150 355 327 355c176 0 325 -125 325 -355s-149 -355 -325 -355zM365 37c147 0 261 106 261 312s-114 314 -261 314c-148 0 -263 -108 -263 -314s115 -312 263 -312zM352 737l-90 102v25h58l71 -127h-39z" />
    <glyph glyph-name="Otilde" unicode="&#xd5;" horiz-adv-x="728" 
d="M365 -5c-177 0 -327 125 -327 355s150 355 327 355c176 0 325 -125 325 -355s-149 -355 -325 -355zM365 37c147 0 261 106 261 312s-114 314 -261 314c-148 0 -263 -108 -263 -314s115 -312 263 -312zM223 750v28c11 27 35 59 78 59c45 0 92 -39 127 -39
c24 0 39 18 44 42h33v-28c-12 -29 -35 -58 -78 -58c-45 0 -92 39 -127 39c-24 0 -39 -17 -44 -43h-33z" />
    <glyph glyph-name="Scaron" unicode="&#x160;" horiz-adv-x="518" 
d="M371 864v-20l-84 -107h-56l-83 107v20h29l82 -89l83 89h29zM252 -5c-90 0 -143 30 -162 39c-7 0 -15 -11 -17 -34h-42v196h45l9 -98c32 -27 80 -61 165 -61c105 0 178 43 178 155c0 105 -90 119 -190 147c-108 30 -192 67 -192 186c0 110 72 180 212 180
c76 0 121 -24 139 -32c8 0 13 11 15 27h41v-176h-43l-9 87c-32 26 -72 52 -142 52c-110 0 -159 -51 -159 -135c0 -93 79 -115 172 -141c116 -32 212 -64 212 -193c0 -136 -95 -199 -232 -199z" />
    <glyph glyph-name="Uacute" unicode="&#xda;" horiz-adv-x="715" 
d="M339 736l71 127h58v-25l-90 -102h-39zM362 -5c-154 0 -263 65 -263 241v392c0 16 -16 35 -34 35h-42v37h238v-37h-100v-428c0 -153 89 -196 205 -196c114 0 202 40 202 196v428h-100v37h224v-37h-42c-17 0 -34 -19 -34 -35v-392c0 -175 -100 -241 -254 -241z" />
    <glyph glyph-name="Ucircumflex" unicode="&#xdb;" horiz-adv-x="715" 
d="M253 736v20l84 107h56l83 -107v-20h-29l-82 89l-83 -89h-29zM362 -5c-154 0 -263 65 -263 241v392c0 16 -16 35 -34 35h-42v37h238v-37h-100v-428c0 -153 89 -196 205 -196c114 0 202 40 202 196v428h-100v37h224v-37h-42c-17 0 -34 -19 -34 -35v-392
c0 -175 -100 -241 -254 -241z" />
    <glyph glyph-name="Udieresis" unicode="&#xdc;" horiz-adv-x="715" 
d="M294 760c-21 0 -38 17 -38 38s17 38 38 38s38 -17 38 -38s-17 -38 -38 -38zM440 760c-21 0 -38 17 -38 38s17 38 38 38s38 -17 38 -38s-17 -38 -38 -38zM362 -5c-154 0 -263 65 -263 241v392c0 16 -16 35 -34 35h-42v37h238v-37h-100v-428c0 -153 89 -196 205 -196
c114 0 202 40 202 196v428h-100v37h224v-37h-42c-17 0 -34 -19 -34 -35v-392c0 -175 -100 -241 -254 -241z" />
    <glyph glyph-name="Ugrave" unicode="&#xd9;" horiz-adv-x="715" 
d="M362 -5c-154 0 -263 65 -263 241v392c0 16 -16 35 -34 35h-42v37h238v-37h-100v-428c0 -153 89 -196 205 -196c114 0 202 40 202 196v428h-100v37h224v-37h-42c-17 0 -34 -19 -34 -35v-392c0 -175 -100 -241 -254 -241zM355 736l-90 102v25h58l71 -127h-39z" />
    <glyph glyph-name="Yacute" unicode="&#xdd;" horiz-adv-x="646" 
d="M207 0v38h53c17 0 34 18 34 34v223l-199 328c-13 22 -34 40 -58 40h-16v37h212v-37h-92l191 -316h2l155 255c24 40 9 61 -29 61h-38v37h204v-37h-21c-21 0 -37 -16 -50 -38l-200 -328v-225c0 -16 17 -34 34 -34h53v-38h-235zM299 736l71 127h58v-25l-90 -102h-39z" />
    <glyph glyph-name="Ydieresis" unicode="&#x178;" horiz-adv-x="646" 
d="M207 0v38h53c17 0 34 18 34 34v223l-199 328c-13 22 -34 40 -58 40h-16v37h212v-37h-92l191 -316h2l155 255c24 40 9 61 -29 61h-38v37h204v-37h-21c-21 0 -37 -16 -50 -38l-200 -328v-225c0 -16 17 -34 34 -34h53v-38h-235zM257 753c-21 0 -38 17 -38 38s17 38 38 38
s38 -17 38 -38s-17 -38 -38 -38zM403 753c-21 0 -38 17 -38 38s17 38 38 38s38 -17 38 -38s-17 -38 -38 -38z" />
    <glyph glyph-name="Zcaron" unicode="&#x17d;" horiz-adv-x="555" 
d="M397 863v-20l-84 -107h-56l-83 107v20h29l82 -89l83 89h29zM23 0v43l442 616v2h-363l-10 -127h-42v166h482v-45l-443 -615v-1h379l9 133h44v-172h-498z" />
    <glyph glyph-name="aacute" unicode="&#xe1;" horiz-adv-x="516" 
d="M199 -5c-103 0 -173 48 -173 152c0 105 87 152 208 152c51 0 95 -5 136 -16v94c0 84 -51 109 -125 109c-77 0 -126 -25 -156 -52h-29v49c41 23 103 44 190 44c106 0 178 -33 178 -145v-303c0 -31 13 -44 41 -44c12 0 26 3 26 3v-33c-6 -3 -24 -9 -45 -9
c-50 0 -80 21 -80 70v11c-40 -50 -94 -82 -171 -82zM207 35c78 0 123 36 163 85v126c-39 9 -81 15 -126 15c-99 0 -162 -33 -162 -114c0 -79 47 -112 125 -112zM212 573l71 127h58v-25l-90 -102h-39z" />
    <glyph glyph-name="acircumflex" unicode="&#xe2;" horiz-adv-x="516" 
d="M199 -5c-103 0 -173 48 -173 152c0 105 87 152 208 152c51 0 95 -5 136 -16v94c0 84 -51 109 -125 109c-77 0 -126 -25 -156 -52h-29v49c41 23 103 44 190 44c106 0 178 -33 178 -145v-303c0 -31 13 -44 41 -44c12 0 26 3 26 3v-33c-6 -3 -24 -9 -45 -9
c-50 0 -80 21 -80 70v11c-40 -50 -94 -82 -171 -82zM207 35c78 0 123 36 163 85v126c-39 9 -81 15 -126 15c-99 0 -162 -33 -162 -114c0 -79 47 -112 125 -112zM127 573v20l84 107h56l83 -107v-20h-29l-82 89l-83 -89h-29z" />
    <glyph glyph-name="adieresis" unicode="&#xe4;" horiz-adv-x="516" 
d="M199 -5c-103 0 -173 48 -173 152c0 105 87 152 208 152c51 0 95 -5 136 -16v94c0 84 -51 109 -125 109c-77 0 -126 -25 -156 -52h-29v49c41 23 103 44 190 44c106 0 178 -33 178 -145v-303c0 -31 13 -44 41 -44c12 0 26 3 26 3v-33c-6 -3 -24 -9 -45 -9
c-50 0 -80 21 -80 70v11c-40 -50 -94 -82 -171 -82zM207 35c78 0 123 36 163 85v126c-39 9 -81 15 -126 15c-99 0 -162 -33 -162 -114c0 -79 47 -112 125 -112zM166 597c-21 0 -38 17 -38 38s17 38 38 38s38 -17 38 -38s-17 -38 -38 -38zM312 597c-21 0 -38 17 -38 38
s17 38 38 38s38 -17 38 -38s-17 -38 -38 -38z" />
    <glyph glyph-name="agrave" unicode="&#xe0;" horiz-adv-x="516" 
d="M199 -5c-103 0 -173 48 -173 152c0 105 87 152 208 152c51 0 95 -5 136 -16v94c0 84 -51 109 -125 109c-77 0 -126 -25 -156 -52h-29v49c41 23 103 44 190 44c106 0 178 -33 178 -145v-303c0 -31 13 -44 41 -44c12 0 26 3 26 3v-33c-6 -3 -24 -9 -45 -9
c-50 0 -80 21 -80 70v11c-40 -50 -94 -82 -171 -82zM207 35c78 0 123 36 163 85v126c-39 9 -81 15 -126 15c-99 0 -162 -33 -162 -114c0 -79 47 -112 125 -112zM227 573l-90 102v25h58l71 -127h-39z" />
    <glyph glyph-name="aring" unicode="&#xe5;" horiz-adv-x="516" 
d="M199 -5c-103 0 -173 48 -173 152c0 105 87 152 208 152c51 0 95 -5 136 -16v94c0 84 -51 109 -125 109c-77 0 -126 -25 -156 -52h-29v49c41 23 103 44 190 44c106 0 178 -33 178 -145v-303c0 -31 13 -44 41 -44c12 0 26 3 26 3v-33c-6 -3 -24 -9 -45 -9
c-50 0 -80 21 -80 70v11c-40 -50 -94 -82 -171 -82zM207 35c78 0 123 36 163 85v126c-39 9 -81 15 -126 15c-99 0 -162 -33 -162 -114c0 -79 47 -112 125 -112zM239 574c-48 0 -92 34 -92 90c0 54 44 89 92 89s92 -35 92 -89c0 -56 -44 -90 -92 -90zM239 605
c32 0 57 23 57 59s-25 58 -57 58c-33 0 -57 -22 -57 -58s24 -59 57 -59z" />
    <glyph glyph-name="atilde" unicode="&#xe3;" horiz-adv-x="516" 
d="M199 -5c-103 0 -173 48 -173 152c0 105 87 152 208 152c51 0 95 -5 136 -16v94c0 84 -51 109 -125 109c-77 0 -126 -25 -156 -52h-29v49c41 23 103 44 190 44c106 0 178 -33 178 -145v-303c0 -31 13 -44 41 -44c12 0 26 3 26 3v-33c-6 -3 -24 -9 -45 -9
c-50 0 -80 21 -80 70v11c-40 -50 -94 -82 -171 -82zM207 35c78 0 123 36 163 85v126c-39 9 -81 15 -126 15c-99 0 -162 -33 -162 -114c0 -79 47 -112 125 -112zM98 586v28c11 27 35 59 78 59c45 0 92 -39 127 -39c24 0 39 18 44 42h33v-28c-12 -29 -35 -58 -78 -58
c-45 0 -92 39 -127 39c-24 0 -39 -17 -44 -43h-33z" />
    <glyph glyph-name="ccedilla" unicode="&#xe7;" horiz-adv-x="511" 
d="M261 -174c-35 0 -56 7 -76 17v33h23c7 -10 25 -18 46 -18c29 0 46 14 46 36c0 26 -19 35 -62 35h-12v71h3c-129 20 -197 116 -197 262c0 165 105 265 258 265c86 0 136 -15 169 -30v-96h-40c-4 49 -13 61 -38 72c-22 10 -53 15 -92 15c-120 0 -198 -81 -198 -227
c0 -145 67 -227 194 -227c85 0 129 34 151 66h32v-42c-30 -28 -91 -62 -184 -62c-8 0 -15 0 -22 1v-38c54 0 85 -21 85 -67c0 -42 -35 -66 -86 -66z" />
    <glyph glyph-name="eacute" unicode="&#xe9;" horiz-adv-x="530" 
d="M241 573l71 127h58v-25l-90 -102h-39zM288 -4c-167 0 -256 101 -256 263c0 164 101 268 243 268c134 0 224 -73 224 -244c0 -11 -1 -22 -1 -24h-407c1 -146 69 -225 201 -225c84 0 133 29 160 61h34v-41c-37 -29 -99 -58 -198 -58zM93 298h348c-3 138 -68 191 -166 191
c-102 0 -172 -69 -182 -191z" />
    <glyph glyph-name="ecircumflex" unicode="&#xea;" horiz-adv-x="530" 
d="M156 573v20l84 107h56l83 -107v-20h-29l-82 89l-83 -89h-29zM288 -4c-167 0 -256 101 -256 263c0 164 101 268 243 268c134 0 224 -73 224 -244c0 -11 -1 -22 -1 -24h-407c1 -146 69 -225 201 -225c84 0 133 29 160 61h34v-41c-37 -29 -99 -58 -198 -58zM93 298h348
c-3 138 -68 191 -166 191c-102 0 -172 -69 -182 -191z" />
    <glyph glyph-name="edieresis" unicode="&#xeb;" horiz-adv-x="530" 
d="M195 597c-21 0 -38 17 -38 38s17 38 38 38s38 -17 38 -38s-17 -38 -38 -38zM341 597c-21 0 -38 17 -38 38s17 38 38 38s38 -17 38 -38s-17 -38 -38 -38zM288 -4c-167 0 -256 101 -256 263c0 164 101 268 243 268c134 0 224 -73 224 -244c0 -11 -1 -22 -1 -24h-407
c1 -146 69 -225 201 -225c84 0 133 29 160 61h34v-41c-37 -29 -99 -58 -198 -58zM93 298h348c-3 138 -68 191 -166 191c-102 0 -172 -69 -182 -191z" />
    <glyph glyph-name="egrave" unicode="&#xe8;" horiz-adv-x="530" 
d="M288 -4c-167 0 -256 101 -256 263c0 164 101 268 243 268c134 0 224 -73 224 -244c0 -11 -1 -22 -1 -24h-407c1 -146 69 -225 201 -225c84 0 133 29 160 61h34v-41c-37 -29 -99 -58 -198 -58zM93 298h348c-3 138 -68 191 -166 191c-102 0 -172 -69 -182 -191zM256 573
l-90 102v25h58l71 -127h-39z" />
    <glyph glyph-name="iacute" unicode="&#xed;" horiz-adv-x="257" 
d="M92 573l71 127h58v-25l-90 -102h-39zM21 0v36h49c15 0 29 14 29 29v389c0 14 -14 30 -29 30h-54v38h126c11 0 15 -7 15 -31v-426c0 -15 15 -29 29 -29h50v-36h-215z" />
    <glyph glyph-name="icircumflex" unicode="&#xee;" horiz-adv-x="257" 
d="M7 573v20l84 107h56l83 -107v-20h-29l-82 89l-83 -89h-29zM21 0v36h49c15 0 29 14 29 29v389c0 14 -14 30 -29 30h-54v38h126c11 0 15 -7 15 -31v-426c0 -15 15 -29 29 -29h50v-36h-215z" />
    <glyph glyph-name="idieresis" unicode="&#xef;" horiz-adv-x="257" 
d="M46 597c-21 0 -38 17 -38 38s17 38 38 38s38 -17 38 -38s-17 -38 -38 -38zM192 597c-21 0 -38 17 -38 38s17 38 38 38s38 -17 38 -38s-17 -38 -38 -38zM21 0v36h49c15 0 29 14 29 29v389c0 14 -14 30 -29 30h-54v38h126c11 0 15 -7 15 -31v-426c0 -15 15 -29 29 -29h50
v-36h-215z" />
    <glyph glyph-name="igrave" unicode="&#xec;" horiz-adv-x="257" 
d="M21 0v36h49c15 0 29 14 29 29v389c0 14 -14 30 -29 30h-54v38h126c11 0 15 -7 15 -31v-426c0 -15 15 -29 29 -29h50v-36h-215zM107 573l-90 102v25h58l71 -127h-39z" />
    <glyph glyph-name="ntilde" unicode="&#xf1;" horiz-adv-x="603" 
d="M21 0v36h44c15 0 29 14 29 29v389c0 14 -14 30 -29 30h-49v38h118c12 0 17 -7 18 -34v-58c57 50 137 97 222 97c78 0 140 -26 140 -130v-332c0 -15 15 -29 29 -29h39v-36h-216v36h90v344c0 83 -42 100 -101 100c-75 0 -144 -38 -203 -86v-358h90v-36h-221zM152 586v28
c11 27 35 59 78 59c45 0 92 -39 127 -39c24 0 39 18 44 42h33v-28c-12 -29 -35 -58 -78 -58c-45 0 -92 39 -127 39c-24 0 -39 -17 -44 -43h-33z" />
    <glyph glyph-name="oacute" unicode="&#xf3;" horiz-adv-x="574" 
d="M252 573l71 127h58v-25l-90 -102h-39zM283 -4c-146 0 -255 100 -255 265s109 266 255 266c147 0 255 -101 255 -266s-108 -265 -255 -265zM283 34c116 0 196 83 196 226c0 144 -80 227 -196 227s-196 -83 -196 -227c0 -143 80 -226 196 -226z" />
    <glyph glyph-name="ocircumflex" unicode="&#xf4;" horiz-adv-x="574" 
d="M167 573v20l84 107h56l83 -107v-20h-29l-82 89l-83 -89h-29zM283 -4c-146 0 -255 100 -255 265s109 266 255 266c147 0 255 -101 255 -266s-108 -265 -255 -265zM283 34c116 0 196 83 196 226c0 144 -80 227 -196 227s-196 -83 -196 -227c0 -143 80 -226 196 -226z" />
    <glyph glyph-name="odieresis" unicode="&#xf6;" horiz-adv-x="574" 
d="M206 597c-21 0 -38 17 -38 38s17 38 38 38s38 -17 38 -38s-17 -38 -38 -38zM352 597c-21 0 -38 17 -38 38s17 38 38 38s38 -17 38 -38s-17 -38 -38 -38zM283 -4c-146 0 -255 100 -255 265s109 266 255 266c147 0 255 -101 255 -266s-108 -265 -255 -265zM283 34
c116 0 196 83 196 226c0 144 -80 227 -196 227s-196 -83 -196 -227c0 -143 80 -226 196 -226z" />
    <glyph glyph-name="ograve" unicode="&#xf2;" horiz-adv-x="574" 
d="M283 -4c-146 0 -255 100 -255 265s109 266 255 266c147 0 255 -101 255 -266s-108 -265 -255 -265zM283 34c116 0 196 83 196 226c0 144 -80 227 -196 227s-196 -83 -196 -227c0 -143 80 -226 196 -226zM267 573l-90 102v25h58l71 -127h-39z" />
    <glyph glyph-name="otilde" unicode="&#xf5;" horiz-adv-x="574" 
d="M283 -4c-146 0 -255 100 -255 265s109 266 255 266c147 0 255 -101 255 -266s-108 -265 -255 -265zM283 34c116 0 196 83 196 226c0 144 -80 227 -196 227s-196 -83 -196 -227c0 -143 80 -226 196 -226zM138 586v28c11 27 35 59 78 59c45 0 92 -39 127 -39
c24 0 39 18 44 42h33v-28c-12 -29 -35 -58 -78 -58c-45 0 -92 39 -127 39c-24 0 -39 -17 -44 -43h-33z" />
    <glyph glyph-name="scaron" unicode="&#x161;" horiz-adv-x="434" 
d="M327 700v-20l-84 -107h-56l-83 107v20h29l82 -89l83 89h29zM204 -4c-93 0 -140 16 -173 29v98h39c4 -48 11 -66 31 -74c25 -9 50 -15 102 -15c93 0 144 38 144 112c0 64 -48 84 -143 100c-101 17 -162 43 -162 139c0 90 65 142 181 142c84 0 129 -12 161 -25v-92h-38
c-5 41 -10 56 -31 65c-22 9 -44 12 -93 12c-86 0 -128 -36 -128 -95c0 -65 41 -82 135 -98c110 -18 172 -48 172 -141c0 -100 -63 -157 -197 -157z" />
    <glyph glyph-name="uacute" unicode="&#xfa;" horiz-adv-x="606" 
d="M244 573l71 127h58v-25l-90 -102h-39zM230 -6c-73 0 -138 30 -138 129v331c0 15 -15 30 -29 30h-47v38h134v-382c0 -81 43 -101 97 -101c75 0 146 40 202 86v359h-83v38h140v-456c0 -15 15 -30 30 -30h49v-36h-119c-11 0 -16 6 -17 33v55c-61 -50 -131 -94 -219 -94z" />
    <glyph glyph-name="ucircumflex" unicode="&#xfb;" horiz-adv-x="606" 
d="M159 573v20l84 107h56l83 -107v-20h-29l-82 89l-83 -89h-29zM230 -6c-73 0 -138 30 -138 129v331c0 15 -15 30 -29 30h-47v38h134v-382c0 -81 43 -101 97 -101c75 0 146 40 202 86v359h-83v38h140v-456c0 -15 15 -30 30 -30h49v-36h-119c-11 0 -16 6 -17 33v55
c-61 -50 -131 -94 -219 -94z" />
    <glyph glyph-name="udieresis" unicode="&#xfc;" horiz-adv-x="606" 
d="M198 597c-21 0 -38 17 -38 38s17 38 38 38s38 -17 38 -38s-17 -38 -38 -38zM344 597c-21 0 -38 17 -38 38s17 38 38 38s38 -17 38 -38s-17 -38 -38 -38zM230 -6c-73 0 -138 30 -138 129v331c0 15 -15 30 -29 30h-47v38h134v-382c0 -81 43 -101 97 -101
c75 0 146 40 202 86v359h-83v38h140v-456c0 -15 15 -30 30 -30h49v-36h-119c-11 0 -16 6 -17 33v55c-61 -50 -131 -94 -219 -94z" />
    <glyph glyph-name="ugrave" unicode="&#xf9;" horiz-adv-x="606" 
d="M230 -6c-73 0 -138 30 -138 129v331c0 15 -15 30 -29 30h-47v38h134v-382c0 -81 43 -101 97 -101c75 0 146 40 202 86v359h-83v38h140v-456c0 -15 15 -30 30 -30h49v-36h-119c-11 0 -16 6 -17 33v55c-61 -50 -131 -94 -219 -94zM259 573l-90 102v25h58l71 -127h-39z" />
    <glyph glyph-name="yacute" unicode="&#xfd;" horiz-adv-x="581" 
d="M114 -162v36c56 20 107 66 148 148l-182 425c-10 22 -27 37 -45 37h-19v38h195v-38h-86l167 -398l143 351c11 27 1 47 -26 47h-42v38h188v-38h-23c-18 0 -33 -14 -43 -37l-176 -418c-41 -97 -98 -163 -151 -191h-48zM251 573l71 127h58v-25l-90 -102h-39z" />
    <glyph glyph-name="ydieresis" unicode="&#xff;" horiz-adv-x="581" 
d="M114 -162v36c56 20 107 66 148 148l-182 425c-10 22 -27 37 -45 37h-19v38h195v-38h-86l167 -398l143 351c11 27 1 47 -26 47h-42v38h188v-38h-23c-18 0 -33 -14 -43 -37l-176 -418c-41 -97 -98 -163 -151 -191h-48zM205 597c-21 0 -38 17 -38 38s17 38 38 38
s38 -17 38 -38s-17 -38 -38 -38zM351 597c-21 0 -38 17 -38 38s17 38 38 38s38 -17 38 -38s-17 -38 -38 -38z" />
    <glyph glyph-name="zcaron" unicode="&#x17e;" horiz-adv-x="481" 
d="M351 700v-20l-84 -107h-56l-83 107v20h29l82 -89l83 89h29zM23 0v41l365 441h-292l-7 -105h-42v145h408v-42l-366 -440h304l7 106h42v-146h-419z" />
    <glyph glyph-name="oneeighth" unicode="&#x215b;" horiz-adv-x="699" 
d="M22 327v31h58c11 0 23 14 23 24v273l-65 -38h-18v32l99 51h36v-318c0 -10 12 -24 23 -24h55v-31h-211zM59 -34l493 763h49l-493 -763h-49zM525 -3c-88 0 -140 43 -140 106c0 50 34 84 83 96v2c-40 8 -66 40 -66 81c0 56 50 94 123 94s124 -38 124 -94
c0 -41 -26 -68 -66 -81v-2c51 -13 85 -46 85 -96c0 -63 -53 -106 -143 -106zM525 31c62 0 93 30 93 75s-31 77 -93 77s-90 -32 -90 -77c0 -44 28 -75 90 -75zM525 215c49 0 75 24 75 63s-26 64 -75 64c-47 0 -74 -25 -74 -64s27 -63 74 -63z" />
    <glyph glyph-name="threeeighths" unicode="&#x215c;" horiz-adv-x="708" 
d="M132 324c-45 0 -80 9 -107 20v69h32c2 -22 5 -37 14 -44c10 -8 32 -12 60 -12c60 0 88 29 88 78s-38 68 -84 68h-36v32h33c47 0 80 22 80 68c0 42 -23 67 -73 67c-29 0 -46 -4 -58 -12c-8 -6 -12 -16 -15 -41h-30v66c30 12 67 20 107 20c74 0 120 -32 120 -93
c0 -51 -31 -78 -75 -89v-2c50 -8 83 -38 83 -87c0 -68 -49 -108 -139 -108zM66 -34l493 763h49l-493 -763h-49zM534 -3c-88 0 -140 43 -140 106c0 50 34 84 83 96v2c-40 8 -66 40 -66 81c0 56 50 94 123 94s124 -38 124 -94c0 -41 -26 -68 -66 -81v-2c51 -13 85 -46 85 -96
c0 -63 -53 -106 -143 -106zM534 31c62 0 93 30 93 75s-31 77 -93 77s-90 -32 -90 -77c0 -44 28 -75 90 -75zM534 215c49 0 75 24 75 63s-26 64 -75 64c-47 0 -74 -25 -74 -64s27 -63 74 -63z" />
    <glyph glyph-name="fiveeighths" unicode="&#x215d;" horiz-adv-x="698" 
d="M131 324c-45 0 -76 9 -104 22v68h31c3 -25 6 -38 14 -45c11 -9 32 -12 57 -12c61 0 95 34 95 92c0 57 -33 79 -76 79c-40 0 -66 -19 -80 -35h-31v207h224v-81h-32l-5 43h-152v-130h2c15 15 46 28 84 28c65 0 118 -31 118 -111c0 -77 -61 -125 -145 -125zM62 -34l493 763
h49l-493 -763h-49zM524 -3c-88 0 -140 43 -140 106c0 50 34 84 83 96v2c-40 8 -66 40 -66 81c0 56 50 94 123 94s124 -38 124 -94c0 -41 -26 -68 -66 -81v-2c51 -13 85 -46 85 -96c0 -63 -53 -106 -143 -106zM524 31c62 0 93 30 93 75s-31 77 -93 77s-90 -32 -90 -77
c0 -44 28 -75 90 -75zM524 215c49 0 75 24 75 63s-26 64 -75 64c-47 0 -74 -25 -74 -64s27 -63 74 -63z" />
    <glyph glyph-name="seveneighths" unicode="&#x215e;" horiz-adv-x="672" 
d="M20 -34l493 763h49l-493 -763h-49zM498 -3c-88 0 -140 43 -140 106c0 50 34 84 83 96v2c-40 8 -66 40 -66 81c0 56 50 94 123 94s124 -38 124 -94c0 -41 -26 -68 -66 -81v-2c51 -13 85 -46 85 -96c0 -63 -53 -106 -143 -106zM498 31c62 0 93 30 93 75s-31 77 -93 77
s-90 -32 -90 -77c0 -44 28 -75 90 -75zM498 215c49 0 75 24 75 63s-26 64 -75 64c-47 0 -74 -25 -74 -64s27 -63 74 -63zM81 327v25l165 307v2h-183l-6 -65h-33v104h259v-44l-157 -329h-45z" />
    <glyph glyph-name="onethird" unicode="&#x2153;" horiz-adv-x="692" 
d="M22 327v31h58c11 0 23 14 23 24v273l-65 -38h-18v32l99 51h36v-318c0 -10 12 -24 23 -24h55v-31h-211zM63 -34l493 763h49l-493 -763h-49zM523 -3c-45 0 -80 9 -107 20v69h32c2 -22 5 -37 14 -44c10 -8 32 -12 60 -12c60 0 88 29 88 78s-38 68 -84 68h-36v32h33
c47 0 80 22 80 68c0 42 -23 67 -73 67c-29 0 -46 -4 -58 -12c-8 -6 -12 -16 -15 -41h-30v66c30 12 67 20 107 20c74 0 120 -32 120 -93c0 -51 -31 -78 -75 -89v-2c50 -8 83 -38 83 -87c0 -68 -49 -108 -139 -108z" />
    <glyph glyph-name="twothirds" unicode="&#x2154;" horiz-adv-x="733" 
d="M26 327v26c0 66 51 109 110 144c52 31 94 55 94 102c0 44 -27 70 -77 70c-29 0 -49 -4 -63 -13c-11 -7 -15 -21 -19 -46h-30v72c32 13 72 21 117 21c78 0 125 -37 125 -101c0 -65 -61 -98 -114 -129c-55 -32 -96 -58 -99 -108h170l5 58h33v-96h-252zM105 -34l493 763h49
l-493 -763h-49zM564 -3c-45 0 -80 9 -107 20v69h32c2 -22 5 -37 14 -44c10 -8 32 -12 60 -12c60 0 88 29 88 78s-38 68 -84 68h-36v32h33c47 0 80 22 80 68c0 42 -23 67 -73 67c-29 0 -46 -4 -58 -12c-8 -6 -12 -16 -15 -41h-30v66c30 12 67 20 107 20c74 0 120 -32 120 -93
c0 -51 -31 -78 -75 -89v-2c50 -8 83 -38 83 -87c0 -68 -49 -108 -139 -108z" />
    <glyph glyph-name="Euro" unicode="&#x20ac;" horiz-adv-x="607" 
d="M25 427h69c23 175 125 278 280 278c80 0 132 -14 184 -39v-125h-41c-5 58 -12 81 -29 94c-22 17 -58 29 -112 28c-128 -2 -202 -85 -220 -236h261l-10 -40h-254c-1 -13 -1 -25 -1 -38v-34h242l-10 -40h-229c14 -147 75 -238 219 -238c74 0 133 31 165 71h35v-44
c-52 -43 -112 -69 -201 -69c-164 0 -260 96 -280 280h-68v40h64v35c0 12 1 25 1 37h-65v40z" />
    <glyph glyph-name="space_uni0326" unicode="&#xf6c3;" horiz-adv-x="414" 
d="M159 -187v29c26 6 40 19 40 39c0 11 -8 16 -16 21c-11 7 -16 15 -16 31c0 19 15 33 35 33c23 0 42 -15 42 -52c0 -64 -34 -92 -85 -101z" />
    <glyph glyph-name="paragraph.cap" horiz-adv-x="552" 
d="M279 0v337h-15c-131 2 -233 39 -233 182c0 147 103 181 240 181h258v-37h-47c-17 0 -34 -19 -34 -35v-628h-45v661h-79v-661h-45z" />
    <glyph glyph-name="bullet.cap" horiz-adv-x="306" 
d="M153 213c-65 0 -118 43 -118 115s53 117 118 117c67 0 118 -45 118 -117s-51 -115 -118 -115z" />
    <glyph glyph-name="at.cap" horiz-adv-x="795" 
d="M562 170c-71 0 -94 33 -94 77c-34 -39 -79 -79 -147 -79c-63 0 -107 42 -107 116c0 80 35 142 75 185c37 38 88 61 142 61c49 0 76 -14 95 -32c10 13 26 31 38 31h17l-57 -246c-11 -47 -5 -79 44 -79c73 0 148 60 148 207c0 164 -125 257 -298 257
c-163 0 -334 -114 -334 -338c0 -210 137 -297 313 -297c93 0 173 24 225 61h27v-31c-58 -41 -150 -69 -253 -69c-191 0 -365 98 -365 336c0 246 204 377 386 377c189 0 347 -103 347 -294c0 -170 -105 -243 -202 -243zM337 205c53 0 93 41 130 79l44 187
c-18 13 -41 22 -74 22c-43 0 -75 -17 -103 -47c-33 -35 -63 -88 -63 -161c0 -56 26 -80 66 -80z" />
    <glyph glyph-name="dagger.cap" horiz-adv-x="428" 
d="M199 0l-17 221v161l19 89l-145 -18l-25 12v35l25 12l145 -18l-16 78v95l10 33h38l10 -33v-95l-17 -78l145 18l25 -12v-35l-25 -12l-145 18l20 -89v-161l-17 -221h-30z" />
    <glyph glyph-name="daggerdbl.cap" horiz-adv-x="428" 
d="M195 0l-10 33v89l16 78l-145 -19l-25 12v35l25 12l145 -19l-17 84v90l17 83l-145 -18l-25 12v35l25 12l145 -18l-16 77v89l10 33h38l10 -33v-89l-17 -77l145 18l25 -12v-35l-25 -12l-145 18l18 -83v-90l-18 -84l145 19l25 -12v-35l-25 -12l-145 19l17 -78v-89l-10 -33
h-38z" />
    <glyph glyph-name="less.cap" horiz-adv-x="462" 
d="M398 0l-364 331v39l364 330h29v-37l-332 -309v-2l332 -317v-35h-29z" />
    <glyph glyph-name="greater.cap" horiz-adv-x="462" 
d="M64 700l364 -331v-39l-364 -330h-29v36l332 310v2l-332 315v37h29z" />
    <glyph glyph-name="guillemotleft.cap" horiz-adv-x="630" 
d="M343 0l-309 331v39l309 330h29v-37l-280 -310v-2l280 -315v-36h-29zM566 0l-309 331v39l309 330h29v-37l-280 -310v-2l280 -315v-36h-29z" />
    <glyph glyph-name="guillemotright.cap" horiz-adv-x="630" 
d="M287 700l309 -331v-39l-309 -330h-29v36l280 311v2l-280 314v37h29zM64 700l309 -331v-39l-309 -330h-29v36l280 311v2l-280 314v37h29z" />
    <glyph glyph-name="quotedblleft.cap" horiz-adv-x="992" 
d="M278 -5c-132 0 -241 90 -241 280c0 247 159 406 434 426v-38c-211 -23 -317 -137 -317 -236c0 -46 20 -74 68 -79c44 -3 74 4 114 -1c80 -8 143 -64 143 -165c0 -98 -72 -187 -201 -187zM755 -5c-132 0 -240 90 -240 280c0 247 159 406 434 426v-38
c-212 -23 -317 -137 -317 -236c0 -46 20 -74 67 -79c44 -3 74 4 114 -1c80 -8 143 -64 143 -165c0 -98 -72 -187 -201 -187z" />
    <glyph glyph-name="quotedblright.cap" horiz-adv-x="992" 
d="M44 -1v37c211 23 317 138 317 237c0 47 -20 75 -68 79c-44 4 -74 -3 -114 1c-80 8 -143 64 -143 165c0 98 72 187 201 187c132 0 241 -90 241 -280c0 -246 -159 -406 -434 -426zM522 -1v37c211 23 317 138 317 237c0 46 -20 74 -68 79c-44 4 -74 -4 -114 1
c-80 8 -143 64 -143 165c0 98 72 187 201 187c132 0 241 -90 241 -280c0 -246 -160 -406 -434 -426z" />
    <glyph glyph-name="quoteleft.cap" horiz-adv-x="515" 
d="M278 -5c-132 0 -241 90 -241 280c0 247 159 406 434 426v-38c-211 -23 -317 -137 -317 -236c0 -46 20 -74 67 -79c44 -3 74 4 115 -1c80 -8 143 -64 143 -165c0 -98 -72 -187 -201 -187z" />
    <glyph glyph-name="quoteright.cap" horiz-adv-x="515" 
d="M44 -1v37c211 23 317 138 317 237c0 47 -21 75 -69 80c-44 3 -73 -4 -113 0c-80 8 -143 64 -143 165c0 98 72 187 201 187c132 0 241 -90 241 -280c0 -246 -159 -406 -434 -426z" />
    <glyph glyph-name="hyphen.cap" horiz-adv-x="254" 
d="M29 315v44h196v-44h-196z" />
    <glyph glyph-name="endash.cap" horiz-adv-x="398" 
d="M29 318v37h340v-37h-340z" />
    <glyph glyph-name="emdash.cap" horiz-adv-x="651" 
d="M29 318v37h593v-37h-593z" />
    <glyph glyph-name="questiondown.cap" horiz-adv-x="438" 
d="M289 556c13 -97 -16 -152 -76 -216c-48 -52 -117 -105 -117 -183c0 -79 43 -121 130 -121c46 0 78 8 100 20c20 11 30 27 34 79h39v-104c-39 -18 -89 -36 -175 -36c-118 0 -190 51 -190 162c0 94 67 142 130 203c59 57 93 104 84 196h41zM264 704c24 0 42 -18 42 -40
c0 -23 -18 -41 -42 -41s-42 18 -42 41c0 22 18 40 42 40z" />
    <glyph glyph-name="exclamdown.cap" horiz-adv-x="154" 
d="M96 556l13 -520v-36h-64v36l13 520h38zM77 704c24 0 42 -18 42 -40c0 -23 -18 -41 -42 -41s-42 18 -42 41c0 22 18 40 42 40z" />
    <glyph glyph-name="ampersand.alt" horiz-adv-x="685" 
d="M283 390l201 -221c28 50 54 125 64 221h50v-31c-14 -87 -46 -166 -81 -223l65 -71c20 -22 32 -29 47 -29h33v-36h-101l-82 90c-49 -58 -118 -95 -213 -95c-156 0 -234 88 -234 200c0 110 71 179 160 213c-26 34 -48 74 -48 135c0 96 71 162 178 162c63 0 97 -18 112 -26
c8 0 12 7 14 21h41v-164h-43l-11 83c-26 26 -63 44 -111 44c-78 0 -120 -49 -120 -118c0 -64 31 -103 79 -155zM267 37c84 0 141 32 182 84l-232 257c-71 -28 -121 -84 -121 -177c0 -86 50 -164 171 -164z" />
    <glyph glyph-name="zero.num" horiz-adv-x="380" 
d="M191 324c-88 0 -162 65 -162 190c0 124 74 189 162 189c87 0 160 -65 160 -189c0 -125 -73 -190 -160 -190zM191 358c62 0 106 48 106 154c0 108 -44 157 -106 157c-64 0 -108 -49 -108 -157c0 -106 44 -154 108 -154z" />
    <glyph glyph-name="one.num" horiz-adv-x="250" 
d="M19 327v31h58c11 0 23 14 23 24v273l-65 -38h-18v32l99 51h36v-318c0 -10 12 -24 23 -24h55v-31h-211z" />
    <glyph glyph-name="two.num" horiz-adv-x="309" 
d="M23 327v26c0 66 51 109 110 144c52 31 94 55 94 102c0 44 -27 70 -77 70c-29 0 -49 -4 -63 -13c-11 -7 -15 -21 -19 -46h-30v72c32 13 72 21 117 21c78 0 125 -37 125 -101c0 -65 -61 -98 -114 -129c-55 -32 -96 -58 -99 -108h170l5 58h33v-96h-252z" />
    <glyph glyph-name="three.num" horiz-adv-x="295" 
d="M129 324c-45 0 -80 9 -107 20v69h32c2 -22 5 -37 14 -44c10 -8 32 -12 60 -12c60 0 88 29 88 78s-38 68 -84 68h-36v32h33c47 0 80 22 80 68c0 42 -23 67 -73 67c-29 0 -46 -4 -58 -12c-8 -6 -12 -16 -15 -41h-30v66c30 12 67 20 107 20c74 0 120 -32 120 -93
c0 -51 -31 -78 -75 -89v-2c50 -8 83 -38 83 -87c0 -68 -49 -108 -139 -108z" />
    <glyph glyph-name="four.num" horiz-adv-x="335" 
d="M150 327v31h35c10 0 23 14 23 24v44h-186v36l188 238h49v-242h54v-32h-54v-44c0 -10 13 -24 23 -24h31v-31h-163zM61 458h147v187h-2l-145 -185v-2z" />
    <glyph glyph-name="five.num" horiz-adv-x="302" 
d="M128 324c-45 0 -76 9 -104 22v68h31c3 -25 6 -38 14 -45c11 -9 32 -12 57 -12c61 0 95 34 95 92c0 57 -33 79 -76 79c-40 0 -66 -19 -80 -35h-31v207h224v-81h-32l-5 43h-152v-130h2c15 15 46 28 84 28c65 0 118 -31 118 -111c0 -77 -61 -125 -145 -125z" />
    <glyph glyph-name="six.num" horiz-adv-x="338" 
d="M179 324c-82 0 -150 54 -150 181c0 128 76 198 183 198c35 0 63 -6 81 -13v-41h-28c-9 10 -27 20 -57 20c-73 0 -124 -50 -126 -161c23 28 65 49 109 49c65 0 121 -30 121 -108s-55 -125 -133 -125zM178 356c50 0 83 34 83 90c0 57 -35 77 -79 77s-80 -20 -99 -45
c5 -90 44 -122 95 -122z" />
    <glyph glyph-name="seven.num" horiz-adv-x="299" 
d="M78 327v25l165 307v2h-183l-6 -65h-33v104h259v-44l-157 -329h-45z" />
    <glyph glyph-name="eight.num" horiz-adv-x="339" 
d="M168 324c-88 0 -140 43 -140 106c0 50 34 84 83 96v2c-40 8 -66 40 -66 81c0 56 50 94 123 94s124 -38 124 -94c0 -41 -26 -68 -66 -81v-2c51 -13 85 -46 85 -96c0 -63 -53 -106 -143 -106zM168 358c62 0 93 30 93 75s-31 77 -93 77s-90 -32 -90 -77c0 -44 28 -75 90 -75
zM168 542c49 0 75 24 75 63s-26 64 -75 64c-47 0 -74 -25 -74 -64s27 -63 74 -63z" />
    <glyph glyph-name="nine.num" horiz-adv-x="338" 
d="M160 703c82 0 150 -54 150 -177c0 -136 -69 -202 -182 -202c-39 0 -69 8 -87 16v41h28c9 -11 29 -23 62 -23c80 0 123 49 126 161c-23 -28 -65 -49 -109 -49c-65 0 -121 31 -121 108c0 78 55 125 133 125zM161 671c-50 0 -83 -33 -83 -90c0 -58 35 -77 79 -77
s80 20 99 45c-5 91 -44 122 -95 122z" />
    <glyph glyph-name="zero.den" horiz-adv-x="380" 
d="M191 -3c-88 0 -162 65 -162 190c0 124 74 189 162 189c87 0 160 -65 160 -189c0 -125 -73 -190 -160 -190zM191 31c62 0 106 48 106 154c0 108 -44 157 -106 157c-64 0 -108 -49 -108 -157c0 -106 44 -154 108 -154z" />
    <glyph glyph-name="one.den" horiz-adv-x="250" 
d="M19 0v31h58c11 0 23 14 23 24v273l-65 -38h-18v32l99 51h36v-318c0 -10 12 -24 23 -24h55v-31h-211z" />
    <glyph glyph-name="two.den" horiz-adv-x="309" 
d="M23 0v26c0 66 51 109 110 144c52 31 94 55 94 102c0 44 -27 70 -77 70c-29 0 -49 -4 -63 -13c-11 -7 -15 -21 -19 -46h-30v72c32 13 72 21 117 21c78 0 125 -37 125 -101c0 -65 -61 -98 -114 -129c-55 -32 -96 -58 -99 -108h170l5 58h33v-96h-252z" />
    <glyph glyph-name="three.den" horiz-adv-x="295" 
d="M129 -3c-45 0 -80 9 -107 20v69h32c2 -22 5 -37 14 -44c10 -8 32 -12 60 -12c60 0 88 29 88 78s-38 68 -84 68h-36v32h33c47 0 80 22 80 68c0 42 -23 67 -73 67c-29 0 -46 -4 -58 -12c-8 -6 -12 -16 -15 -41h-30v66c30 12 67 20 107 20c74 0 120 -32 120 -93
c0 -51 -31 -78 -75 -89v-2c50 -8 83 -38 83 -87c0 -68 -49 -108 -139 -108z" />
    <glyph glyph-name="four.den" horiz-adv-x="335" 
d="M150 0v31h35c10 0 23 14 23 24v44h-186v36l188 238h49v-242h54v-32h-54v-44c0 -10 13 -24 23 -24h31v-31h-163zM61 131h147v187h-2l-145 -185v-2z" />
    <glyph glyph-name="five.den" horiz-adv-x="302" 
d="M128 -3c-45 0 -76 9 -104 22v68h31c3 -25 6 -38 14 -45c11 -9 32 -12 57 -12c61 0 95 34 95 92c0 57 -33 79 -76 79c-40 0 -66 -19 -80 -35h-31v207h224v-81h-32l-5 43h-152v-130h2c15 15 46 28 84 28c65 0 118 -31 118 -111c0 -77 -61 -125 -145 -125z" />
    <glyph glyph-name="six.den" horiz-adv-x="338" 
d="M179 -3c-82 0 -150 54 -150 181c0 128 76 198 183 198c35 0 63 -6 81 -13v-41h-28c-9 10 -27 20 -57 20c-73 0 -124 -50 -126 -161c23 28 65 49 109 49c65 0 121 -30 121 -108s-55 -125 -133 -125zM178 29c50 0 83 34 83 90c0 57 -35 77 -79 77s-80 -20 -99 -45
c5 -90 44 -122 95 -122z" />
    <glyph glyph-name="seven.den" horiz-adv-x="299" 
d="M78 0v25l165 307v2h-183l-6 -65h-33v104h259v-44l-157 -329h-45z" />
    <glyph glyph-name="eight.den" horiz-adv-x="339" 
d="M168 -3c-88 0 -140 43 -140 106c0 50 34 84 83 96v2c-40 8 -66 40 -66 81c0 56 50 94 123 94s124 -38 124 -94c0 -41 -26 -68 -66 -81v-2c51 -13 85 -46 85 -96c0 -63 -53 -106 -143 -106zM168 31c62 0 93 30 93 75s-31 77 -93 77s-90 -32 -90 -77c0 -44 28 -75 90 -75z
M168 215c49 0 75 24 75 63s-26 64 -75 64c-47 0 -74 -25 -74 -64s27 -63 74 -63z" />
    <glyph glyph-name="nine.den" horiz-adv-x="338" 
d="M160 376c82 0 150 -54 150 -177c0 -136 -69 -202 -182 -202c-39 0 -69 8 -87 16v41h28c9 -11 29 -23 62 -23c80 0 123 49 126 161c-23 -28 -65 -49 -109 -49c-65 0 -121 31 -121 108c0 78 55 125 133 125zM161 344c-50 0 -83 -33 -83 -90c0 -58 35 -77 79 -77
s80 20 99 45c-5 91 -44 122 -95 122z" />
    <glyph glyph-name="dollar.tab" 
d="M274 -102v98c-69 2 -142 17 -195 38v125h40c5 -54 13 -82 31 -94c25 -16 71 -27 124 -28v304c-124 34 -189 73 -189 187c0 90 57 166 189 175v61h43v-60c64 -2 119 -14 170 -33v-120h-40c-5 54 -13 77 -31 89c-23 14 -55 21 -99 23v-278c125 -35 202 -70 202 -191
s-72 -190 -202 -197v-99h-43zM462 189c0 83 -56 113 -145 140v-291c96 7 145 57 145 151zM140 531c0 -78 39 -106 134 -134v265c-100 -8 -134 -63 -134 -131z" />
    <glyph glyph-name="Euro.tab" 
d="M32 427h69c24 177 131 278 272 278c78 0 127 -14 179 -39v-125h-41c-5 58 -13 82 -30 95c-22 17 -53 27 -104 27c-119 0 -195 -83 -214 -236h247l-10 -40h-240c-1 -20 -1 -45 0 -72h227l-10 -40h-215c15 -149 76 -238 211 -238c70 0 127 31 159 71h35v-44
c-52 -43 -112 -69 -195 -69c-154 0 -252 96 -272 280h-68v40h65c-1 11 -1 23 -1 36c0 12 0 24 1 36h-65v40z" />
    <glyph glyph-name="sterling.tab" 
d="M74 364h71c-12 55 -24 109 -24 153c0 113 76 188 212 188c84 0 130 -14 186 -38v-120h-40c-5 55 -13 75 -29 89c-25 21 -60 28 -116 28c-105 0 -150 -57 -150 -147c0 -47 10 -99 20 -153h189v-40h-182c8 -46 15 -94 15 -145c0 -38 -9 -69 -23 -94c76 -26 180 -37 270 -37
l8 117h43v-165h-35c-131 0 -231 16 -313 49c-25 -26 -57 -42 -82 -49h-32v36c66 18 112 53 112 138c0 48 -10 100 -20 150h-80v40z" />
    <glyph glyph-name="yen.tab" 
d="M183 0v36h53c17 0 34 18 34 34v137h-188v40h188v71h-188v40h170l-150 265c-13 23 -34 40 -58 40h-13v37h206v-37h-90l158 -288h2l127 228c23 40 8 60 -29 60h-39v37h203v-37h-20c-22 0 -39 -17 -51 -38l-153 -267h174v-40h-188v-71h188v-40h-188v-137
c0 -16 16 -34 34 -34h53v-36h-235z" />
    <glyph glyph-name="zero.tab" 
d="M301 -5c-139 0 -258 111 -258 355s119 355 258 355s256 -111 256 -355s-117 -355 -256 -355zM301 37c112 0 192 92 192 312s-80 314 -192 314c-113 0 -194 -94 -194 -314s81 -312 194 -312z" />
    <glyph glyph-name="one.tab" 
d="M119 0v36h125c17 0 33 18 33 34v575l-141 -74h-21v36l182 93h42v-630c0 -16 17 -34 34 -34h117v-36h-371z" />
    <glyph glyph-name="two.tab" 
d="M73 0v39c0 133 106 206 206 272c95 63 179 112 179 210c0 90 -47 143 -155 143c-58 0 -100 -9 -127 -28c-18 -12 -26 -35 -31 -89h-40v120c58 24 123 38 199 38c145 0 217 -67 217 -183c0 -122 -97 -177 -209 -247c-96 -60 -183 -125 -185 -227h332l8 115h44v-163h-438z
" />
    <glyph glyph-name="three.tab" 
d="M270 -5c-80 0 -143 19 -192 38v109h40c5 -43 12 -66 28 -78c19 -15 64 -28 123 -28c125 0 182 60 182 163c0 104 -76 143 -168 143h-63v41h55c98 0 164 45 164 141c0 92 -46 140 -153 140c-59 0 -96 -10 -118 -25c-16 -10 -24 -35 -29 -76h-40v105c55 22 116 37 190 37
c137 0 210 -60 210 -176c0 -92 -59 -146 -136 -163v-2c95 -20 150 -74 150 -167c1 -128 -81 -202 -243 -202z" />
    <glyph glyph-name="four.tab" 
d="M348 36c16 0 33 18 33 34v114h-327v50l333 466h55v-474h88v-42h-88v-114c0 -16 16 -34 33 -34h55v-36h-238v36h56zM99 228v-2h282v395h-2z" />
    <glyph glyph-name="five.tab" 
d="M263 -5c-80 0 -137 16 -190 40v106h40c5 -45 10 -66 26 -78c25 -16 62 -26 124 -26c116 0 194 67 194 188s-75 168 -160 168c-83 0 -136 -37 -163 -71h-40v378h400v-126h-42l-8 78h-304v-279h2c26 28 82 62 165 62c112 0 212 -61 212 -208c0 -144 -105 -232 -256 -232z
" />
    <glyph glyph-name="six.tab" 
d="M314 -5c-142 0 -258 102 -258 340c0 240 135 370 315 370c64 0 110 -9 142 -23v-50h-36c-18 16 -54 31 -110 31c-143 0 -248 -109 -248 -316v-22c47 57 125 100 213 100c113 0 215 -57 215 -201c0 -143 -97 -229 -233 -229zM314 37c106 0 171 68 171 185
s-75 161 -164 161c-85 0 -159 -44 -201 -100c12 -171 91 -246 194 -246z" />
    <glyph glyph-name="seven.tab" 
d="M171 0v29l318 621v2h-376l-8 -118h-42v166h473v-54l-309 -646h-56z" />
    <glyph glyph-name="eight.tab" 
d="M300 -5c-156 0 -243 81 -243 196c0 93 55 157 154 182v2c-72 21 -121 77 -121 155c0 103 85 175 210 175s209 -72 209 -175c0 -78 -51 -134 -124 -155v-2c100 -22 158 -89 158 -182c0 -115 -87 -196 -243 -196zM300 37c120 0 181 65 181 157c0 93 -62 159 -181 159
c-120 0 -181 -66 -181 -159c0 -92 60 -157 181 -157zM300 395c94 0 149 49 149 133c0 82 -55 135 -149 135c-95 0 -150 -54 -150 -135c0 -84 55 -133 150 -133z" />
    <glyph glyph-name="nine.tab" 
d="M287 705c141 0 258 -101 258 -340c0 -240 -121 -370 -315 -370c-68 0 -115 11 -151 29v50h36c28 -24 60 -37 119 -37c155 0 248 109 248 316v22c-47 -57 -125 -100 -213 -100c-113 0 -215 59 -215 203c0 142 99 227 233 227zM287 663c-106 0 -172 -67 -172 -183
c0 -119 76 -163 165 -163c85 0 159 44 201 100c-13 170 -91 246 -194 246z" />
    <glyph glyph-name="plus.tab" 
d="M278 134v190h-180v43h180v190h46v-190h179v-43h-179v-190h-46z" />
    <glyph glyph-name="minus.tab" 
d="M98 324v43h405v-43h-405z" />
    <glyph glyph-name="multiply.tab" 
d="M147 152l-31 32l152 154l-152 155l31 31l152 -154l154 154l31 -31l-154 -155l154 -154l-31 -32l-154 155z" />
    <glyph glyph-name="divide.tab" 
d="M301 158c-23 0 -40 17 -40 39s17 39 40 39c22 0 39 -17 39 -39s-17 -39 -39 -39zM301 455c-23 0 -40 17 -40 39s17 39 40 39c22 0 39 -17 39 -39s-17 -39 -39 -39zM98 324v43h405v-43h-405z" />
    <glyph glyph-name="less.tab" 
d="M476 112l-373 197v41l373 197h19v-41l-336 -175v-2l336 -176v-41h-19z" />
    <glyph glyph-name="equal.tab" 
d="M91 209v44h419v-44h-419zM91 376v44h419v-44h-419z" />
    <glyph glyph-name="greater.tab" 
d="M107 112v40l335 175v2l-335 176v42h18l374 -198v-41l-374 -196h-18z" />
    <glyph glyph-name="comma.tab" horiz-adv-x="300" 
d="M98 -93v31c28 7 46 23 46 46c0 13 -10 17 -19 23c-11 8 -18 18 -18 34c0 20 18 36 40 36c24 0 46 -17 46 -56c0 -72 -38 -104 -95 -114z" />
    <glyph glyph-name="period.tab" horiz-adv-x="300" 
d="M150 -4c-24 0 -42 18 -42 40c0 23 18 41 42 41s42 -18 42 -41c0 -22 -18 -40 -42 -40z" />
    <glyph glyph-name="colon.tab" horiz-adv-x="300" 
d="M150 -4c-24 0 -42 18 -42 40c0 23 18 41 42 41s42 -18 42 -41c0 -22 -18 -40 -42 -40zM150 304c-24 0 -42 18 -42 40c0 23 18 41 42 41s42 -18 42 -41c0 -22 -18 -40 -42 -40z" />
    <glyph glyph-name="semicolon.tab" horiz-adv-x="300" 
d="M149 304c-24 0 -42 18 -42 40c0 23 18 41 42 41s42 -18 42 -41c0 -22 -18 -40 -42 -40zM98 -93v31c28 7 46 23 46 46c0 13 -10 17 -19 23c-11 8 -18 18 -18 34c0 20 18 36 40 36c24 0 46 -17 46 -56c0 -72 -38 -104 -95 -114z" />
    <glyph glyph-name="percent.tab" horiz-adv-x="800" 
d="M215 356c-83 0 -153 58 -153 174s70 175 153 175c82 0 152 -59 152 -175s-70 -174 -152 -174zM215 392c59 0 99 45 99 138c0 92 -40 138 -99 138c-60 0 -100 -46 -100 -138c0 -93 40 -138 100 -138zM129 -34l493 763h49l-493 -763h-49zM586 -5c-83 0 -153 58 -153 174
s70 175 153 175c82 0 152 -59 152 -175s-70 -174 -152 -174zM586 31c59 0 99 45 99 138c0 92 -40 138 -99 138c-60 0 -100 -46 -100 -138c0 -93 40 -138 100 -138z" />
    <glyph glyph-name="perthousand.tab" horiz-adv-x="1200" 
d="M234 356c-83 0 -153 58 -153 174s70 175 153 175c82 0 152 -59 152 -175s-70 -174 -152 -174zM234 392c59 0 99 45 99 138c0 92 -40 138 -99 138c-60 0 -100 -46 -100 -138c0 -93 40 -138 100 -138zM148 -34l493 763h49l-493 -763h-49zM605 -5c-83 0 -153 58 -153 174
s70 175 153 175c82 0 152 -59 152 -175s-70 -174 -152 -174zM605 31c59 0 99 45 99 138c0 92 -40 138 -99 138c-60 0 -100 -46 -100 -138c0 -93 40 -138 100 -138zM967 -5c-83 0 -153 58 -153 174s70 175 153 175c82 0 152 -59 152 -175s-70 -174 -152 -174zM967 31
c59 0 99 45 99 138c0 92 -40 138 -99 138c-60 0 -100 -46 -100 -138c0 -93 40 -138 100 -138z" />
    <glyph glyph-name="cent.tab" 
d="M303 -102v99c-147 10 -226 109 -226 265c0 153 90 250 226 263v60h43v-58c79 -1 126 -16 158 -30v-96h-40c-4 49 -13 61 -38 72c-20 9 -47 14 -80 15v-454c74 4 114 36 135 66h32v-42c-28 -27 -84 -58 -167 -61v-99h-43zM136 261c0 -135 57 -215 167 -226v451
c-102 -13 -167 -92 -167 -225z" />
    <glyph glyph-name="florin.tab" 
d="M148 426h94l16 136c13 106 64 143 148 143c38 0 62 -8 76 -15v-41h-28c-5 6 -20 14 -43 14c-55 0 -84 -25 -94 -104l-16 -133h122v-38h-127l-41 -339c-9 -73 -43 -116 -97 -138h-29v36c31 15 60 41 68 105l40 336h-89v38z" />
    <glyph glyph-name="space.tab" horiz-adv-x="300" 
 />
    <glyph glyph-name="uni0237" unicode="&#x237;" horiz-adv-x="226" 
d="M39 -165c-35 0 -58 6 -78 12v41h29c9 -7 21 -15 43 -15c50 0 66 25 66 72v509c0 14 -14 30 -29 30h-54v38h126c11 0 15 -7 15 -31v-544c0 -78 -40 -112 -118 -112z" />
    <glyph glyph-name="Amacron" unicode="&#x100;" horiz-adv-x="705" 
d="M567 36l-67 193h-304l-45 -127c-15 -41 -8 -66 31 -66h56v-36h-222v36h27c23 0 42 16 50 38l198 552c8 22 -3 37 -25 37h-55v37h188l216 -623c8 -22 29 -41 49 -41h29v-36h-233v36h107zM348 654l-137 -385h275l-133 385h-5zM220 772v40h234v-40h-234z" />
    <glyph glyph-name="amacron" unicode="&#x101;" horiz-adv-x="516" 
d="M199 -5c-103 0 -173 48 -173 152c0 105 87 152 208 152c51 0 95 -5 136 -16v94c0 84 -51 109 -125 109c-77 0 -126 -25 -156 -52h-29v49c41 23 103 44 190 44c106 0 178 -33 178 -145v-303c0 -31 13 -44 41 -44c12 0 26 3 26 3v-33c-6 -3 -24 -9 -45 -9
c-50 0 -80 21 -80 70v11c-40 -50 -94 -82 -171 -82zM207 35c78 0 123 36 163 85v126c-39 9 -81 15 -126 15c-99 0 -162 -33 -162 -114c0 -79 47 -112 125 -112zM122 609v40h234v-40h-234z" />
    <glyph glyph-name="Abreve" unicode="&#x102;" horiz-adv-x="705" 
d="M567 36l-67 193h-304l-45 -127c-15 -41 -8 -66 31 -66h56v-36h-222v36h27c23 0 42 16 50 38l198 552c8 22 -3 37 -25 37h-55v37h188l216 -623c8 -22 29 -41 49 -41h29v-36h-233v36h107zM348 654l-137 -385h275l-133 385h-5zM337 738c-66 0 -106 41 -119 89v23h39
c5 -44 35 -70 80 -70c46 0 75 26 80 70h39v-23c-13 -48 -53 -89 -119 -89z" />
    <glyph glyph-name="abreve" unicode="&#x103;" horiz-adv-x="516" 
d="M199 -5c-103 0 -173 48 -173 152c0 105 87 152 208 152c51 0 95 -5 136 -16v94c0 84 -51 109 -125 109c-77 0 -126 -25 -156 -52h-29v49c41 23 103 44 190 44c106 0 178 -33 178 -145v-303c0 -31 13 -44 41 -44c12 0 26 3 26 3v-33c-6 -3 -24 -9 -45 -9
c-50 0 -80 21 -80 70v11c-40 -50 -94 -82 -171 -82zM207 35c78 0 123 36 163 85v126c-39 9 -81 15 -126 15c-99 0 -162 -33 -162 -114c0 -79 47 -112 125 -112zM239 575c-66 0 -106 41 -119 89v23h39c5 -44 35 -70 80 -70c46 0 75 26 80 70h39v-23c-13 -48 -53 -89 -119 -89
z" />
    <glyph glyph-name="Aogonek" unicode="&#x104;" horiz-adv-x="705" 
d="M617 -164c-53 0 -86 28 -86 69c0 46 37 76 72 95h-145v36h107l-67 193h-304l-45 -127c-15 -41 -8 -66 31 -66h56v-36h-222v36h27c23 0 42 16 50 38l198 552c8 22 -3 37 -25 37h-55v37h188l216 -623c8 -22 29 -41 49 -41h29v-36h-45c-38 -28 -64 -52 -64 -86
c0 -27 15 -43 40 -43c14 0 21 3 27 7h21v-33c-16 -6 -31 -9 -53 -9zM346 654l-137 -385h275l-133 385h-5z" />
    <glyph glyph-name="aogonek" unicode="&#x105;" horiz-adv-x="516" 
d="M441 -164c-53 0 -86 28 -86 69c0 45 36 74 70 93c-35 6 -55 27 -55 68v11c-40 -50 -94 -82 -171 -82c-103 0 -173 48 -173 152c0 105 87 152 208 152c51 0 95 -5 136 -16v94c0 84 -51 109 -125 109c-77 0 -126 -25 -156 -52h-29v49c41 23 103 44 190 44
c106 0 178 -33 178 -145v-303c0 -31 13 -44 41 -44c12 0 26 3 26 3v-33c-45 -18 -89 -54 -89 -91c0 -27 15 -43 40 -43c14 0 21 3 27 7h21v-33c-16 -6 -31 -9 -53 -9zM207 35c78 0 123 36 163 85v126c-39 9 -81 15 -126 15c-99 0 -162 -33 -162 -114c0 -79 47 -112 125 -112
z" />
    <glyph glyph-name="Cacute" unicode="&#x106;" horiz-adv-x="636" 
d="M329 737l71 127h58v-25l-90 -102h-39zM358 -5c-190 0 -320 121 -320 357s147 353 329 353c91 0 137 -22 162 -33c7 0 16 13 17 28h41v-197h-43l-11 103c-31 27 -86 57 -165 57c-147 0 -266 -94 -266 -309c0 -213 100 -317 258 -317c108 0 174 39 210 93h34v-45
c-54 -53 -124 -90 -246 -90z" />
    <glyph glyph-name="cacute" unicode="&#x107;" horiz-adv-x="511" 
d="M245 573l71 127h58v-25l-90 -102h-39zM284 -4c-164 0 -252 101 -252 266s105 265 258 265c86 0 136 -15 169 -30v-96h-40c-4 49 -13 61 -38 72c-22 10 -53 15 -92 15c-120 0 -198 -81 -198 -227c0 -145 67 -227 194 -227c85 0 129 34 151 66h32v-42
c-30 -28 -91 -62 -184 -62z" />
    <glyph glyph-name="Ccircumflex" unicode="&#x108;" horiz-adv-x="636" 
d="M237 737v20l84 107h56l83 -107v-20h-29l-82 89l-83 -89h-29zM358 -5c-190 0 -320 121 -320 357s147 353 329 353c91 0 137 -22 162 -33c7 0 16 13 17 28h41v-197h-43l-11 103c-31 27 -86 57 -165 57c-147 0 -266 -94 -266 -309c0 -213 100 -317 258 -317
c108 0 174 39 210 93h34v-45c-54 -53 -124 -90 -246 -90z" />
    <glyph glyph-name="ccircumflex" unicode="&#x109;" horiz-adv-x="511" 
d="M160 573v20l84 107h56l83 -107v-20h-29l-82 89l-83 -89h-29zM284 -4c-164 0 -252 101 -252 266s105 265 258 265c86 0 136 -15 169 -30v-96h-40c-4 49 -13 61 -38 72c-22 10 -53 15 -92 15c-120 0 -198 -81 -198 -227c0 -145 67 -227 194 -227c85 0 129 34 151 66h32v-42
c-30 -28 -91 -62 -184 -62z" />
    <glyph glyph-name="Cdotaccent" unicode="&#x10a;" horiz-adv-x="636" 
d="M358 -5c-190 0 -320 121 -320 357s147 353 329 353c91 0 137 -22 162 -33c7 0 16 13 17 28h41v-197h-43l-11 103c-31 27 -86 57 -165 57c-147 0 -266 -94 -266 -309c0 -213 100 -317 258 -317c108 0 174 39 210 93h34v-45c-54 -53 -124 -90 -246 -90zM355 760
c-22 0 -39 17 -39 39s17 39 39 39s39 -17 39 -39s-17 -39 -39 -39z" />
    <glyph glyph-name="cdotaccent" unicode="&#x10b;" horiz-adv-x="511" 
d="M284 -4c-164 0 -252 101 -252 266s105 265 258 265c86 0 136 -15 169 -30v-96h-40c-4 49 -13 61 -38 72c-22 10 -53 15 -92 15c-120 0 -198 -81 -198 -227c0 -145 67 -227 194 -227c85 0 129 34 151 66h32v-42c-30 -28 -91 -62 -184 -62zM272 596c-22 0 -39 17 -39 39
s17 39 39 39s39 -17 39 -39s-17 -39 -39 -39z" />
    <glyph glyph-name="Ccaron" unicode="&#x10c;" horiz-adv-x="636" 
d="M468 864v-20l-84 -107h-56l-83 107v20h29l82 -89l83 89h29zM358 -5c-190 0 -320 121 -320 357s147 353 329 353c91 0 137 -22 162 -33c7 0 16 13 17 28h41v-197h-43l-11 103c-31 27 -86 57 -165 57c-147 0 -266 -94 -266 -309c0 -213 100 -317 258 -317
c108 0 174 39 210 93h34v-45c-54 -53 -124 -90 -246 -90z" />
    <glyph glyph-name="ccaron" unicode="&#x10d;" horiz-adv-x="511" 
d="M384 700v-20l-84 -107h-56l-83 107v20h29l82 -89l83 89h29zM284 -4c-164 0 -252 101 -252 266s105 265 258 265c86 0 136 -15 169 -30v-96h-40c-4 49 -13 61 -38 72c-22 10 -53 15 -92 15c-120 0 -198 -81 -198 -227c0 -145 67 -227 194 -227c85 0 129 34 151 66h32v-42
c-30 -28 -91 -62 -184 -62z" />
    <glyph glyph-name="Dcaron" unicode="&#x10e;" horiz-adv-x="691" 
d="M417 863v-20l-84 -107h-56l-83 107v20h29l82 -89l83 89h29zM23 0v36h46c17 0 34 18 34 34v558c0 16 -17 35 -34 35h-46v37h275c231 0 355 -101 355 -349c0 -247 -124 -351 -357 -351h-273zM165 39h131c199 0 294 86 294 311c0 226 -95 311 -294 311h-131v-622z" />
    <glyph glyph-name="dcaron" unicode="&#x10f;" horiz-adv-x="598" 
d="M550 571l19 129h50v-25l-33 -104h-36zM253 -4c-108 0 -219 58 -219 259c0 204 124 272 235 272c85 0 142 -34 176 -74v208h-88v39h132c10 0 14 -7 14 -18v-614c0 -15 15 -30 29 -30h45v-38h-117c-10 0 -14 11 -15 33v63c-39 -54 -103 -100 -192 -100zM260 35
c85 0 142 50 185 106v268c-43 45 -86 74 -167 74c-86 0 -185 -46 -185 -226s90 -222 167 -222z" />
    <glyph glyph-name="Dcroat" unicode="&#x110;" horiz-adv-x="691" 
d="M24 329v39h79v260c0 16 -17 35 -34 35h-46v37h275c231 0 355 -101 355 -349c0 -247 -124 -351 -357 -351h-273v36h46c17 0 34 18 34 34v259h-79zM165 39h131c199 0 294 86 294 311c0 226 -95 311 -294 311h-131v-293h202v-39h-202v-290z" />
    <glyph glyph-name="dcroat" unicode="&#x111;" horiz-adv-x="598" 
d="M283 579v33h162v51h-88v37h132c10 0 14 -7 14 -18v-70h74v-33h-74v-513c0 -15 15 -30 29 -30h45v-36h-117c-10 0 -14 11 -15 33v64c-39 -54 -103 -101 -192 -101c-108 0 -219 58 -219 259c0 204 124 272 235 272c85 0 142 -35 176 -75v127h-162zM260 35
c85 0 142 47 185 103v274c-43 45 -86 71 -167 71c-86 0 -185 -46 -185 -226s90 -222 167 -222z" />
    <glyph glyph-name="Emacron" unicode="&#x112;" horiz-adv-x="585" 
d="M23 0v36h46c17 0 34 18 34 34v558c0 16 -17 35 -34 35h-46v37h517v-168h-42l-10 129h-323v-280h186l8 89h41v-218h-41l-8 90h-186v-303h335l9 141h44v-180h-530zM185 772v40h234v-40h-234z" />
    <glyph glyph-name="emacron" unicode="&#x113;" horiz-adv-x="530" 
d="M288 -4c-167 0 -256 101 -256 263c0 164 101 268 243 268c134 0 224 -73 224 -244c0 -11 -1 -22 -1 -24h-407c1 -146 69 -225 201 -225c84 0 133 29 160 61h34v-41c-37 -29 -99 -58 -198 -58zM93 298h348c-3 138 -68 191 -166 191c-102 0 -172 -69 -182 -191zM151 609v40
h234v-40h-234z" />
    <glyph glyph-name="Edotaccent" unicode="&#x116;" horiz-adv-x="585" 
d="M23 0v36h46c17 0 34 18 34 34v558c0 16 -17 35 -34 35h-46v37h517v-168h-42l-10 129h-323v-280h186l8 89h41v-218h-41l-8 90h-186v-303h335l9 141h44v-180h-530zM303 759c-22 0 -39 17 -39 39s17 39 39 39s39 -17 39 -39s-17 -39 -39 -39z" />
    <glyph glyph-name="edotaccent" unicode="&#x117;" horiz-adv-x="530" 
d="M288 -4c-167 0 -256 101 -256 263c0 164 101 268 243 268c134 0 224 -73 224 -244c0 -11 -1 -22 -1 -24h-407c1 -146 69 -225 201 -225c84 0 133 29 160 61h34v-41c-37 -29 -99 -58 -198 -58zM93 298h348c-3 138 -68 191 -166 191c-102 0 -172 -69 -182 -191zM268 596
c-22 0 -39 17 -39 39s17 39 39 39s39 -17 39 -39s-17 -39 -39 -39z" />
    <glyph glyph-name="Eogonek" unicode="&#x118;" horiz-adv-x="585" 
d="M23 0v36h46c17 0 34 18 34 34v558c0 16 -17 35 -34 35h-46v37h517v-168h-42l-10 129h-323v-280h186l8 89h41v-218h-41l-8 90h-186v-303h335l9 141h44v-180h-36c-38 -28 -64 -52 -64 -86c0 -27 15 -43 40 -43c14 0 21 3 27 7h21v-33c-16 -6 -31 -9 -53 -9
c-53 0 -86 28 -86 69c0 46 37 76 72 95h-451z" />
    <glyph glyph-name="eogonek" unicode="&#x119;" horiz-adv-x="530" 
d="M486 95v-41c-49 -33 -124 -88 -124 -140c0 -27 15 -43 40 -43c14 0 21 3 27 7h21v-33c-16 -6 -31 -9 -53 -9c-53 0 -86 28 -86 69c0 46 33 76 66 102c-24 -7 -52 -11 -89 -11c-167 0 -256 101 -256 263c0 164 101 268 243 268c134 0 224 -73 224 -244
c0 -11 -1 -22 -1 -24h-407c1 -146 69 -225 201 -225c84 0 133 29 160 61h34zM93 298h348c-3 138 -68 191 -166 191c-102 0 -172 -69 -182 -191z" />
    <glyph glyph-name="Ecaron" unicode="&#x11a;" horiz-adv-x="585" 
d="M418 863v-20l-84 -107h-56l-83 107v20h29l82 -89l83 89h29zM23 0v36h46c17 0 34 18 34 34v558c0 16 -17 35 -34 35h-46v37h517v-168h-42l-10 129h-323v-280h186l8 89h41v-218h-41l-8 90h-186v-303h335l9 141h44v-180h-530z" />
    <glyph glyph-name="ecaron" unicode="&#x11b;" horiz-adv-x="530" 
d="M380 700v-20l-84 -107h-56l-83 107v20h29l82 -89l83 89h29zM288 -4c-167 0 -256 101 -256 263c0 164 101 268 243 268c134 0 224 -73 224 -244c0 -11 -1 -22 -1 -24h-407c1 -146 69 -225 201 -225c84 0 133 29 160 61h34v-41c-37 -29 -99 -58 -198 -58zM93 298h348
c-3 138 -68 191 -166 191c-102 0 -172 -69 -182 -191z" />
    <glyph glyph-name="Ebreve" unicode="&#x114;" horiz-adv-x="585" 
d="M23 0v36h46c17 0 34 18 34 34v558c0 16 -17 35 -34 35h-46v37h517v-168h-42l-10 129h-323v-280h186l8 89h41v-218h-41l-8 90h-186v-303h335l9 141h44v-180h-530zM308 739c-66 0 -106 41 -119 89v23h39c5 -44 35 -70 80 -70c46 0 75 26 80 70h39v-23
c-13 -48 -53 -89 -119 -89z" />
    <glyph glyph-name="ebreve" unicode="&#x115;" horiz-adv-x="530" 
d="M288 -4c-167 0 -256 101 -256 263c0 164 101 268 243 268c134 0 224 -73 224 -244c0 -11 -1 -22 -1 -24h-407c1 -146 69 -225 201 -225c84 0 133 29 160 61h34v-41c-37 -29 -99 -58 -198 -58zM93 298h348c-3 138 -68 191 -166 191c-102 0 -172 -69 -182 -191zM273 575
c-66 0 -106 41 -119 89v23h39c5 -44 35 -70 80 -70c46 0 75 26 80 70h39v-23c-13 -48 -53 -89 -119 -89z" />
    <glyph glyph-name="Gcircumflex" unicode="&#x11c;" horiz-adv-x="689" 
d="M248 737v20l84 107h56l83 -107v-20h-29l-82 89l-83 -89h-29zM355 -5c-196 0 -317 121 -317 357s145 353 330 353c91 0 143 -23 163 -32c9 0 19 8 21 27h40v-191h-44l-10 97c-31 27 -85 57 -169 57c-149 0 -267 -94 -267 -309c0 -213 91 -317 255 -317c87 0 140 28 179 56
v185h-102v37h233v-37h-36c-17 0 -34 -18 -34 -34v-244h-38c-1 21 -9 36 -22 36c-25 -11 -87 -41 -182 -41z" />
    <glyph glyph-name="gcircumflex" unicode="&#x11d;" horiz-adv-x="499" 
d="M130 573v20l84 107h56l83 -107v-20h-29l-82 89l-83 -89h-29zM234 -169c-159 0 -216 56 -216 130c0 62 44 98 97 123c-25 10 -47 32 -47 70c0 39 22 67 49 86c-35 28 -57 72 -57 123c0 92 66 164 186 164c19 0 38 -2 55 -5h176v-38h-65c-11 0 -21 -9 -21 -20
c27 -26 40 -60 40 -101c0 -92 -66 -160 -185 -160c-43 0 -76 9 -103 23c-16 -16 -26 -35 -26 -60c0 -31 23 -45 58 -45h149c92 0 150 -36 150 -125c0 -92 -64 -165 -240 -165zM236 -129c129 0 182 51 182 115c0 61 -35 83 -100 83h-169c-44 -22 -75 -53 -75 -102
c0 -55 32 -96 162 -96zM246 241c88 0 129 51 129 122c0 70 -41 126 -129 126s-130 -56 -130 -126c0 -71 42 -122 130 -122z" />
    <glyph glyph-name="Gbreve" unicode="&#x11e;" horiz-adv-x="689" 
d="M355 -5c-196 0 -317 121 -317 357s145 353 330 353c91 0 143 -23 163 -32c9 0 19 8 21 27h40v-191h-44l-10 97c-31 27 -85 57 -169 57c-149 0 -267 -94 -267 -309c0 -213 91 -317 255 -317c87 0 140 28 179 56v185h-102v37h233v-37h-36c-17 0 -34 -18 -34 -34v-244h-38
c-1 21 -9 36 -22 36c-25 -11 -87 -41 -182 -41zM359 739c-66 0 -106 41 -119 89v23h39c5 -44 35 -70 80 -70c46 0 75 26 80 70h39v-23c-13 -48 -53 -89 -119 -89z" />
    <glyph glyph-name="gbreve" unicode="&#x11f;" horiz-adv-x="499" 
d="M234 -169c-159 0 -216 56 -216 130c0 62 44 98 97 123c-25 10 -47 32 -47 70c0 39 22 67 49 86c-35 28 -57 72 -57 123c0 92 66 164 186 164c19 0 38 -2 55 -5h176v-38h-65c-11 0 -21 -9 -21 -20c27 -26 40 -60 40 -101c0 -92 -66 -160 -185 -160c-43 0 -76 9 -103 23
c-16 -16 -26 -35 -26 -60c0 -31 23 -45 58 -45h149c92 0 150 -36 150 -125c0 -92 -64 -165 -240 -165zM236 -129c129 0 182 51 182 115c0 61 -35 83 -100 83h-169c-44 -22 -75 -53 -75 -102c0 -55 32 -96 162 -96zM246 241c88 0 129 51 129 122c0 70 -41 126 -129 126
s-130 -56 -130 -126c0 -71 42 -122 130 -122zM242 575c-66 0 -106 41 -119 89v23h39c5 -44 35 -70 80 -70c46 0 75 26 80 70h39v-23c-13 -48 -53 -89 -119 -89z" />
    <glyph glyph-name="Gdotaccent" unicode="&#x120;" horiz-adv-x="689" 
d="M355 -5c-196 0 -317 121 -317 357s145 353 330 353c91 0 143 -23 163 -32c9 0 19 8 21 27h40v-191h-44l-10 97c-31 27 -85 57 -169 57c-149 0 -267 -94 -267 -309c0 -213 91 -317 255 -317c87 0 140 28 179 56v185h-102v37h233v-37h-36c-17 0 -34 -18 -34 -34v-244h-38
c-1 21 -9 36 -22 36c-25 -11 -87 -41 -182 -41zM360 760c-22 0 -39 17 -39 39s17 39 39 39s39 -17 39 -39s-17 -39 -39 -39z" />
    <glyph glyph-name="gdotaccent" unicode="&#x121;" horiz-adv-x="499" 
d="M234 -169c-159 0 -216 56 -216 130c0 62 44 98 97 123c-25 10 -47 32 -47 70c0 39 22 67 49 86c-35 28 -57 72 -57 123c0 92 66 164 186 164c19 0 38 -2 55 -5h176v-38h-65c-11 0 -21 -9 -21 -20c27 -26 40 -60 40 -101c0 -92 -66 -160 -185 -160c-43 0 -76 9 -103 23
c-16 -16 -26 -35 -26 -60c0 -31 23 -45 58 -45h149c92 0 150 -36 150 -125c0 -92 -64 -165 -240 -165zM236 -129c129 0 182 51 182 115c0 61 -35 83 -100 83h-169c-44 -22 -75 -53 -75 -102c0 -55 32 -96 162 -96zM246 241c88 0 129 51 129 122c0 70 -41 126 -129 126
s-130 -56 -130 -126c0 -71 42 -122 130 -122zM242 596c-22 0 -39 17 -39 39s17 39 39 39s39 -17 39 -39s-17 -39 -39 -39z" />
    <glyph glyph-name="Gcommaaccent" unicode="&#x122;" horiz-adv-x="689" 
d="M306 -187v29c26 6 40 19 40 39c0 11 -8 16 -16 21c-11 7 -16 15 -16 31c0 19 15 33 35 33c23 0 42 -15 42 -52c0 -64 -34 -92 -85 -101zM355 -5c-196 0 -317 121 -317 357s145 353 330 353c91 0 143 -23 163 -32c9 0 19 8 21 27h40v-191h-44l-10 97
c-31 27 -85 57 -169 57c-149 0 -267 -94 -267 -309c0 -213 91 -317 255 -317c87 0 140 28 179 56v185h-102v37h233v-37h-36c-17 0 -34 -18 -34 -34v-244h-38c-1 21 -9 36 -22 36c-25 -11 -87 -41 -182 -41z" />
    <glyph glyph-name="gcommaaccent" unicode="&#x123;" horiz-adv-x="499" 
d="M300 744v-29c-26 -6 -40 -19 -40 -39c0 -11 8 -16 16 -21c11 -7 16 -15 16 -31c0 -19 -15 -33 -35 -33c-23 0 -42 15 -42 52c0 64 34 92 85 101zM234 -169c-159 0 -216 56 -216 130c0 62 44 98 97 123c-25 10 -47 32 -47 70c0 39 22 67 49 86c-35 28 -57 72 -57 123
c0 92 66 164 186 164c19 0 38 -2 55 -5h176v-38h-65c-11 0 -21 -9 -21 -20c27 -26 40 -60 40 -101c0 -92 -66 -160 -185 -160c-43 0 -76 9 -103 23c-16 -16 -26 -35 -26 -60c0 -31 23 -45 58 -45h149c92 0 150 -36 150 -125c0 -92 -64 -165 -240 -165zM236 -129
c129 0 182 51 182 115c0 61 -35 83 -100 83h-169c-44 -22 -75 -53 -75 -102c0 -55 32 -96 162 -96zM246 241c88 0 129 51 129 122c0 70 -41 126 -129 126s-130 -56 -130 -126c0 -71 42 -122 130 -122z" />
    <glyph glyph-name="Hcircumflex" unicode="&#x124;" horiz-adv-x="724" 
d="M251 736v20l84 107h56l83 -107v-20h-29l-82 89l-83 -89h-29zM23 0v36h46c17 0 34 18 34 34v558c0 16 -17 35 -34 35h-46v37h245v-37h-103v-282h393v282h-102v37h245v-37h-47c-17 0 -34 -19 -34 -35v-558c0 -16 17 -34 34 -34h47v-36h-245v36h102v305h-393v-305h103v-36
h-245z" />
    <glyph glyph-name="hcircumflex" unicode="&#x125;" horiz-adv-x="603" 
d="M186 729v20l84 107h56l83 -107v-20h-29l-82 89l-83 -89h-29zM152 394v-358h90v-36h-221v36h44c15 0 29 14 29 29v568c0 14 -14 30 -29 30h-48v37h121c10 0 14 -6 14 -18v-252c57 50 137 97 222 97c78 0 140 -26 140 -130v-332c0 -15 15 -29 29 -29h39v-36h-216v36h90v344
c0 83 -42 100 -101 100c-75 0 -144 -38 -203 -86z" />
    <glyph glyph-name="Hbar" unicode="&#x126;" horiz-adv-x="724" 
d="M22 495v33h81v100c0 16 -17 35 -34 35h-46v37h245v-37h-103v-135h393v135h-102v37h245v-37h-47c-17 0 -34 -19 -34 -35v-100h82v-33h-82v-425c0 -16 17 -34 34 -34h47v-36h-245v36h102v305h-393v-305h103v-36h-245v36h46c17 0 34 18 34 34v425h-81zM165 381h393v114h-393
v-114z" />
    <glyph glyph-name="hbar" unicode="&#x127;" horiz-adv-x="603" 
d="M18 579v33h76v21c0 14 -14 30 -29 30h-48v37h121c10 0 14 -6 14 -18v-70h160v-33h-160v-149c57 50 137 97 222 97c78 0 140 -26 140 -130v-332c0 -15 15 -29 29 -29h39v-36h-216v36h90v344c0 83 -42 100 -101 100c-75 0 -144 -38 -203 -86v-358h90v-36h-221v36h44
c15 0 29 14 29 29v514h-76z" />
    <glyph glyph-name="Imacron" unicode="&#x12a;" horiz-adv-x="286" 
d="M23 0v36h56c17 0 33 18 33 34v558c0 16 -16 35 -33 35h-56v37h241v-37h-56c-17 0 -34 -19 -34 -35v-558c0 -16 17 -34 34 -34h56v-36h-241zM25 772v40h234v-40h-234z" />
    <glyph glyph-name="imacron" unicode="&#x12b;" horiz-adv-x="257" 
d="M21 0v38h49c15 0 29 14 29 29v385c0 14 -14 30 -29 30h-54v40h126c11 0 15 -7 15 -31v-424c0 -15 15 -29 29 -29h50v-38h-215zM12 609v42h204v-42h-204z" />
    <glyph glyph-name="Iogonek" unicode="&#x12e;" horiz-adv-x="286" 
d="M23 0v36h56c17 0 33 18 33 34v558c0 16 -16 35 -33 35h-56v37h241v-37h-56c-17 0 -34 -19 -34 -35v-558c0 -16 17 -34 34 -34h56v-36h-50c-38 -28 -64 -52 -64 -86c0 -27 15 -43 40 -43c14 0 21 3 27 7h21v-33c-16 -6 -31 -9 -53 -9c-53 0 -86 28 -86 69
c0 46 37 76 72 95h-148z" />
    <glyph glyph-name="iogonek" unicode="&#x12f;" horiz-adv-x="257" 
d="M21 0v36h49c15 0 29 14 29 29v389c0 14 -14 30 -29 30h-54v38h126c11 0 15 -7 15 -31v-426c0 -15 15 -29 29 -29h50v-36h-33c-38 -28 -64 -52 -64 -86c0 -27 15 -43 40 -43c14 0 21 3 27 7h21v-33c-16 -6 -31 -9 -53 -9c-53 0 -86 28 -86 69c0 46 37 76 72 95h-139z
M121 596c-22 0 -39 17 -39 39s17 39 39 39s39 -17 39 -39s-17 -39 -39 -39z" />
    <glyph glyph-name="Idotaccent" unicode="&#x130;" horiz-adv-x="286" 
d="M23 0v36h56c17 0 33 18 33 34v558c0 16 -16 35 -33 35h-56v37h241v-37h-56c-17 0 -34 -19 -34 -35v-558c0 -16 17 -34 34 -34h56v-36h-241zM143 759c-22 0 -39 17 -39 39s17 39 39 39s39 -17 39 -39s-17 -39 -39 -39z" />
    <glyph glyph-name="idotaccent" horiz-adv-x="255" 
d="M21 0v35h49c15 0 29 14 29 29v391c0 14 -14 30 -29 30h-54v37h126c11 0 15 -7 15 -31v-427c0 -15 15 -29 29 -29h50v-35h-215zM124 599c-20 0 -36 16 -36 36s16 36 36 36s36 -16 36 -36s-16 -36 -36 -36z" />
    <glyph glyph-name="Jcircumflex" unicode="&#x134;" horiz-adv-x="454" 
d="M205 736v20l84 107h56l83 -107v-20h-29l-82 89l-83 -89h-29zM162 -5c-69 0 -113 18 -146 36v50h38c16 -22 50 -44 107 -44c89 0 125 41 125 121v470c0 16 -16 35 -33 35h-52v37h230v-37h-49c-17 0 -34 -19 -34 -35v-471c0 -106 -57 -162 -186 -162z" />
    <glyph glyph-name="jcircumflex" unicode="&#x135;" horiz-adv-x="226" 
d="M39 -165c-35 0 -58 6 -78 12v41h29c9 -7 21 -15 43 -15c50 0 66 25 66 72v509c0 14 -14 30 -29 30h-54v38h126c11 0 15 -7 15 -31v-544c0 -78 -40 -112 -118 -112zM-5 573v20l84 107h56l83 -107v-20h-29l-82 89l-83 -89h-29z" />
    <glyph glyph-name="Kcommaaccent" unicode="&#x136;" horiz-adv-x="675" 
d="M315 -187v29c26 6 40 19 40 39c0 11 -8 16 -16 21c-11 7 -16 15 -16 31c0 19 15 33 35 33c23 0 42 -15 42 -52c0 -64 -34 -92 -85 -101zM547 628l-213 -220l223 -333c15 -22 39 -39 61 -39h34v-36h-139v35l-221 330l-127 -132v-197h99v-36h-241v36h46c17 0 34 18 34 34
v558c0 16 -17 35 -34 35h-46v37h241v-37h-99v-369l309 325c21 22 15 44 -13 44h-32v37h210v-37h-32c-19 0 -42 -16 -60 -35z" />
    <glyph glyph-name="kcommaaccent" unicode="&#x137;" horiz-adv-x="535" 
d="M254 -187v29c26 6 40 19 40 39c0 11 -8 16 -16 21c-11 7 -16 15 -16 31c0 19 15 33 35 33c23 0 42 -15 42 -52c0 -64 -34 -92 -85 -101zM431 458l-148 -153l165 -235c14 -20 36 -34 51 -34h18v-36h-88l-184 265l-93 -97v-132h87v-36h-218v36h44c15 0 29 14 29 29v568
c0 14 -14 30 -29 30h-48v37h121c10 0 14 -6 14 -18v-462l218 231c14 15 5 33 -12 33h-30v38h183v-38h-32c-13 0 -36 -14 -48 -26z" />
    <glyph glyph-name="Lacute" unicode="&#x139;" horiz-adv-x="568" 
d="M113 736l71 127h58v-25l-90 -102h-39zM23 0v36h46c17 0 34 18 34 34v558c0 16 -17 35 -34 35h-46v37h253v-37h-111v-624h322l9 155h45v-194h-518z" />
    <glyph glyph-name="lacute" unicode="&#x13a;" horiz-adv-x="258" 
d="M89 729l71 127h58v-25l-90 -102h-39zM21 0v36h49c15 0 30 14 30 29v568c0 14 -15 30 -30 30h-53v37h127c10 0 13 -6 13 -18v-617c0 -15 15 -29 30 -29h50v-36h-216z" />
    <glyph glyph-name="Lcommaaccent" unicode="&#x13b;" horiz-adv-x="568" 
d="M259 -187v29c26 6 40 19 40 39c0 11 -8 16 -16 21c-11 7 -16 15 -16 31c0 19 15 33 35 33c23 0 42 -15 42 -52c0 -64 -34 -92 -85 -101zM23 0v36h46c17 0 34 18 34 34v558c0 16 -17 35 -34 35h-46v37h253v-37h-111v-624h322l9 155h45v-194h-518z" />
    <glyph glyph-name="lcommaaccent" unicode="&#x13c;" horiz-adv-x="258" 
d="M84 -187v29c26 6 40 19 40 39c0 11 -8 16 -16 21c-11 7 -16 15 -16 31c0 19 15 33 35 33c23 0 42 -15 42 -52c0 -64 -34 -92 -85 -101zM21 0v36h49c15 0 30 14 30 29v568c0 14 -15 30 -30 30h-53v37h127c10 0 13 -6 13 -18v-617c0 -15 15 -29 30 -29h50v-36h-216z" />
    <glyph glyph-name="Lcaron" unicode="&#x13d;" horiz-adv-x="568" 
d="M358 557l23 143h53v-25l-40 -118h-36zM23 0v38h46c17 0 34 18 34 34v554c0 16 -17 35 -34 35h-46v39h253v-39h-111v-619h321l9 152h46v-194h-518z" />
    <glyph glyph-name="lcaron" unicode="&#x13e;" horiz-adv-x="258" 
d="M204 571l19 129h50v-25l-33 -104h-36zM21 0v38h49c15 0 30 14 30 29v564c0 14 -15 30 -30 30h-53v39h127c10 0 13 -6 13 -18v-615c0 -15 15 -29 30 -29h50v-38h-216z" />
    <glyph glyph-name="Nacute" unicode="&#x143;" horiz-adv-x="713" 
d="M320 736l71 127h58v-25l-90 -102h-39zM23 0v36h46c17 0 34 18 34 34v558c0 16 -17 35 -34 35h-46v37h156l382 -601h1v564h-100v37h230v-37h-46c-17 0 -34 -19 -34 -35v-628h-55l-399 626h-5v-590h103v-36h-233z" />
    <glyph glyph-name="nacute" unicode="&#x144;" horiz-adv-x="603" 
d="M266 573l71 127h58v-25l-90 -102h-39zM21 0v36h44c15 0 29 14 29 29v389c0 14 -14 30 -29 30h-49v38h118c12 0 17 -7 18 -34v-58c57 50 137 97 222 97c78 0 140 -26 140 -130v-332c0 -15 15 -29 29 -29h39v-36h-216v36h90v344c0 83 -42 100 -101 100
c-75 0 -144 -38 -203 -86v-358h90v-36h-221z" />
    <glyph glyph-name="Ncommaaccent" unicode="&#x145;" horiz-adv-x="715" 
d="M332 -187v29c26 6 40 19 40 39c0 11 -8 16 -16 21c-11 7 -16 15 -16 31c0 19 15 33 35 33c23 0 42 -15 42 -52c0 -64 -34 -92 -85 -101zM23 0v36h46c17 0 34 18 34 34v558c0 16 -17 35 -34 35h-46v37h156l382 -601h1v564h-100v37h230v-37h-46c-17 0 -34 -19 -34 -35v-628
h-55l-399 626h-5v-590h103v-36h-233z" />
    <glyph glyph-name="ncommaaccent" unicode="&#x146;" horiz-adv-x="603" 
d="M257 -187v29c26 6 40 19 40 39c0 11 -8 16 -16 21c-11 7 -16 15 -16 31c0 19 15 33 35 33c23 0 42 -15 42 -52c0 -64 -34 -92 -85 -101zM21 0v36h44c15 0 29 14 29 29v389c0 14 -14 30 -29 30h-49v38h118c12 0 17 -7 18 -34v-58c57 50 137 97 222 97
c78 0 140 -26 140 -130v-332c0 -15 15 -29 29 -29h39v-36h-216v36h90v344c0 83 -42 100 -101 100c-75 0 -144 -38 -203 -86v-358h90v-36h-221z" />
    <glyph glyph-name="Ncaron" unicode="&#x147;" horiz-adv-x="715" 
d="M463 863v-20l-84 -107h-56l-83 107v20h29l82 -89l83 89h29zM23 0v36h46c17 0 34 18 34 34v558c0 16 -17 35 -34 35h-46v37h156l382 -601h1v564h-100v37h230v-37h-46c-17 0 -34 -19 -34 -35v-628h-55l-399 626h-5v-590h103v-36h-233z" />
    <glyph glyph-name="ncaron" unicode="&#x148;" horiz-adv-x="603" 
d="M405 700v-20l-84 -107h-56l-83 107v20h29l82 -89l83 89h29zM21 0v36h44c15 0 29 14 29 29v389c0 14 -14 30 -29 30h-49v38h118c12 0 17 -7 18 -34v-58c57 50 137 97 222 97c78 0 140 -26 140 -130v-332c0 -15 15 -29 29 -29h39v-36h-216v36h90v344c0 83 -42 100 -101 100
c-75 0 -144 -38 -203 -86v-358h90v-36h-221z" />
    <glyph glyph-name="Omacron" unicode="&#x14c;" horiz-adv-x="728" 
d="M249 773v40h234v-40h-234zM365 -5c-177 0 -327 125 -327 355s150 355 327 355c176 0 325 -125 325 -355s-149 -355 -325 -355zM365 37c147 0 261 106 261 312s-114 314 -261 314c-148 0 -263 -108 -263 -314s115 -312 263 -312z" />
    <glyph glyph-name="omacron" unicode="&#x14d;" horiz-adv-x="574" 
d="M162 609v40h234v-40h-234zM283 -4c-146 0 -255 100 -255 265s109 266 255 266c147 0 255 -101 255 -266s-108 -265 -255 -265zM283 34c116 0 196 83 196 226c0 144 -80 227 -196 227s-196 -83 -196 -227c0 -143 80 -226 196 -226z" />
    <glyph glyph-name="Ohungarumlaut" unicode="&#x150;" horiz-adv-x="728" 
d="M282 737l46 127h51v-25l-60 -102h-37zM403 737l46 127h51v-25l-60 -102h-37zM365 -5c-177 0 -327 125 -327 355s150 355 327 355c176 0 325 -125 325 -355s-149 -355 -325 -355zM365 37c147 0 261 106 261 312s-114 314 -261 314c-148 0 -263 -108 -263 -314
s115 -312 263 -312z" />
    <glyph glyph-name="ohungarumlaut" unicode="&#x151;" horiz-adv-x="574" 
d="M200 573l46 127h51v-25l-60 -102h-37zM321 573l46 127h51v-25l-60 -102h-37zM283 -4c-146 0 -255 100 -255 265s109 266 255 266c147 0 255 -101 255 -266s-108 -265 -255 -265zM283 34c116 0 196 83 196 226c0 144 -80 227 -196 227s-196 -83 -196 -227
c0 -143 80 -226 196 -226z" />
    <glyph glyph-name="Racute" unicode="&#x154;" horiz-adv-x="642" 
d="M258 736l71 127h58v-25l-90 -102h-39zM23 0v36h46c17 0 34 18 34 34v558c0 16 -17 35 -34 35h-46v37h265c140 0 247 -45 247 -188c0 -108 -69 -153 -154 -169v-2c60 -15 111 -42 141 -152l33 -123c5 -18 22 -30 34 -30h34v-36h-118l-44 188c-25 105 -78 135 -177 135
h-119v-287h92v-36h-234zM165 362h122c118 0 185 36 185 147c0 118 -77 153 -185 153h-122v-300z" />
    <glyph glyph-name="racute" unicode="&#x155;" horiz-adv-x="376" 
d="M163 573l71 127h58v-25l-90 -102h-39zM21 0v36h44c15 0 29 14 29 29v389c0 14 -14 30 -29 30h-49v38h118c12 0 18 -7 18 -36v-66c40 52 94 105 173 105c13 0 22 -2 25 -3v-48s-14 1 -23 1c-77 0 -123 -35 -175 -93v-346h96v-36h-227z" />
    <glyph glyph-name="Rcommaaccent" unicode="&#x156;" horiz-adv-x="642" 
d="M301 -187v29c26 6 40 19 40 39c0 11 -8 16 -16 21c-11 7 -16 15 -16 31c0 19 15 33 35 33c23 0 42 -15 42 -52c0 -64 -34 -92 -85 -101zM23 0v36h46c17 0 34 18 34 34v558c0 16 -17 35 -34 35h-46v37h265c140 0 247 -45 247 -188c0 -108 -69 -153 -154 -169v-2
c60 -15 111 -42 141 -152l33 -123c5 -18 22 -30 34 -30h34v-36h-118l-44 188c-25 105 -78 135 -177 135h-119v-287h92v-36h-234zM165 362h122c118 0 185 36 185 147c0 118 -77 153 -185 153h-122v-300z" />
    <glyph glyph-name="rcommaaccent" unicode="&#x157;" horiz-adv-x="376" 
d="M77 -188v29c26 6 40 19 40 39c0 11 -8 16 -16 21c-11 7 -16 15 -16 31c0 19 15 33 35 33c23 0 42 -15 42 -52c0 -64 -34 -92 -85 -101zM21 0v36h44c15 0 29 14 29 29v389c0 14 -14 30 -29 30h-49v38h118c12 0 18 -7 18 -36v-66c40 52 94 105 173 105c13 0 22 -2 25 -3
v-48s-14 1 -23 1c-77 0 -123 -35 -175 -93v-346h96v-36h-227z" />
    <glyph glyph-name="Rcaron" unicode="&#x158;" horiz-adv-x="642" 
d="M400 863v-20l-84 -107h-56l-83 107v20h29l82 -89l83 89h29zM23 0v36h46c17 0 34 18 34 34v558c0 16 -17 35 -34 35h-46v37h265c140 0 247 -45 247 -188c0 -108 -69 -153 -154 -169v-2c60 -15 111 -42 141 -152l33 -123c5 -18 22 -30 34 -30h34v-36h-118l-44 188
c-25 105 -78 135 -177 135h-119v-287h92v-36h-234zM165 362h122c118 0 185 36 185 147c0 118 -77 153 -185 153h-122v-300z" />
    <glyph glyph-name="rcaron" unicode="&#x159;" horiz-adv-x="376" 
d="M302 700v-20l-84 -107h-56l-83 107v20h29l82 -89l83 89h29zM21 0v36h44c15 0 29 14 29 29v389c0 14 -14 30 -29 30h-49v38h118c12 0 18 -7 18 -36v-66c40 52 94 105 173 105c13 0 22 -2 25 -3v-48s-14 1 -23 1c-77 0 -123 -35 -175 -93v-346h96v-36h-227z" />
    <glyph glyph-name="Sacute" unicode="&#x15a;" horiz-adv-x="518" 
d="M235 737l71 127h58v-25l-90 -102h-39zM252 -5c-90 0 -143 30 -162 39c-7 0 -15 -11 -17 -34h-42v196h45l9 -98c32 -27 80 -61 165 -61c105 0 178 43 178 155c0 105 -90 119 -190 147c-108 30 -192 67 -192 186c0 110 72 180 212 180c76 0 121 -24 139 -32
c8 0 13 11 15 27h41v-176h-43l-9 87c-32 26 -72 52 -142 52c-110 0 -159 -51 -159 -135c0 -93 79 -115 172 -141c116 -32 212 -64 212 -193c0 -136 -95 -199 -232 -199z" />
    <glyph glyph-name="sacute" unicode="&#x15b;" horiz-adv-x="434" 
d="M188 573l71 127h58v-25l-90 -102h-39zM204 -4c-93 0 -140 16 -173 29v98h39c4 -48 11 -66 31 -74c25 -9 50 -15 102 -15c93 0 144 38 144 112c0 64 -48 84 -143 100c-101 17 -162 43 -162 139c0 90 65 142 181 142c84 0 129 -12 161 -25v-92h-38c-5 41 -10 56 -31 65
c-22 9 -44 12 -93 12c-86 0 -128 -36 -128 -95c0 -65 41 -82 135 -98c110 -18 172 -48 172 -141c0 -100 -63 -157 -197 -157z" />
    <glyph glyph-name="Scircumflex" unicode="&#x15c;" horiz-adv-x="518" 
d="M146 737v20l84 107h56l83 -107v-20h-29l-82 89l-83 -89h-29zM252 -5c-90 0 -143 30 -162 39c-7 0 -15 -11 -17 -34h-42v196h45l9 -98c32 -27 80 -61 165 -61c105 0 178 43 178 155c0 105 -90 119 -190 147c-108 30 -192 67 -192 186c0 110 72 180 212 180
c76 0 121 -24 139 -32c8 0 13 11 15 27h41v-176h-43l-9 87c-32 26 -72 52 -142 52c-110 0 -159 -51 -159 -135c0 -93 79 -115 172 -141c116 -32 212 -64 212 -193c0 -136 -95 -199 -232 -199z" />
    <glyph glyph-name="scircumflex" unicode="&#x15d;" horiz-adv-x="434" 
d="M103 573v20l84 107h56l83 -107v-20h-29l-82 89l-83 -89h-29zM204 -4c-93 0 -140 16 -173 29v98h39c4 -48 11 -66 31 -74c25 -9 50 -15 102 -15c93 0 144 38 144 112c0 64 -48 84 -143 100c-101 17 -162 43 -162 139c0 90 65 142 181 142c84 0 129 -12 161 -25v-92h-38
c-5 41 -10 56 -31 65c-22 9 -44 12 -93 12c-86 0 -128 -36 -128 -95c0 -65 41 -82 135 -98c110 -18 172 -48 172 -141c0 -100 -63 -157 -197 -157z" />
    <glyph glyph-name="Scedilla" unicode="&#x15e;" horiz-adv-x="518" 
d="M252 -174c-35 0 -56 7 -76 17v33h23c7 -10 25 -18 46 -18c29 0 46 14 46 36c0 26 -19 35 -62 35h-12v68c-69 6 -111 29 -127 37c-7 0 -15 -11 -17 -34h-42v196h45l9 -98c32 -27 80 -61 165 -61c105 0 178 43 178 155c0 105 -90 119 -190 147c-108 30 -192 67 -192 186
c0 110 72 180 212 180c76 0 121 -24 139 -32c8 0 13 11 15 27h41v-176h-43l-9 87c-32 26 -72 52 -142 52c-110 0 -159 -51 -159 -135c0 -93 79 -115 172 -141c116 -32 212 -64 212 -193c0 -136 -95 -198 -231 -199v-36c54 0 85 -21 85 -67c0 -42 -35 -66 -86 -66z" />
    <glyph glyph-name="scedilla" unicode="&#x15f;" horiz-adv-x="434" 
d="M207 -174c-35 0 -56 7 -76 17v33h23c7 -10 25 -18 46 -18c29 0 46 14 46 36c0 26 -19 35 -62 35h-12v68c-73 3 -112 16 -141 28v98h39c4 -48 11 -66 31 -74c25 -9 50 -15 102 -15c93 0 144 38 144 112c0 64 -48 84 -143 100c-101 17 -162 43 -162 139
c0 90 65 142 181 142c84 0 129 -12 161 -25v-92h-38c-5 41 -10 56 -31 65c-22 9 -44 12 -93 12c-86 0 -128 -36 -128 -95c0 -65 41 -82 135 -98c110 -18 172 -48 172 -141c0 -99 -62 -156 -193 -157v-37c54 0 85 -21 85 -67c0 -42 -35 -66 -86 -66z" />
    <glyph glyph-name="Scommaaccent" unicode="&#x218;" horiz-adv-x="518" 
d="M213 -187v29c26 6 40 19 40 39c0 11 -8 16 -16 21c-11 7 -16 15 -16 31c0 19 15 33 35 33c23 0 42 -15 42 -52c0 -64 -34 -92 -85 -101zM252 -5c-90 0 -143 30 -162 39c-7 0 -15 -11 -17 -34h-42v196h45l9 -98c32 -27 80 -61 165 -61c105 0 178 43 178 155
c0 105 -90 119 -190 147c-108 30 -192 67 -192 186c0 110 72 180 212 180c76 0 121 -24 139 -32c8 0 13 11 15 27h41v-176h-43l-9 87c-32 26 -72 52 -142 52c-110 0 -159 -51 -159 -135c0 -93 79 -115 172 -141c116 -32 212 -64 212 -193c0 -136 -95 -199 -232 -199z" />
    <glyph glyph-name="scommaaccent" unicode="&#x219;" horiz-adv-x="434" 
d="M171 -187v29c26 6 40 19 40 39c0 11 -8 16 -16 21c-11 7 -16 15 -16 31c0 19 15 33 35 33c23 0 42 -15 42 -52c0 -64 -34 -92 -85 -101zM204 -4c-93 0 -140 16 -173 29v98h39c4 -48 11 -66 31 -74c25 -9 50 -15 102 -15c93 0 144 38 144 112c0 64 -48 84 -143 100
c-101 17 -162 43 -162 139c0 90 65 142 181 142c84 0 129 -12 161 -25v-92h-38c-5 41 -10 56 -31 65c-22 9 -44 12 -93 12c-86 0 -128 -36 -128 -95c0 -65 41 -82 135 -98c110 -18 172 -48 172 -141c0 -100 -63 -157 -197 -157z" />
    <glyph glyph-name="Tcommaaccent" unicode="&#x162;" horiz-adv-x="638" 
d="M275 -187v29c26 6 40 19 40 39c0 11 -8 16 -16 21c-11 7 -16 15 -16 31c0 19 15 33 35 33c23 0 42 -15 42 -52c0 -64 -34 -92 -85 -101zM201 0v36h53c17 0 34 18 34 34v591h-203l-8 -152h-44v191h572v-191h-43l-9 152h-203v-591c0 -16 16 -34 33 -34h54v-36h-236z" />
    <glyph glyph-name="tcommaaccent" unicode="&#x163;" horiz-adv-x="317" 
d="M140 -187v29c26 6 40 19 40 39c0 11 -8 16 -16 21c-11 7 -16 15 -16 31c0 19 15 33 35 33c23 0 42 -15 42 -52c0 -64 -34 -92 -85 -101zM218 -5c-83 0 -127 33 -127 118v371h-75v38h75v144h58v-144h136v-38h-136v-366c0 -62 18 -83 70 -83c22 0 41 5 49 10h28v-38
c-17 -6 -48 -12 -78 -12z" />
    <glyph glyph-name="Tcaron" unicode="&#x164;" horiz-adv-x="638" 
d="M431 863v-20l-84 -107h-56l-83 107v20h29l82 -89l83 89h29zM201 0v36h53c17 0 34 18 34 34v591h-203l-8 -152h-44v191h572v-191h-43l-9 152h-203v-591c0 -16 16 -34 33 -34h54v-36h-236z" />
    <glyph glyph-name="tcaron" unicode="&#x165;" horiz-adv-x="317" 
d="M206 571l19 129h50v-25l-33 -104h-36zM218 -5c-83 0 -127 33 -127 118v368h-75v41h75v144h58v-144h136v-41h-136v-363c0 -62 18 -81 70 -81c22 0 41 5 49 10h28v-40c-17 -6 -48 -12 -78 -12z" />
    <glyph glyph-name="Umacron" unicode="&#x16a;" horiz-adv-x="715" 
d="M362 -5c-154 0 -263 65 -263 241v392c0 16 -16 35 -34 35h-42v37h238v-37h-100v-428c0 -153 89 -196 205 -196c114 0 202 40 202 196v428h-100v37h224v-37h-42c-17 0 -34 -19 -34 -35v-392c0 -175 -100 -241 -254 -241zM249 772v40h234v-40h-234z" />
    <glyph glyph-name="umacron" unicode="&#x16b;" horiz-adv-x="606" 
d="M230 -6c-73 0 -138 30 -138 129v331c0 15 -15 30 -29 30h-47v38h134v-382c0 -81 43 -101 97 -101c75 0 146 40 202 86v359h-83v38h140v-456c0 -15 15 -30 30 -30h49v-36h-119c-11 0 -16 6 -17 33v55c-61 -50 -131 -94 -219 -94zM154 609v40h234v-40h-234z" />
    <glyph glyph-name="Ubreve" unicode="&#x16c;" horiz-adv-x="715" 
d="M362 -5c-154 0 -263 65 -263 241v392c0 16 -16 35 -34 35h-42v37h238v-37h-100v-428c0 -153 89 -196 205 -196c114 0 202 40 202 196v428h-100v37h224v-37h-42c-17 0 -34 -19 -34 -35v-392c0 -175 -100 -241 -254 -241zM366 738c-66 0 -106 41 -119 89v23h39
c5 -44 35 -70 80 -70c46 0 75 26 80 70h39v-23c-13 -48 -53 -89 -119 -89z" />
    <glyph glyph-name="ubreve" unicode="&#x16d;" horiz-adv-x="606" 
d="M230 -6c-73 0 -138 30 -138 129v331c0 15 -15 30 -29 30h-47v38h134v-382c0 -81 43 -101 97 -101c75 0 146 40 202 86v359h-83v38h140v-456c0 -15 15 -30 30 -30h49v-36h-119c-11 0 -16 6 -17 33v55c-61 -50 -131 -94 -219 -94zM271 575c-66 0 -106 41 -119 89v23h39
c5 -44 35 -70 80 -70c46 0 75 26 80 70h39v-23c-13 -48 -53 -89 -119 -89z" />
    <glyph glyph-name="Uring" unicode="&#x16e;" horiz-adv-x="717" 
d="M368 718c-48 0 -92 34 -92 90c0 54 44 89 92 89s92 -35 92 -89c0 -56 -44 -90 -92 -90zM368 749c32 0 57 23 57 59s-25 58 -57 58c-33 0 -57 -22 -57 -58s24 -59 57 -59zM362 -5c-154 0 -263 65 -263 241v392c0 16 -16 35 -34 35h-42v37h238v-37h-100v-428
c0 -153 89 -196 205 -196c114 0 202 40 202 196v428h-100v37h224v-37h-42c-17 0 -34 -19 -34 -35v-392c0 -175 -100 -241 -254 -241z" />
    <glyph glyph-name="uring" unicode="&#x16f;" horiz-adv-x="606" 
d="M271 574c-48 0 -92 34 -92 90c0 54 44 89 92 89s92 -35 92 -89c0 -56 -44 -90 -92 -90zM271 605c32 0 57 23 57 59s-25 58 -57 58c-33 0 -57 -22 -57 -58s24 -59 57 -59zM230 -6c-73 0 -138 30 -138 129v331c0 15 -15 30 -29 30h-47v38h134v-382c0 -81 43 -101 97 -101
c75 0 146 40 202 86v359h-83v38h140v-456c0 -15 15 -30 30 -30h49v-36h-119c-11 0 -16 6 -17 33v55c-61 -50 -131 -94 -219 -94z" />
    <glyph glyph-name="Uhungarumlaut" unicode="&#x170;" horiz-adv-x="717" 
d="M362 -5c-154 0 -263 65 -263 241v392c0 16 -16 35 -34 35h-42v37h238v-37h-100v-428c0 -153 89 -196 205 -196c114 0 202 40 202 196v428h-100v37h224v-37h-42c-17 0 -34 -19 -34 -35v-392c0 -175 -100 -241 -254 -241zM285 736l46 127h51v-25l-60 -102h-37zM406 736
l46 127h51v-25l-60 -102h-37z" />
    <glyph glyph-name="uhungarumlaut" unicode="&#x171;" horiz-adv-x="606" 
d="M230 -6c-73 0 -138 30 -138 129v331c0 15 -15 30 -29 30h-47v38h134v-382c0 -81 43 -101 97 -101c75 0 146 40 202 86v359h-83v38h140v-456c0 -15 15 -30 30 -30h49v-36h-119c-11 0 -16 6 -17 33v55c-61 -50 -131 -94 -219 -94zM192 573l46 127h51v-25l-60 -102h-37z
M313 573l46 127h51v-25l-60 -102h-37z" />
    <glyph glyph-name="Uogonek" unicode="&#x172;" horiz-adv-x="715" 
d="M616 628v-392c0 -128 -51 -193 -144 -226c-27 -10 -53 -15 -75 -32c-21 -16 -39 -38 -39 -64c0 -27 15 -43 40 -43c14 0 21 3 27 7h21v-33c-16 -6 -31 -9 -53 -9c-53 0 -86 28 -86 69c0 42 31 71 63 90h-8c-154 0 -263 65 -263 241v392c0 16 -16 35 -34 35h-42v37h238
v-37h-100v-428c0 -153 89 -196 205 -196c114 0 202 40 202 196v428h-100v37h224v-37h-42c-17 0 -34 -19 -34 -35z" />
    <glyph glyph-name="uogonek" unicode="&#x173;" horiz-adv-x="606" 
d="M532 -164c-53 0 -86 28 -86 69c0 46 37 76 72 95h-52c-11 0 -16 6 -17 33v55c-61 -50 -131 -94 -219 -94c-73 0 -138 30 -138 129v331c0 15 -15 30 -29 30h-47v38h134v-382c0 -81 43 -101 97 -101c75 0 146 40 202 86v359h-83v38h140v-456c0 -15 15 -30 30 -30h49v-36
h-24c-38 -28 -64 -52 -64 -86c0 -27 15 -43 40 -43c14 0 21 3 27 7h21v-33c-16 -6 -31 -9 -53 -9z" />
    <glyph glyph-name="Zacute" unicode="&#x179;" horiz-adv-x="555" 
d="M256 736l71 127h58v-25l-90 -102h-39zM23 0v43l442 616v2h-363l-10 -127h-42v166h482v-45l-443 -615v-1h379l9 133h44v-172h-498z" />
    <glyph glyph-name="zacute" unicode="&#x17a;" horiz-adv-x="481" 
d="M212 573l71 127h58v-25l-90 -102h-39zM23 0v41l365 441h-292l-7 -105h-42v145h408v-42l-366 -440h304l7 106h42v-146h-419z" />
    <glyph glyph-name="Zdotaccent" unicode="&#x17b;" horiz-adv-x="555" 
d="M23 0v43l442 616v2h-363l-10 -127h-42v166h482v-45l-443 -615v-1h379l9 133h44v-172h-498zM282 759c-22 0 -39 17 -39 39s17 39 39 39s39 -17 39 -39s-17 -39 -39 -39z" />
    <glyph glyph-name="zdotaccent" unicode="&#x17c;" horiz-adv-x="481" 
d="M23 0v41l365 441h-292l-7 -105h-42v145h408v-42l-366 -440h304l7 106h42v-146h-419zM239 596c-22 0 -39 17 -39 39s17 39 39 39s39 -17 39 -39s-17 -39 -39 -39z" />
    <glyph glyph-name="Scaron.titling" horiz-adv-x="518" 
d="M370 847v-20l-84 -107h-56l-83 107v20h29l82 -89l83 89h29zM252 -5c-90 0 -143 30 -162 39c-7 0 -15 -11 -17 -34h-42v196h45l9 -98c32 -27 80 -61 165 -61c105 0 178 43 178 155c0 105 -90 119 -190 147c-108 30 -192 67 -192 186c0 110 72 180 212 180
c76 0 121 -24 139 -32c8 0 13 11 15 27h41v-176h-43l-9 87c-32 26 -72 52 -142 52c-110 0 -159 -51 -159 -135c0 -93 79 -115 172 -141c116 -32 212 -64 212 -193c0 -136 -95 -199 -232 -199z" />
    <glyph glyph-name="Yacute.titling" horiz-adv-x="646" 
d="M207 0v38h53c17 0 34 18 34 34v223l-199 328c-13 22 -34 40 -58 40h-16v37h212v-37h-92l191 -316h2l155 255c24 40 9 61 -29 61h-38v37h204v-37h-21c-21 0 -37 -16 -50 -38l-200 -328v-225c0 -16 17 -34 34 -34h53v-38h-235zM299 719l71 127h58v-25l-90 -102h-39z" />
    <glyph glyph-name="Zcaron.titling" horiz-adv-x="555" 
d="M399 846v-20l-84 -107h-56l-83 107v20h29l82 -89l83 89h29zM23 0v43l442 616v2h-363l-10 -127h-42v166h482v-45l-443 -615v-1h379l9 133h44v-172h-498z" />
    <glyph glyph-name="Adieresis.titling" horiz-adv-x="707" 
d="M567 36l-67 193h-304l-45 -127c-15 -41 -8 -66 31 -66h56v-36h-222v36h27c23 0 42 16 50 38l198 552c8 22 -3 37 -25 37h-55v37h188l216 -623c8 -22 29 -41 49 -41h29v-36h-233v36h107zM348 654l-137 -385h275l-133 385h-5zM265 743c-21 0 -38 17 -38 38s17 38 38 38
s38 -17 38 -38s-17 -38 -38 -38zM411 743c-21 0 -38 17 -38 38s17 38 38 38s38 -17 38 -38s-17 -38 -38 -38z" />
    <glyph glyph-name="Aring.titling" horiz-adv-x="707" 
d="M567 36l-67 193h-304l-45 -127c-15 -41 -8 -66 31 -66h56v-36h-222v36h27c23 0 42 16 50 38l198 552c8 22 -3 37 -25 37h-55v37h188l216 -623c8 -22 29 -41 49 -41h29v-36h-233v36h107zM348 654l-137 -385h275l-133 385h-5zM339 720c-48 0 -92 34 -92 90
c0 54 44 89 92 89s92 -35 92 -89c0 -56 -44 -90 -92 -90zM339 751c32 0 57 23 57 59s-25 58 -57 58c-33 0 -57 -22 -57 -58s24 -59 57 -59z" />
    <glyph glyph-name="Eacute.titling" horiz-adv-x="585" 
d="M281 719l71 127h58v-25l-90 -102h-39zM23 0v36h46c17 0 34 18 34 34v558c0 16 -17 35 -34 35h-46v37h517v-168h-42l-10 129h-323v-280h186l8 89h41v-218h-41l-8 90h-186v-303h335l9 141h44v-180h-530z" />
    <glyph glyph-name="Ntilde.titling" horiz-adv-x="715" 
d="M23 0v36h46c17 0 34 18 34 34v558c0 16 -17 35 -34 35h-46v37h156l382 -601h1v564h-100v37h230v-37h-46c-17 0 -34 -19 -34 -35v-628h-55l-399 626h-5v-590h103v-36h-233zM206 732v28c11 27 35 59 78 59c45 0 92 -39 127 -39c24 0 39 18 44 42h33v-28
c-12 -29 -35 -58 -78 -58c-45 0 -92 39 -127 39c-24 0 -39 -17 -44 -43h-33z" />
    <glyph glyph-name="Odieresis.titling" horiz-adv-x="728" 
d="M291 744c-21 0 -38 17 -38 38s17 38 38 38s38 -17 38 -38s-17 -38 -38 -38zM437 744c-21 0 -38 17 -38 38s17 38 38 38s38 -17 38 -38s-17 -38 -38 -38zM365 -5c-177 0 -327 125 -327 355s150 355 327 355c176 0 325 -125 325 -355s-149 -355 -325 -355zM365 37
c147 0 261 106 261 312s-114 314 -261 314c-148 0 -263 -108 -263 -314s115 -312 263 -312z" />
    <glyph glyph-name="Udieresis.titling" horiz-adv-x="717" 
d="M291 743c-21 0 -38 17 -38 38s17 38 38 38s38 -17 38 -38s-17 -38 -38 -38zM437 743c-21 0 -38 17 -38 38s17 38 38 38s38 -17 38 -38s-17 -38 -38 -38zM362 -5c-154 0 -263 65 -263 241v392c0 16 -16 35 -34 35h-42v37h238v-37h-100v-428c0 -153 89 -196 205 -196
c114 0 202 40 202 196v428h-100v37h224v-37h-42c-17 0 -34 -19 -34 -35v-392c0 -175 -100 -241 -254 -241z" />
    <glyph glyph-name="Agrave.titling" horiz-adv-x="707" 
d="M567 36l-67 193h-304l-45 -127c-15 -41 -8 -66 31 -66h56v-36h-222v36h27c23 0 42 16 50 38l198 552c8 22 -3 37 -25 37h-55v37h188l216 -623c8 -22 29 -41 49 -41h29v-36h-233v36h107zM348 654l-137 -385h275l-133 385h-5zM326 719l-90 102v25h58l71 -127h-39z" />
    <glyph glyph-name="Atilde.titling" horiz-adv-x="707" 
d="M567 36l-67 193h-304l-45 -127c-15 -41 -8 -66 31 -66h56v-36h-222v36h27c23 0 42 16 50 38l198 552c8 22 -3 37 -25 37h-55v37h188l216 -623c8 -22 29 -41 49 -41h29v-36h-233v36h107zM348 654l-137 -385h275l-133 385h-5zM191 732v28c11 27 35 59 78 59
c45 0 92 -39 127 -39c24 0 39 18 44 42h33v-28c-12 -29 -35 -58 -78 -58c-45 0 -92 39 -127 39c-24 0 -39 -17 -44 -43h-33z" />
    <glyph glyph-name="Otilde.titling" horiz-adv-x="728" 
d="M365 -5c-177 0 -327 125 -327 355s150 355 327 355c176 0 325 -125 325 -355s-149 -355 -325 -355zM365 37c147 0 261 106 261 312s-114 314 -261 314c-148 0 -263 -108 -263 -314s115 -312 263 -312zM221 733v28c11 27 35 59 78 59c45 0 92 -39 127 -39
c24 0 39 18 44 42h33v-28c-12 -29 -35 -58 -78 -58c-45 0 -92 39 -127 39c-24 0 -39 -17 -44 -43h-33z" />
    <glyph glyph-name="Acircumflex.titling" horiz-adv-x="707" 
d="M567 36l-67 193h-304l-45 -127c-15 -41 -8 -66 31 -66h56v-36h-222v36h27c23 0 42 16 50 38l198 552c8 22 -3 37 -25 37h-55v37h188l216 -623c8 -22 29 -41 49 -41h29v-36h-233v36h107zM348 654l-137 -385h275l-133 385h-5zM223 719v20l84 107h56l83 -107v-20h-29l-82 89
l-83 -89h-29z" />
    <glyph glyph-name="Ecircumflex.titling" horiz-adv-x="585" 
d="M191 719v20l84 107h56l83 -107v-20h-29l-82 89l-83 -89h-29zM23 0v36h46c17 0 34 18 34 34v558c0 16 -17 35 -34 35h-46v37h517v-168h-42l-10 129h-323v-280h186l8 89h41v-218h-41l-8 90h-186v-303h335l9 141h44v-180h-530z" />
    <glyph glyph-name="Aacute.titling" horiz-adv-x="707" 
d="M567 36l-67 193h-304l-45 -127c-15 -41 -8 -66 31 -66h56v-36h-222v36h27c23 0 42 16 50 38l198 552c8 22 -3 37 -25 37h-55v37h188l216 -623c8 -22 29 -41 49 -41h29v-36h-233v36h107zM348 654l-137 -385h275l-133 385h-5zM314 719l71 127h58v-25l-90 -102h-39z" />
    <glyph glyph-name="Edieresis.titling" horiz-adv-x="585" 
d="M230 743c-21 0 -38 17 -38 38s17 38 38 38s38 -17 38 -38s-17 -38 -38 -38zM376 743c-21 0 -38 17 -38 38s17 38 38 38s38 -17 38 -38s-17 -38 -38 -38zM23 0v36h46c17 0 34 18 34 34v558c0 16 -17 35 -34 35h-46v37h517v-168h-42l-10 129h-323v-280h186l8 89h41v-218
h-41l-8 90h-186v-303h335l9 141h44v-180h-530z" />
    <glyph glyph-name="Egrave.titling" horiz-adv-x="585" 
d="M23 0v36h46c17 0 34 18 34 34v558c0 16 -17 35 -34 35h-46v37h517v-168h-42l-10 129h-323v-280h186l8 89h41v-218h-41l-8 90h-186v-303h335l9 141h44v-180h-530zM291 719l-90 102v25h58l71 -127h-39z" />
    <glyph glyph-name="Iacute.titling" horiz-adv-x="286" 
d="M23 0v36h56c17 0 33 18 33 34v558c0 16 -16 35 -33 35h-56v37h241v-37h-56c-17 0 -34 -19 -34 -35v-558c0 -16 17 -34 34 -34h56v-36h-241zM116 719l71 127h58v-25l-90 -102h-39z" />
    <glyph glyph-name="Icircumflex.titling" horiz-adv-x="286" 
d="M23 0v36h56c17 0 33 18 33 34v558c0 16 -16 35 -33 35h-56v37h241v-37h-56c-17 0 -34 -19 -34 -35v-558c0 -16 17 -34 34 -34h56v-36h-241zM32 719v20l84 107h56l83 -107v-20h-29l-82 89l-83 -89h-29z" />
    <glyph glyph-name="Idieresis.titling" horiz-adv-x="286" 
d="M23 0v36h56c17 0 33 18 33 34v558c0 16 -16 35 -33 35h-56v37h241v-37h-56c-17 0 -34 -19 -34 -35v-558c0 -16 17 -34 34 -34h56v-36h-241zM70 743c-21 0 -38 17 -38 38s17 38 38 38s38 -17 38 -38s-17 -38 -38 -38zM216 743c-21 0 -38 17 -38 38s17 38 38 38
s38 -17 38 -38s-17 -38 -38 -38z" />
    <glyph glyph-name="Igrave.titling" horiz-adv-x="286" 
d="M23 0v36h56c17 0 33 18 33 34v558c0 16 -16 35 -33 35h-56v37h241v-37h-56c-17 0 -34 -19 -34 -35v-558c0 -16 17 -34 34 -34h56v-36h-241zM132 719l-90 102v25h58l71 -127h-39z" />
    <glyph glyph-name="Oacute.titling" horiz-adv-x="728" 
d="M337 720l71 127h58v-25l-90 -102h-39zM365 -5c-177 0 -327 125 -327 355s150 355 327 355c176 0 325 -125 325 -355s-149 -355 -325 -355zM365 37c147 0 261 106 261 312s-114 314 -261 314c-148 0 -263 -108 -263 -314s115 -312 263 -312z" />
    <glyph glyph-name="Ocircumflex.titling" horiz-adv-x="728" 
d="M252 720v20l84 107h56l83 -107v-20h-29l-82 89l-83 -89h-29zM365 -5c-177 0 -327 125 -327 355s150 355 327 355c176 0 325 -125 325 -355s-149 -355 -325 -355zM365 37c147 0 261 106 261 312s-114 314 -261 314c-148 0 -263 -108 -263 -314s115 -312 263 -312z" />
    <glyph glyph-name="Ograve.titling" horiz-adv-x="728" 
d="M365 -5c-177 0 -327 125 -327 355s150 355 327 355c176 0 325 -125 325 -355s-149 -355 -325 -355zM365 37c147 0 261 106 261 312s-114 314 -261 314c-148 0 -263 -108 -263 -314s115 -312 263 -312zM352 720l-90 102v25h58l71 -127h-39z" />
    <glyph glyph-name="Uacute.titling" horiz-adv-x="717" 
d="M339 719l71 127h58v-25l-90 -102h-39zM362 -5c-154 0 -263 65 -263 241v392c0 16 -16 35 -34 35h-42v37h238v-37h-100v-428c0 -153 89 -196 205 -196c114 0 202 40 202 196v428h-100v37h224v-37h-42c-17 0 -34 -19 -34 -35v-392c0 -175 -100 -241 -254 -241z" />
    <glyph glyph-name="Ucircumflex.titling" horiz-adv-x="717" 
d="M254 719v20l84 107h56l83 -107v-20h-29l-82 89l-83 -89h-29zM362 -5c-154 0 -263 65 -263 241v392c0 16 -16 35 -34 35h-42v37h238v-37h-100v-428c0 -153 89 -196 205 -196c114 0 202 40 202 196v428h-100v37h224v-37h-42c-17 0 -34 -19 -34 -35v-392
c0 -175 -100 -241 -254 -241z" />
    <glyph glyph-name="Ugrave.titling" horiz-adv-x="717" 
d="M362 -5c-154 0 -263 65 -263 241v392c0 16 -16 35 -34 35h-42v37h238v-37h-100v-428c0 -153 89 -196 205 -196c114 0 202 40 202 196v428h-100v37h224v-37h-42c-17 0 -34 -19 -34 -35v-392c0 -175 -100 -241 -254 -241zM356 719l-90 102v25h58l71 -127h-39z" />
    <glyph glyph-name="Ydieresis.titling" horiz-adv-x="646" 
d="M207 0v38h53c17 0 34 18 34 34v223l-199 328c-13 22 -34 40 -58 40h-16v37h212v-37h-92l191 -316h2l155 255c24 40 9 61 -29 61h-38v37h204v-37h-21c-21 0 -37 -16 -50 -38l-200 -328v-225c0 -16 17 -34 34 -34h53v-38h-235zM253 743c-21 0 -38 17 -38 38s17 38 38 38
s38 -17 38 -38s-17 -38 -38 -38zM399 743c-21 0 -38 17 -38 38s17 38 38 38s38 -17 38 -38s-17 -38 -38 -38z" />
    <glyph glyph-name="Amacron.titling" horiz-adv-x="707" 
d="M567 36l-67 193h-304l-45 -127c-15 -41 -8 -66 31 -66h56v-36h-222v36h27c23 0 42 16 50 38l198 552c8 22 -3 37 -25 37h-55v37h188l216 -623c8 -22 29 -41 49 -41h29v-36h-233v36h107zM348 654l-137 -385h275l-133 385h-5zM218 755v40h234v-40h-234z" />
    <glyph glyph-name="Abreve.titling" horiz-adv-x="707" 
d="M567 36l-67 193h-304l-45 -127c-15 -41 -8 -66 31 -66h56v-36h-222v36h27c23 0 42 16 50 38l198 552c8 22 -3 37 -25 37h-55v37h188l216 -623c8 -22 29 -41 49 -41h29v-36h-233v36h107zM348 654l-137 -385h275l-133 385h-5zM339 721c-66 0 -106 41 -119 89v23h39
c5 -44 35 -70 80 -70c46 0 75 26 80 70h39v-23c-13 -48 -53 -89 -119 -89z" />
    <glyph glyph-name="Cacute.titling" horiz-adv-x="636" 
d="M330 720l71 127h58v-25l-90 -102h-39zM358 -5c-190 0 -320 121 -320 357s147 353 329 353c91 0 137 -22 162 -33c7 0 16 13 17 28h41v-197h-43l-11 103c-31 27 -86 57 -165 57c-147 0 -266 -94 -266 -309c0 -213 100 -317 258 -317c108 0 174 39 210 93h34v-45
c-54 -53 -124 -90 -246 -90z" />
    <glyph glyph-name="Ccircumflex.titling" horiz-adv-x="636" 
d="M246 720v20l84 107h56l83 -107v-20h-29l-82 89l-83 -89h-29zM358 -5c-190 0 -320 121 -320 357s147 353 329 353c91 0 137 -22 162 -33c7 0 16 13 17 28h41v-197h-43l-11 103c-31 27 -86 57 -165 57c-147 0 -266 -94 -266 -309c0 -213 100 -317 258 -317
c108 0 174 39 210 93h34v-45c-54 -53 -124 -90 -246 -90z" />
    <glyph glyph-name="Cdotaccent.titling" horiz-adv-x="636" 
d="M358 -5c-190 0 -320 121 -320 357s147 353 329 353c91 0 137 -22 162 -33c7 0 16 13 17 28h41v-197h-43l-11 103c-31 27 -86 57 -165 57c-147 0 -266 -94 -266 -309c0 -213 100 -317 258 -317c108 0 174 39 210 93h34v-45c-54 -53 -124 -90 -246 -90zM355 743
c-22 0 -39 17 -39 39s17 39 39 39s39 -17 39 -39s-17 -39 -39 -39z" />
    <glyph glyph-name="Ccaron.titling" horiz-adv-x="636" 
d="M470 847v-20l-84 -107h-56l-83 107v20h29l82 -89l83 89h29zM358 -5c-190 0 -320 121 -320 357s147 353 329 353c91 0 137 -22 162 -33c7 0 16 13 17 28h41v-197h-43l-11 103c-31 27 -86 57 -165 57c-147 0 -266 -94 -266 -309c0 -213 100 -317 258 -317
c108 0 174 39 210 93h34v-45c-54 -53 -124 -90 -246 -90z" />
    <glyph glyph-name="Dcaron.titling" horiz-adv-x="691" 
d="M420 846v-20l-84 -107h-56l-83 107v20h29l82 -89l83 89h29zM23 0v36h46c17 0 34 18 34 34v558c0 16 -17 35 -34 35h-46v37h275c231 0 355 -101 355 -349c0 -247 -124 -351 -357 -351h-273zM165 39h131c199 0 294 86 294 311c0 226 -95 311 -294 311h-131v-622z" />
    <glyph glyph-name="Emacron.titling" horiz-adv-x="585" 
d="M23 0v36h46c17 0 34 18 34 34v558c0 16 -17 35 -34 35h-46v37h517v-168h-42l-10 129h-323v-280h186l8 89h41v-218h-41l-8 90h-186v-303h335l9 141h44v-180h-530zM186 755v40h234v-40h-234z" />
    <glyph glyph-name="Edotaccent.titling" horiz-adv-x="585" 
d="M23 0v36h46c17 0 34 18 34 34v558c0 16 -17 35 -34 35h-46v37h517v-168h-42l-10 129h-323v-280h186l8 89h41v-218h-41l-8 90h-186v-303h335l9 141h44v-180h-530zM303 742c-22 0 -39 17 -39 39s17 39 39 39s39 -17 39 -39s-17 -39 -39 -39z" />
    <glyph glyph-name="Ecaron.titling" horiz-adv-x="585" 
d="M416 846v-20l-84 -107h-56l-83 107v20h29l82 -89l83 89h29zM23 0v36h46c17 0 34 18 34 34v558c0 16 -17 35 -34 35h-46v37h517v-168h-42l-10 129h-323v-280h186l8 89h41v-218h-41l-8 90h-186v-303h335l9 141h44v-180h-530z" />
    <glyph glyph-name="Ebreve.titling" horiz-adv-x="585" 
d="M23 0v36h46c17 0 34 18 34 34v558c0 16 -17 35 -34 35h-46v37h517v-168h-42l-10 129h-323v-280h186l8 89h41v-218h-41l-8 90h-186v-303h335l9 141h44v-180h-530zM308 722c-66 0 -106 41 -119 89v23h39c5 -44 35 -70 80 -70c46 0 75 26 80 70h39v-23
c-13 -48 -53 -89 -119 -89z" />
    <glyph glyph-name="Gcircumflex.titling" horiz-adv-x="689" 
d="M251 720v20l84 107h56l83 -107v-20h-29l-82 89l-83 -89h-29zM355 -5c-196 0 -317 121 -317 357s145 353 330 353c91 0 143 -23 163 -32c9 0 19 8 21 27h40v-191h-44l-10 97c-31 27 -85 57 -169 57c-149 0 -267 -94 -267 -309c0 -213 91 -317 255 -317c87 0 140 28 179 56
v185h-102v37h233v-37h-36c-17 0 -34 -18 -34 -34v-244h-38c-1 21 -9 36 -22 36c-25 -11 -87 -41 -182 -41z" />
    <glyph glyph-name="Gbreve.titling" horiz-adv-x="689" 
d="M355 -5c-196 0 -317 121 -317 357s145 353 330 353c91 0 143 -23 163 -32c9 0 19 8 21 27h40v-191h-44l-10 97c-31 27 -85 57 -169 57c-149 0 -267 -94 -267 -309c0 -213 91 -317 255 -317c87 0 140 28 179 56v185h-102v37h233v-37h-36c-17 0 -34 -18 -34 -34v-244h-38
c-1 21 -9 36 -22 36c-25 -11 -87 -41 -182 -41zM363 722c-66 0 -106 41 -119 89v23h39c5 -44 35 -70 80 -70c46 0 75 26 80 70h39v-23c-13 -48 -53 -89 -119 -89z" />
    <glyph glyph-name="Gdotaccent.titling" horiz-adv-x="689" 
d="M355 -5c-196 0 -317 121 -317 357s145 353 330 353c91 0 143 -23 163 -32c9 0 19 8 21 27h40v-191h-44l-10 97c-31 27 -85 57 -169 57c-149 0 -267 -94 -267 -309c0 -213 91 -317 255 -317c87 0 140 28 179 56v185h-102v37h233v-37h-36c-17 0 -34 -18 -34 -34v-244h-38
c-1 21 -9 36 -22 36c-25 -11 -87 -41 -182 -41zM362 743c-22 0 -39 17 -39 39s17 39 39 39s39 -17 39 -39s-17 -39 -39 -39z" />
    <glyph glyph-name="Hcircumflex.titling" horiz-adv-x="724" 
d="M250 719v20l84 107h56l83 -107v-20h-29l-82 89l-83 -89h-29zM23 0v36h46c17 0 34 18 34 34v558c0 16 -17 35 -34 35h-46v37h245v-37h-103v-282h393v282h-102v37h245v-37h-47c-17 0 -34 -19 -34 -35v-558c0 -16 17 -34 34 -34h47v-36h-245v36h102v305h-393v-305h103v-36
h-245z" />
    <glyph glyph-name="Imacron.titling" horiz-adv-x="286" 
d="M23 0v36h56c17 0 33 18 33 34v558c0 16 -16 35 -33 35h-56v37h241v-37h-56c-17 0 -34 -19 -34 -35v-558c0 -16 17 -34 34 -34h56v-36h-241zM25 755v40h234v-40h-234z" />
    <glyph glyph-name="Idotaccent.titling" horiz-adv-x="286" 
d="M23 0v36h56c17 0 33 18 33 34v558c0 16 -16 35 -33 35h-56v37h241v-37h-56c-17 0 -34 -19 -34 -35v-558c0 -16 17 -34 34 -34h56v-36h-241zM142 742c-22 0 -39 17 -39 39s17 39 39 39s39 -17 39 -39s-17 -39 -39 -39z" />
    <glyph glyph-name="Jcircumflex.titling" horiz-adv-x="454" 
d="M205 719v20l84 107h56l83 -107v-20h-29l-82 89l-83 -89h-29zM162 -5c-69 0 -113 18 -146 36v50h38c16 -22 50 -44 107 -44c89 0 125 41 125 121v470c0 16 -16 35 -33 35h-52v37h230v-37h-49c-17 0 -34 -19 -34 -35v-471c0 -106 -57 -162 -186 -162z" />
    <glyph glyph-name="Lacute.titling" horiz-adv-x="568" 
d="M116 719l71 127h58v-25l-90 -102h-39zM23 0v36h46c17 0 34 18 34 34v558c0 16 -17 35 -34 35h-46v37h253v-37h-111v-624h322l9 155h45v-194h-518z" />
    <glyph glyph-name="Nacute.titling" horiz-adv-x="715" 
d="M321 719l71 127h58v-25l-90 -102h-39zM23 0v36h46c17 0 34 18 34 34v558c0 16 -17 35 -34 35h-46v37h156l382 -601h1v564h-100v37h230v-37h-46c-17 0 -34 -19 -34 -35v-628h-55l-399 626h-5v-590h103v-36h-233z" />
    <glyph glyph-name="Ncaron.titling" horiz-adv-x="715" 
d="M464 846v-20l-84 -107h-56l-83 107v20h29l82 -89l83 89h29zM23 0v36h46c17 0 34 18 34 34v558c0 16 -17 35 -34 35h-46v37h156l382 -601h1v564h-100v37h230v-37h-46c-17 0 -34 -19 -34 -35v-628h-55l-399 626h-5v-590h103v-36h-233z" />
    <glyph glyph-name="Omacron.titling" horiz-adv-x="728" 
d="M248 756v40h234v-40h-234zM365 -5c-177 0 -327 125 -327 355s150 355 327 355c176 0 325 -125 325 -355s-149 -355 -325 -355zM365 37c147 0 261 106 261 312s-114 314 -261 314c-148 0 -263 -108 -263 -314s115 -312 263 -312z" />
    <glyph glyph-name="Ohungarumlaut.titling" horiz-adv-x="728" 
d="M277 720l46 127h51v-25l-60 -102h-37zM398 720l46 127h51v-25l-60 -102h-37zM365 -5c-177 0 -327 125 -327 355s150 355 327 355c176 0 325 -125 325 -355s-149 -355 -325 -355zM365 37c147 0 261 106 261 312s-114 314 -261 314c-148 0 -263 -108 -263 -314
s115 -312 263 -312z" />
    <glyph glyph-name="Racute.titling" horiz-adv-x="642" 
d="M252 719l71 127h58v-25l-90 -102h-39zM23 0v36h46c17 0 34 18 34 34v558c0 16 -17 35 -34 35h-46v37h265c140 0 247 -45 247 -188c0 -108 -69 -153 -154 -169v-2c60 -15 111 -42 141 -152l33 -123c5 -18 22 -30 34 -30h34v-36h-118l-44 188c-25 105 -78 135 -177 135
h-119v-287h92v-36h-234zM165 362h122c118 0 185 36 185 147c0 118 -77 153 -185 153h-122v-300z" />
    <glyph glyph-name="Rcaron.titling" horiz-adv-x="642" 
d="M391 846v-20l-84 -107h-56l-83 107v20h29l82 -89l83 89h29zM23 0v36h46c17 0 34 18 34 34v558c0 16 -17 35 -34 35h-46v37h265c140 0 247 -45 247 -188c0 -108 -69 -153 -154 -169v-2c60 -15 111 -42 141 -152l33 -123c5 -18 22 -30 34 -30h34v-36h-118l-44 188
c-25 105 -78 135 -177 135h-119v-287h92v-36h-234zM165 362h122c118 0 185 36 185 147c0 118 -77 153 -185 153h-122v-300z" />
    <glyph glyph-name="Sacute.titling" horiz-adv-x="518" 
d="M227 720l71 127h58v-25l-90 -102h-39zM252 -5c-90 0 -143 30 -162 39c-7 0 -15 -11 -17 -34h-42v196h45l9 -98c32 -27 80 -61 165 -61c105 0 178 43 178 155c0 105 -90 119 -190 147c-108 30 -192 67 -192 186c0 110 72 180 212 180c76 0 121 -24 139 -32
c8 0 13 11 15 27h41v-176h-43l-9 87c-32 26 -72 52 -142 52c-110 0 -159 -51 -159 -135c0 -93 79 -115 172 -141c116 -32 212 -64 212 -193c0 -136 -95 -199 -232 -199z" />
    <glyph glyph-name="Scircumflex.titling" horiz-adv-x="518" 
d="M142 720v20l84 107h56l83 -107v-20h-29l-82 89l-83 -89h-29zM252 -5c-90 0 -143 30 -162 39c-7 0 -15 -11 -17 -34h-42v196h45l9 -98c32 -27 80 -61 165 -61c105 0 178 43 178 155c0 105 -90 119 -190 147c-108 30 -192 67 -192 186c0 110 72 180 212 180
c76 0 121 -24 139 -32c8 0 13 11 15 27h41v-176h-43l-9 87c-32 26 -72 52 -142 52c-110 0 -159 -51 -159 -135c0 -93 79 -115 172 -141c116 -32 212 -64 212 -193c0 -136 -95 -199 -232 -199z" />
    <glyph glyph-name="Tcaron.titling" horiz-adv-x="638" 
d="M423 846v-20l-84 -107h-56l-83 107v20h29l82 -89l83 89h29zM201 0v36h53c17 0 34 18 34 34v591h-203l-8 -152h-44v191h572v-191h-43l-9 152h-203v-591c0 -16 16 -34 33 -34h54v-36h-236z" />
    <glyph glyph-name="Umacron.titling" horiz-adv-x="717" 
d="M362 -5c-154 0 -263 65 -263 241v392c0 16 -16 35 -34 35h-42v37h238v-37h-100v-428c0 -153 89 -196 205 -196c114 0 202 40 202 196v428h-100v37h224v-37h-42c-17 0 -34 -19 -34 -35v-392c0 -175 -100 -241 -254 -241zM242 755v40h234v-40h-234z" />
    <glyph glyph-name="Ubreve.titling" horiz-adv-x="717" 
d="M362 -5c-154 0 -263 65 -263 241v392c0 16 -16 35 -34 35h-42v37h238v-37h-100v-428c0 -153 89 -196 205 -196c114 0 202 40 202 196v428h-100v37h224v-37h-42c-17 0 -34 -19 -34 -35v-392c0 -175 -100 -241 -254 -241zM359 721c-66 0 -106 41 -119 89v23h39
c5 -44 35 -70 80 -70c46 0 75 26 80 70h39v-23c-13 -48 -53 -89 -119 -89z" />
    <glyph glyph-name="Uring.titling" horiz-adv-x="717" 
d="M358 685c-48 0 -92 34 -92 90c0 54 44 89 92 89s92 -35 92 -89c0 -56 -44 -90 -92 -90zM358 716c32 0 57 23 57 59s-25 58 -57 58c-33 0 -57 -22 -57 -58s24 -59 57 -59zM362 -5c-154 0 -263 65 -263 241v392c0 16 -16 35 -34 35h-42v37h238v-37h-100v-428
c0 -153 89 -196 205 -196c114 0 202 40 202 196v428h-100v37h224v-37h-42c-17 0 -34 -19 -34 -35v-392c0 -175 -100 -241 -254 -241z" />
    <glyph glyph-name="Uhungarumlaut.titling" horiz-adv-x="717" 
d="M362 -5c-154 0 -263 65 -263 241v392c0 16 -16 35 -34 35h-42v37h238v-37h-100v-428c0 -153 89 -196 205 -196c114 0 202 40 202 196v428h-100v37h224v-37h-42c-17 0 -34 -19 -34 -35v-392c0 -175 -100 -241 -254 -241zM280 719l46 127h51v-25l-60 -102h-37zM401 719
l46 127h51v-25l-60 -102h-37z" />
    <glyph glyph-name="Zacute.titling" horiz-adv-x="555" 
d="M248 719l71 127h58v-25l-90 -102h-39zM23 0v43l442 616v2h-363l-10 -127h-42v166h482v-45l-443 -615v-1h379l9 133h44v-172h-498z" />
    <glyph glyph-name="Zdotaccent.titling" horiz-adv-x="555" 
d="M23 0v43l442 616v2h-363l-10 -127h-42v166h482v-45l-443 -615v-1h379l9 133h44v-172h-498zM275 742c-22 0 -39 17 -39 39s17 39 39 39s39 -17 39 -39s-17 -39 -39 -39z" />
    <glyph glyph-name="uni2009" unicode="&#x2009;" horiz-adv-x="97" 
 />
    </font>
</defs>
</svg>
