<?xml version="1.0" encoding="utf-8"?>
<!DOCTYPE svg PUBLIC "-//W3C//DTD SVG 1.1//EN" "http://www.w3.org/Graphics/SVG/1.1/DTD/svg11.dtd">
<svg aria-labelledby="title" version="1.1" xmlns="http://www.w3.org/2000/svg" xmlns:xlink="http://www.w3.org/1999/xlink" width="32" height="32" viewBox="0 0 32 32">
<title id="title" lang="en">Youtube</title>

<path fill="#0d0d0d" class="icons-background" d="M14 21l7-5-7-5z"></path>
<path fill="#0d0d0d" class="icons-background" d="M29 0h-26c-1.7 0-3 1.3-3 3v26c0 1.7 1.3 3 3 3h26c1.7 0 3-1.3 3-3v-26c0-1.7-1.3-3-3-3zM28 19c0 2.8-2.2 5-5 5h-14c-2.8 0-5-2.2-5-5v-6c0-2.8 2.2-5 5-5h14c2.8 0 5 2.2 5 5v6z"></path>
</svg>