<?xml version="1.0" encoding="utf-8"?>
<!DOCTYPE svg PUBLIC "-//W3C//DTD SVG 1.1//EN" "http://www.w3.org/Graphics/SVG/1.1/DTD/svg11.dtd">
<svg version="1.1" xmlns="http://www.w3.org/2000/svg" xmlns:xlink="http://www.w3.org/1999/xlink" width="32" height="32" viewBox="0 0 32 32">
<path fill="#0d0d0d" class="icons-background" d="M2 24v5c0 0.6 0.4 1 1 1h4c0.6 0 1-0.4 1-1v-3h16v3c0 0.6 0.5 1 1.1 1h3.9c0.6 0 1-0.5 1-1v-5h-28z"></path>
<path fill="#0d0d0d" class="icons-background" d="M29 12.8l-2.8-10.1c-0.1-0.4-0.8-0.7-1.2-0.7h-18c-0.4 0-0.9 0.3-1 0.7l-2.8 10h-0.1c-0.6 0-1.1 0.5-1.1 1.1v8.2h28v-8.1c0-0.6-0.4-1.1-1-1.1zM7.7 4h16.9l2.2 8h-21.4l2.3-8zM6 19c-1.1 0-2-0.9-2-2s0.9-2 2-2c1.1 0 2 0.9 2 2s-0.9 2-2 2zM26 19c-1.1 0-2-0.9-2-2s0.9-2 2-2 2 0.9 2 2c0 1.1-0.9 2-2 2z"></path>
</svg>
