<?xml version="1.0" encoding="utf-8"?>
<!DOCTYPE svg PUBLIC "-//W3C//DTD SVG 1.1//EN" "http://www.w3.org/Graphics/SVG/1.1/DTD/svg11.dtd">
<svg version="1.1" xmlns="http://www.w3.org/2000/svg" xmlns:xlink="http://www.w3.org/1999/xlink" width="32" height="32" viewBox="0 0 32 32">
<path fill="#716f7d" class="icons-background" d="M22.3 23.5l-4.5-6 0.2-1.9 4.9 2.9 1.2-2.2-4.9-3.4v-4.5l-6.1-2.2-4.9 4.5v7.9h2.5v-6.7l1.8-1.1-0.1 7.4 0.2 0.2-5.6 12.5 2.5 1.1 6.1-11.3 3.8 4.3 2.4 7 2.5-1.1-2-7.4z"></path>
<path fill="#716f7d" class="icons-background" d="M20.6 3.1c0 1.712-1.388 3.1-3.1 3.1s-3.1-1.388-3.1-3.1c0-1.712 1.388-3.1 3.1-3.1s3.1 1.388 3.1 3.1z"></path>
</svg>
