<?xml version="1.0" encoding="utf-8"?>
<!DOCTYPE svg PUBLIC "-//W3C//DTD SVG 1.1//EN" "http://www.w3.org/Graphics/SVG/1.1/DTD/svg11.dtd">
<svg version="1.1" xmlns="http://www.w3.org/2000/svg" xmlns:xlink="http://www.w3.org/1999/xlink" width="32" height="32" viewBox="0 0 32 32">
<path fill="#004833" class="icons-background" d="M24 20h-16c-1.1 0-2-0.9-2-2v-16c0-1.1 0.9-2 2-2h16c1.1 0 2 0.9 2 2v16c0 1.1-0.9 2-2 2zM24 2h-16v4h16v-4zM12 8h-4v4h4v-4zM18 8h-4v4h4v-4zM24 8h-4v4h4v-4zM12 14h-4v4h4v-4zM18 14h-4v4h4v-4zM24 14h-4v4h4v-4zM22 22v8h-2v-8h-12v9c0 0.5 0.5 1 1 1h14c0.5 0 1-0.5 1-1v-9h-2z"></path>
</svg>
