<?xml version="1.0" encoding="utf-8"?>
<!DOCTYPE svg PUBLIC "-//W3C//DTD SVG 1.1//EN" "http://www.w3.org/Graphics/SVG/1.1/DTD/svg11.dtd">
<svg version="1.1" xmlns="http://www.w3.org/2000/svg" xmlns:xlink="http://www.w3.org/1999/xlink" width="32" height="32" viewBox="0 0 32 32">
<path fill="#0d0d0d" class="icons-background" d="M14 18h18c-1 7.9-7.8 14-16 14-8.8 0-16-7.2-16-16 0-8.2 6.1-15 14-16v18zM18 2v12h12c-0.2-1.2-0.6-2.3-1.1-3.4-0.7-1.7-1.7-3.2-3-4.5s-2.8-2.3-4.5-3c-1.1-0.5-2.2-0.9-3.4-1.1zM16 0v0c8.8 0 16 7.2 16 16h-16v-16z"></path>
</svg>
