<?xml version="1.0" encoding="utf-8"?>
<!DOCTYPE svg PUBLIC "-//W3C//DTD SVG 1.1//EN" "http://www.w3.org/Graphics/SVG/1.1/DTD/svg11.dtd">
<svg version="1.1" xmlns="http://www.w3.org/2000/svg" xmlns:xlink="http://www.w3.org/1999/xlink" width="32" height="32" viewBox="0 0 32 32">
<path fill="#858370" class="icons-background" d="M21 2l-2 2h-16c-1 0-1 0-1 1v22c0 1 0 1 1 1h22c1 0 1 0 1-1v-12l2-2v14c0 2-1 3-3 3h-22c-2 0-3-1-3-3v-22c0-2 0.9-3 3-3h18z"></path>
<path fill="#858370" class="icons-background" d="M14 21l14-13-4-4-14 13z"></path>
<path fill="#858370" class="icons-background" d="M9 18l-2 6 6-2z"></path>
<path fill="#858370" class="icons-background" d="M30 4.8c0-1.5-1.3-2.8-2.8-2.8-0.9 0-1.6 0.4-2.2 1l4 4c0.6-0.5 1-1.3 1-2.2z"></path>
</svg>
