<?xml version="1.0" encoding="utf-8"?>
<!DOCTYPE svg PUBLIC "-//W3C//DTD SVG 1.1//EN" "http://www.w3.org/Graphics/SVG/1.1/DTD/svg11.dtd">
<svg version="1.1" xmlns="http://www.w3.org/2000/svg" xmlns:xlink="http://www.w3.org/1999/xlink" width="32" height="32" viewBox="0 0 32 32">
<path fill="#333" class="icons-background" d="M13.4 10.6c-0.3 0.1-0.5 0.2-0.8 0.4-0.2 0.2-0.4 0.4-0.6 0.6-0.1 0.3-0.2 0.6-0.2 0.9 0 0.6 0.2 1 0.5 1.3 0.4 0.3 1 0.5 1.8 0.8v-4.2c-0.1 0.1-0.4 0.1-0.7 0.2zM16.3 21.6c0.2-0.1 0.4-0.2 0.6-0.3 0.2-0.2 0.3-0.3 0.5-0.6 0.1-0.2 0.2-0.5 0.2-0.8 0-0.5-0.2-0.9-0.5-1.1-0.3-0.3-0.8-0.5-1.5-0.6v3.6c0.2-0.1 0.4-0.1 0.7-0.2zM17.2 11.3c-0.5-0.5-1-0.8-1.7-0.9v4.6c0.1 0 0.2 0.1 0.3 0.1s0.3 0.1 0.4 0.1c0.5 0.1 1.1 0.3 1.6 0.5s1 0.5 1.4 0.8c0.4 0.3 0.8 0.7 1 1.2s0.4 1.1 0.4 1.8c0 0.7-0.1 1.4-0.4 2s-0.7 1.1-1.1 1.4c-0.5 0.4-1 0.7-1.6 0.9s-1.3 0.3-1.9 0.4v1.8h-1.3v-1.7c-0.7-0.1-1.3-0.2-1.9-0.4s-1.1-0.5-1.5-0.9c-0.4-0.4-0.8-0.8-1.1-1.4s-0.4-1.2-0.5-2h3.1c0 0.6 0.2 1.1 0.5 1.5 0.4 0.4 0.8 0.6 1.3 0.6v-3.9c-0.2 0-0.4-0.1-0.5-0.1-0.2 0-0.4-0.1-0.6-0.2-1.1-0.3-1.9-0.7-2.5-1.1s-1-0.9-1.3-1.4c-0.3-0.5-0.4-0.9-0.5-1.4s-0.1-0.9-0.1-1.3c0-0.3 0.1-0.7 0.2-1.2 0.2-0.5 0.5-1 0.9-1.4 0.4-0.5 1-0.9 1.7-1.3s1.6-0.6 2.7-0.7v-1.7h1.3v1.9c1.6 0.1 2.9 0.6 3.8 1.5s1.5 2.2 1.6 3.9h-3.1c0.1-0.8-0.1-1.5-0.6-2zM24 24v-16l8 8-8 8zM0 16c0-8.8 7.2-16 16-16 5.4 0 10.2 2.7 13.1 6.9l-1.4 1.4c-2.5-3.8-6.8-6.3-11.7-6.3-7.7 0-14 6.3-14 14s6.3 14 14 14c4.9 0 9.2-2.5 11.7-6.3l1.4 1.4c-2.9 4.2-7.7 6.9-13.1 6.9-8.8 0-16-7.2-16-16z"></path>
</svg>
