<?xml version="1.0" encoding="utf-8"?>
<!DOCTYPE svg PUBLIC "-//W3C//DTD SVG 1.1//EN" "http://www.w3.org/Graphics/SVG/1.1/DTD/svg11.dtd">
<svg version="1.1" xmlns="http://www.w3.org/2000/svg" xmlns:xlink="http://www.w3.org/1999/xlink" width="32" height="32" viewBox="0 0 32 32">
<path fill="#333" class="icons-background" d="M16 0c-8.8 0-16 7.2-16 16s7.2 16 16 16 16-7.2 16-16-7.2-16-16-16zM30 16c0 7.7-6.3 14-14 14s-14-6.3-14-14 6.3-14 14-14 14 6.3 14 14z"></path>
<path fill="#333" class="icons-background" d="M7.3 10.5c0.2-0.6 0.4-1.1 0.7-1.4 0.3-0.4 0.7-0.6 1.2-0.8 0.4-0.2 1-0.3 1.7-0.3s1.3 0.1 1.8 0.3c0.5 0.2 0.9 0.4 1.2 0.8s0.5 0.8 0.6 1.4 0.2 1.3 0.2 2.1-0.1 1.5-0.2 2.1-0.3 1.1-0.6 1.4c-0.3 0.4-0.7 0.6-1.2 0.8s-1.1 0.3-1.8 0.3-1.3-0.1-1.8-0.2c-0.5-0.2-0.9-0.4-1.2-0.8s-0.5-0.8-0.6-1.4-0.2-1.3-0.2-2.1 0.1-1.6 0.2-2.2zM10.1 14c0 0.4 0.1 0.6 0.1 0.8 0.1 0.2 0.1 0.3 0.3 0.4 0.1 0.1 0.3 0.1 0.4 0.1s0.3 0 0.4-0.1c0.1-0.1 0.2-0.2 0.3-0.4s0.1-0.5 0.1-0.8c0-0.4 0-0.8 0-1.3 0-0.6 0-1 0-1.4 0-0.3-0.1-0.6-0.1-0.8-0.1-0.2-0.1-0.3-0.3-0.4-0.1-0.1-0.3-0.1-0.4-0.1s-0.3 0-0.4 0.1c-0.1 0.1-0.2 0.2-0.3 0.4s-0.1 0.5-0.1 0.8c0 0.3 0 0.8 0 1.4 0 0.5 0 0.9 0 1.3zM21.2 8l-7.6 17.3h-2.6l7.5-17.3h2.7zM17.7 18.6c0.1-0.6 0.3-1.1 0.6-1.4 0.3-0.4 0.7-0.6 1.2-0.8s1.1-0.3 1.8-0.3 1.3 0.1 1.8 0.3c0.5 0.2 0.9 0.4 1.2 0.8s0.5 0.8 0.6 1.4c0.1 0.6 0.2 1.3 0.2 2.1s-0.1 1.5-0.2 2.1c-0.1 0.6-0.3 1.1-0.6 1.4-0.3 0.4-0.7 0.6-1.2 0.8-0.5 0.1-1.1 0.2-1.8 0.2s-1.3-0.1-1.8-0.2c-0.5-0.1-0.9-0.4-1.2-0.8s-0.5-0.8-0.6-1.4-0.2-1.3-0.2-2.1 0-1.5 0.2-2.1zM20.4 22.1c0 0.4 0.1 0.6 0.1 0.8 0.1 0.2 0.1 0.3 0.3 0.4 0.1 0.1 0.3 0.1 0.4 0.1 0.2 0 0.3 0 0.4-0.1s0.2-0.2 0.3-0.4c0.1-0.2 0.1-0.5 0.1-0.8 0-0.4 0-0.8 0-1.3 0-0.6 0-1 0-1.4 0-0.3-0.1-0.6-0.1-0.8-0.1-0.2-0.1-0.3-0.3-0.4s-0.2-0.2-0.4-0.2c-0.2 0-0.3 0-0.4 0.1s-0.2 0.2-0.3 0.4c-0.1 0.2-0.1 0.5-0.1 0.8s0 0.8 0 1.4c0 0.6 0 1 0 1.4z"></path>
</svg>
