<?xml version="1.0" encoding="utf-8"?>
<!DOCTYPE svg PUBLIC "-//W3C//DTD SVG 1.1//EN" "http://www.w3.org/Graphics/SVG/1.1/DTD/svg11.dtd">
<svg version="1.1" xmlns="http://www.w3.org/2000/svg" xmlns:xlink="http://www.w3.org/1999/xlink" width="32" height="32" viewBox="0 0 32 32">
<path fill="#0d0d0d" class="icons-background" d="M30 3c0-1.7-1.3-3-3-3h-22c-1.7 0-3 1.3-3 3v25h2v3c0 0.6 0.4 1 1 1h4c0.6 0 1-0.4 1-1v-3h12v3c0 0.6 0.4 1 1 1h4c0.6 0 1-0.4 1-1v-3h2v-25zM28 23c0 1.7-1.3 3-3 3s-3-1.3-3-3c0-1.7 1.3-3 3-3s3 1.3 3 3zM10 3c0-0.5 0.5-1 1-1h10c0.5 0 1 0.5 1 1v0c0 0.5-0.5 1-1 1h-10c-0.5 0-1-0.5-1-1v0zM4 6h24v12h-24v-12zM7 20c1.7 0 3 1.3 3 3s-1.3 3-3 3c-1.7 0-3-1.3-3-3s1.3-3 3-3z"></path>
</svg>
