<?xml version="1.0" encoding="utf-8"?>
<!DOCTYPE svg PUBLIC "-//W3C//DTD SVG 1.1//EN" "http://www.w3.org/Graphics/SVG/1.1/DTD/svg11.dtd">
<svg aria-labelledby="title" version="1.1" xmlns="http://www.w3.org/2000/svg" xmlns:xlink="http://www.w3.org/1999/xlink" width="32" height="32" viewBox="0 0 32 32">
<title id="title" lang="en">PDF-file</title>

<path fill="#004833" class="icons-background" d="M26.3 18.4c-0.4-0.4-1.4-0.6-2.8-0.7-1 0-2.1 0.1-3.4 0.2-0.6-0.3-1.1-0.7-1.6-1.1-1.2-1.1-2.2-2.7-2.8-4.4 0-0.2 0.1-0.3 0.1-0.4 0 0 0.7-3.8 0.5-5.1 0-0.2 0-0.2-0.1-0.4l-0.1-0.2c-0.1-0.3-0.5-0.8-1-0.7h-0.3c-0.6 0-1.1 0.3-1.3 0.8-0.4 1.5 0 3.8 0.8 6.7l-0.3 0.5c-0.5 1.3-1.2 2.7-1.8 3.9l-0.1 0.2c-0.6 1.2-1.2 2.3-1.7 3.2l-0.5 0.3c0 0-1 0.5-1.2 0.6-1.9 1.1-3.1 2.4-3.3 3.4-0.1 0.3 0 0.7 0.3 0.9l0.5 0.3c0.2 0.1 0.5 0.2 0.7 0.2 1.3 0 2.9-1.6 5-5.3 2.4-0.8 5.2-1.5 7.6-1.8 1.9 1 4.1 1.8 5.6 1.8 0.3 0 0.5 0 0.7-0.1 0.3-0.1 0.5-0.2 0.7-0.4 0.3-0.4 0.3-1 0.3-1.6-0.2-0.4-0.3-0.6-0.5-0.8zM6.6 25.4c0.2-0.7 1.2-2 2.6-3.1 0.1-0.1 0.3-0.3 0.5-0.5-1.5 2.4-2.4 3.3-3.1 3.6zM15 6.2c0.4 0 0.7 1.1 0.7 2.1s-0.2 1.7-0.5 2.2c-0.2-0.8-0.4-2-0.4-2.8 0 0.1 0-1.5 0.2-1.5zM12.5 19.9c0.3-0.5 0.6-1.1 0.9-1.7 0.8-1.4 1.2-2.6 1.6-3.5 0.7 1.3 1.6 2.4 2.7 3.3 0.1 0.1 0.3 0.2 0.4 0.3-2.2 0.5-4 1-5.6 1.6zM25.9 19.8c-0.1 0.1-0.5 0.1-0.7 0.1-0.8 0-1.7-0.4-3.1-0.9 0.5 0 1-0.1 1.4-0.1 0.8 0 1 0 1.8 0.2 0.7 0.2 0.7 0.6 0.6 0.7zM22 0h-20v32h28v-24l-8-8zM28 30h-24v-28h18v6h6v22z"></path>
</svg>
