<?xml version="1.0" encoding="utf-8"?>
<!DOCTYPE svg PUBLIC "-//W3C//DTD SVG 1.1//EN" "http://www.w3.org/Graphics/SVG/1.1/DTD/svg11.dtd">
<svg version="1.1" xmlns="http://www.w3.org/2000/svg" xmlns:xlink="http://www.w3.org/1999/xlink" width="32" height="32" viewBox="0 0 32 32">
<path fill="#2d373e" class="icons-background" d="M16 0c-8.8 0-16 7.2-16 16s7.2 16 16 16 16-7.2 16-16-7.2-16-16-16zM30 16c0 7.7-6.3 14-14 14s-14-6.3-14-14 6.3-14 14-14 14 6.3 14 14zM23.1 11.8l-4.3 4.2 4.2 4.2-2.8 2.8-4.2-4.2-4.2 4.2-2.8-2.8 4.2-4.2-4.2-4.2 2.8-2.8 4.2 4.2 4.2-4.2 2.9 2.8z"></path>
</svg>
