<?xml version="1.0" encoding="utf-8"?>
<!DOCTYPE svg PUBLIC "-//W3C//DTD SVG 1.1//EN" "http://www.w3.org/Graphics/SVG/1.1/DTD/svg11.dtd">
<svg version="1.1" xmlns="http://www.w3.org/2000/svg" xmlns:xlink="http://www.w3.org/1999/xlink" width="32" height="32" viewBox="0 0 32 32">
<path fill="#333" class="icons-background" d="M20.5 6.8c-0.3-0.5-0.1-1.1 0.3-1.4 0.5-0.3 1.1-0.1 1.4 0.3 1 1.5 1.5 3.3 1.5 5.3 0 1.9-0.6 3.7-1.5 5.2-0.3 0.5-0.9 0.6-1.4 0.3s-0.6-0.9-0.3-1.4c0.8-1.2 1.2-2.7 1.2-4.2 0-1.4-0.5-2.9-1.2-4.1zM24.2 4.9c1.1 1.8 1.7 3.9 1.7 6.1s-0.6 4.3-1.7 6.1c-0.3 0.5-0.1 1.1 0.4 1.4s1.1 0.1 1.4-0.4c1.2-2.1 1.9-4.5 1.9-7.1s-0.7-5-1.9-7.1c-0.3-0.5-0.9-0.6-1.4-0.4-0.6 0.3-0.7 0.9-0.4 1.4zM27.8 3c1.4 2.4 2.1 5.1 2.1 8s-0.8 5.6-2.1 8c-0.3 0.5-0.1 1.1 0.4 1.4s1.1 0.1 1.4-0.4c1.5-2.7 2.4-5.7 2.4-9s-0.9-6.4-2.4-9c-0.3-0.5-0.9-0.6-1.4-0.4-0.5 0.3-0.7 0.9-0.4 1.4zM8 3h8v-1h-8v1zM14 28c0-1.1-0.9-2-2-2s-2 0.9-2 2 0.9 2 2 2c1.1 0 2-0.9 2-2zM20 4v0h-16v20h16v-6h2v11c0 1.7-1.3 3-3 3h-14c-1.7 0-3-1.3-3-3v-26c0-1.7 1.3-3 3-3h14c1.7 0 3 1.3 3 3v1h-2z"></path>
</svg>
