<?xml version="1.0" encoding="utf-8"?>
<!DOCTYPE svg PUBLIC "-//W3C//DTD SVG 1.1//EN" "http://www.w3.org/Graphics/SVG/1.1/DTD/svg11.dtd">
<svg version="1.1" xmlns="http://www.w3.org/2000/svg" xmlns:xlink="http://www.w3.org/1999/xlink" width="32" height="32" viewBox="0 0 32 32">
<path fill="#333" class="icons-background" d="M25.9 25.9c2-2 3.3-4.4 3.8-7.1-0.4 0.6-0.8 0.9-1.1-0.5-0.3-2.3-2.3-0.8-3.6-1.6-1.4 0.9-4.5-1.8-3.9 1.3 0.8 1.4 4.4-1.9 2.6 1.1-1.1 2-4.1 6.6-3.8 8.9 0 3.4-3.5 0.7-4.7-0.4-0.8-2.3-0.3-6.3-2.4-7.4-2.3-0.1-4.3-0.3-5.2-2.9-0.5-1.9 0.6-4.7 2.6-5.1 2.9-1.8 4 2.2 6.7 2.2 0.9-0.9 3.2-1.2 3.4-2.2-1.8-0.3 2.3-1.5-0.2-2.2-1.4 0.2-2.2 1.4-1.5 2.5-2.6 0.6-2.7-3.8-5.2-2.4-0.1 2.2-4.1 0.7-1.4 0.3 0.9-0.4-1.5-1.6-0.2-1.4 0.7 0 2.9-0.8 2.3-1.3 1.2-0.8 2.3 1.8 3.5-0.1 0.9-1.4-0.4-1.7-1.4-1-0.6-0.7 1.1-2.2 2.6-2.8 0.5-0.2 1-0.3 1.3-0.3 0.8 0.9 2.1 1 2.2-0.1-2.1-0.9-4.2-1.4-6.3-1.4-3.1 0-6 1-8.4 2.8 0.6 0.3 1 0.7 0.4 1.1-0.4 1.4-2.4 3.4-4.1 3.1-0.9 1.5-1.5 3.2-1.7 5 1.4 0.5 1.8 1.4 1.5 1.7-0.7 0.6-1.2 1.5-1.4 2.5 0.5 2.9 1.8 5.5 3.9 7.6 2.5 2.7 6.1 4.2 9.8 4.2s7.3-1.5 9.9-4.1zM27.3 4.7c3 3 4.7 7 4.7 11.3s-1.7 8.3-4.7 11.3c-3 3-7 4.7-11.3 4.7s-8.3-1.7-11.3-4.7c-3-3-4.7-7-4.7-11.3s1.7-8.3 4.7-11.3c3-3 7-4.7 11.3-4.7s8.3 1.7 11.3 4.7z"></path>
</svg>
