<?xml version="1.0" encoding="utf-8"?>
<!DOCTYPE svg PUBLIC "-//W3C//DTD SVG 1.1//EN" "http://www.w3.org/Graphics/SVG/1.1/DTD/svg11.dtd">
<svg version="1.1" xmlns="http://www.w3.org/2000/svg" xmlns:xlink="http://www.w3.org/1999/xlink" width="32" height="32" viewBox="0 0 32 32">
<path fill="#0d0d0d" class="icons-background" d="M32 25c0 1.7-1.3 3-3 3h-26c-1.7 0-3-1.3-3-3v-16c0-1.7 1.3-3 3-3h26c1.7 0 3 1.3 3 3v16zM14 24c0-4.4-2.2-8-5-8 1.7 0 3-1.3 3-3s-1.3-3-3-3c-1.7 0-3 1.3-3 3s1.3 3 3 3c-2.8 0-5 3.6-5 8h10zM28 22h-10v2h10v-2zM28 16h-10v2h10v-2zM28 10h-10v2h10v-2z"></path>
</svg>
