<?xml version="1.0" encoding="utf-8"?>
<!DOCTYPE svg PUBLIC "-//W3C//DTD SVG 1.1//EN" "http://www.w3.org/Graphics/SVG/1.1/DTD/svg11.dtd">
<svg aria-labelledby="title" version="1.1" xmlns="http://www.w3.org/2000/svg" xmlns:xlink="http://www.w3.org/1999/xlink" width="32" height="32" viewBox="0 0 32 32">
<title id="title" lang="en">Print</title>

<path fill="#0d0d0d" class="icons-background" d="M8 2h16v4h-16v-4zM30 8h-28c-1.1 0-2 0.9-2 2v10c0 1.1 0.9 2 2 2h6v8h16v-8h6c1.1 0 2-0.9 2-2v-10c0-1.1-0.9-2-2-2zM22 28h-12v-10h12v10zM30 12c0 1.1-0.9 2-2 2s-2-0.9-2-2c0-1.1 0.9-2 2-2s2 0.9 2 2z"></path>
</svg>
