<?xml version="1.0" encoding="utf-8"?>
<!DOCTYPE svg PUBLIC "-//W3C//DTD SVG 1.1//EN" "http://www.w3.org/Graphics/SVG/1.1/DTD/svg11.dtd">
<svg aria-labelledby="title" version="1.1" xmlns="http://www.w3.org/2000/svg" xmlns:xlink="http://www.w3.org/1999/xlink" width="32" height="32" viewBox="0 0 32 32">
<title id="title" lang="en">Telephone</title>

<path fill="#0d0d0d" class="icons-background" d="M7.9 10.8c-1.2 0.9-0.4 2.5 0.6 4.1 1.4 2.2 3 4.3 4.4 5.8 1.7 1.8 2.8 2.8 3.7 2.8 0.3 0 0.5-0.1 0.8-0.3l6.2 8.1c-0.4 0.3-1.3 0.7-2.7 0.7-3.2 0-8.6-1.9-15-10.5-8.7-11.8-5.5-17.8-4.3-19l6.3 8.3zM21 20.7c-0.2 0-0.5 0.1-0.7 0.2l-2.3 1.8 6.2 8.1 2.3-1.8c0.5-0.4 0.6-1.1 0.2-1.6v0l-4.8-6.3c-0.2-0.2-0.5-0.4-0.9-0.4zM5.2 0c-0.2 0-0.5 0.1-0.7 0.2l-2.3 1.8 6.3 8.3 2.3-1.8c0.5-0.4 0.6-1.1 0.2-1.6v0l-5-6.5c-0.1-0.3-0.5-0.4-0.8-0.4z"></path>
<path fill="#0d0d0d" class="icons-background" d="M16.2 9.9c1.4 0.3 2.7 1 3.8 2.1s1.8 2.4 2.1 3.8c0.1 0.5 0.7 0.9 1.2 0.7 0.5-0.1 0.9-0.7 0.8-1.2-0.4-1.8-1.3-3.4-2.6-4.8-1.4-1.4-3-2.2-4.8-2.7-0.5-0.1-1.1 0.2-1.2 0.8-0.2 0.6 0.1 1.2 0.7 1.3z"></path>
<path fill="#0d0d0d" class="icons-background" d="M17.4 5.9c2 0.5 3.9 1.6 5.5 3.1 1.6 1.6 2.6 3.5 3.1 5.5 0.1 0.5 0.7 0.9 1.2 0.7 0.5-0.1 0.9-0.7 0.7-1.2-0.6-2.4-1.8-4.6-3.7-6.4-1.7-1.8-3.9-3-6.2-3.6-0.5-0.1-1.1 0.2-1.2 0.7-0.2 0.5 0.1 1.1 0.6 1.2z"></path>
<path fill="#0d0d0d" class="icons-background" d="M18.7 2c2.6 0.7 5.1 2.1 7.2 4.2s3.4 4.5 4.1 7.2c0.1 0.5 0.7 0.8 1.2 0.7 0.5-0.2 0.9-0.7 0.7-1.2-0.8-3-2.4-5.8-4.7-8.1-2.2-2.4-5-4-8-4.8-0.5-0.1-1.1 0.2-1.2 0.7-0.2 0.6 0.1 1.1 0.7 1.3z"></path>
</svg>