<?xml version="1.0" encoding="utf-8"?>
<!DOCTYPE svg PUBLIC "-//W3C//DTD SVG 1.1//EN" "http://www.w3.org/Graphics/SVG/1.1/DTD/svg11.dtd">
<svg version="1.1" xmlns="http://www.w3.org/2000/svg" xmlns:xlink="http://www.w3.org/1999/xlink" width="32" height="32" viewBox="0 0 32 32">
<path fill="#2d373e" class="icons-background" d="M2.2 28c-1.4-2.4-2.2-5.1-2.2-8 0-8.8 7.2-16 16-16s16 7.2 16 16c0 2.9-0.8 5.6-2.2 8h-27.6zM26 13.4l-2.6 3.6c0.4 0.9 0.6 1.9 0.6 3 0 1.9-0.7 3.6-1.8 5h4.7c0.7-1.5 1.1-3.2 1.1-5 0-2.4-0.7-4.7-2-6.6zM16 8c-6.6 0-12 5.4-12 12 0 1.8 0.4 3.5 1.1 5h4.7c-1.1-1.4-1.8-3.1-1.8-5 0-4.4 3.6-8 8-8 1.1 0 2.1 0.2 3 0.6l3.6-2.6c-1.9-1.3-4.2-2-6.6-2zM19 19.8l6.9-9.7-9.7 6.9c-0.8-0.1-1.7 0.2-2.4 0.9-1.2 1.2-1.2 3.1 0 4.2 1.2 1.2 3.1 1.2 4.2 0 0.8-0.6 1-1.5 1-2.3z"></path>
</svg>
