<?xml version="1.0" encoding="utf-8"?>
<!DOCTYPE svg PUBLIC "-//W3C//DTD SVG 1.1//EN" "http://www.w3.org/Graphics/SVG/1.1/DTD/svg11.dtd">
<svg aria-labelledby="title" version="1.1" xmlns="http://www.w3.org/2000/svg" xmlns:xlink="http://www.w3.org/1999/xlink" width="32" height="32" viewBox="0 0 32 32">
<title id="title" lang="en">Australia</title>

<path fill="#2d373e" class="icons-background" d="M24.2 30c-0.1 0-0.2 0-0.3 0 0-0.1-0.2 0-0.3-0.1-0.1-0.4-0.6-0.7-0.4-1.2-0.2-0.2-0.4-0.7-0.2-1.1 0.5 0 0.7 0.3 1 0.5 0.3-0.1 0.8-0.1 1.1-0.2 0.2 0.4 0 1 0 1.4-0.1 0-0.1-0.1-0.1-0.2-0.1 0.2-0.2 0.5-0.2 0.8-0.1 0-0.3-0.1-0.3-0.2-0.1 0-0.2 0.1-0.3 0.3zM30 16.8c0 0 0 0 0 0s0 0 0 0c-0.3 0.7-0.2 1.3 0 1.8 0 0 0 0 0 0.1-0.4 1.2-0.7 2.1-1.2 3.2-0.2 0.1-0.4 0.3-0.7 0.4-0.1 0.6-0.7 0.9-0.7 1.5-0.6 0.3-0.7 1.1-0.8 1.8-0.9 0.2-2 0.2-2.4 1-0.2-0.3-0.8-0.5-0.6-0.7-0.2 0.3-0.3 0-0.6 0-0.3 0.1-0.3 0.3-0.6 0.4-0.3-0.2-0.8-0.7-1.2-0.5-0.3-0.4-0.9-0.5-1.1-1.1 0.3-0.5-0.1-0.9-0.4-1.2-0.2 0-0.4 0.2-0.6 0.1 0.3-0.3 0.4-0.8 0.1-1.1-0.1 0.3-0.1 0.5-0.2 0.7-0.2-0.2-0.4 0.2-0.6 0-0.1-0.4 0.3-0.3 0.4-0.4-0.1-0.7 0.5-0.9 0.3-1.3-0.3 0.7-1.2 0.8-1.2 1.6-0.3 0-0.4-0.3-0.6-0.4 0-0.1 0.2 0 0.2-0.2-0.2-0.4-0.4-0.8-0.8-1-0.1-0.2 0-0.2 0.1-0.4-0.3 0.1-0.2-0.1-0.3-0.2-0.4 0-0.7-0.2-0.8-0.1-0.3 0.1-0.6-0.4-0.8-0.4-1.3-0.2-2.1 0.8-3.4 0.7-0.3 0.3-0.7 0.5-1.1 0.7 0 0.3-0.2 0.6-0.4 0.7-0.8 0.2-1.4 0-2.4 0.3-0.1 0.1-0.1 0.4-0.3 0.5-0.5 0-0.4 0.4-0.8 0.6-0.8 0.3-1.4-0.3-2-0.4 0-0.2-0.1-0.4-0.1-0.7 0.2 0 0.2 0.1 0.3 0.1 0.1-0.4-0.1-0.9 0-1.3-0.3-0.6-0.8-0.9-0.8-1.8-0.6-0.7-0.9-1.7-1.6-2.3 0.3-0.3-0.1-0.4 0.1-0.6 0.2 0.1 0.4 0.3 0.5 0.6 0-0.7-0.6-0.9-0.8-1.4-0.1-0.9 0.3-1.4-0.1-1.8 0 0 0 0 0-0.1 0 0 0 0 0.1 0 0.1-0.2 0-0.6 0.3-0.6 0.2 0.1-0.1 0.5 0.2 0.5 0.1-0.1 0.1-0.3 0.1-0.5 0.8-0.2 1.2-1.5 1.9-1.1 0.3-0.3 0.9-0.4 1.2-0.8 1.3 0.2 1.6-1 2.2-1.6-0.5-0.6-0.1-1.3 0.4-1.5 0 0.3 0.2 0.5 0.4 0.7-0.1-0.2 0-0.2 0.1-0.3-0.2-0.1-0.4-0.3-0.2-0.6 0.1-0.1 0.4 0.1 0.6 0.1 0-0.7 0.2-1 0.6-1.1 0.1-0.2-0.2 0-0.1-0.2 0.2-0.2 0.3-0.1 0.4-0.4 0.1 0 0.1 0.2 0.3 0.2 0.1-0.3-0.1-0.2 0-0.5 0.3 0.2 0.4-0.1 0.7-0.2 0.5 0.2 0.9 0.6 1.1 0.9 0.3-0.3 0.8-0.1 1 0.1 0.1-0.4-0.2-0.3-0.3-0.5 0.2-0.3 0.2-0.8 0.6-0.8 0-0.2-0.2-0.1-0.1-0.3 0.4-0.3 0.5-0.5 1-0.7 0.2 0.3 0.7 0.1 1 0 0-0.1 0-0.2 0-0.3-0.3-0.1-0.5 0-0.7-0.3 0.3-0.4 0.7 0.3 1 0 0.1 0.5 0.8 0.2 1.1 0.6 0.2 0 0.2-0.1 0.4-0.1 0.2 0.4 0.5 0.1 0.8 0 0 0.1-0.1 0.1 0 0.2 0.1-0.1 0.3-0.2 0.6-0.2-0.2 0.1 0.3 0 0.3 0.2-0.3 0.5-0.5 0.8-0.9 1 0 0.1 0.2 0 0.2 0.1-0.1 0.4-0.4 0.6-0.6 0.9 0.9 0.5 1.6 1.2 2.6 1.6 0.2 0.4 0.8 0.9 1.3 0.6 0.2-0.6 0.6-1.1 0.7-1.8s-0.2-1.5 0.3-1.9c-0.1 0-0.2 0-0.2-0.1 0.5-0.5 0.4-1.2 0.9-1.5 0.4 0.2 0.1 1 0.6 1.1 0.1 0.2-0.2 0-0.1 0.2 0.4 0.4 0.1 1.2 0.4 1.7 0.3-0.1 0.3-0.1 0.6-0.2 0.1 0.4 0.4 0.5 0.6 0.7-0.1 0.3 0.1 0.8 0 1.2 0.6 0.4 0.3 1.3 0.4 1.9 0.3 0.2 0.5 0.4 0.8 0.4 0.1 0.7 1 0.5 1 1.1-0.1 0-0.1 0-0.2-0.1 0.3 0.4 0.5 0.8 0.5 1.5 0.2 0.2 0.1-0.2 0.3-0.2 0.1 0.3 0.1 0.4 0.4 0.2 0 0.7 0 1.3 0.6 1.5 0.2 0.4 0.4 0.8 0.7 1.1-0.1 0.3 0 0.6 0.1 0.7z"></path>
</svg>
