<?xml version="1.0" encoding="utf-8"?>
<!-- Generator: Adobe Illustrator 18.1.1, SVG Export Plug-In . SVG Version: 6.00 Build 0)  -->
<!DOCTYPE svg PUBLIC "-//W3C//DTD SVG 1.1//EN" "http://www.w3.org/Graphics/SVG/1.1/DTD/svg11.dtd">
<svg version="1.1" id="Art" xmlns="http://www.w3.org/2000/svg" xmlns:xlink="http://www.w3.org/1999/xlink" x="0px" y="0px"
	 width="69px" height="65px" viewBox="0 0 69 65" enable-background="new 0 0 69 65" xml:space="preserve">
<rect opacity="0" fill="#FFFFFF" width="69" height="65"/>
<g>
	<path fill="#D5002B" d="M24.4,45l-6.8-20.9c-1-3.2-2.6-4.1-5.1-4.1H0c1,0.4,1.6,2.9,1.6,2.9l6.1,21c0.7,2.6,2.9,4,5.4,4h13.3
		C25.4,47.8,24.4,45,24.4,45"/>
	<path fill="#D5002B" d="M44.6,45l6.8-20.9c1-3.2,2.6-4.1,5.1-4.1H69c-1,0.4-1.6,2.9-1.6,2.9l-6.1,21c-0.7,2.6-2.9,4-5.4,4H42.6
		C43.6,47.8,44.6,45,44.6,45"/>
	<rect x="27" y="20" fill="#D5002B" width="15" height="28"/>
</g>
</svg>
