<?xml version="1.0" encoding="utf-8"?>
<!-- Generator: Adobe Illustrator 18.1.1, SVG Export Plug-In . SVG Version: 6.00 Build 0)  -->
<!DOCTYPE svg PUBLIC "-//W3C//DTD SVG 1.1//EN" "http://www.w3.org/Graphics/SVG/1.1/DTD/svg11.dtd">
<svg version="1.1" id="Art" xmlns="http://www.w3.org/2000/svg" xmlns:xlink="http://www.w3.org/1999/xlink" x="0px" y="0px"
	 width="82px" height="44px" viewBox="0 0 82 44" enable-background="new 0 0 82 44" xml:space="preserve">
<rect opacity="0" fill="#FFFFFF" width="82" height="44"/>
<g>
	<g>
		<path fill="#D5002B" d="M18.5,31.8l-5.1-15.7c-0.7-2.4-2-3.1-3.8-3.1H0c0.7,0.3,1.2,2.2,1.2,2.2L5.8,31c0.5,2,2.2,3,4.1,3H20
			C19.3,33.9,18.5,31.8,18.5,31.8"/>
		<path fill="#D5002B" d="M33.5,31.8l5.1-15.7c0.7-2.4,2-3.1,3.8-3.1H52c-0.7,0.3-1.2,2.2-1.2,2.2L46.2,31c-0.5,2-2.2,3-4.1,3H32
			C32.7,33.9,33.5,31.8,33.5,31.8"/>
	</g>
	<rect x="20.5" y="13" fill="#D5002B" width="11" height="21"/>
</g>
</svg>
