<?xml version="1.0" encoding="utf-8"?>
<!DOCTYPE svg PUBLIC "-//W3C//DTD SVG 1.1//EN" "http://www.w3.org/Graphics/SVG/1.1/DTD/svg11.dtd">
<svg aria-labelledby="title" version="1.1" xmlns="http://www.w3.org/2000/svg" xmlns:xlink="http://www.w3.org/1999/xlink" width="32" height="32" viewBox="0 0 32 32">
<title id="title" lang="en">Apple</title>

<path fill="#0d0d0d" class="icons-background" d="M23.8 17c0-4.1 3.3-6 3.5-6.1-1.9-2.8-4.8-3.1-5.9-3.2-2.5-0.3-4.9 1.5-6.1 1.5-1.3 0-3.3-1.4-5.3-1.4-2.7 0-5.2 1.6-6.6 4-2.8 4.9-0.7 12.2 2 16.1 1.3 1.9 2.9 4.1 5.1 4 2-0.1 2.8-1.3 5.2-1.3 2.5 0 3.1 1.3 5.3 1.3s3.6-2 4.9-3.9c1.5-2.3 2.2-4.4 2.2-4.6-0.1 0.1-4.3-1.6-4.3-6.4zM19.7 5.1c1.1-1.4 1.9-3.2 1.7-5.1-1.6 0.1-3.6 1.1-4.7 2.4-1 1.2-1.9 3.1-1.7 5 1.8 0.1 3.6-0.9 4.7-2.3z"></path>
</svg>