<?xml version="1.0" encoding="utf-8"?>
<!DOCTYPE svg PUBLIC "-//W3C//DTD SVG 1.1//EN" "http://www.w3.org/Graphics/SVG/1.1/DTD/svg11.dtd">
<svg version="1.1" xmlns="http://www.w3.org/2000/svg" xmlns:xlink="http://www.w3.org/1999/xlink" width="32" height="32" viewBox="0 0 32 32">
<path fill="#0d0d0d" class="icons-background" d="M23 0h-14c-1.7 0-3 1.3-3 3v26c0 1.7 1.3 3 3 3h14c1.7 0 3-1.3 3-3v-26c0-1.7-1.3-3-3-3zM12 2h8v1h-8v-1zM16 30c-1.1 0-2-0.9-2-2s0.9-2 2-2c1.1 0 2 0.9 2 2s-0.9 2-2 2zM24 24h-16v-20h16v20z"></path>
</svg>
