<?xml version="1.0" encoding="utf-8"?>
<!DOCTYPE svg PUBLIC "-//W3C//DTD SVG 1.1//EN" "http://www.w3.org/Graphics/SVG/1.1/DTD/svg11.dtd">
<svg aria-labelledby="title" version="1.1" xmlns="http://www.w3.org/2000/svg" xmlns:xlink="http://www.w3.org/1999/xlink" width="32" height="32" viewBox="0 0 32 32">
<title id="title" lang="en">Chat</title>

<path fill="#004833" class="icons-background" d="M30.2,27c0,1.3,0.7,2.4,1.8,2.9v0.4c-0.3,0-0.6,0.1-0.9,0.1c-1.9,0-3.6-0.8-4.8-2.1 c-0.7,0.2-1.5,0.3-2.3,0.3c-4.4,0-8-3.2-8-7.1c0-3.9,3.6-7.1,8-7.1s8,3.2,8,7.1c0,1.5-0.5,3-1.5,4.1C30.3,26.1,30.2,26.5,30.2,27z M14.2,2c7.7,0,14,5,14.2,11.3c-1.4-0.6-2.9-0.9-4.4-0.9c-2.7,0-5.2,0.9-7.1,2.6c-2,1.7-3.1,4.1-3.1,6.6c0,1.2,0.3,2.4,0.8,3.5 c-0.1,0-0.3,0-0.4,0c-0.8,0-1.5,0-2.2-0.1C9,28,5.3,28.6,1.8,28.7v-0.7c1.9-0.9,3.6-2.6,3.6-4.6c0-0.3,0-0.5-0.1-0.8 c-3.2-2.1-5.3-5.4-5.3-9C0,7.2,6.4,2,14.2,2z"/>
</svg>
