<?xml version="1.0" encoding="utf-8"?>
<!DOCTYPE svg PUBLIC "-//W3C//DTD SVG 1.1//EN" "http://www.w3.org/Graphics/SVG/1.1/DTD/svg11.dtd">
<svg version="1.1" xmlns="http://www.w3.org/2000/svg" xmlns:xlink="http://www.w3.org/1999/xlink" width="32" height="32" viewBox="0 0 32 32">
<path fill="#333" class="icons-background" d="M22.4 0c-5.2 8.7-9.4 4.4-15.5 10.7-5.4 5.5-3.5 12.2 1 14.5 4.5-2.3 9.1-7.4 12.5-14.8 0 0 3.1 9.3-6.3 18.4 4.6 5.3 12.3 1.6 14.4-6.8 2.3-9.3-3.8-18.7-6.1-22zM3 30.2c0 0.1 0.1 1.8 2.4 1.8 1.6 0 10-4.5 14.2-16.3-6.5 11.5-15.9 14.3-16.6 14.5z"></path>
</svg>
