<?xml version="1.0" encoding="utf-8"?>
<!DOCTYPE svg PUBLIC "-//W3C//DTD SVG 1.1//EN" "http://www.w3.org/Graphics/SVG/1.1/DTD/svg11.dtd">
<svg aria-labelledby="title" version="1.1" id="Art" xmlns="http://www.w3.org/2000/svg" xmlns:xlink="http://www.w3.org/1999/xlink" x="0px" y="0px"
	 width="82px" height="44px" viewBox="0 0 82 44" enable-background="new 0 0 82 44" xml:space="preserve">
<title id="title" lang="en">StGeorge logo</title>

<rect opacity="0" fill="#FFFFFF" width="82" height="44"/>
<g>
	<g>
		<path fill="#004833" d="M5.4,18.8c0.8,0.5,1.7,1.1,2.4,1.8c0.8,0.8,1.9,2.8,0.5,4.4c-0.5,0.6-1.4,0.9-2.2,0.9
			c-1.2,0.1-2.8-0.4-3.7-1.1c0.2,0,3,0.5,4.3-0.1c0.4-0.2,0.9-0.8,0.6-2c-0.4-1.5-1.8-2.7-4.2-4.2c-0.3-0.2-0.5-0.5-0.6-0.9
			C2.5,17.6,3.9,18,5.4,18.8"/>
		<path fill="#004833" d="M6.9,28.2c0.5,0.9,0.6,1.3,0.5,2.5c-0.1,0.7-0.6,1.1-1,1.4c0,0,0.4-1.5-0.2-2.6c-0.9-1.8-1.7-1.7-5.3-3.1
			C0.5,26.2,0,25.6,0,25.5c0-0.1,2.9,0.4,4.5,0.9C5.3,26.6,6.4,27.4,6.9,28.2"/>
		<path fill="#FFCD00" d="M30,32.3c1.4,2.2,3.8,3.8,6.3,4.1c4.4,0.6,8.5-1.6,12.9,0.1c2,0.7,3.8,2,4.8,3.7c-0.9-0.4-1.5-0.7-2.6-1
			c-1.9-0.6-3.5-0.4-5.5-0.1c-3.7,0.5-7.4,1.7-10.9,0C32.3,37.8,30.7,35.1,30,32.3"/>
		<path fill="#78BE20" d="M25.3,15.3c0.3,1.2,0,2.3-0.2,3.7c-0.2,1.2,0.2,2.4,1.3,2.7c0.9,0.3,3,0.2,4.4,1.5
			c0.4,0.4,0.6,0.5,0.7,1.2c0.1,0.4,0,0.9-0.1,1.2c-0.4,1.1-0.7,2-1.4,2.8c-1,1.1-2,2.1-3.3,2.6c-2.5,0.8-3.9-1.6-5.8-2.7
			c-0.9-0.5-1.8-0.8-2.6,0.1c-1.3,1.2-1.1,3.2-0.4,4.6c1.3,2.6,4.1,4.9,6,6.8c-3.4,0.9-6.9,1.8-10.3,0.8c-1.6-0.5-3.1-2.5-3.8-4
			C8.6,34,7.8,28,1.8,23.7c3,0.4,4.2,0.7,6.1-0.6c0.4-0.3,0.6-0.8,0.5-1.3c-0.3-2-2-3.1-3.1-4.5c0.8,0.3,1.6,0.5,2.5,0.6
			c1.3,0.2,2.4-0.1,3.5-0.8c3.5-2.1-0.5-6.9-0.5-6.9s3.7,2.7,6,2.3c0.8-0.2,1.3-0.4,1.7-1.1c1-1.7,1.9-3.5,2.7-5.3
			c-0.1,1.7-0.4,3.4,0.1,5c0.4,1.5,1.7,1.8,2.9,2.6C24.7,14,25.1,14.3,25.3,15.3"/>
		<path fill="#FFFFFF" d="M18.9,17.4c-0.6,0.8-0.4,2.1,0.6,2.2c0.6,0,1.4-0.3,1.6-1c0.2-0.7-0.1-1.2-0.6-1.7
			C20.1,16.6,19.3,16.9,18.9,17.4"/>
		<path fill="#004833" d="M8,19.3c0.8,0.8,2,0.9,2.9,0.3c1-0.7,1-2.4,0.7-3.4c-0.6-2.7-2.1-5.1-4.1-6.3c1,2.1,2.2,4.4,2.6,6.7
			c0.1,0.5,0.2,1.1,0,1.6c-0.5,1-2.4,0.4-3.3-0.1C7.2,18.5,8,19.3,8,19.3"/>
		<path fill="#004833" d="M14.3,12.7c1.7-0.2,1.7-1.8,1.9-3.1c0.2-1.1,0.7-2.2,1.5-3.2c0.6-0.7,0.9-1,1.4-1.6
			C20.3,3.4,21.1,3,21.1,3s-2.5,3.9-3,5.9c-0.5,1.7,0.1,3.8-1.8,4.9c-1.6,0.9-3.2,0.1-4.4-0.8c-0.6-0.5-1-1.1-1.2-1.9
			C11.8,11.8,12.8,12.9,14.3,12.7"/>
		<path fill="#004833" d="M20.9,12.2c0.7,0.8,1.6,1,2.5,1.6c0.8,0.6,1.3,1.1,1.6,2c0.4,1.3-0.2,2.6-0.2,4C25,22,26.5,22,28.5,22
			c1.2,0,3.3,1,3.1,2.8c-0.1,0.7-0.2,1.2-0.7,1.7c-0.5,0.4-1.1,0.6-1.6,0.2c1-0.3,1.3-0.7,1.4-1.7c0-0.6-0.3-1.1-0.5-1.3
			c-0.4-0.4-1-0.9-2.4-0.8c-1.1,0-2,0.1-3.1-0.7c-0.5-0.4-0.7-0.7-1-1.3c-0.7-1.4,0.2-3,0-4.5c-0.1-0.7-0.9-1.5-1.5-2
			c-1.1-0.7-2.2-1.1-2.9-2.3c-1-1.8-0.1-4,1-5.8C20.3,8.4,19.4,10.6,20.9,12.2"/>
		<path fill="#004833" d="M21.6,19.1c0.6-0.8,0.3-1.8-0.6-2.2c-0.5-0.2-1.1-0.3-1.7-0.1c-0.2,0-0.6,0.1-0.8,0.5
			c0.2-0.1,0.6-0.2,0.9-0.2c0.5,0,0.6,0.2,0.6,0.2s-0.7,0.2-0.8,0.7c-0.2,0.5,0,1,0.4,1.2C20.2,19.8,21.1,19.7,21.6,19.1"/>
		<path fill="#004833" d="M12.4,18.7c0.7-1,1.4-1.9,2.2-2.6c-0.1,0.8-0.5,1.6-0.8,2.4c-1.8,3.9-3.4,6.5-4,11.7
			c-0.6,4.9,0.6,7.4,1.3,8.5c0.3,0.4,0.1,1.2-0.3,1.7C10.3,41,9,40.2,9,40.2S8.8,39.6,8.6,39c-0.5-1.6-0.7-3.3-0.8-5
			C7.5,28.6,9.1,23.3,12.4,18.7"/>
		<path fill="#004833" d="M24.2,25.8c1.8,1.4,3.7,2.1,5.6,2.9c-0.2,0.7-0.4,0.8-1,1.3c-1.3-0.4-2.7-1-3.7-1.9
			C23.9,27,23,26,22.5,24.4C23.2,24.8,23.6,25.4,24.2,25.8"/>
		<path fill="#004833" d="M20.1,27.1c1.9,0.3,2.6,1.5,3.9,2.7c1,0.9,2.2,1.6,3.6,1.2c-0.2,1.1-1.6,1.4-2.8,1.2
			c-2-0.3-2.4-1.9-3.7-3.2c-0.9-0.9-2.5-0.8-3.5,0.4c-1.3,1.6,0,4.3,1,5.5c1.1,1.3,2.1,2.3,3.2,3.4c0,0,1.5,1.5,2.4,2.6
			c-3.1-1.6-5.2-3-7.4-5.7c-1-1.3-1.2-2.4-1.3-3.8c0-1.2,0.2-2.2,1-3.2C17.5,27.1,18.7,26.9,20.1,27.1"/>
		<path fill="#FFFFFF" d="M28.4,24.7c-0.4,0.1-0.7,0.6-0.6,0.9c0.2,0.4,0.7,0.5,1.1,0.2c0.1-0.1,0.3-0.3,0.3-0.5
			c0-0.3-0.2-0.6-0.6-0.7C28.5,24.6,28.4,24.7,28.4,24.7"/>
		<path fill="#004833" d="M28.7,24.3c0.2,0,0.5,0.1,0.6,0.3c0.3,0.2,0.2,0.7-0.1,0.9c-0.4,0.3-0.8,0.3-1.1,0c-0.2-0.3-0.2-0.7,0-1
			C28.3,24.4,28.5,24.3,28.7,24.3"/>
	</g>
</g>
</svg>
