<?xml version="1.0" encoding="utf-8"?>
<!-- Generator: Adobe Illustrator 18.1.1, SVG Export Plug-In . SVG Version: 6.00 Build 0)  -->
<!DOCTYPE svg PUBLIC "-//W3C//DTD SVG 1.1//EN" "http://www.w3.org/Graphics/SVG/1.1/DTD/svg11.dtd">
<svg version="1.1" id="Art" xmlns="http://www.w3.org/2000/svg" xmlns:xlink="http://www.w3.org/1999/xlink" x="0px" y="0px"
	 width="180px" height="65px" viewBox="0 0 180 65" enable-background="new 0 0 180 65" xml:space="preserve">
<rect opacity="0" fill="#FFFFFF" width="180" height="65"/>
<g>
	<path fill="#004833" d="M9.3,39.9c0.6,1.2,0.9,1.8,0.7,3.3c-0.1,0.9-0.8,1.4-1.4,1.8c0,0,0.6-2-0.2-3.5c-1.2-2.5-2.2-2.3-7.2-4.2
		C0.6,37.1,0,36.3,0,36.2c0-0.1,4,0.6,6,1.2C7.1,37.7,8.7,38.8,9.3,39.9"/>
	<g>
		<path fill="#E30000" d="M169.7,43c-1.1,3.8-3.5,5.4-6.9,5.4c-4.6,0-7.5-3.5-7.5-8.4c0-4.8,3-8.5,7.5-8.5c5,0,7.4,4.6,7.1,9.5
			h-10.6c0.1,2.8,1.4,4.1,3.6,4.1c1.2,0,2.2-0.6,2.8-1.3c0.4-0.5,1-0.8,1.6-0.8H169.7z M166,38.3c-0.4-2.2-1.2-3.4-3.2-3.4
			c-2.6,0-3.3,2.2-3.3,3.4H166z"/>
		<path fill="#E30000" d="M150.7,33.2c0.7-1,1.6-1.7,2.5-1.7V47c0,2.6-0.9,7.1-7.6,7.1c-2.9,0-6.3-1.5-6.5-5.2h2.7
			c0.7,0,1.4,0.4,1.7,1c0.6,0.9,1.5,1.2,2.6,1.2c2.2,0,3.3-1.7,3.2-4v-2.1h-0.1c-0.9,1.7-2.6,2.5-4.4,2.5c-4.4,0-6.3-3.6-6.3-8
			c0-4.9,2.9-8,7.3-8C147.8,31.5,149.4,32.1,150.7,33.2 M149.4,39.8c0-2.6-0.8-4.9-3.4-4.9c-2.3,0-3.3,2.2-3.3,4.6
			c0,2.3,0.8,4.8,3.3,4.8C148.2,44.2,149.4,42.1,149.4,39.8"/>
		<path fill="#E30000" d="M117.8,45.1c2.7,0,3.6-2.6,3.6-5.1c0-2.6-0.8-5.2-3.6-5.2c-2.7,0-3.5,2.6-3.5,5.2
			C114.2,42.5,115,45.1,117.8,45.1 M117.8,31.5c4.6,0,7.6,3.4,7.6,8.5c0,5.1-3,8.4-7.6,8.4c-4.6,0-7.6-3.4-7.6-8.4
			C110.2,34.9,113.2,31.5,117.8,31.5"/>
		<path fill="#E30000" d="M107.9,43c-1.1,3.8-3.5,5.4-6.9,5.4c-4.6,0-7.5-3.5-7.5-8.4c0-4.8,3-8.5,7.5-8.5c5,0,7.4,4.6,7.1,9.5H97.6
			c0.1,2.8,1.4,4.1,3.6,4.1c1.2,0,2.2-0.6,2.8-1.3c0.4-0.5,1-0.8,1.6-0.8H107.9z M104.1,38.3c-0.4-2.2-1.2-3.4-3.2-3.4
			c-2.6,0-3.3,2.2-3.3,3.4H104.1z"/>
		<path fill="#E30000" d="M56.9,36.6c-0.8,0-1.4-0.4-1.8-1.1c-0.5-0.9-1.4-1.1-2.5-1.1c-0.9,0-2.2,0.2-2.2,1.5
			c0,1.6,2.3,1.8,4.6,2.4c2.4,0.6,4.6,1.5,4.6,4.5c0,4.2-3.3,5.6-6.7,5.6c-3.4,0-6.7-1.4-6.9-5.6h3.8c0,1.9,1.5,2.7,3.1,2.7
			c1.2,0,2.6-0.5,2.6-2c0-1.3-1.7-1.8-4.6-2.5c-2.3-0.6-4.7-1.5-4.7-4.3c0-4.1,3.2-5.2,6.4-5.2c3.2,0,6.2,1.2,6.5,5.1H56.9z"/>
		<path fill="#E30000" d="M67.1,32h2.9v0.9c0,1.1-0.9,2-2,2h-0.9v7.9c0,1.5,0.3,1.9,1.7,1.9c0.4,0,0.8,0,1.2-0.1V48
			c-0.7,0.1-1.6,0.2-2.4,0.2c-2.5,0-4.6-0.6-4.6-3.8v-9.5h-2.4V34c0-1.1,0.9-2,2-2h0.4v-4.8h2c1.1,0,2,0.9,2,2V32z"/>
		<path fill="#E30000" d="M89,33.2c0.7-1,1.6-1.7,2.5-1.7V47c0,2.6-0.8,7.1-7.6,7.1c-2.9,0-6.3-1.5-6.5-5.2h2.7c0.7,0,1.4,0.4,1.7,1
			c0.6,0.9,1.5,1.2,2.6,1.2c2.2,0,3.3-1.7,3.2-4v-2.1h-0.1c-0.9,1.7-2.6,2.5-4.4,2.5c-4.4,0-6.3-3.6-6.3-8c0-4.9,2.9-8,7.3-8
			C86.1,31.5,87.7,32.1,89,33.2 M87.7,39.8c0-2.6-0.8-4.9-3.4-4.9C82,34.8,81,37,81,39.4c0,2.3,0.8,4.8,3.3,4.8
			C86.5,44.2,87.7,42.1,87.7,39.8"/>
		<path fill="#E30000" d="M76.3,46.2c0,1.2-1,2.2-2.2,2.2c-1.2,0-2.2-1-2.2-2.2c0-1.2,1-2.2,2.2-2.2C75.3,44,76.3,45,76.3,46.2"/>
		<path fill="#FFCD00" d="M40.5,45.3c1.8,2.9,5.1,5,8.4,5.5c5.9,0.7,11.5-2.1,17.4,0.1c2.8,1,5.1,2.6,6.5,5c-1.2-0.5-2-0.9-3.5-1.4
			c-2.6-0.8-4.8-0.5-7.4-0.1c-5,0.7-9.9,2.3-14.7,0C43.6,52.7,41.4,49.1,40.5,45.3"/>
		<path fill="#78BE20" d="M34.1,22.5c0.4,1.6,0,3.1-0.2,5c-0.2,1.6,0.3,3.2,1.8,3.6c1.2,0.4,4,0.3,5.9,2c0.6,0.6,0.8,0.7,0.9,1.6
			c0.1,0.5,0,1.2-0.1,1.6c-0.5,1.4-1,2.7-1.8,3.8c-1.3,1.5-2.7,2.9-4.5,3.5c-3.3,1.1-5.3-2.2-7.9-3.6c-1.1-0.6-2.5-1-3.6,0.1
			c-1.7,1.7-1.5,4.3-0.6,6.2c1.8,3.5,5.5,6.6,8.1,9.2c-4.6,1.2-9.3,2.4-13.9,1.1c-2.2-0.6-4.2-3.3-5.1-5.4
			c-1.6-3.4-2.6-11.5-10.7-17.2c4,0.5,5.7,0.9,8.3-0.9c0.6-0.4,0.7-1.1,0.7-1.8C11,28.5,8.7,27,7.2,25.1c1.1,0.4,2.2,0.7,3.4,0.8
			c1.7,0.2,3.3-0.2,4.7-1c4.7-2.8-0.7-9.3-0.7-9.3s5,3.6,8.1,3.1c1.1-0.2,1.8-0.6,2.3-1.5c1.4-2.3,2.6-4.7,3.6-7.1
			c-0.2,2.2-0.5,4.6,0.1,6.7c0.6,2,2.3,2.4,3.9,3.5C33.3,20.7,33.9,21.2,34.1,22.5"/>
		<path fill="#FFFFFF" d="M25.5,25.4c-0.8,1.1-0.6,2.8,0.8,2.9c0.9,0,1.9-0.4,2.2-1.3c0.3-0.9-0.1-1.7-0.8-2.3
			C27,24.3,26.1,24.6,25.5,25.4"/>
		<path fill="#004833" d="M7.3,27.3c1.1,0.6,2.3,1.5,3.3,2.5c1.1,1.1,2.5,3.8,0.7,5.9c-0.7,0.8-1.9,1.2-3,1.2
			c-1.7,0.1-3.8-0.5-5-1.4c0.3,0,4,0.7,5.8-0.2c0.6-0.3,1.2-1,0.8-2.6c-0.5-2.1-2.5-3.6-5.7-5.7c-0.4-0.2-0.6-0.7-0.8-1.2
			C3.3,25.6,5.3,26.1,7.3,27.3"/>
		<path fill="#004833" d="M10.8,27.8c1.1,1,2.7,1.2,3.9,0.4c1.3-0.9,1.3-3.2,1-4.5C15,20,13,16.8,10.3,15.3c1.3,2.9,2.9,5.9,3.5,9
			c0.1,0.7,0.2,1.5-0.1,2.1c-0.7,1.4-3.2,0.5-4.5-0.2C9.7,26.8,10.8,27.8,10.8,27.8"/>
		<path fill="#004833" d="M19.3,19c2.3-0.3,2.3-2.4,2.6-4.1c0.3-1.5,1-3,2-4.3c0.8-1,1.2-1.3,1.9-2.2C27.4,6.5,28.4,6,28.4,6
			s-3.3,5.3-4,7.9c-0.6,2.3,0.1,5.1-2.5,6.6c-2.2,1.2-4.4,0.2-5.9-1.1c-0.8-0.7-1.3-1.4-1.6-2.5C15.9,17.8,17.3,19.2,19.3,19"/>
		<path fill="#004833" d="M28.1,18.4c1,1,2.2,1.4,3.4,2.2c1.1,0.7,1.8,1.5,2.2,2.7c0.5,1.7-0.3,3.5-0.2,5.3c0.2,3,2.3,2.9,5,3
			c1.6,0.1,4.4,1.4,4.1,3.7c-0.1,1-0.3,1.6-0.9,2.3c-0.7,0.5-1.5,0.8-2.1,0.3c1.3-0.4,1.8-0.9,1.9-2.3c0.1-0.7-0.4-1.5-0.7-1.7
			c-0.5-0.5-1.3-1.2-3.3-1.1c-1.5,0-2.8,0.1-4.2-0.9c-0.7-0.5-1-0.9-1.4-1.7c-0.9-1.9,0.3-4.1,0-6c-0.1-1-1.2-2-2.1-2.6
			c-1.4-0.9-3-1.4-3.9-3.1c-1.3-2.4-0.2-5.4,1.4-7.8C27.4,13.2,26.2,16.3,28.1,18.4"/>
		<path fill="#004833" d="M29.1,27.6c0.9-1,0.4-2.4-0.8-2.9c-0.6-0.3-1.5-0.4-2.2-0.2c-0.2,0.1-0.8,0.2-1.1,0.7
			c0.3-0.1,0.8-0.2,1.3-0.3c0.7,0,0.8,0.3,0.8,0.3s-0.9,0.2-1.1,1c-0.2,0.6,0,1.3,0.5,1.6C27.2,28.6,28.4,28.4,29.1,27.6"/>
		<path fill="#004833" d="M16.7,27.1c0.9-1.3,1.9-2.5,3-3.5c-0.1,1.1-0.6,2.2-1.1,3.2c-2.5,5.2-4.6,8.8-5.4,15.7
			c-0.8,6.6,0.8,9.9,1.8,11.4c0.3,0.5,0.1,1.7-0.5,2.3C13.9,57,12.2,56,12.2,56s-0.3-0.8-0.6-1.6c-0.6-2.2-1-4.4-1.1-6.8
			C10.1,40.4,12.2,33.3,16.7,27.1"/>
		<path fill="#004833" d="M32.6,36.6c2.4,1.8,5,2.8,7.6,3.9c-0.3,1-0.6,1.1-1.3,1.8c-1.8-0.5-3.7-1.3-4.9-2.5c-1.7-1.5-3-2.8-3.6-5
			C31.3,35.2,31.8,36,32.6,36.6"/>
		<path fill="#004833" d="M27.1,38.4c2.6,0.4,3.5,2,5.3,3.6c1.4,1.2,2.9,2.1,4.9,1.7c-0.3,1.5-2.1,1.9-3.7,1.6
			c-2.7-0.4-3.2-2.5-5-4.4c-1.2-1.3-3.4-1.1-4.7,0.6c-1.7,2.1,0,5.7,1.4,7.4c1.5,1.8,2.8,3.1,4.3,4.5c0,0,2.1,2,3.2,3.5
			c-4.2-2.1-7-4-10-7.7c-1.4-1.8-1.7-3.3-1.8-5.1c0.1-1.7,0.2-2.9,1.4-4.3c1.2-1.5,2.9-1.8,4.9-1.5"/>
		<path fill="#FFFFFF" d="M38.2,35.1c-0.5,0.2-1,0.8-0.8,1.3c0.2,0.6,0.9,0.7,1.5,0.3c0.2-0.2,0.3-0.5,0.4-0.7c0-0.4-0.3-0.8-0.8-1
			C38.4,35,38.3,35.1,38.2,35.1"/>
		<path fill="#004833" d="M38.8,34.6c0.3,0,0.6,0.2,0.9,0.4c0.3,0.3,0.2,0.9-0.2,1.3c-0.5,0.4-1,0.5-1.5,0c-0.3-0.3-0.3-0.9,0-1.3
			C38.2,34.7,38.4,34.6,38.8,34.6"/>
		<path fill="#E30000" d="M131.5,40.4V48h-4V31.5c0,0,1.4-0.2,2.8,2c0.7-0.8,2.4-2,4.7-2c2.7,0,4.2,1.3,4.2,1.3s-0.6,0.8-1,1.8
			c-0.5,0.9-0.8,1.9-0.8,1.9s-1-0.9-2.2-0.9C133.8,35.6,131.5,36.7,131.5,40.4z"/>
	</g>
</g>
</svg>
