<?xml version="1.0" encoding="utf-8"?>
<!-- Generator: Adobe Illustrator 18.1.0, SVG Export Plug-In . SVG Version: 6.00 Build 0)  -->
<!DOCTYPE svg PUBLIC "-//W3C//DTD SVG 1.0//EN" "http://www.w3.org/TR/2001/REC-SVG-20010904/DTD/svg10.dtd">
<svg version="1.0" xmlns="http://www.w3.org/2000/svg" xmlns:xlink="http://www.w3.org/1999/xlink" x="0px" y="0px" width="74px"
	 height="45px" viewBox="0 0 74 45" enable-background="new 0 0 74 45" xml:space="preserve">
<g id="Layer_1">
</g>
<g id="Layer_2">
</g>
<g id="Layer_3">
	<g>
		<g>
			<g>
				<g>
					<circle fill="#CC0001" cx="22.1" cy="22.1" r="22.1"/>
					<g>
						<path fill="#FF9900" d="M51.9,0C46.1,0,40.9,2.2,37,5.7c-0.8,0.7-1.5,1.5-2.2,2.3h4.5c0.6,0.7,1.2,1.5,1.7,2.3h-7.8
							c-0.5,0.8-0.9,1.5-1.3,2.3h10.4c0.4,0.8,0.7,1.5,0.9,2.3H30.9c-0.3,0.8-0.5,1.5-0.6,2.3h13.6c0.3,1.5,0.5,3.1,0.5,4.7
							c0,2.5-0.4,4.8-1.1,7H30.9c0.3,0.8,0.6,1.6,0.9,2.3h10.4c-0.4,0.8-0.8,1.6-1.3,2.3h-7.8c0.5,0.8,1.1,1.6,1.7,2.3h4.5
							c-0.7,0.8-1.4,1.6-2.2,2.3c3.9,3.6,9.1,5.7,14.9,5.7c12.2,0,22.1-9.9,22.1-22.1C74,9.9,64.1,0,51.9,0z"/>
					</g>
				</g>
				<path fill="#FCB131" d="M71,34.5c0-0.4,0.3-0.7,0.7-0.7c0.4,0,0.7,0.3,0.7,0.7c0,0.4-0.3,0.7-0.7,0.7C71.4,35.2,71,34.9,71,34.5
					z M71.8,35c0.3,0,0.5-0.2,0.5-0.5c0-0.3-0.2-0.5-0.5-0.5c-0.3,0-0.5,0.2-0.5,0.5C71.2,34.8,71.5,35,71.8,35z M71.7,34.8h-0.1
					v-0.6h0.3c0.1,0,0.1,0,0.2,0c0.1,0,0.1,0.1,0.1,0.2c0,0.1,0,0.1-0.1,0.2l0.1,0.3h-0.2l-0.1-0.2h-0.1V34.8z M71.7,34.4L71.7,34.4
					c0.1,0,0.1,0,0.2,0c0,0,0,0,0-0.1c0,0,0-0.1,0-0.1c0,0-0.1,0-0.1,0h-0.1V34.4z"/>
			</g>
			<g>
				<g>
					<path fill="#270D61" d="M17,24.6c-0.3,0-0.4,0-0.5,0c-1.4,0-2.1,0.5-2.1,1.4c0,0.6,0.3,0.9,0.9,0.9
						C16.2,26.8,16.9,25.9,17,24.6z M18.7,28.6c-0.3,0-2,0-2,0l0-0.9c-0.6,0.7-1.4,1.1-2.5,1.1c-1.3,0-2.2-1-2.2-2.5
						c0-2.2,1.6-3.5,4.2-3.5c0.3,0,0.6,0,1,0.1c0.1-0.3,0.1-0.4,0.1-0.6c0-0.6-0.4-0.8-1.5-0.8c-1.2,0-2.1,0.3-2.5,0.4
						c0-0.2,0.3-2.1,0.3-2.1c1.2-0.4,2-0.5,2.9-0.5c2.1,0,3.2,0.9,3.2,2.7c0,0.5-0.1,1-0.2,1.8C19.2,25.1,18.8,27.9,18.7,28.6z"/>
					<polygon fill="#270D61" points="11.1,28.6 8.6,28.6 10,20 7,28.6 5.3,28.6 5.1,20 3.7,28.6 1.4,28.6 3.3,17.4 6.7,17.4 7,23.7 
						9.1,17.4 12.9,17.4 					"/>
					<path fill="#270D61" d="M54.8,24.6c-0.3,0-0.4,0-0.5,0c-1.4,0-2.1,0.5-2.1,1.4c0,0.6,0.3,0.9,0.9,0.9
						C54.1,26.8,54.8,25.9,54.8,24.6z M56.6,28.6c-0.3,0-2,0-2,0l0-0.9c-0.6,0.7-1.4,1.1-2.5,1.1c-1.3,0-2.2-1-2.2-2.5
						c0-2.2,1.6-3.5,4.2-3.5c0.3,0,0.6,0,1,0.1c0.1-0.3,0.1-0.4,0.1-0.6c0-0.6-0.4-0.8-1.5-0.8c-1.2,0-2.1,0.3-2.5,0.4
						c0-0.2,0.3-2.1,0.3-2.1c1.2-0.4,2-0.5,2.9-0.5c2.1,0,3.2,0.9,3.2,2.7c0,0.5-0.1,1-0.2,1.8C57.1,25.1,56.6,27.9,56.6,28.6z"/>
					<path fill="#270D61" d="M29.4,28.5c-0.7,0.2-1.2,0.3-1.7,0.3c-1.2,0-1.9-0.7-1.9-2c0-0.4,0.2-1.5,0.3-2.4c0.1-0.9,1-6.2,1-6.2
						h2.4l-0.3,1.4h1.4l-0.3,2.2h-1.4c-0.3,1.7-0.7,3.9-0.7,4.2c0,0.5,0.3,0.7,0.8,0.7c0.3,0,0.5,0,0.6-0.1L29.4,28.5z"/>
					<path fill="#270D61" d="M36.7,28.4c-0.8,0.3-1.6,0.4-2.5,0.4c-2.7,0-4.1-1.4-4.1-4.1c0-3.1,1.8-5.4,4.2-5.4
						c2,0,3.2,1.3,3.2,3.3c0,0.7-0.1,1.3-0.3,2.2h-4.8c-0.2,1.3,0.7,1.9,2.1,1.9c0.9,0,1.6-0.2,2.5-0.6L36.7,28.4z M35.4,23
						c0-0.2,0.3-1.6-1.1-1.6c-0.8,0-1.3,0.6-1.5,1.6H35.4z"/>
					<path fill="#270D61" d="M20.2,22.4c0,1.2,0.6,2,1.8,2.5c1,0.5,1.1,0.6,1.1,1c0,0.6-0.4,0.8-1.4,0.8c-0.7,0-1.4-0.1-2.2-0.4
						c0,0-0.3,2-0.3,2.1c0.5,0.1,1,0.2,2.5,0.3c2.5,0,3.7-1,3.7-3.1c0-1.3-0.5-2-1.7-2.5c-1-0.5-1.1-0.6-1.1-1
						c0-0.5,0.4-0.7,1.2-0.7c0.5,0,1.1,0.1,1.7,0.1l0.3-2.1c-0.6-0.1-1.6-0.2-2.1-0.2C21.1,19.3,20.2,20.7,20.2,22.4z"/>
					<path fill="#270D61" d="M48.4,19.5c0.7,0,1.3,0.2,2.1,0.6l0.4-2.4c-0.4-0.1-1.6-1-2.6-1c-1.6,0-3,0.8-3.9,2.1
						c-1.4-0.5-2,0.5-2.7,1.4l-0.6,0.1c0-0.3,0.1-0.6,0.1-0.9H39c-0.3,2.8-0.8,5.7-1.3,8.5l-0.1,0.6H40c0.4-2.6,0.6-4.3,0.8-5.4
						l0.9-0.5c0.1-0.5,0.6-0.7,1.4-0.7c-0.1,0.6-0.2,1.2-0.2,1.9c0,3,1.6,4.8,4.2,4.8c0.7,0,1.2-0.1,2.1-0.3l0.4-2.6
						c-0.8,0.4-1.4,0.6-2,0.6c-1.4,0-2.2-1-2.2-2.7C45.4,21.3,46.6,19.5,48.4,19.5z"/>
					<path fill="#270D61" d="M68.8,17.4l-0.5,3.2c-0.7-0.9-1.4-1.5-2.3-1.5c-1.2,0-2.3,0.9-3,2.3c-1-0.2-2-0.6-2-0.6l0,0
						c0.1-0.8,0.1-1.2,0.1-1.4h-2.2c-0.3,2.8-0.8,5.7-1.3,8.5l-0.1,0.6h2.4c0.3-2.1,0.6-3.9,0.8-5.2c0.8-0.7,1.2-1.4,2.1-1.3
						C62.2,22.9,62,24,62,25c0,2.3,1.2,3.8,2.9,3.8c0.9,0,1.6-0.3,2.2-1L67,28.6h2.3l1.8-11.2H68.8z M65.8,26.5
						c-0.8,0-1.2-0.6-1.2-1.8c0-1.8,0.8-3.1,1.9-3.1c0.8,0,1.3,0.6,1.3,1.8C67.7,25.3,66.9,26.5,65.8,26.5z"/>
				</g>
				<g>
					<polygon fill="#FFFFFF" points="11.7,28 9.3,28 10.7,19.3 7.6,28 6,28 5.8,19.4 4.4,28 2.1,28 4,16.7 7.4,16.7 7.5,23.7 
						9.9,16.7 13.6,16.7 					"/>
					<path fill="#FFFFFF" d="M17.7,23.9c-0.3,0-0.4,0-0.5,0c-1.4,0-2.1,0.5-2.1,1.4c0,0.6,0.3,0.9,0.9,0.9
						C16.9,26.2,17.6,25.2,17.7,23.9z M19.4,28c-0.3,0-2,0-2,0l0-0.9c-0.6,0.7-1.4,1.1-2.5,1.1c-1.3,0-2.2-1-2.2-2.5
						c0-2.2,1.6-3.5,4.2-3.5c0.3,0,0.6,0,1,0.1c0.1-0.3,0.1-0.4,0.1-0.6c0-0.6-0.4-0.8-1.5-0.8c-1.2,0-2.1,0.3-2.5,0.4
						c0-0.2,0.3-2.1,0.3-2.1c1.2-0.4,2-0.5,2.9-0.5c2.1,0,3.2,0.9,3.2,2.7c0,0.5-0.1,1-0.2,1.8C19.9,24.4,19.5,27.3,19.4,28z"/>
					<path fill="#FFFFFF" d="M51.6,17l-0.4,2.4c-0.9-0.4-1.5-0.6-2.1-0.6c-1.8,0-3.1,1.7-3.1,4.2c0,1.7,0.8,2.7,2.2,2.7
						c0.6,0,1.2-0.2,2-0.6l-0.4,2.6c-0.9,0.2-1.5,0.3-2.1,0.3c-2.6,0-4.2-1.9-4.2-4.8c0-4,2.2-6.8,5.4-6.8
						C50.1,16.5,51.3,16.9,51.6,17z"/>
					<path fill="#FFFFFF" d="M55.5,23.9c-0.3,0-0.4,0-0.5,0c-1.4,0-2.1,0.5-2.1,1.4c0,0.6,0.3,0.9,0.9,0.9
						C54.8,26.2,55.5,25.2,55.5,23.9z M57.3,28c-0.3,0-2,0-2,0l0-0.9c-0.6,0.7-1.4,1.1-2.5,1.1c-1.3,0-2.2-1-2.2-2.5
						c0-2.2,1.6-3.5,4.2-3.5c0.3,0,0.6,0,1,0.1c0.1-0.3,0.1-0.4,0.1-0.6c0-0.6-0.4-0.8-1.5-0.8c-1.2,0-2.1,0.3-2.5,0.4
						c0-0.2,0.3-2.1,0.3-2.1c1.2-0.4,2-0.5,2.9-0.5c2.1,0,3.2,0.9,3.2,2.7c0,0.5-0.1,1-0.2,1.8C57.8,24.4,57.3,27.3,57.3,28z"/>
					<path fill="#FFFFFF" d="M30.1,27.8c-0.7,0.2-1.2,0.3-1.7,0.3c-1.2,0-1.9-0.7-1.9-2c0-0.4,0.2-1.5,0.3-2.4c0.1-0.9,1-6.2,1-6.2
						h2.4l-0.3,1.4h1.2L30.8,21h-1.2c-0.3,1.7-0.7,3.9-0.7,4.2c0,0.5,0.3,0.7,0.8,0.7c0.3,0,0.5,0,0.6-0.1L30.1,27.8z"/>
					<path fill="#FFFFFF" d="M37.4,27.8c-0.8,0.3-1.6,0.4-2.5,0.4c-2.7,0-4.1-1.4-4.1-4.1c0-3.1,1.8-5.4,4.2-5.4
						c2,0,3.2,1.3,3.2,3.3c0,0.7-0.1,1.3-0.3,2.2h-4.8c-0.2,1.3,0.7,1.9,2.1,1.9c0.9,0,1.6-0.2,2.5-0.6L37.4,27.8z M36.1,22.3
						c0-0.2,0.3-1.6-1.1-1.6c-0.8,0-1.3,0.6-1.5,1.6H36.1z"/>
					<path fill="#FFFFFF" d="M20.9,21.7c0,1.2,0.6,2,1.8,2.6c1,0.5,1.1,0.6,1.1,1c0,0.6-0.4,0.8-1.4,0.8c-0.7,0-1.4-0.1-2.2-0.4
						c0,0-0.3,2-0.3,2.1c0.5,0.1,1,0.2,2.5,0.3c2.5,0,3.7-1,3.7-3.1c0-1.3-0.5-2-1.7-2.5c-1-0.5-1.1-0.6-1.1-1
						c0-0.5,0.4-0.7,1.2-0.7c0.5,0,1.1,0.1,1.7,0.1l0.3-2.1c-0.6-0.1-1.6-0.2-2.1-0.2C21.8,18.6,20.8,20,20.9,21.7z"/>
					<path fill="#FFFFFF" d="M70,28h-2.3l0.1-0.9c-0.7,0.7-1.3,1-2.2,1c-1.7,0-2.9-1.5-2.9-3.8c0-3,1.8-5.6,3.9-5.6
						c0.9,0,1.6,0.4,2.3,1.2l0.5-3.2h2.4L70,28z M66.4,25.9c1.1,0,1.9-1.3,1.9-3.1c0-1.2-0.4-1.8-1.3-1.8c-1.1,0-1.9,1.3-1.9,3.1
						C65.2,25.3,65.6,25.9,66.4,25.9z"/>
					<path fill="#FFFFFF" d="M59.4,18.8c-0.3,2.8-0.8,5.7-1.3,8.5L58.1,28h2.4c0.9-5.6,1.1-6.7,2.4-6.5c0.2-1.1,0.6-2.1,0.9-2.6
						c-1-0.2-1.6,0.4-2.3,1.4c0.1-0.5,0.2-0.9,0.1-1.4H59.4z"/>
					<path fill="#FFFFFF" d="M39.7,18.8c-0.3,2.8-0.8,5.7-1.3,8.5L38.3,28h2.4c0.9-5.6,1.1-6.7,2.4-6.5c0.2-1.1,0.6-2.1,0.9-2.6
						c-1-0.2-1.6,0.4-2.3,1.4c0.1-0.5,0.2-0.9,0.1-1.4H39.7z"/>
					<g>
						<path fill="#FFFFFF" d="M71,27.3c0-0.4,0.3-0.7,0.7-0.7c0.4,0,0.7,0.3,0.7,0.7c0,0.4-0.3,0.7-0.7,0.7C71.4,28,71,27.6,71,27.3
							z M71.8,27.8c0.3,0,0.5-0.2,0.5-0.5c0-0.3-0.2-0.5-0.5-0.5c-0.3,0-0.5,0.2-0.5,0.5C71.2,27.5,71.5,27.8,71.8,27.8z M71.7,27.6
							h-0.1v-0.6h0.3c0.1,0,0.1,0,0.2,0c0.1,0,0.1,0.1,0.1,0.2c0,0.1,0,0.1-0.1,0.2l0.1,0.3h-0.2l-0.1-0.2h-0.1V27.6z M71.7,27.2
							L71.7,27.2c0.1,0,0.1,0,0.2,0c0,0,0,0,0-0.1c0,0,0-0.1,0-0.1c0,0-0.1,0-0.1,0h-0.1V27.2z"/>
					</g>
				</g>
			</g>
		</g>
	</g>
</g>
</svg>
