<?xml version="1.0" encoding="utf-8"?>
<!-- Generator: Adobe Illustrator 18.1.0, SVG Export Plug-In . SVG Version: 6.00 Build 0)  -->
<!DOCTYPE svg PUBLIC "-//W3C//DTD SVG 1.1//EN" "http://www.w3.org/Graphics/SVG/1.1/DTD/svg11.dtd">
<svg version="1.1" id="US_UK_Download_on_the" xmlns="http://www.w3.org/2000/svg" xmlns:xlink="http://www.w3.org/1999/xlink"
	 x="0px" y="0px" width="170px" height="58px" viewBox="0 -77.3 170 58" enable-background="new 0 -77.3 170 58"
	 xml:space="preserve">
<g>
	<g>
		<path fill="#010101" d="M9.3-19.9c-4.8,0-8.8-3.9-8.8-8.7V-68c0-4.8,3.9-8.7,8.8-8.7H161c4.7,0,8.4,3.8,8.4,8.7v40.3
			c0,4.6-3.4,7.8-8.4,7.8H9.3z"/>
		<path fill="#FFFFFF" d="M161-76.2c4.4,0,7.8,3.5,7.8,8.1v40.3c0,4.4-3.1,7.2-7.8,7.2H9.3c-4.5,0-8.2-3.7-8.2-8.1V-68
			c0-4.5,3.7-8.1,8.2-8.1H161 M161-77.3H9.3C4.2-77.3,0-73.2,0-68v39.4c0,5.1,4.2,9.3,9.3,9.3H161c5.2,0,9-3.2,9-8.3V-68
			C170-73.2,166.2-77.3,161-77.3L161-77.3z"/>
	</g>
	<g>
		<g>
			<path fill="#FFFFFF" d="M116.2-35.7l-1.3,1.2c-0.3,0.2-0.6,0.3-0.9,0.5c-0.9,0.4-1.8,0.5-2.6,0.5c-0.9,0-2.2-0.1-3.6-1
				c-1.9-1.3-2.7-3.6-2.7-5.6c0-4.1,3.4-6.1,6.1-6.1c1,0,1.9,0.2,2.7,0.7c1.3,0.9,1.7,2,1.9,2.6l-6.3,2.5l-2.1,0.2
				c0.7,3.4,3,5.3,5.5,5.3C114.3-34.9,115.3-35.3,116.2-35.7C116.1-35.7,116.3-35.8,116.2-35.7z M112.4-42.4
				c0.5-0.2,0.8-0.3,0.8-0.7c0-1.1-1.2-2.3-2.6-2.3c-1.1,0-3.1,0.8-3.1,3.7c0,0.4,0.1,0.9,0.1,1.4L112.4-42.4z"/>
			<path fill="#FFFFFF" d="M103.1-35.9c0,1,0.2,1.2,1.1,1.3c0.5,0.1,0.9,0.1,1.4,0.1l-1,0.6h-4.7c0.6-0.8,0.7-0.9,0.7-1.4v-0.6
				l0-15.8h-2.1l2-1h3.8c-0.8,0.5-1.1,0.8-1.2,1.7L103.1-35.9z"/>
			<path fill="#FFFFFF" d="M95.8-45c0.6,0.5,1.9,1.6,1.9,3.6c0,2-1.1,2.9-2.2,3.8c-0.3,0.3-0.7,0.7-0.7,1.3c0,0.6,0.4,0.9,0.7,1.1
				l1,0.7c1.2,1,2.2,1.9,2.2,3.7c0,2.5-2.4,5-7,5c-3.9,0-5.7-1.8-5.7-3.8c0-1,0.5-2.3,2.1-3.2c1.7-1,3.9-1.1,5.1-1.2
				c-0.4-0.5-0.8-1-0.8-1.8c0-0.5,0.1-0.7,0.3-1c-0.3,0-0.6,0.1-0.9,0.1c-2.8,0-4.4-2.1-4.4-4.2c0-1.2,0.6-2.6,1.7-3.6
				c1.5-1.2,3.3-1.5,4.8-1.5h5.5l-1.7,1L95.8-45L95.8-45z M93.9-33.2c-0.2,0-0.4,0-0.6,0c-0.2,0-1.7,0.1-2.8,0.4
				c-0.6,0.2-2.3,0.9-2.3,2.7c0,1.9,1.8,3.2,4.7,3.2c2.6,0,3.9-1.2,3.9-2.9C96.8-31,95.9-31.8,93.9-33.2z M94.6-38.2
				c0.6-0.6,0.7-1.5,0.7-1.9c0-1.9-1.1-4.9-3.4-4.9c-0.7,0-1.4,0.3-1.9,0.9c-0.4,0.6-0.6,1.3-0.6,2c0,1.8,1,4.7,3.3,4.7
				C93.5-37.5,94.2-37.8,94.6-38.2z"/>
			<path fill="#FFFFFF" d="M79.2-33.6c-4.2,0-6.5-3.3-6.5-6.3c0-3.5,2.9-6.5,6.9-6.5c3.9,0,6.4,3.1,6.4,6.3
				C86-36.9,83.6-33.6,79.2-33.6z M82.6-35.7c0.6-0.9,0.8-1.9,0.8-2.9c0-2.3-1.1-6.8-4.4-6.8c-0.9,0-1.8,0.3-2.4,0.9
				c-1,0.9-1.2,2.1-1.2,3.2c0,2.6,1.3,7,4.5,7C80.9-34.4,81.9-34.9,82.6-35.7z"/>
			<path fill="#FFFFFF" d="M65-33.6c-4.2,0-6.5-3.3-6.5-6.3c0-3.5,2.9-6.5,6.9-6.5c3.9,0,6.4,3.1,6.4,6.3
				C71.8-36.9,69.4-33.6,65-33.6z M68.4-35.7c0.6-0.9,0.8-1.9,0.8-2.9c0-2.3-1.1-6.8-4.4-6.8c-0.9,0-1.8,0.3-2.4,0.9
				c-1,0.9-1.2,2.1-1.2,3.2c0,2.6,1.3,7,4.5,7C66.7-34.4,67.7-34.9,68.4-35.7z"/>
			<path fill="#FFFFFF" d="M56.8-34.5l-3.6,0.8c-1.4,0.2-2.8,0.4-4.1,0.4c-6.9,0-9.5-5.1-9.5-9c0-4.8,3.7-9.3,10.1-9.3
				c1.3,0,2.6,0.2,3.8,0.5c1.9,0.5,2.8,1.2,3.3,1.6l-2.1,2l-0.9,0.2l0.6-1c-0.8-0.8-2.4-2.3-5.4-2.3c-3.9,0-6.9,3-6.9,7.4
				c0,4.7,3.4,9.1,8.9,9.1c1.6,0,2.4-0.3,3.2-0.6v-4l-3.8,0.2l2-1.1h5.3l-0.6,0.6c-0.2,0.1-0.2,0.2-0.2,0.4c0,0.2-0.1,0.9-0.1,1.2
				L56.8-34.5L56.8-34.5L56.8-34.5z"/>
		</g>
		<g>
			<path fill="#FFFFFF" d="M123.9-35.6v6.8h-1.3V-46h1.3v2c0.9-1.3,2.5-2.3,4.4-2.3c3.3,0,5.6,2.5,5.6,6.5c0,4-2.3,6.6-5.6,6.6
				C126.5-33.3,124.9-34.2,123.9-35.6z M132.4-39.8c0-3-1.6-5.3-4.4-5.3c-1.7,0-3.4,1.4-4.1,2.5v5.5c0.7,1.2,2.4,2.6,4.1,2.6
				C130.8-34.5,132.4-36.8,132.4-39.8z"/>
			<path fill="#FFFFFF" d="M135.7-33.6v-17.2h1.4v17.2H135.7z"/>
			<path fill="#FFFFFF" d="M152.2-29.9c0.3,0.1,0.8,0.2,1.1,0.2c0.8,0,1.4-0.3,1.9-1.5l1-2.2L150.8-46h1.5l4.6,10.9l4.5-10.9h1.5
				l-6.5,15.2c-0.7,1.6-1.7,2.3-3.2,2.3c-0.4,0-1-0.1-1.3-0.2L152.2-29.9z"/>
			<path fill="#FFFFFF" d="M148.2-33.6c-0.1-0.4-0.2-0.8-0.2-1.1c0-0.3-0.1-0.6-0.1-1c-0.5,0.7-1.1,1.2-2,1.7
				c-0.8,0.4-1.6,0.7-2.7,0.7c-1.3,0-2.3-0.3-3.1-1c-0.7-0.7-1.1-1.5-1.1-2.7c0-1.1,0.5-2,1.6-2.7c1.1-0.7,2.4-1,4.1-1h3.1v-1.6
				c0-0.9-0.3-1.6-0.9-2.1c-0.6-0.5-1.5-0.8-2.6-0.8c-1,0-1.8,0.2-2.5,0.7c-0.6,0.5-0.9,1-0.9,1.7h-1.4l0-0.1
				c-0.1-0.9,0.4-1.8,1.3-2.5c0.9-0.7,2.1-1.1,3.6-1.1c1.5,0,2.7,0.4,3.6,1.1c0.9,0.7,1.3,1.7,1.3,3v6.2c0,0.4,0,0.9,0.1,1.3
				c0.1,0.4,0.1,0.8,0.3,1.2L148.2-33.6L148.2-33.6z M143.4-34.6c1.1,0,2-0.3,2.8-0.8c0.8-0.5,1.4-1.2,1.7-1.9v-2.4h-3.2
				c-1.2,0-2.2,0.3-3,0.8c-0.8,0.5-1.2,1.2-1.2,1.9c0,0.7,0.3,1.3,0.8,1.7C141.9-34.8,142.6-34.6,143.4-34.6z"/>
		</g>
	</g>
	<g>
		<g>
			<path fill="#FFFFFF" d="M39.6-64.9c0-2.6,2-4.4,4.4-4.4c1.6,0,2.7,0.8,3.4,1.7l-1.2,0.7C45.8-67.5,45-68,44.1-68
				c-1.7,0-2.9,1.3-2.9,3c0,1.8,1.2,3,2.9,3c0.9,0,1.6-0.4,2-0.8V-64h-2.5v-1.3h4v3.1c-0.8,0.9-2,1.5-3.5,1.5
				C41.6-60.6,39.6-62.3,39.6-64.9z"/>
			<path fill="#FFFFFF" d="M49.4-60.7v-8.4h5.8v1.3h-4.3v2.2h4.2v1.3h-4.2v2.3h4.3v1.3L49.4-60.7L49.4-60.7z"/>
			<path fill="#FFFFFF" d="M59.2-60.7v-7.1h-2.6v-1.3h6.6v1.3h-2.6v7.1H59.2z"/>
			<path fill="#FFFFFF" d="M68.4-60.7v-8.4h1.5v8.4H68.4z"/>
			<path fill="#FFFFFF" d="M74-60.7v-7.1h-2.6v-1.3h6.6v1.3h-2.6v7.1H74z"/>
			<path fill="#FFFFFF" d="M82.9-64.9c0-2.5,1.8-4.4,4.3-4.4c2.5,0,4.3,1.8,4.3,4.4s-1.8,4.4-4.3,4.4C84.6-60.6,82.9-62.4,82.9-64.9
				z M90-64.9c0-1.7-1.1-3-2.8-3c-1.7,0-2.8,1.3-2.8,3c0,1.7,1.1,3,2.8,3C88.9-61.9,90-63.2,90-64.9z"/>
			<path fill="#FFFFFF" d="M99.1-60.7l-4.4-6v6h-1.5v-8.4h1.5l4.3,5.8v-5.8h1.5v8.4H99.1z"/>
		</g>
	</g>
	<g>
		<polygon fill="none" points="21.9,-40.5 26.3,-44.8 26.3,-44.8 21.9,-40.5 8.1,-54.3 8.1,-54.3 21.9,-40.5 8.1,-26.7 8.1,-26.7 
			21.9,-40.5 26.3,-36.2 26.3,-36.2 		"/>
		
			<linearGradient id="SVGID_1_" gradientUnits="userSpaceOnUse" x1="267.472" y1="-974.5134" x2="249.2768" y2="-985.9006" gradientTransform="matrix(0.7071 0.7071 -0.7071 0.7071 -859.1816 458.3164)">
			<stop  offset="0" style="stop-color:#D7E69D"/>
			<stop  offset="0.4456" style="stop-color:#94C4AA"/>
			<stop  offset="1" style="stop-color:#01A4B6"/>
		</linearGradient>
		<path fill="url(#SVGID_1_)" d="M26.3-44.8L9.4-54.1c-0.5-0.3-0.9-0.3-1.3-0.2l13.8,13.8L26.3-44.8z"/>
		
			<linearGradient id="SVGID_2_" gradientUnits="userSpaceOnUse" x1="256.9055" y1="-984.2672" x2="280.5122" y2="-978.096" gradientTransform="matrix(0.7071 0.7071 -0.7071 0.7071 -859.1816 458.3164)">
			<stop  offset="0" style="stop-color:#ED277B"/>
			<stop  offset="1.920000e-02" style="stop-color:#EE2F7C"/>
			<stop  offset="0.7039" style="stop-color:#F7BD81"/>
			<stop  offset="1" style="stop-color:#FEEB74"/>
		</linearGradient>
		<path fill="url(#SVGID_2_)" d="M26.3-36.2l5.8-3.2c1.2-0.6,1.2-1.7,0-2.3l-5.8-3.2l-4.3,4.3L26.3-36.2z"/>
		
			<linearGradient id="SVGID_3_" gradientUnits="userSpaceOnUse" x1="270.0464" y1="-965.88" x2="244.4824" y2="-980.9203" gradientTransform="matrix(0.7071 0.7071 -0.7071 0.7071 -859.1816 458.3164)">
			<stop  offset="0" style="stop-color:#89CFBD"/>
			<stop  offset="9.070000e-02" style="stop-color:#7DBEBB"/>
			<stop  offset="0.5396" style="stop-color:#457CAC"/>
			<stop  offset="0.8523" style="stop-color:#1C5AA2"/>
			<stop  offset="1" style="stop-color:#084D9F"/>
		</linearGradient>
		<path fill="url(#SVGID_3_)" d="M8.1-54.3c-0.5,0.2-0.8,0.7-0.8,1.5l0,24.7c0,0.8,0.3,1.3,0.8,1.5l13.8-13.8L8.1-54.3z"/>
		
			<linearGradient id="SVGID_4_" gradientUnits="userSpaceOnUse" x1="279.3668" y1="-977.8632" x2="263.5708" y2="-957.0527" gradientTransform="matrix(0.7071 0.7071 -0.7071 0.7071 -859.1816 458.3164)">
			<stop  offset="0" style="stop-color:#F04A2B"/>
			<stop  offset="0.4704" style="stop-color:#B54F6B"/>
			<stop  offset="0.8353" style="stop-color:#8B5191"/>
			<stop  offset="1" style="stop-color:#7851A1"/>
		</linearGradient>
		<path fill="url(#SVGID_4_)" d="M8.1-26.7c0.4,0.1,0.8,0.1,1.3-0.2l16.9-9.3l-4.4-4.3L8.1-26.7z"/>
	</g>
</g>
</svg>
