<?xml version="1.0" encoding="utf-8"?>
<!-- Generator: Adobe Illustrator 18.1.0, SVG Export Plug-In . SVG Version: 6.00 Build 0)  -->
<!DOCTYPE svg PUBLIC "-//W3C//DTD SVG 1.1//EN" "http://www.w3.org/Graphics/SVG/1.1/DTD/svg11.dtd">
<svg version="1.1" id="US_UK_Download_on_the" xmlns="http://www.w3.org/2000/svg" xmlns:xlink="http://www.w3.org/1999/xlink"
	 x="0px" y="0px" width="170px" height="58px" viewBox="0 0 170 58" enable-background="new 0 0 170 58" xml:space="preserve">
<g>
	<path d="M170,53.2c0,2.7-2.2,4.8-4.9,4.8H4.9C2.2,58,0,55.8,0,53.2V4.8C0,2.2,2.2,0,4.9,0h160.2c2.7,0,4.9,2.2,4.9,4.8L170,53.2
		L170,53.2z"/>
	<g>
		<g>
			<path fill="#FFFFFF" d="M37.9,28.9c0-4.1,3.3-6,3.5-6.1c-1.9-2.8-4.9-3.2-5.9-3.2c-2.5-0.3-4.9,1.5-6.1,1.5
				c-1.3,0-3.2-1.5-5.3-1.4c-2.7,0-5.2,1.6-6.6,4c-2.9,4.9-0.7,12.2,2,16.2c1.4,2,3,4.1,5.1,4.1c2-0.1,2.8-1.3,5.3-1.3
				c2.4,0,3.2,1.3,5.3,1.3c2.2,0,3.6-2,4.9-3.9c1.6-2.2,2.2-4.4,2.2-4.6C42.2,35.4,38,33.8,37.9,28.9z"/>
			<path fill="#FFFFFF" d="M33.9,17c1.1-1.4,1.9-3.2,1.6-5.1c-1.6,0.1-3.6,1.1-4.7,2.4c-1,1.2-1.9,3.1-1.7,5
				C30.9,19.4,32.8,18.3,33.9,17z"/>
		</g>
	</g>
	<g>
		<path fill="#FFFFFF" d="M67.6,43.7h-2.9l-1.6-4.9h-5.4l-1.5,4.9h-2.8l5.4-16.8h3.3L67.6,43.7z M62.7,36.7l-1.4-4.4
			c-0.1-0.4-0.4-1.5-0.8-3.2h-0.1c-0.2,0.7-0.4,1.8-0.8,3.2l-1.4,4.4H62.7z"/>
		<path fill="#FFFFFF" d="M81.4,37.5c0,2.1-0.6,3.7-1.7,4.9c-1,1.1-2.2,1.6-3.7,1.6c-1.6,0-2.7-0.6-3.4-1.7h-0.1v6.4h-2.7v-13
			c0-1.3,0-2.6-0.1-4h2.4l0.1,1.9h0.1c0.9-1.4,2.3-2.2,4.1-2.2c1.4,0,2.6,0.6,3.6,1.7C81,34.2,81.4,35.6,81.4,37.5z M78.7,37.6
			c0-1.2-0.3-2.1-0.8-2.9c-0.6-0.8-1.4-1.2-2.3-1.2c-0.7,0-1.3,0.2-1.8,0.7c-0.5,0.4-0.9,1-1.1,1.7c-0.1,0.3-0.1,0.6-0.1,0.8v2
			c0,0.9,0.3,1.6,0.8,2.2c0.5,0.6,1.2,0.9,2.1,0.9c1,0,1.8-0.4,2.4-1.2C78.4,39.9,78.7,38.9,78.7,37.6z"/>
		<path fill="#FFFFFF" d="M95.3,37.5c0,2.1-0.6,3.7-1.7,4.9c-1,1.1-2.2,1.6-3.7,1.6c-1.6,0-2.7-0.6-3.4-1.7h-0.1v6.4h-2.7v-13
			c0-1.3,0-2.6-0.1-4h2.4l0.1,1.9h0.1c0.9-1.4,2.3-2.2,4.1-2.2c1.4,0,2.6,0.6,3.6,1.7C94.8,34.2,95.3,35.6,95.3,37.5z M92.6,37.6
			c0-1.2-0.3-2.1-0.8-2.9c-0.6-0.8-1.4-1.2-2.3-1.2c-0.7,0-1.3,0.2-1.8,0.7c-0.5,0.4-0.9,1-1.1,1.7c-0.1,0.3-0.1,0.6-0.1,0.8v2
			c0,0.9,0.3,1.6,0.8,2.2c0.5,0.6,1.2,0.9,2.1,0.9c1,0,1.8-0.4,2.4-1.2C92.3,39.9,92.6,38.9,92.6,37.6z"/>
		<path fill="#FFFFFF" d="M110.9,39c0,1.4-0.5,2.6-1.5,3.5c-1.1,1-2.6,1.5-4.6,1.5c-1.8,0-3.2-0.3-4.3-1l0.6-2.2
			c1.2,0.7,2.5,1.1,3.9,1.1c1,0,1.8-0.2,2.4-0.7c0.6-0.5,0.8-1.1,0.8-1.8c0-0.7-0.2-1.3-0.7-1.7c-0.5-0.5-1.2-0.9-2.3-1.3
			c-2.9-1.1-4.4-2.7-4.4-4.8c0-1.4,0.5-2.5,1.5-3.4c1-0.9,2.4-1.3,4.1-1.3c1.5,0,2.8,0.3,3.8,0.8l-0.7,2.2c-0.9-0.5-2-0.8-3.2-0.8
			c-0.9,0-1.7,0.2-2.2,0.7c-0.4,0.4-0.7,0.9-0.7,1.5c0,0.7,0.3,1.2,0.8,1.6c0.4,0.4,1.3,0.8,2.4,1.3c1.4,0.6,2.5,1.3,3.2,2
			C110.5,36.8,110.9,37.8,110.9,39z"/>
		<path fill="#FFFFFF" d="M119.7,33.6h-3v5.9c0,1.5,0.5,2.2,1.6,2.2c0.5,0,0.9,0,1.2-0.1l0.1,2c-0.5,0.2-1.2,0.3-2.1,0.3
			c-1.1,0-1.9-0.3-2.5-1c-0.6-0.6-0.9-1.7-0.9-3.3v-6.1h-1.8v-2h1.8v-2.2l2.6-0.8v3h3L119.7,33.6z"/>
		<path fill="#FFFFFF" d="M133.1,37.5c0,1.9-0.5,3.4-1.6,4.6c-1.1,1.2-2.6,1.8-4.4,1.8c-1.8,0-3.2-0.6-4.2-1.8
			c-1.1-1.2-1.6-2.7-1.6-4.5c0-1.9,0.5-3.4,1.6-4.6c1.1-1.2,2.5-1.8,4.4-1.8c1.8,0,3.2,0.6,4.3,1.8
			C132.6,34.2,133.1,35.7,133.1,37.5z M130.3,37.6c0-1.1-0.2-2.1-0.7-2.9c-0.6-1-1.4-1.4-2.4-1.4c-1.1,0-1.9,0.5-2.5,1.4
			c-0.5,0.8-0.7,1.8-0.7,2.9c0,1.1,0.2,2.1,0.7,2.9c0.6,1,1.4,1.4,2.4,1.4c1,0,1.8-0.5,2.4-1.5C130.1,39.7,130.3,38.7,130.3,37.6z"
			/>
		<path fill="#FFFFFF" d="M141.8,33.9c-0.3,0-0.5-0.1-0.8-0.1c-0.9,0-1.7,0.4-2.2,1.1c-0.4,0.6-0.7,1.4-0.7,2.4v6.3h-2.7l0-8.3
			c0-1.4,0-2.7-0.1-3.8h2.3l0.1,2.3h0.1c0.3-0.8,0.7-1.4,1.3-1.9c0.6-0.4,1.2-0.6,1.9-0.6c0.2,0,0.5,0,0.7,0V33.9z"/>
		<path fill="#FFFFFF" d="M153.8,37.1c0,0.5,0,0.9-0.1,1.2h-8.1c0,1.2,0.4,2.1,1.2,2.7c0.7,0.6,1.6,0.8,2.6,0.8
			c1.2,0,2.3-0.2,3.3-0.6l0.4,1.9c-1.1,0.5-2.5,0.7-4.1,0.7c-1.9,0-3.3-0.6-4.4-1.7c-1.1-1.1-1.6-2.6-1.6-4.4c0-1.8,0.5-3.3,1.5-4.5
			c1-1.3,2.5-1.9,4.2-1.9c1.7,0,3.1,0.6,4,1.9C153.5,34.3,153.8,35.6,153.8,37.1z M151.3,36.4c0-0.8-0.2-1.5-0.5-2.1
			c-0.5-0.7-1.2-1.1-2.1-1.1c-0.9,0-1.6,0.4-2.1,1.1c-0.4,0.6-0.7,1.3-0.8,2.1L151.3,36.4L151.3,36.4z"/>
	</g>
	<g>
		<g>
			<path fill="#FFFFFF" d="M61.8,16.6c0,1.5-0.4,2.6-1.3,3.3c-0.8,0.7-2,1-3.5,1c-0.8,0-1.4,0-1.9-0.1v-8.1c0.7-0.1,1.5-0.2,2.3-0.2
				c1.4,0,2.5,0.3,3.3,0.9C61.4,14.3,61.8,15.3,61.8,16.6z M60.4,16.6c0-1-0.3-1.7-0.8-2.2c-0.5-0.5-1.3-0.8-2.2-0.8
				c-0.4,0-0.8,0-1.1,0.1v6.2c0.2,0,0.5,0,0.9,0c1,0,1.8-0.3,2.3-0.8C60.1,18.5,60.4,17.7,60.4,16.6z"/>
			<path fill="#FFFFFF" d="M69.1,17.9c0,0.9-0.3,1.7-0.8,2.2c-0.5,0.6-1.3,0.9-2.2,0.9c-0.9,0-1.6-0.3-2.1-0.9
				c-0.5-0.6-0.8-1.3-0.8-2.2c0-0.9,0.3-1.7,0.8-2.3c0.5-0.6,1.3-0.9,2.2-0.9c0.9,0,1.6,0.3,2.1,0.9C68.9,16.3,69.1,17,69.1,17.9z
				 M67.8,17.9c0-0.5-0.1-1-0.4-1.4c-0.3-0.5-0.7-0.7-1.2-0.7c-0.5,0-0.9,0.2-1.2,0.7c-0.2,0.4-0.4,0.9-0.4,1.4c0,0.5,0.1,1,0.4,1.4
				c0.3,0.5,0.7,0.7,1.2,0.7c0.5,0,0.9-0.2,1.2-0.7C67.7,19,67.8,18.5,67.8,17.9z"/>
			<path fill="#FFFFFF" d="M79,15l-1.9,5.9H76l-0.8-2.6c-0.2-0.6-0.4-1.3-0.5-1.9h0c-0.1,0.7-0.3,1.3-0.5,1.9l-0.8,2.6h-1.2L70.4,15
				h1.4l0.7,2.8c0.2,0.7,0.3,1.3,0.4,1.9h0c0.1-0.5,0.3-1.1,0.5-1.9l0.8-2.8h1.1l0.8,2.8c0.2,0.7,0.4,1.3,0.5,2h0
				c0.1-0.6,0.2-1.3,0.4-2l0.7-2.8L79,15L79,15z"/>
			<path fill="#FFFFFF" d="M85.9,20.9h-1.3v-3.4c0-1-0.4-1.6-1.2-1.6c-0.4,0-0.7,0.1-1,0.4c-0.2,0.3-0.4,0.6-0.4,1v3.5h-1.3v-4.2
				c0-0.5,0-1.1,0-1.7h1.2l0.1,0.9h0c0.2-0.3,0.4-0.5,0.7-0.7c0.4-0.2,0.8-0.3,1.2-0.3c0.6,0,1,0.2,1.4,0.5c0.5,0.4,0.7,1.1,0.7,2
				V20.9z"/>
			<path fill="#FFFFFF" d="M89.5,20.9h-1.3v-8.7h1.3V20.9z"/>
			<path fill="#FFFFFF" d="M97.3,17.9c0,0.9-0.3,1.7-0.8,2.2c-0.5,0.6-1.3,0.9-2.2,0.9c-0.9,0-1.6-0.3-2.1-0.9
				c-0.5-0.6-0.8-1.3-0.8-2.2c0-0.9,0.3-1.7,0.8-2.3c0.5-0.6,1.3-0.9,2.2-0.9c0.9,0,1.6,0.3,2.1,0.9C97,16.3,97.3,17,97.3,17.9z
				 M95.9,17.9c0-0.5-0.1-1-0.4-1.4c-0.3-0.5-0.7-0.7-1.2-0.7c-0.5,0-0.9,0.2-1.2,0.7c-0.2,0.4-0.4,0.9-0.4,1.4c0,0.5,0.1,1,0.4,1.4
				c0.3,0.5,0.7,0.7,1.2,0.7c0.5,0,0.9-0.2,1.2-0.7C95.8,19,95.9,18.5,95.9,17.9z"/>
			<path fill="#FFFFFF" d="M103.7,20.9h-1.2l-0.1-0.7h0c-0.4,0.5-1,0.8-1.7,0.8c-0.6,0-1-0.2-1.4-0.5c-0.3-0.3-0.5-0.7-0.5-1.2
				c0-0.7,0.3-1.3,0.9-1.7c0.6-0.4,1.5-0.6,2.6-0.6V17c0-0.8-0.4-1.2-1.2-1.2c-0.6,0-1.1,0.1-1.5,0.4l-0.3-0.9
				c0.6-0.3,1.2-0.5,2-0.5c1.6,0,2.3,0.8,2.3,2.5v2.2C103.6,20.1,103.6,20.6,103.7,20.9z M102.3,18.9V18c-1.5,0-2.2,0.4-2.2,1.2
				c0,0.3,0.1,0.5,0.3,0.7c0.2,0.2,0.4,0.2,0.6,0.2c0.3,0,0.6-0.1,0.8-0.3c0.2-0.2,0.4-0.4,0.5-0.7C102.3,19,102.3,19,102.3,18.9z"
				/>
			<path fill="#FFFFFF" d="M111.2,20.9H110l-0.1-1h0c-0.4,0.7-1,1.1-1.9,1.1c-0.7,0-1.3-0.3-1.8-0.8c-0.5-0.6-0.7-1.3-0.7-2.2
				c0-1,0.3-1.7,0.8-2.3c0.5-0.6,1.1-0.8,1.8-0.8c0.8,0,1.4,0.3,1.7,0.8h0v-3.4h1.3v7.1C111.1,19.9,111.1,20.4,111.2,20.9z
				 M109.8,18.4v-1c0-0.2,0-0.3,0-0.4c-0.1-0.3-0.2-0.6-0.5-0.8c-0.2-0.2-0.5-0.3-0.9-0.3c-0.5,0-0.9,0.2-1.2,0.6
				c-0.3,0.4-0.4,0.9-0.4,1.5c0,0.6,0.1,1.1,0.4,1.4c0.3,0.4,0.7,0.6,1.2,0.6c0.4,0,0.8-0.2,1-0.5C109.7,19.2,109.8,18.8,109.8,18.4
				z"/>
			<path fill="#FFFFFF" d="M122.5,17.9c0,0.9-0.3,1.7-0.8,2.2c-0.5,0.6-1.3,0.9-2.2,0.9c-0.9,0-1.6-0.3-2.1-0.9
				c-0.5-0.6-0.8-1.3-0.8-2.2c0-0.9,0.3-1.7,0.8-2.3c0.5-0.6,1.3-0.9,2.2-0.9c0.9,0,1.6,0.3,2.1,0.9C122.2,16.3,122.5,17,122.5,17.9
				z M121.1,17.9c0-0.5-0.1-1-0.4-1.4c-0.3-0.5-0.7-0.7-1.2-0.7c-0.5,0-0.9,0.2-1.2,0.7c-0.2,0.4-0.4,0.9-0.4,1.4
				c0,0.5,0.1,1,0.4,1.4c0.3,0.5,0.7,0.7,1.2,0.7c0.5,0,0.9-0.2,1.2-0.7C121,19,121.1,18.5,121.1,17.9z"/>
			<path fill="#FFFFFF" d="M129.6,20.9h-1.3v-3.4c0-1-0.4-1.6-1.2-1.6c-0.4,0-0.7,0.1-1,0.4c-0.2,0.3-0.4,0.6-0.4,1v3.5h-1.3v-4.2
				c0-0.5,0-1.1,0-1.7h1.2l0.1,0.9h0c0.2-0.3,0.4-0.5,0.7-0.7c0.4-0.2,0.8-0.3,1.2-0.3c0.6,0,1,0.2,1.4,0.5c0.5,0.4,0.7,1.1,0.7,2
				V20.9z"/>
			<path fill="#FFFFFF" d="M138.4,16H137v2.9c0,0.7,0.3,1.1,0.8,1.1c0.2,0,0.4,0,0.6-0.1l0,1c-0.3,0.1-0.6,0.1-1,0.1
				c-0.5,0-0.9-0.2-1.2-0.5c-0.3-0.3-0.4-0.9-0.4-1.6v-3h-0.9v-1h0.9v-1.1l1.3-0.4V15h1.5L138.4,16L138.4,16z"/>
			<path fill="#FFFFFF" d="M145.4,20.9h-1.3v-3.4c0-1.1-0.4-1.6-1.2-1.6c-0.6,0-1,0.3-1.3,0.9c0,0.1-0.1,0.3-0.1,0.5v3.6h-1.3v-8.7
				h1.3v3.6h0c0.4-0.7,1-1,1.8-1c0.5,0,1,0.2,1.4,0.5c0.4,0.4,0.7,1.1,0.7,2L145.4,20.9z"/>
			<path fill="#FFFFFF" d="M152.6,17.7c0,0.2,0,0.4,0,0.6h-4c0,0.6,0.2,1,0.6,1.3c0.3,0.3,0.8,0.4,1.3,0.4c0.6,0,1.1-0.1,1.6-0.3
				l0.2,0.9c-0.6,0.2-1.2,0.4-2,0.4c-0.9,0-1.6-0.3-2.2-0.8c-0.5-0.5-0.8-1.3-0.8-2.2c0-0.9,0.2-1.6,0.7-2.2c0.5-0.6,1.2-1,2.1-1
				c0.9,0,1.5,0.3,1.9,1C152.5,16.3,152.6,16.9,152.6,17.7z M151.4,17.3c0-0.4-0.1-0.7-0.3-1c-0.2-0.4-0.6-0.6-1.1-0.6
				c-0.4,0-0.8,0.2-1.1,0.5c-0.2,0.3-0.3,0.6-0.4,1H151.4z"/>
		</g>
	</g>
</g>
</svg>
