<?xml version="1.0" encoding="utf-8"?>
<!DOCTYPE svg PUBLIC "-//W3C//DTD SVG 1.1//EN" "http://www.w3.org/Graphics/SVG/1.1/DTD/svg11.dtd">
<svg version="1.1" xmlns="http://www.w3.org/2000/svg" xmlns:xlink="http://www.w3.org/1999/xlink" width="32" height="32" viewBox="0 0 32 32">
<path fill="#858370" class="icons-background" d="M27.8 11.3c-0.1-4-3.4-7.3-7.4-7.3-2.4 0-4.5 1.1-5.8 2.8-0.8-1-2-1.6-3.3-1.6-2.3 0-4.2 1.9-4.2 4.2 0 0.2 0 0.4 0 0.6-0.3-0.1-0.7-0.1-1-0.1-3.4 0-6.1 2.7-6.1 6 0 3.4 2.7 6.1 6.1 6.1h2.9l7 7 7-7h3.6c3 0 5.4-2.4 5.4-5.5 0-2.5-1.8-4.7-4.2-5.2zM16 26l-6-6h4v-6h4v6h4l-6 6z"></path>
</svg>
