<?xml version="1.0" encoding="utf-8"?>
<!DOCTYPE svg PUBLIC "-//W3C//DTD SVG 1.1//EN" "http://www.w3.org/Graphics/SVG/1.1/DTD/svg11.dtd">
<svg aria-labelledby="title" version="1.1" xmlns="http://www.w3.org/2000/svg" xmlns:xlink="http://www.w3.org/1999/xlink" width="32" height="32" viewBox="0 0 32 32">
<title id="title" lang="en">Padlock</title>

<path fill="#0d0d0d" class="icons-background" d="M24.5 14h-0.5v-6c0-3.3-2.7-6-6-6h-4c-3.3 0-6 2.7-6 6v6h-0.5c-0.8 0-1.5 0.7-1.5 1.5v15c0 0.8 0.7 1.5 1.5 1.5h17c0.8 0 1.5-0.7 1.5-1.5v-15c0-0.8-0.7-1.5-1.5-1.5zM18 28h-4l0.9-4.3c-0.5-0.4-0.9-1-0.9-1.7 0-1.1 0.9-2 2-2s2 0.9 2 2c0 0.7-0.3 1.3-0.9 1.7l0.9 4.3zM20 14h-8v-6c0-1.1 0.9-2 2-2h4c1.1 0 2 0.9 2 2v6z"></path>
</svg>
