<?xml version="1.0" encoding="utf-8"?>
<!DOCTYPE svg PUBLIC "-//W3C//DTD SVG 1.1//EN" "http://www.w3.org/Graphics/SVG/1.1/DTD/svg11.dtd">
<svg aria-labelledby="title" version="1.1" id="Art" xmlns="http://www.w3.org/2000/svg" xmlns:xlink="http://www.w3.org/1999/xlink" x="0px" y="0px"
	 width="180px" height="65px" viewBox="0 0 180 65" enable-background="new 0 0 180 65" xml:space="preserve">
	<title id="title" lang="en">Bank of Melbourne logo</title>

	<rect opacity="0" fill="#fff" width="180" height="65"/>
	<polygon fill="#685AC0" points="0,14 0,27 6.5,20.5"/>
	<polygon fill="#A094FC" points="13,14 0,14 6.5,20.5"/>
	<polygon fill="#685AC0" points="13,27 13,14 6.5,20.5"/>
	<polygon fill="#20024E" points="0,27 13,27 6.5,20.5"/>
	<polygon fill="#C2BFEB" points="13,14 13,27 19.5,20.5"/>
	<polygon fill="#685AC0" points="26,14 13,14 19.5,20.5"/>
	<polygon fill="#20024E" points="26,27 26,14 19.5,20.5"/>
	<polygon fill="#685AC0" points="13,27 26,27 19.5,20.5"/>
	<polygon fill="#C2BFEB" points="13,27 13,40 19.5,33.5"/>
	<polygon fill="#A094FC" points="26,27 13,27 19.5,33.5"/>
	<polygon fill="#685AC0" points="26,40 26,27 19.5,33.5"/>
	<polygon fill="#20024E" points="13,40 26,40 19.5,33.5"/>
	<polygon fill="#685AC0" points="0,27 0,40 6.5,33.5"/>
	<polygon fill="#C2BFEB" points="13,27 0,27 6.5,33.5"/>
	<polygon fill="#20024E" points="13,40 13,27 6.5,33.5"/>
	<polygon fill="#A094FC" points="0,40 13,40 6.5,33.5"/>
	<polygon fill="#C2BFEB" points="13,40 13,53 19.5,46.5"/>
	<polygon fill="#685AC0" points="26,40 13,40 19.5,46.5"/>
	<polygon fill="#C2BFEB" points="13,40 0,40 6.5,46.5"/>
	<polygon fill="#20024E" points="13,53 13,40 6.5,46.5"/>
	<path fill="#20024E" d="M33,29.5h1c0.4,0,0.7-0.4,0.7-0.8V16.5c0-0.4-0.4-0.8-0.7-0.8h-1v-1.5h6.7c3.8,0,6.1,1.2,6.1,4.3
		c0,2.2-1.3,3.2-3.4,3.7v0.1c2.5,0.3,4.1,1.6,4.1,4.1c0,3.3-2.6,4.8-6.5,4.8h-7V29.5z M39.6,21.4c2.2,0,3.4-0.8,3.4-2.8
		c0-2-1.1-2.7-3.3-2.7h-2.1v5.5H39.6z M39.9,29.4c2.6,0,3.7-1.1,3.7-3.2c0-2.1-1-3.1-3.8-3.1h-2.3v6.3H39.9z"/>
	<path fill="#20024E" d="M47.6,27.4c0-2.6,2.1-3.8,5-3.8c1.1,0,2,0.1,2.9,0.3v-1.7c0-1.6-0.9-2.2-2.6-2.2c-1.7,0-2.6,0.6-3.3,1.2
		h-1.2v-2c1.1-0.5,2.6-1,4.9-1c3,0,4.7,0.9,4.7,3.7v6.7c0,0.5,0.3,0.8,0.8,0.8h0.7v1.3c-0.3,0.2-0.9,0.4-1.7,0.4
		c-1.4,0-2.1-0.6-2.3-1.7c-0.9,1.2-2.2,1.7-3.9,1.7C49.3,31.2,47.6,30,47.6,27.4z M55.5,28.1v-2.7c-0.7-0.1-1.5-0.2-2.4-0.2
		c-1.8,0-2.9,0.7-2.9,2.2c0,1.5,0.9,2.2,2.3,2.2C53.9,29.5,54.7,29,55.5,28.1z"/>
	<path fill="#20024E" d="M60.4,29.5h0.9c0.3,0,0.7-0.3,0.7-0.7v-8.1c0-0.3-0.3-0.7-0.7-0.7h-1v-1.6H64c0.4,0,0.6,0.3,0.6,1.5v0.3
		c1.3-1.2,3-2,5-2c1.8,0,3.3,0.7,3.3,3.1v7.4c0,0.3,0.3,0.7,0.6,0.7h0.8v1.5h-5.8v-1.5h1.7v-7.2c0-1.6-0.7-2-2-2
		c-1.3,0-2.6,0.6-3.7,1.2v8h1.8v1.5h-6V29.5z"/>
	<path fill="#20024E" d="M75.1,29.5h0.9c0.3,0,0.7-0.3,0.7-0.7V16.5c0-0.3-0.3-0.7-0.7-0.7h-1v-1.6h3.8c0.3,0,0.5,0.2,0.5,0.7V25
		l4-4.1c0.4-0.4,0.2-0.9-0.2-0.9h-0.6v-1.6h5.2v1.6h-0.6c-0.3,0-0.8,0.2-1.1,0.5l-3.1,3.1l3.5,5.1c0.3,0.5,0.7,0.7,1.1,0.7h0.4v1.5
		H85l-3.8-5.6l-1.8,1.8v2.3h1.6v1.5h-5.8V29.5z"/>
	<path fill="#20024E" d="M93.2,24.8c0-4,2.8-6.5,6.4-6.5c3.6,0,6.4,2.5,6.4,6.5c0,4-2.8,6.4-6.4,6.4C96,31.2,93.2,28.8,93.2,24.8z
		 M103.3,24.8c0-3.1-1.5-4.8-3.7-4.8c-2.2,0-3.7,1.6-3.7,4.8c0,3.1,1.5,4.7,3.7,4.7C101.8,29.5,103.3,27.9,103.3,24.8z"/>
	<path fill="#20024E" d="M106.6,29.5h0.9c0.3,0,0.7-0.3,0.7-0.7v-8.8h-1.7v-1.6h1.7v-1.1c0-2.4,1.4-3.4,3.7-3.4c1,0,1.6,0.1,2,0.3
		v1.5h-1.2c-1.1,0-1.9,0.2-1.9,1.6v1h2.7v1.6h-2.7v8.8c0,0.3,0.3,0.7,0.7,0.7h1.2v1.5h-6.1V29.5z"/>
	<path fill="#20024E" d="M33,50.3h1c0.4,0,0.7-0.4,0.7-0.8V37.3c0-0.4-0.4-0.8-0.7-0.8h-1v-1.6h6.1l4,12.6h0.1l4-12.6h6.1v1.6h-1
		c-0.4,0-0.7,0.4-0.7,0.8v12.2c0,0.3,0.4,0.8,0.7,0.8h1v1.5h-6.4v-1.5h1.9V36.8h-0.2l-4.8,15h-2l-4.8-15h-0.1v13.5h1.9v1.5H33V50.3
		z"/>
	<path fill="#20024E" d="M53.4,45.5c0-4,2.5-6.5,6.1-6.5c3.5,0,5.6,1.9,5.6,6.1c0,0.4,0,0.7,0,0.8h-9c0.1,2.9,1.4,4.4,3.9,4.4
		c1.8,0,2.6-0.6,3.3-1.4h1.5v1.8c-1,0.7-2.4,1.3-4.9,1.3C55.6,52,53.4,49.5,53.4,45.5z M62.6,44.3c-0.1-2.7-1.1-3.7-3-3.7
		c-1.9,0-3.1,1.2-3.4,3.7H62.6z"/>
	<path fill="#20024E" d="M65.9,50.3h0.9c0.3,0,0.7-0.3,0.7-0.7V37.2c0-0.3-0.3-0.7-0.7-0.7h-1v-1.6h3.8c0.3,0,0.5,0.2,0.5,0.7v14
		c0,0.3,0.3,0.7,0.7,0.7h0.9v1.5h-5.8V50.3z"/>
	<path fill="#20024E" d="M75.4,50.5c-0.2,0.8-0.7,1.3-1,1.3H73V37.2c0-0.3-0.3-0.7-0.7-0.7h-1v-1.6h3.8c0.3,0,0.5,0.2,0.5,0.7v5.5
		c1-1.1,2.3-2,4.4-2c2.4,0,4.8,1.5,4.8,6.3c0,4.9-2.8,6.6-5.5,6.6C77.3,52,76.2,51.4,75.4,50.5z M82.2,45.5c0-3.7-1.6-4.6-3.3-4.6
		c-1.2,0-2.4,0.7-3.2,1.4v6.9c0.7,0.7,1.6,1.2,3,1.2C80.3,50.4,82.2,49.5,82.2,45.5z"/>
	<path fill="#20024E" d="M86,45.5c0-4,2.8-6.5,6.4-6.5c3.6,0,6.4,2.5,6.4,6.5c0,4-2.8,6.4-6.4,6.4C88.8,52,86,49.6,86,45.5z
		 M96.2,45.6c0-3.1-1.5-4.8-3.7-4.8c-2.2,0-3.7,1.6-3.7,4.8c0,3.1,1.5,4.7,3.7,4.7C94.7,50.3,96.2,48.7,96.2,45.6z"/>
	<path fill="#20024E" d="M100.8,48.9v-7.4c0-0.3-0.3-0.7-0.7-0.7h-0.9v-1.6h4.2V48c0,1.6,0.8,2,2,2c1.3,0,2.6-0.6,3.6-1.3v-8h-1.8
		v-1.6h4.4v10.4c0,0.3,0.3,0.7,0.7,0.7h1v1.5h-3.6c-0.3,0-0.6-0.3-0.6-1.5V50c-1.3,1.2-2.8,2-4.9,2C102.4,52,100.8,51.3,100.8,48.9
		z"/>
	<path fill="#20024E" d="M114.1,50.3h0.9c0.3,0,0.7-0.3,0.7-0.7v-8.1c0-0.3-0.3-0.7-0.7-0.7h-1v-1.6h3.7c0.4,0,0.6,0.3,0.6,1.7v0.4
		c0.9-1.1,2-2.2,3.8-2.2c0.3,0,0.5,0,0.7,0.1v2.1h-0.5c-1.9,0-3,0.5-4,1.3v7.7h2v1.5h-6.2V50.3z"/>
	<path fill="#20024E" d="M123.7,50.3h0.9c0.3,0,0.7-0.3,0.7-0.7v-8.1c0-0.3-0.3-0.7-0.7-0.7h-1v-1.6h3.7c0.4,0,0.6,0.3,0.6,1.5v0.3
		c1.3-1.2,3-2,5-2c1.8,0,3.3,0.7,3.3,3.1v7.4c0,0.3,0.3,0.7,0.6,0.7h0.8v1.5h-5.8v-1.5h1.7V43c0-1.6-0.7-2-2-2
		c-1.4,0-2.6,0.6-3.7,1.2v8h1.8v1.5h-6V50.3z"/>
	<path fill="#20024E" d="M137.6,45.5c0-4,2.5-6.5,6.1-6.5c3.5,0,5.6,1.9,5.6,6.1c0,0.4,0,0.7,0,0.8h-9c0.1,2.9,1.4,4.4,3.9,4.4
		c1.8,0,2.6-0.6,3.3-1.4h1.5v1.8c-1,0.7-2.4,1.3-4.9,1.3C139.8,52,137.6,49.5,137.6,45.5z M146.8,44.3c-0.1-2.7-1.1-3.7-3-3.7
		c-1.9,0-3.1,1.2-3.4,3.7H146.8z"/>
</svg>