<?xml version="1.0" encoding="utf-8"?>
<!DOCTYPE svg PUBLIC "-//W3C//DTD SVG 1.1//EN" "http://www.w3.org/Graphics/SVG/1.1/DTD/svg11.dtd">
<svg aria-labelledby="title" version="1.1" xmlns="http://www.w3.org/2000/svg" xmlns:xlink="http://www.w3.org/1999/xlink" width="32" height="32" viewBox="0 0 32 32">
<title id="title" lang="en">Face hmm</title>

<path fill="#004833" class="icons-background" d="M32 16c0 8.8-7.2 16-16 16s-16-7.2-16-16 7.2-16 16-16 16 7.2 16 16zM16 2c-7.7 0-14 6.3-14 14s6.3 14 14 14 14-6.3 14-14-6.3-14-14-14z"></path>
<path fill="#004833" class="icons-background" d="M23.3 18.8l0.7 2.4-13.7 4-0.7-2.4 13.7-4z"></path>
<path fill="#004833" class="icons-background" d="M8 11c0-1.1 0.9-2 2-2s2 0.9 2 2-0.9 2-2 2c-1.1 0-2-0.9-2-2z"></path>
<path fill="#004833" class="icons-background" d="M20 11c0 1.1 0.9 2 2 2s2-0.9 2-2-0.9-2-2-2c-1.1 0-2 0.9-2 2z"></path>
</svg>
