<?xml version="1.0" encoding="utf-8"?>
<!DOCTYPE svg PUBLIC "-//W3C//DTD SVG 1.1//EN" "http://www.w3.org/Graphics/SVG/1.1/DTD/svg11.dtd">
<svg aria-labelledby="title" version="1.1" xmlns="http://www.w3.org/2000/svg" xmlns:xlink="http://www.w3.org/1999/xlink" width="32" height="32" viewBox="0 0 32 32">
<title id="title" lang="en">Help</title>

<path fill="#004833" class="icons-background" d="M32 16c0 8.8-7.2 16-16 16s-16-7.2-16-16 7.2-16 16-16 16 7.2 16 16zM16 2c-7.7 0-14 6.3-14 14s6.3 14 14 14 14-6.3 14-14-6.3-14-14-14z"></path>
<path fill="#004833" class="icons-background" d="M14.4 25.6h3.2v-3.2h-3.2v3.2zM13 13c0-2.4 0.9-4.1 3.2-4.1 1 0 2.7 0.8 2.7 2.9 0 1.8-1.1 2.4-2.3 3.4-1.5 1.2-2.2 2.6-2.2 5.6h3.2c0-3.2 0.9-3.6 2.3-4.7 1.2-1 2.5-1.9 2.5-4.4 0-3.4-2.7-5.3-6.1-5.3-4.1 0-6.3 2.7-6.3 6.6h3z"></path>
</svg>
