<?xml version="1.0" encoding="utf-8"?>
<!DOCTYPE svg PUBLIC "-//W3C//DTD SVG 1.1//EN" "http://www.w3.org/Graphics/SVG/1.1/DTD/svg11.dtd">
<svg aria-labelledby="title" version="1.1" id="Art" xmlns="http://www.w3.org/2000/svg" xmlns:xlink="http://www.w3.org/1999/xlink" x="0px" y="0px"
	 width="180px" height="65px" viewBox="0 0 180 65" enable-background="new 0 0 180 65" xml:space="preserve">
	<title id="title" lang="en">Bank SA logo</title>

	<rect opacity="0" fill="#FFFFFF" width="180" height="65"/>
	<path fill="#E91B2B" d="M58,43.5c-0.9,0-2-0.5-2-1.5V20c0-1,1-2,2-2h30c1,0,2,1,2,2v38.2c0,0.5-0.4,0.8-0.9,0.8c0,0,0.3,0,0,0
		c-0.6,0-0.8-0.5-0.9-0.8C79.7,43.5,58.9,43.5,58,43.5z"/>
	<path fill="#FFFFFF" d="M80,25l-2.1,8.5c0,0,0,0.1,0.1,0.1l4.4,0c0,0,0.1,0,0.1-0.1L80.4,25C80.3,24.6,80.1,24.6,80,25z
		 M82.3,20.8c0.4,0,0.7,0.2,0.7,0.5l4.7,18.3c0.1,0.2,0.1,0.4,0.1,0.5c0,0.3-0.3,0.6-0.7,0.6l-2.3,0c-0.4,0-0.6-0.3-0.7-0.6
		l-0.9-3.5c0,0,0,0-0.1,0l-5.9,0c0,0,0,0-0.1,0l-0.9,3.5c-0.1,0.3-0.3,0.6-0.7,0.6l-2.3,0c-0.4,0-0.7-0.3-0.7-0.6
		c0,0,0-0.3,0.1-0.5l4.7-18.3c0.1-0.3,0.3-0.5,0.7-0.5L82.3,20.8z"/>
	<path fill="#FFFFFF" d="M62.3,25.5c0,1.4,0.7,1.9,2.3,2.8l3.5,2c2.4,1.4,3.3,2.9,3.3,5.5c0,3.5-2.7,5.3-6.5,5.3
		c-3.7,0-6.4-1.8-6.4-5.4l0-1.2c0-0.4,0.4-0.8,0.9-0.8l2,0c0.5,0,0.9,0.4,0.9,0.8l0,1.2c0,1.4,1.1,2.3,2.6,2.3
		c1.7,0,2.6-0.7,2.6-2.2h0c0-1.8-1.5-2.6-2.6-3.2L61,30.4c-1.8-1-2.5-3-2.5-4.6c0-3.5,2.6-5.6,6.5-5.6c3.7,0,6.4,1.9,6.4,5.5l0,0.6
		c0,0.4-0.4,0.8-0.9,0.8l-2,0c-0.5,0-0.9-0.4-0.9-0.8l0-0.6c0-1.4-0.9-2.6-2.6-2.6C63.3,23,62.3,23.9,62.3,25.5L62.3,25.5z"/>
	<path fill="#002F6C" d="M21.5,33.7C21.5,33.6,21.5,33.6,21.5,33.7l-3.6,1.4c-1,0.4-1.2,1.1-1.2,1.7c0,1,0.3,1.9,2.3,1.9
		c1.4,0,2.4-1,2.4-2.2L21.5,33.7z M13,37.2c0-2.3,1.2-3.6,3.1-4.3l3.8-1.4c1.2-0.4,1.6-0.8,1.6-1.6c0-1-0.8-1.7-2.2-1.7
		c-1.3,0-2.2,0.7-2.2,1.8l0,0c0,0.4-0.4,0.8-0.9,0.8l-1.7,0c-0.5,0-0.9-0.4-0.9-0.8l0,0c0-2.6,2.3-4.6,5.7-4.6
		c3.7,0,5.5,2.2,5.5,4.9l0,9.8c0,0.4-0.4,0.8-0.9,0.8l-1.7,0c-0.5,0-0.9-0.4-0.9-0.8l0-0.1c0-0.3-0.1-0.3-0.3-0.1
		c-0.9,0.9-2.2,1.4-3.6,1.4C15.6,41.2,13,40.2,13,37.2"/>
	<path fill="#002F6C" d="M41.1,21.8c0-0.4,0.4-0.8,0.9-0.8l1.7,0c0.5,0,0.9,0.4,0.9,0.8l0,9.6c0,0.3,0.1,0.3,0.3,0.1l3.9-4.6
		c0.3-0.4,0.5-0.6,1-0.6l2.1,0c0.5,0,0.8,0.2,0.8,0.5c0,0.1-0.1,0.4-0.2,0.5l-4.4,5.2c-0.1,0.1-0.1,0.2,0,0.2l5,7
		c0.1,0.2,0.1,0.3,0.1,0.4c0,0.4-0.4,0.7-0.9,0.7l-1.9,0c-0.5,0-0.8-0.4-1.1-0.8l-4.3-6.2c-0.2-0.3-0.3-0.2-0.3,0.1l0,6.1
		c0,0.4-0.4,0.8-0.9,0.8l-1.7,0c-0.5,0-0.9-0.4-0.9-0.8L41.1,21.8z"/>
	<path fill="#002F6C" d="M38.8,29.6c0-2.2-1.7-4.2-4.1-4.2c-1.5,0-2.8,0.6-3.5,1.6c-0.2,0.3-0.3,0.2-0.3-0.1v-0.2
		c0-0.4-0.4-0.8-0.9-0.8l-1.7,0c-0.5,0-0.9,0.4-0.9,0.8l0,5v7.9h0l0,0.6c0,0.4,0.4,0.8,0.9,0.8l1.7,0c0.5,0,0.9-0.4,0.9-0.8l0-0.7
		v-9.9c0.3-0.5,0.9-1.1,1.7-1.3c0.2,0,0.4-0.1,0.6-0.1c0.7,0,1.2,0.2,1.6,0.6c0,0,0,0,0,0c0,0,0,0,0.1,0.1c0.3,0.3,0.5,0.7,0.5,1.1
		c0,0.2,0,0.3,0,0.5l0,9.7c0,0.4,0.4,0.8,0.9,0.8l1.7,0c0.5,0,0.9-0.4,0.9-0.8L38.8,29.6z"/>
	<path fill="#002F6C" d="M11.5,29.3c0-2.1-1.9-3.9-4.1-3.9c-1.5,0-2.8,0.6-3.5,1.6c-0.2,0.3-0.3,0.2-0.3-0.1l0-5.1
		c0-0.4-0.4-0.8-0.9-0.8l-1.7,0C0.4,21,0,21.4,0,21.8l0,18.3c0,0.4,0.4,0.8,0.9,0.8l1.7,0c0.5,0,0.9-0.4,0.9-0.8v-0.2
		c0-0.3,0.1-0.4,0.3-0.1c0.7,1,2,1.4,3.5,1.4c2.3,0,4.1-1.6,4.1-4c0,0,0.1-1.5,0.1-3.9C11.5,31,11.5,29.3,11.5,29.3z M8,36.3
		c0,1.3-0.8,2.2-2.2,2.2c-0.9,0-1.9-0.6-2.2-1.4v-7.4c0.4-0.8,1.3-1.3,2.2-1.3c1.4,0,2.2,0.9,2.2,2.2c0,0,0,0.8,0,2.6
		C8,35.2,8,36.3,8,36.3z"/>
</svg>