<?xml version="1.0" encoding="utf-8"?>
<!DOCTYPE svg PUBLIC "-//W3C//DTD SVG 1.1//EN" "http://www.w3.org/Graphics/SVG/1.1/DTD/svg11.dtd">
<svg version="1.1" xmlns="http://www.w3.org/2000/svg" xmlns:xlink="http://www.w3.org/1999/xlink" width="32" height="32" viewBox="0 0 32 32">
<path fill="#575f65" class="icons-background" d="M8 11c0-1.1 0.9-2 2-2s2 0.9 2 2-0.9 2-2 2c-1.1 0-2-0.9-2-2zM20 11c0 1.1 0.9 2 2 2s2-0.9 2-2-0.9-2-2-2c-1.1 0-2 0.9-2 2zM10 26c1.2-2 3.5-3.4 6-3.4s4.8 1.4 6 3.4l2.6-1.5c-1.7-2.9-4.9-4.9-8.6-4.9-3.6 0-6.8 1.9-8.6 4.9l2.6 1.5zM16 0c-8.8 0-16 7.2-16 16s7.2 16 16 16 16-7.2 16-16-7.2-16-16-16zM30 16c0 7.7-6.3 14-14 14s-14-6.3-14-14 6.3-14 14-14 14 6.3 14 14z"></path>
</svg>
