<?xml version="1.0" encoding="utf-8"?>
<!DOCTYPE svg PUBLIC "-//W3C//DTD SVG 1.1//EN" "http://www.w3.org/Graphics/SVG/1.1/DTD/svg11.dtd">
<svg version="1.1" xmlns="http://www.w3.org/2000/svg" xmlns:xlink="http://www.w3.org/1999/xlink" width="32" height="32" viewBox="0 0 32 32">
<path fill="#716f7d" class="icons-background" d="M29.2 9c-2.3-3.4-5.8-5.8-10-6.6 1.1-1.5 2.9-2.4 4.8-2.4 3.3 0 6 2.7 6 6 0 1.1-0.3 2.1-0.8 3zM12.7 2.3c-1.1-1.4-2.8-2.3-4.7-2.3-3.3 0-6 2.7-6 6 0 1.1 0.3 2.1 0.8 3 2.3-3.4 5.8-5.8 9.9-6.7zM16 18v-8h-2v10h8v-2h-6zM28 18c0-6.6-5.4-12-12-12s-12 5.4-12 12 5.4 12 12 12 12-5.4 12-12zM30 18c0 7.7-6.3 14-14 14s-14-6.3-14-14 6.3-14 14-14 14 6.3 14 14z"></path>
</svg>
