<?xml version="1.0" encoding="utf-8"?>
<!DOCTYPE svg PUBLIC "-//W3C//DTD SVG 1.1//EN" "http://www.w3.org/Graphics/SVG/1.1/DTD/svg11.dtd">
<svg version="1.1" xmlns="http://www.w3.org/2000/svg" xmlns:xlink="http://www.w3.org/1999/xlink" width="32" height="32" viewBox="0 0 32 32">
<path fill="#716f7d" class="icons-background" d="M34 28.2c0 1.4 0.8 2.7 2 3.3v0.5c-0.3 0-0.7 0.1-1 0.1-2.1 0-4-0.9-5.4-2.3-0.8 0.1-1.7 0.2-2.6 0.2-5 0-9-3.6-9-8s4-8 9-8 9 3.6 9 8c0 1.7-0.6 3.3-1.7 4.6-0.2 0.5-0.3 1-0.3 1.6zM16 0c8.7 0 15.8 5.6 16 12.7-1.5-0.7-3.2-1-5-1-3 0-5.8 1-7.9 2.9-2.2 2-3.4 4.6-3.4 7.4 0 1.4 0.3 2.7 0.9 4-0.2 0-0.3 0-0.5 0-0.8 0-1.7-0.1-2.5-0.2-3.5 3.5-7.6 4.1-11.6 4.2v-0.8c2.1-1 4-3 4-5.1 0-0.3 0-0.6-0.1-0.9-3.6-2.5-5.9-6.1-5.9-10.2 0-7.2 7.2-13 16-13z"></path>
</svg>
