<?xml version="1.0" standalone="no"?>
<!DOCTYPE svg PUBLIC "-//W3C//DTD SVG 1.1//EN" "http://www.w3.org/Graphics/SVG/1.1/DTD/svg11.dtd" >
<svg xmlns="http://www.w3.org/2000/svg" width="100%" height="100%">
<metadata>
Created by FontXChange 20110211 at Wed Jul 24 15:23:39 2013
 By ,S-1-5-21-43413881-2021330805-242692186-49119
(c)2008 Schwartzco Inc.
</metadata>
<defs>
<font id="Stag-Medium" horiz-adv-x="600" >
  <font-face 
    font-family="Stag Medium"
    font-weight="500"
    font-stretch="normal"
    units-per-em="1000"
    panose-1="2 0 6 3 6 0 0 2 0 4"
    ascent="800"
    descent="-200"
    x-height="525"
    cap-height="700"
    bbox="-190 -219 1176 942"
    underline-thickness="20"
    underline-position="-113"
    stemh="100"
    stemv="146"
    unicode-range="U+0020-FB04"
  />
<missing-glyph horiz-adv-x="500" 
 />
    <glyph glyph-name="f_i" unicode="fi" horiz-adv-x="574" 
d="M5 437v88h62v40c0 100 63 145 166 145c42 0 63 -6 83 -14v-82h-30c-44 0 -73 -5 -73 -54v-35h266c16 0 24 -16 24 -56v-361c0 -12 13 -25 25 -25h38v-83h-250v83h40v354h-143v-354h40v-83h-244v83h33c12 0 25 14 25 25v329h-62zM428 566c-44 0 -79 34 -79 77s35 78 79 78
s79 -35 79 -78s-35 -77 -79 -77z" />
    <glyph glyph-name="f_l" unicode="fl" horiz-adv-x="578" 
d="M5 437v88h62v40c0 100 63 145 172 145c27 0 57 -3 82 -10h157c17 0 25 -12 25 -34v-558c0 -12 13 -25 25 -25h41v-83h-253v83h41v531h-71c-44 0 -73 -5 -73 -54v-35h100v-88h-100v-354h40v-83h-244v83h33c12 0 25 14 25 25v329h-62z" />
    <glyph glyph-name="f_f" unicode="ff" horiz-adv-x="615" 
d="M316 0v83h41v354h-144v-354h40v-83h-244v83h33c12 0 25 14 25 25v329h-62v88h62v36c0 100 63 145 166 145c42 0 67 -6 87 -14v-82h-34c-44 0 -73 -5 -73 -54v-31h144v38c0 100 63 147 166 147c42 0 67 -6 87 -14v-82h-34c-44 0 -73 -5 -73 -54v-35h100v-88h-100v-329
c0 -12 13 -25 25 -25h46v-83h-258z" />
    <glyph glyph-name="f_b" unicode="fb" horiz-adv-x="883" 
d="M643 -7c-79 0 -124 25 -156 59c-15 -27 -37 -52 -49 -52h-81v614h-71c-44 0 -73 -5 -73 -54v-35h100v-88h-100v-354h71v-83h-275v83h33c12 0 25 14 25 25v329h-62v88h62v40c0 100 63 145 172 145c27 0 57 -3 82 -10h157c16 0 25 -12 25 -34v-211c40 43 92 78 168 78
c99 0 198 -66 198 -263c0 -203 -115 -277 -226 -277zM600 428c-29 0 -66 -10 -97 -22v-300c23 -18 52 -30 95 -30c60 0 123 34 123 181c0 139 -57 171 -121 171z" />
    <glyph glyph-name="f_h" unicode="fh" horiz-adv-x="895" 
d="M627 0v83h60v269c0 52 -20 67 -69 67c-42 0 -81 -9 -115 -20v-316h61v-83h-248v83h41v531h-71c-44 0 -73 -5 -73 -54v-35h100v-88h-100v-354h40v-83h-244v83h33c12 0 25 14 25 25v329h-62v88h62v40c0 100 63 145 172 145c27 0 57 -3 82 -10h157c16 0 25 -12 25 -34v-208
c48 45 116 75 194 75c73 0 136 -29 136 -131v-294c0 -12 13 -25 25 -25h28v-83h-259z" />
    <glyph glyph-name="f_j" unicode="fj" horiz-adv-x="549" 
d="M332 -168c-34 0 -62 4 -85 11v73h34c55 0 75 21 75 71v450h-143v-354h71v-83h-275v83h33c12 0 25 14 25 25v329h-62v88h62v40c0 100 63 145 166 145c42 0 63 -6 83 -14v-82h-30c-44 0 -73 -5 -73 -54v-35h266c16 0 24 -16 24 -56v-491c0 -110 -63 -146 -171 -146z
M428 566c-44 0 -79 34 -79 77s35 78 79 78s79 -35 79 -78s-35 -77 -79 -77z" />
    <glyph glyph-name="f_k" unicode="fk" horiz-adv-x="857" 
d="M705 0l-143 212l-59 -57v-72h51v-83h-238v83h41v531h-71c-44 0 -73 -5 -73 -54v-35h100v-88h-100v-354h40v-83h-244v83h33c12 0 25 14 25 25v329h-62v88h62v40c0 100 63 145 172 145c27 0 57 -3 82 -10h157c16 0 25 -12 25 -34v-398l132 129c16 17 12 40 -8 40h-20v88
h237v-88h-28c-14 0 -32 -9 -42 -19l-112 -109l137 -198c14 -20 25 -28 39 -28h10v-83h-143z" />
    <glyph glyph-name="f_t" unicode="ft" horiz-adv-x="618" 
d="M605 525v-88h-106v-288c0 -56 20 -66 74 -66h36v-78c-22 -7 -53 -13 -94 -13c-101 0 -162 32 -162 141v304h-140v-354h71v-83h-275v83h33c12 0 25 14 25 25v329h-62v88h62v40c0 100 63 145 166 145c39 0 61 -6 81 -14v-82h-28c-44 0 -73 -5 -73 -54v-35h140v140h146v-140
h106z" />
    <glyph glyph-name="f_f_i" unicode="ffi" horiz-adv-x="864" 
d="M316 0v83h41v354h-144v-354h40v-83h-244v83h33c12 0 25 14 25 25v329h-62v88h62v36c0 100 63 145 166 145c42 0 67 -6 87 -14v-82h-34c-44 0 -73 -5 -73 -54v-31h144v40c0 100 63 145 166 145c42 0 63 -6 83 -14v-82h-30c-44 0 -73 -5 -73 -54v-35h266
c16 0 24 -16 24 -56v-361c0 -12 13 -25 25 -25h38v-83h-250v83h40v354h-143v-354h40v-83h-227zM718 566c-44 0 -79 34 -79 77s35 78 79 78s79 -35 79 -78s-35 -77 -79 -77z" />
    <glyph glyph-name="f_f_l" unicode="ffl" horiz-adv-x="868" 
d="M5 437v88h62v36c0 100 63 145 166 145c42 0 67 -6 87 -14v-82h-34c-44 0 -73 -5 -73 -54v-31h144v40c0 100 63 145 172 145c27 0 57 -3 82 -10h157c17 0 25 -12 25 -34v-558c0 -12 13 -25 25 -25h41v-83h-253v83h41v531h-71c-44 0 -73 -5 -73 -54v-35h100v-88h-100v-354
h40v-83h-227v83h41v354h-144v-354h40v-83h-244v83h33c12 0 25 14 25 25v329h-62z" />
    <glyph glyph-name="f_f_b" unicode="ffb" horiz-adv-x="1173" 
d="M933 -7c-79 0 -124 25 -156 59c-15 -27 -37 -52 -49 -52h-81v614h-71c-44 0 -73 -5 -73 -54v-35h100v-88h-100v-354h71v-83h-258v83h41v354h-144v-354h40v-83h-244v83h33c12 0 25 14 25 25v329h-62v88h62v36c0 100 63 145 166 145c42 0 67 -6 87 -14v-82h-34
c-44 0 -73 -5 -73 -54v-31h144v40c0 100 63 145 172 145c27 0 57 -3 82 -10h157c16 0 25 -12 25 -34v-211c40 43 92 78 168 78c99 0 198 -66 198 -263c0 -203 -115 -277 -226 -277zM890 428c-29 0 -66 -10 -97 -22v-300c23 -18 52 -30 95 -30c60 0 123 34 123 181
c0 139 -57 171 -121 171z" />
    <glyph glyph-name="f_f_h" unicode="ffh" horiz-adv-x="1185" 
d="M917 0v83h60v269c0 52 -20 67 -69 67c-42 0 -81 -9 -115 -20v-316h61v-83h-248v83h41v531h-71c-44 0 -73 -5 -73 -54v-35h100v-88h-100v-354h40v-83h-227v83h41v354h-144v-354h40v-83h-244v83h33c12 0 25 14 25 25v329h-62v88h62v36c0 100 63 145 166 145
c42 0 67 -6 87 -14v-82h-34c-44 0 -73 -5 -73 -54v-31h144v40c0 100 63 145 172 145c27 0 57 -3 82 -10h157c16 0 25 -12 25 -34v-208c48 45 116 75 194 75c73 0 136 -29 136 -131v-294c0 -12 13 -25 25 -25h28v-83h-259z" />
    <glyph glyph-name="f_f_j" unicode="ffj" horiz-adv-x="839" 
d="M622 -168c-34 0 -62 4 -85 11v73h34c55 0 75 21 75 71v450h-143v-354h71v-83h-258v83h41v354h-144v-354h40v-83h-244v83h33c12 0 25 14 25 25v329h-62v88h62v36c0 100 63 145 166 145c42 0 67 -6 87 -14v-82h-34c-44 0 -73 -5 -73 -54v-31h144v40c0 100 63 145 166 145
c42 0 63 -6 83 -14v-82h-30c-44 0 -73 -5 -73 -54v-35h266c16 0 24 -16 24 -56v-491c0 -110 -63 -146 -171 -146zM718 566c-44 0 -79 34 -79 77s35 78 79 78s79 -35 79 -78s-35 -77 -79 -77z" />
    <glyph glyph-name="f_f_k" unicode="ffk" horiz-adv-x="1147" 
d="M995 0l-143 212l-59 -57v-72h51v-83h-238v83h41v531h-71c-44 0 -73 -5 -73 -54v-35h100v-88h-100v-354h40v-83h-227v83h41v354h-144v-354h40v-83h-244v83h33c12 0 25 14 25 25v329h-62v88h62v36c0 100 63 145 166 145c42 0 67 -6 87 -14v-82h-34c-44 0 -73 -5 -73 -54
v-31h144v40c0 100 63 145 172 145c27 0 57 -3 82 -10h157c16 0 25 -12 25 -34v-398l132 129c16 17 12 40 -8 40h-20v88h237v-88h-28c-14 0 -32 -9 -42 -19l-112 -109l137 -198c14 -20 25 -28 39 -28h10v-83h-143z" />
    <glyph glyph-name="f_f_t" unicode="fft" horiz-adv-x="908" 
d="M316 0v83h41v354h-144v-354h40v-83h-244v83h33c12 0 25 14 25 25v329h-62v88h62v36c0 100 63 145 166 145c42 0 67 -6 87 -14v-82h-34c-44 0 -73 -5 -73 -54v-31h144v40c0 100 63 145 166 145c39 0 61 -6 81 -14v-82h-28c-44 0 -73 -5 -73 -54v-35h140v140h146v-140h106
v-88h-106v-288c0 -56 20 -66 74 -66h36v-78c-22 -7 -53 -13 -94 -13c-101 0 -162 32 -162 141v304h-140v-354h71v-83h-258z" />
    <glyph glyph-name="f_igrave" unicode="f&#xec;" horiz-adv-x="574" 
d="M9 0v83h33c12 0 25 14 25 25v329h-62v88h62v40c0 100 62 145 160 145c39 0 58 -7 77 -14v-82h-18c-44 0 -73 -5 -73 -54v-35h266c16 0 24 -16 24 -56v-361c0 -12 13 -25 25 -25h38v-83h-250v83h40v354h-143v-354h40v-83h-244zM400 562l-73 88v50h142l8 -138h-77z" />
    <glyph glyph-name="f_iacute" unicode="f&#xed;" horiz-adv-x="574" 
d="M9 0v83h33c12 0 25 14 25 25v329h-62v88h62v40c0 100 63 145 166 145c42 0 63 -6 83 -14v-82h-30c-44 0 -73 -5 -73 -54v-35h266c16 0 24 -16 24 -56v-361c0 -12 13 -25 25 -25h38v-83h-250v83h40v354h-143v-354h40v-83h-244zM383 562l28 138h146v-50l-97 -88h-77z" />
    <glyph glyph-name="f_icircumflex" unicode="f&#xee;" horiz-adv-x="574" 
d="M9 0v83h33c12 0 25 14 25 25v329h-62v88h62v40c0 100 62 145 160 145c39 0 58 -7 77 -14v-82h-18c-44 0 -73 -5 -73 -54v-35h266c16 0 24 -16 24 -56v-361c0 -12 13 -25 25 -25h38v-83h-250v83h40v354h-143v-354h40v-83h-244zM314 562v37l54 101h120l50 -101v-37h-56
l-58 60l-58 -60h-52z" />
    <glyph glyph-name="f_idieresis" unicode="f&#xef;" horiz-adv-x="574" 
d="M9 0v83h33c12 0 25 14 25 25v329h-62v88h62v40c0 100 64 145 155 145c35 0 54 -6 70 -14v-82h-12c-40 0 -67 -5 -67 -54v-35h266c16 0 24 -16 24 -56v-361c0 -12 13 -25 25 -25h38v-83h-250v83h40v354h-143v-354h40v-83h-244zM378 571c-38 0 -68 29 -68 67s30 68 68 68
c39 0 69 -30 69 -68s-30 -67 -69 -67zM532 571c-39 0 -69 29 -69 67s30 68 69 68c38 0 68 -30 68 -68s-30 -67 -68 -67z" />
    <glyph glyph-name="f_iogonek" unicode="f&#x12f;" horiz-adv-x="574" 
d="M466 -165c-59 0 -96 28 -96 74s42 78 79 91h-133v83h40v354h-143v-354h40v-83h-244v83h33c12 0 25 14 25 25v329h-62v88h62v40c0 100 63 145 166 145c42 0 63 -6 83 -14v-82h-30c-44 0 -73 -5 -73 -54v-35h266c16 0 24 -16 24 -56v-361c0 -12 13 -25 25 -25h38v-83h-54
c-19 -18 -33 -32 -33 -57c0 -16 10 -27 41 -27h19v-64c-19 -11 -39 -17 -73 -17zM428 566c-44 0 -79 34 -79 77s35 78 79 78s79 -35 79 -78s-35 -77 -79 -77z" />
    <glyph glyph-name="f_imacron" unicode="f&#x12b;" horiz-adv-x="574" 
d="M9 0v83h33c12 0 25 14 25 25v329h-62v88h62v40c0 100 62 145 160 145c39 0 58 -7 77 -14v-82h-18c-44 0 -73 -5 -73 -54v-35h266c16 0 24 -16 24 -56v-361c0 -12 13 -25 25 -25h38v-83h-250v83h40v354h-143v-354h40v-83h-244zM324 585v94h226v-94h-226z" />
    <glyph glyph-name="f_f_igrave" unicode="ff&#xec;" horiz-adv-x="864" 
d="M9 0v83h33c12 0 25 14 25 25v329h-62v88h62v36c0 100 63 145 166 145c42 0 67 -6 87 -14v-82h-34c-44 0 -73 -5 -73 -54v-31h144v40c0 100 62 145 160 145c39 0 58 -7 77 -14v-82h-18c-44 0 -73 -5 -73 -54v-35h266c16 0 24 -16 24 -56v-361c0 -12 13 -25 25 -25h38v-83
h-250v83h40v354h-143v-354h40v-83h-227v83h41v354h-144v-354h40v-83h-244zM690 562l-73 88v50h142l8 -138h-77z" />
    <glyph glyph-name="f_f_iacute" unicode="ff&#xed;" horiz-adv-x="864" 
d="M9 0v83h33c12 0 25 14 25 25v329h-62v88h62v36c0 100 63 145 166 145c42 0 67 -6 87 -14v-82h-34c-44 0 -73 -5 -73 -54v-31h144v40c0 100 63 145 166 145c42 0 63 -6 83 -14v-82h-30c-44 0 -73 -5 -73 -54v-35h266c16 0 24 -16 24 -56v-361c0 -12 13 -25 25 -25h38v-83
h-250v83h40v354h-143v-354h40v-83h-227v83h41v354h-144v-354h40v-83h-244zM673 562l28 138h146v-50l-97 -88h-77z" />
    <glyph glyph-name="f_f_icircumflex" unicode="ff&#xee;" horiz-adv-x="864" 
d="M9 0v83h33c12 0 25 14 25 25v329h-62v88h62v36c0 100 63 145 166 145c42 0 67 -6 87 -14v-82h-34c-44 0 -73 -5 -73 -54v-31h144v40c0 100 62 145 160 145c39 0 58 -7 77 -14v-82h-18c-44 0 -73 -5 -73 -54v-35h266c16 0 24 -16 24 -56v-361c0 -12 13 -25 25 -25h38v-83
h-250v83h40v354h-143v-354h40v-83h-227v83h41v354h-144v-354h40v-83h-244zM608 562v37l54 101h120l50 -101v-37h-56l-58 60l-58 -60h-52z" />
    <glyph glyph-name="f_f_idieresis" unicode="ff&#xef;" horiz-adv-x="864" 
d="M9 0v83h33c12 0 25 14 25 25v329h-62v88h62v36c0 100 63 145 166 145c42 0 67 -6 87 -14v-82h-34c-44 0 -73 -5 -73 -54v-31h144v40c0 100 64 145 155 145c35 0 54 -6 70 -14v-82h-12c-40 0 -67 -5 -67 -54v-35h266c16 0 24 -16 24 -56v-361c0 -12 13 -25 25 -25h38v-83
h-250v83h40v354h-143v-354h40v-83h-227v83h41v354h-144v-354h40v-83h-244zM668 571c-38 0 -68 29 -68 67s30 68 68 68c39 0 69 -30 69 -68s-30 -67 -69 -67zM822 571c-39 0 -69 29 -69 67s30 68 69 68c38 0 68 -30 68 -68s-30 -67 -68 -67z" />
    <glyph glyph-name="f_f_iogonek" unicode="ff&#x12f;" horiz-adv-x="864" 
d="M756 -165c-59 0 -96 28 -96 74s42 78 79 91h-133v83h40v354h-143v-354h40v-83h-227v83h41v354h-144v-354h40v-83h-244v83h33c12 0 25 14 25 25v329h-62v88h62v36c0 100 63 145 166 145c42 0 67 -6 87 -14v-82h-34c-44 0 -73 -5 -73 -54v-31h144v40c0 100 63 145 166 145
c42 0 63 -6 83 -14v-82h-30c-44 0 -73 -5 -73 -54v-35h266c16 0 24 -16 24 -56v-361c0 -12 13 -25 25 -25h38v-83h-54c-19 -18 -33 -32 -33 -57c0 -16 10 -27 41 -27h19v-64c-19 -11 -39 -17 -73 -17zM718 566c-44 0 -79 34 -79 77s35 78 79 78s79 -35 79 -78
s-35 -77 -79 -77z" />
    <glyph glyph-name="f_f_imacron" unicode="ff&#x12b;" horiz-adv-x="864" 
d="M9 0v83h33c12 0 25 14 25 25v329h-62v88h62v36c0 100 63 145 166 145c42 0 67 -6 87 -14v-82h-34c-44 0 -73 -5 -73 -54v-31h144v40c0 100 62 145 160 145c39 0 58 -7 77 -14v-82h-18c-44 0 -73 -5 -73 -54v-35h266c16 0 24 -16 24 -56v-361c0 -12 13 -25 25 -25h38v-83
h-250v83h40v354h-143v-354h40v-83h-227v83h41v354h-144v-354h40v-83h-244zM614 585v94h226v-94h-226z" />
    <glyph glyph-name=".notdef" horiz-adv-x="500" 
 />
    <glyph glyph-name="space" unicode=" " horiz-adv-x="169" 
 />
    <glyph glyph-name="exclam" unicode="!" horiz-adv-x="204" 
d="M66 206l-42 408v86h156v-86l-42 -408h-72zM102 -6c-46 0 -82 35 -82 80s36 81 82 81c45 0 82 -36 82 -81s-37 -80 -82 -80z" />
    <glyph glyph-name="quotedbl" unicode="&#x22;" horiz-adv-x="369" 
d="M58 476l-34 151v73h140v-73l-34 -151h-72zM239 476l-34 151v73h140v-73l-34 -151h-72z" />
    <glyph glyph-name="numbersign" unicode="#" horiz-adv-x="484" 
d="M44 411v117h88l25 172h89l-25 -172h91l25 172h89l-25 -172h71v-117h-88l-15 -98h71v-117h-88l-28 -196h-89l28 196h-91l-28 -196h-89l28 196h-71v117h88l15 98h-71zM204 411l-15 -98h91l15 98h-91z" />
    <glyph glyph-name="dollar" unicode="$" horiz-adv-x="523" 
d="M13 18v160h89c16 -47 38 -82 108 -90v209c-117 30 -194 74 -194 206c0 123 83 194 212 204v57h74v-57c78 -3 132 -16 178 -30v-149h-87c-14 39 -36 74 -91 85v-198c132 -37 201 -75 201 -203c0 -131 -80 -206 -219 -218v-96h-74v95c-82 2 -134 12 -197 25zM143 525
c0 -50 30 -71 85 -89v177c-53 -10 -85 -39 -85 -88zM364 187c0 49 -28 71 -80 89v-185c51 12 80 47 80 96z" />
    <glyph glyph-name="percent" unicode="%" horiz-adv-x="776" 
d="M183 334c-92 0 -171 60 -171 187s79 187 171 187s171 -60 171 -187s-79 -187 -171 -187zM593 -8c-92 0 -171 60 -171 187s79 187 171 187s171 -60 171 -187s-79 -187 -171 -187zM681 729l-493 -763h-92l493 763h92zM183 408c38 0 59 32 59 111c0 80 -21 113 -59 113
s-59 -33 -59 -113c0 -79 21 -111 59 -111zM593 66c38 0 59 32 59 111c0 80 -21 113 -59 113s-59 -33 -59 -113c0 -79 21 -111 59 -111z" />
    <glyph glyph-name="ampersand" unicode="&#x26;" horiz-adv-x="703" 
d="M271 -8c-165 0 -256 74 -256 199c0 106 61 161 145 199c-30 39 -46 76 -46 137c0 110 85 181 213 181c29 0 71 -5 81 -8h122v-180h-104l-16 74c-17 7 -28 12 -60 12c-63 0 -80 -32 -80 -77c0 -43 23 -72 58 -107l165 -166c14 31 24 63 31 94h-46v83h214v-83h-26
c-15 0 -27 -8 -32 -25c-16 -52 -35 -103 -60 -150l65 -65c19 -17 29 -27 44 -27h9v-83h-156l-57 58c-52 -41 -120 -66 -208 -66zM297 91c42 0 78 16 109 42l-187 193c-24 -23 -44 -59 -44 -114c0 -67 37 -121 122 -121z" />
    <glyph glyph-name="quoteright" unicode="&#x2019;" horiz-adv-x="181" 
d="M11 519c40 4 60 19 60 36c0 18 -15 18 -31 29c-18 12 -28 28 -28 57c0 38 32 66 75 66c44 0 83 -29 83 -91c0 -98 -51 -150 -159 -159v62z" />
    <glyph glyph-name="parenleft" unicode="(" horiz-adv-x="302" 
d="M291 741v-79c-68 -23 -146 -92 -146 -311c0 -235 78 -300 146 -323v-77h-44c-117 29 -231 142 -231 400c0 248 114 361 231 390h44z" />
    <glyph glyph-name="parenright" unicode=")" horiz-adv-x="302" 
d="M11 662v79h44c117 -29 231 -142 231 -390c0 -258 -114 -371 -231 -400h-44v77c68 23 146 88 146 323c0 219 -78 288 -146 311z" />
    <glyph glyph-name="asterisk" unicode="*" horiz-adv-x="360" 
d="M184 520l45 -117l-18 -46h-62l-18 46l45 117l-81 -98l-49 -6l-30 53l30 39l126 20l-126 20l-30 40l31 53l49 -8l80 -98l-45 119l18 46h62l18 -46l-45 -119l80 98l49 8l31 -53l-30 -40l-126 -20l126 -20l30 -39l-30 -53l-49 6z" />
    <glyph glyph-name="plus" unicode="+" horiz-adv-x="509" 
d="M493 288h-177v-188h-122v188h-178v115h178v188h122v-188h177v-115z" />
    <glyph glyph-name="comma" unicode="," horiz-adv-x="204" 
d="M19 -46c42 6 63 22 63 40c0 19 -15 20 -32 31c-19 13 -30 30 -30 60c0 40 34 70 79 70c46 0 87 -31 87 -96c0 -103 -53 -158 -167 -169v64z" />
    <glyph glyph-name="hyphen" unicode="-" horiz-adv-x="283" 
d="M26 243v109h231v-109h-231z" />
    <glyph glyph-name="period" unicode="." horiz-adv-x="204" 
d="M102 -6c-46 0 -82 35 -82 80s36 81 82 81c45 0 82 -36 82 -81s-37 -80 -82 -80z" />
    <glyph glyph-name="slash" unicode="/" horiz-adv-x="332" 
d="M335 741l-242 -790h-99l242 790h99z" />
    <glyph glyph-name="zero" unicode="0" horiz-adv-x="642" 
d="M321 -8c-160 0 -303 115 -303 358s143 358 303 358s303 -115 303 -358s-143 -358 -303 -358zM321 92c89 0 143 67 143 255c0 189 -54 257 -143 257c-90 0 -143 -68 -143 -257c0 -188 53 -255 143 -255z" />
    <glyph glyph-name="one" unicode="1" horiz-adv-x="374" 
d="M11 0v83h76c14 0 28 18 28 31v440l-69 -31h-35v83l156 94h105v-586c0 -13 13 -31 28 -31h63v-83h-352z" />
    <glyph glyph-name="two" unicode="2" horiz-adv-x="524" 
d="M384 115l11 76h99v-191h-476v63c0 131 95 205 185 271c73 54 144 101 144 173c0 60 -30 99 -90 99c-64 0 -100 -35 -120 -79h-87v143c61 22 133 38 212 38c151 0 245 -62 245 -200c0 -129 -114 -191 -213 -248c-75 -43 -137 -90 -147 -145h237z" />
    <glyph glyph-name="three" unicode="3" horiz-adv-x="508" 
d="M218 -8c-93 0 -153 13 -207 34v132h87c18 -34 55 -66 118 -66c64 0 117 37 117 110s-41 108 -126 108h-52v93h44c87 0 131 35 131 106c0 60 -30 95 -95 95c-59 0 -94 -29 -114 -62h-83v130c61 22 129 36 208 36c146 0 235 -54 235 -182c0 -96 -56 -143 -148 -163v-4
c107 -15 158 -70 158 -165c1 -132 -116 -202 -273 -202z" />
    <glyph glyph-name="four" unicode="4" horiz-adv-x="541" 
d="M275 83c14 0 28 18 28 31v53h-292v119l300 414h145v-435h74v-98h-74v-53c0 -13 13 -31 28 -31h46v-83h-301v83h46zM103 269v-4h200v275h-4z" />
    <glyph glyph-name="five" unicode="5" horiz-adv-x="505" 
d="M488 225c0 -151 -107 -233 -270 -233c-95 0 -155 20 -207 42v129h87c19 -42 55 -71 118 -71c64 0 117 38 117 127c0 87 -51 124 -107 124c-61 0 -87 -25 -107 -47h-93v404h434v-167h-99l-11 53h-212v-178h3c24 17 66 35 128 35c122 0 219 -66 219 -218z" />
    <glyph glyph-name="six" unicode="6" horiz-adv-x="573" 
d="M351 608c-109 0 -165 -80 -172 -235c37 43 94 71 164 71c124 0 214 -75 214 -212c0 -138 -103 -240 -263 -240s-276 112 -276 343c0 239 130 373 346 373c70 0 119 -8 155 -17v-123h-86c-12 15 -32 40 -82 40zM297 346c-53 0 -92 -19 -119 -38c3 -155 34 -223 116 -223
s107 67 107 142c0 76 -35 119 -104 119z" />
    <glyph glyph-name="seven" unicode="7" horiz-adv-x="501" 
d="M387 580v4h-266l-11 -91h-99v207h479v-127l-250 -573h-157v61z" />
    <glyph glyph-name="eight" unicode="8" horiz-adv-x="582" 
d="M417 377v-4c92 -28 147 -85 147 -174c0 -129 -97 -207 -273 -207s-273 78 -273 207c0 89 55 146 147 174v4c-74 24 -117 70 -117 145c0 117 99 186 243 186s243 -69 243 -186c0 -75 -42 -121 -117 -145zM291 88c82 0 118 52 118 119s-36 119 -118 119
c-83 0 -118 -52 -118 -119s35 -119 118 -119zM291 420c59 0 92 30 92 93s-33 96 -92 96c-60 0 -92 -33 -92 -96s32 -93 92 -93z" />
    <glyph glyph-name="nine" unicode="9" horiz-adv-x="573" 
d="M222 92c108 0 164 80 172 235c-37 -43 -94 -71 -164 -71c-124 0 -214 75 -214 212c0 138 103 240 263 240s276 -101 276 -343c0 -241 -130 -373 -346 -373c-70 0 -130 11 -166 24v124h84c15 -25 41 -48 95 -48zM276 354c53 0 92 18 119 37c-3 156 -35 224 -116 224
c-82 0 -107 -67 -107 -142c0 -76 35 -119 104 -119z" />
    <glyph glyph-name="colon" unicode=":" horiz-adv-x="204" 
d="M102 284c-46 0 -82 35 -82 80s36 81 82 81c45 0 82 -36 82 -81s-37 -80 -82 -80zM102 -6c-46 0 -82 35 -82 80s36 81 82 81c45 0 82 -36 82 -81s-37 -80 -82 -80z" />
    <glyph glyph-name="semicolon" unicode=";" horiz-adv-x="204" 
d="M17 -46c42 6 63 22 63 40c0 19 -15 20 -32 31c-19 13 -30 30 -30 60c0 40 34 70 79 70c46 0 87 -31 87 -96c0 -103 -53 -158 -167 -169v64zM102 284c-46 0 -82 35 -82 80s36 81 82 81c45 0 82 -36 82 -81s-37 -80 -82 -80z" />
    <glyph glyph-name="less" unicode="&#x3c;" horiz-adv-x="456" 
d="M16 281v97l386 193h34v-108l-272 -130v-3l272 -132v-110h-34z" />
    <glyph glyph-name="equal" unicode="=" horiz-adv-x="487" 
d="M467 362h-447v115h447v-115zM467 152h-447v115h447v-115z" />
    <glyph glyph-name="greater" unicode="&#x3e;" horiz-adv-x="456" 
d="M440 378v-97l-386 -193h-34v108l272 130v3l-272 132v110h34z" />
    <glyph glyph-name="question" unicode="?" horiz-adv-x="432" 
d="M119 206c-11 73 -8 118 63 192c24 25 77 73 77 132c0 47 -25 76 -68 76c-49 0 -74 -29 -92 -61h-87v129c60 21 108 34 184 34c136 0 223 -63 223 -183c0 -80 -40 -118 -99 -162c-78 -58 -122 -88 -117 -157h-84zM171 -6c-46 0 -82 35 -82 80s36 81 82 81
c45 0 82 -36 82 -81s-37 -80 -82 -80z" />
    <glyph glyph-name="at" unicode="@" horiz-adv-x="867" 
d="M440 -134c-209 0 -421 112 -421 374c0 277 232 427 430 427c204 0 400 -118 400 -330c0 -187 -116 -271 -237 -271c-87 0 -125 28 -139 71c-26 -38 -66 -71 -127 -71c-76 0 -128 48 -128 134c0 73 21 135 65 187c38 45 95 72 159 72c52 0 79 -17 102 -40
c21 18 48 34 72 34h46l-57 -251c-8 -36 -9 -69 27 -69c73 0 128 66 128 204c0 162 -135 256 -311 256c-168 0 -334 -113 -334 -353c0 -213 144 -300 325 -300c99 0 178 22 237 60h50v-58c-65 -46 -172 -76 -287 -76zM390 142c30 0 53 17 77 43l44 186c-11 4 -25 8 -48 8
c-71 0 -116 -82 -116 -184c0 -34 21 -53 43 -53z" />
    <glyph glyph-name="A" unicode="A" horiz-adv-x="729" 
d="M8 0v83h23c19 0 31 12 38 31l170 469c6 18 -2 31 -18 31h-53v86h298l196 -589c5 -16 20 -28 34 -28h25v-83h-302v83h91l-43 133h-251l-15 -43c-20 -56 -15 -90 32 -90h41v-83h-266zM347 584l-100 -281h192l-90 281h-2z" />
    <glyph glyph-name="B" unicode="B" horiz-adv-x="604" 
d="M421 371v-4c110 -16 170 -68 170 -163c0 -137 -110 -204 -285 -204h-295v86h38c15 0 29 18 29 31v469c0 13 -14 31 -29 31h-38v83h287c175 0 267 -57 267 -179c0 -88 -49 -132 -144 -150zM234 92h68c102 0 129 46 129 119s-27 111 -129 111h-68v-230zM234 407h60
c87 0 117 35 117 102s-30 99 -117 99h-60v-201z" />
    <glyph glyph-name="C" unicode="C" horiz-adv-x="626" 
d="M484 700h116v-226h-104l-16 115c-23 9 -65 17 -112 17c-108 0 -187 -75 -187 -252c0 -173 64 -263 185 -263c80 0 131 36 170 86h72v-108c-60 -44 -144 -77 -249 -77c-211 0 -342 127 -342 356s137 360 346 360c61 0 103 -5 121 -8z" />
    <glyph glyph-name="D" unicode="D" horiz-adv-x="689" 
d="M11 0v83h38c15 0 29 18 29 31v469c0 13 -14 31 -29 31h-38v86h288c235 0 372 -107 372 -347c0 -235 -138 -353 -376 -353h-284zM234 87h61c145 0 216 81 216 264c0 182 -70 257 -216 257h-61v-521z" />
    <glyph glyph-name="E" unicode="E" horiz-adv-x="591" 
d="M11 0v83h38c15 0 29 18 29 31v469c0 13 -14 31 -29 31h-38v86h558v-200h-94l-15 107h-226v-208h98l9 80h90v-247h-90l-8 80h-99v-222h233l14 121h99v-211h-569z" />
    <glyph glyph-name="F" unicode="F" horiz-adv-x="575" 
d="M11 0v83h38c15 0 29 18 29 31v469c0 13 -14 31 -29 31h-38v86h553v-208h-94l-15 115h-221v-223h96l9 80h90v-253h-90l-9 86h-96v-214h87v-83h-310z" />
    <glyph glyph-name="G" unicode="G" horiz-adv-x="660" 
d="M345 -8c-201 0 -328 127 -328 356s136 360 348 360c56 0 95 -5 112 -8h114v-220h-104l-16 109c-23 9 -59 17 -106 17c-105 0 -184 -75 -184 -252c0 -173 60 -263 171 -263c45 0 69 4 94 12v144h-69v86h275v-86h-24c-15 0 -29 -18 -29 -31v-216h-82s-8 22 -28 22
c-39 -19 -78 -30 -144 -30z" />
    <glyph glyph-name="H" unicode="H" horiz-adv-x="726" 
d="M11 0v83h38c15 0 29 18 29 31v469c0 13 -14 31 -29 31h-38v86h302v-86h-79v-212h257v212h-79v86h303v-86h-39c-15 0 -29 -18 -29 -31v-469c0 -13 14 -31 29 -31h39v-83h-303v83h79v230h-257v-230h79v-83h-302z" />
    <glyph glyph-name="I" unicode="I" horiz-adv-x="327" 
d="M11 0v83h46c14 0 28 18 28 31v469c0 13 -14 31 -28 31h-46v86h305v-86h-46c-15 0 -28 -18 -28 -31v-469c0 -13 13 -31 28 -31h46v-83h-305z" />
    <glyph glyph-name="J" unicode="J" horiz-adv-x="492" 
d="M250 177v406c0 13 -14 31 -28 31h-46v86h305v-86h-46c-15 0 -28 -18 -28 -31v-409c0 -125 -73 -182 -227 -182c-72 0 -120 14 -167 35v108h83c17 -25 38 -43 81 -43c50 0 73 29 73 85z" />
    <glyph glyph-name="K" unicode="K" horiz-adv-x="695" 
d="M11 0v83h38c15 0 29 18 29 31v469c0 13 -14 31 -29 31h-38v86h291v-86h-68v-268l195 206c38 40 28 62 -11 62h-10v86h267v-86h-24c-17 0 -28 -14 -52 -32l-177 -172l203 -300c9 -12 18 -27 33 -27h26v-83h-211v75l-152 236l-87 -85v-143h68v-83h-291z" />
    <glyph glyph-name="L" unicode="L" horiz-adv-x="567" 
d="M11 0v83h38c15 0 29 18 29 31v469c0 13 -14 31 -29 31h-38v86h317v-86h-94v-524h206l14 144h102v-234h-545z" />
    <glyph glyph-name="M" unicode="M" horiz-adv-x="878" 
d="M470 0h-108l-167 599h-3v-516h70v-83h-251v83h38c15 0 29 18 29 31v469c0 13 -14 31 -29 31h-38v86h295l132 -472h3l133 472h293v-86h-39c-15 0 -29 -18 -29 -31v-469c0 -13 14 -31 29 -31h39v-83h-293v83h69v516h-3z" />
    <glyph glyph-name="N" unicode="N" horiz-adv-x="707" 
d="M11 0v83h38c15 0 29 18 29 31v469c0 13 -14 31 -29 31h-38v86h224l278 -449h3v363h-78v86h258v-86h-37c-14 0 -28 -18 -28 -31v-583h-132l-304 488h-3v-405h80v-83h-261z" />
    <glyph glyph-name="O" unicode="O" horiz-adv-x="722" 
d="M361 -8c-185 0 -343 127 -343 358s158 358 343 358s343 -127 343 -358s-158 -358 -343 -358zM361 92c105 0 183 84 183 255c0 172 -78 257 -183 257c-106 0 -183 -85 -183 -257c0 -171 77 -255 183 -255z" />
    <glyph glyph-name="P" unicode="P" horiz-adv-x="604" 
d="M321 0h-310v83h38c15 0 29 18 29 31v469c0 13 -14 31 -29 31h-38v86h299c174 0 281 -66 281 -219c0 -151 -108 -219 -285 -219h-72v-179h87v-83zM234 608v-259h72c101 0 125 55 125 130s-24 129 -125 129h-72z" />
    <glyph glyph-name="Q" unicode="Q" horiz-adv-x="722" 
d="M522 52v-2c123 -22 175 -57 208 -95v-79h-131c-38 62 -102 100 -238 116c-212 25 -343 127 -343 358s158 358 343 358s343 -127 343 -358c0 -156 -67 -255 -182 -298zM361 92c105 0 183 84 183 255c0 172 -78 257 -183 257c-106 0 -183 -85 -183 -257
c0 -171 77 -255 183 -255z" />
    <glyph glyph-name="R" unicode="R" horiz-adv-x="662" 
d="M298 301h-64v-218h87v-83h-310v83h38c15 0 29 18 29 31v469c0 13 -14 31 -29 31h-38v86h302c174 0 278 -64 278 -197c0 -94 -57 -138 -160 -158v-4c79 -15 113 -47 143 -161l19 -72c5 -18 16 -25 25 -25h33v-83h-199l-33 190c-11 85 -38 111 -121 111zM234 608v-229h75
c101 0 122 48 122 115c0 68 -21 114 -122 114h-75z" />
    <glyph glyph-name="S" unicode="S" horiz-adv-x="524" 
d="M243 -8c-45 0 -82 4 -108 8h-119v211h106l14 -109c24 -9 52 -15 102 -15c85 0 122 39 122 100c0 81 -86 90 -183 118c-93 27 -152 82 -152 198c0 133 93 205 241 205c48 0 86 -4 106 -8h110v-191h-104l-14 92c-21 8 -49 14 -92 14c-74 0 -115 -30 -115 -90
c0 -73 73 -89 157 -111c126 -33 190 -77 190 -202c0 -143 -91 -220 -261 -220z" />
    <glyph glyph-name="T" unicode="T" horiz-adv-x="633" 
d="M165 0v83h44c15 0 29 18 29 31v496h-113l-11 -146h-97v236h599v-236h-97l-12 146h-113v-496c0 -13 14 -31 29 -31h44v-83h-302z" />
    <glyph glyph-name="U" unicode="U" horiz-adv-x="714" 
d="M378 92c90 0 144 34 144 165v357h-79v86h260v-86h-38c-15 0 -29 -18 -29 -31v-315c0 -180 -84 -276 -276 -276c-183 0 -281 96 -281 276v315c0 13 -14 31 -29 31h-39v86h303v-86h-79v-357c0 -131 53 -165 143 -165z" />
    <glyph glyph-name="V" unicode="V" horiz-adv-x="711" 
d="M271 0l-204 587c-6 15 -18 27 -33 27h-23v86h290v-86h-83l153 -467h2l135 399c15 44 5 68 -34 68h-37v86h263v-86h-21c-17 0 -32 -13 -38 -31l-211 -583h-159z" />
    <glyph glyph-name="W" unicode="W" horiz-adv-x="975" 
d="M484 434h-2l-109 -434h-169l-144 587c-6 15 -18 27 -33 27h-16v86h283v-86h-83l98 -435h2l130 521h119l129 -521h2l88 367c15 44 5 68 -34 68h-37v86h256v-86h-14c-17 0 -32 -13 -38 -31l-151 -583h-169z" />
    <glyph glyph-name="X" unicode="X" horiz-adv-x="661" 
d="M589 111c15 -21 29 -28 43 -28h18v-83h-287v83h70l-133 190l-84 -140c-17 -32 -7 -50 22 -50h27v-83h-254v83h28c13 0 29 8 36 19l166 255l-159 229c-15 21 -25 28 -39 28h-32v86h287v-86h-60l126 -181l73 123c28 42 8 58 -20 58h-21v86h254v-86h-32
c-13 0 -28 -8 -35 -19l-158 -249z" />
    <glyph glyph-name="Y" unicode="Y" horiz-adv-x="668" 
d="M188 0v83h44c15 0 29 18 29 31v172l-195 305c-9 14 -20 23 -32 23h-23v86h287v-86h-79l141 -231h2l98 161c26 44 8 70 -34 70h-29v86h260v-86h-17c-15 0 -29 -10 -40 -27l-183 -295v-178c0 -13 14 -31 29 -31h44v-83h-302z" />
    <glyph glyph-name="Z" unicode="Z" horiz-adv-x="552" 
d="M541 594l-365 -500v-4h252l14 123h99v-213h-530v103l365 500v4h-230l-15 -107h-94v200h504v-106z" />
    <glyph glyph-name="bracketleft" unicode="[" horiz-adv-x="260" 
d="M22 -49v790h227v-86h-101v-621h101v-83h-227z" />
    <glyph glyph-name="backslash" unicode="\" horiz-adv-x="332" 
d="M338 -49h-99l-242 790h99z" />
    <glyph glyph-name="bracketright" unicode="]" horiz-adv-x="260" 
d="M238 741v-790h-227v83h101v621h-101v86h227z" />
    <glyph glyph-name="asciicircum" unicode="^" horiz-adv-x="394" 
d="M144 700h105l134 -214v-34h-94l-91 132h-3l-90 -132h-94v34z" />
    <glyph glyph-name="underscore" unicode="_" horiz-adv-x="373" 
d="M375 -162h-377v78h377v-78z" />
    <glyph glyph-name="quoteleft" unicode="&#x2018;" horiz-adv-x="181" 
d="M170 641c-40 -4 -60 -19 -60 -36c0 -18 15 -18 31 -29c18 -12 28 -28 28 -57c0 -38 -32 -66 -75 -66c-44 0 -83 29 -83 91c0 98 51 150 159 159v-62z" />
    <glyph glyph-name="a" unicode="a" horiz-adv-x="534" 
d="M180 -6c-98 0 -168 54 -168 158c0 110 86 160 207 160c44 0 74 -4 107 -12v55c0 53 -29 78 -91 78c-63 0 -95 -24 -121 -47h-67v107c49 22 115 40 217 40c136 0 208 -44 208 -164v-261c0 -12 13 -25 25 -25h28v-70c-20 -12 -50 -20 -88 -20c-61 0 -92 24 -105 66
c-39 -48 -88 -65 -152 -65zM234 80c37 0 67 14 92 37v112c-23 4 -49 6 -77 6c-59 0 -95 -24 -95 -77s31 -78 80 -78z" />
    <glyph glyph-name="b" unicode="b" horiz-adv-x="565" 
d="M325 -7c-79 0 -124 25 -156 59c-15 -27 -37 -52 -49 -52h-81v587c0 11 -13 27 -25 27h-38v86h184c16 0 25 -12 25 -34v-211c40 43 92 78 168 78c99 0 198 -66 198 -263c0 -203 -115 -277 -226 -277zM282 428c-29 0 -66 -10 -97 -22v-300c23 -18 52 -30 95 -30
c60 0 123 34 123 181c0 139 -57 171 -121 171z" />
    <glyph glyph-name="c" unicode="c" horiz-adv-x="502" 
d="M285 -7c-182 0 -272 100 -272 268c0 169 109 272 279 272c85 0 142 -12 177 -27v-120h-88c-18 36 -41 54 -92 54c-79 0 -127 -56 -127 -180c0 -125 41 -176 126 -176c65 0 91 29 112 56h71v-103c-39 -22 -97 -44 -186 -44z" />
    <glyph glyph-name="d" unicode="d" horiz-adv-x="605" 
d="M232 -8c-105 0 -218 63 -218 264c0 198 124 277 226 277c73 0 116 -27 150 -68v149h-68v86h189c17 0 25 -13 25 -34v-556c0 -11 13 -27 25 -27h36v-83h-178c-15 0 -24 22 -27 59c-34 -39 -87 -67 -160 -67zM281 80c46 0 80 17 109 42v288c-26 12 -62 23 -97 23
c-69 0 -131 -40 -131 -173c0 -144 59 -180 119 -180z" />
    <glyph glyph-name="e" unicode="e" horiz-adv-x="527" 
d="M513 235h-351c6 -104 52 -152 136 -152c65 0 88 23 115 57h83v-96c-43 -26 -100 -51 -210 -51c-182 0 -273 102 -273 267c0 169 105 273 263 273c157 0 239 -80 239 -258c0 -18 -2 -35 -2 -40zM276 446c-61 0 -101 -38 -112 -128h205c-5 92 -33 128 -93 128z" />
    <glyph glyph-name="f" unicode="f" horiz-adv-x="325" 
d="M5 437v88h62v40c0 100 63 145 166 145c42 0 67 -6 87 -14v-82h-34c-44 0 -73 -5 -73 -54v-35h100v-88h-100v-329c0 -12 13 -25 25 -25h46v-83h-275v83h33c12 0 25 14 25 25v329h-62z" />
    <glyph glyph-name="g" unicode="g" horiz-adv-x="512" 
d="M217 -175c-162 0 -225 49 -225 121c0 60 47 92 92 110c-25 13 -43 42 -43 76c0 44 26 78 61 101c-44 29 -69 73 -69 129c0 103 85 171 212 171c25 0 49 -3 71 -8h184v-88h-31c-9 0 -22 -9 -22 -18c6 -17 10 -37 10 -57c0 -102 -85 -165 -212 -165c-36 0 -68 5 -96 14
c-3 -11 -4 -25 -4 -34c0 -23 15 -32 44 -32h146c112 0 165 -41 165 -131c0 -111 -78 -189 -283 -189zM223 -89c97 0 144 26 144 69c0 30 -18 46 -70 46h-178c-5 -15 -6 -30 -6 -46c0 -45 30 -69 110 -69zM245 272c49 0 82 31 82 90c0 60 -33 90 -82 90s-82 -30 -82 -90
c0 -59 33 -90 82 -90z" />
    <glyph glyph-name="h" unicode="h" horiz-adv-x="607" 
d="M339 0v83h60v269c0 52 -20 67 -69 67c-42 0 -81 -9 -115 -20v-316h61v-83h-267v83h35c12 0 25 14 25 25v479c0 11 -13 27 -25 27h-38v86h184c16 0 25 -12 25 -34v-208c48 45 116 75 194 75c73 0 136 -29 136 -131v-294c0 -12 13 -25 25 -25h28v-83h-259z" />
    <glyph glyph-name="i" unicode="i" horiz-adv-x="289" 
d="M9 0v83h38c12 0 24 14 24 25v302c0 11 -12 27 -24 27h-42v88h189c16 0 24 -16 24 -56v-361c0 -12 13 -25 25 -25h38v-83h-272zM143 566c-44 0 -79 34 -79 77s35 78 79 78s79 -35 79 -78s-35 -77 -79 -77z" />
    <glyph glyph-name="j" unicode="j" horiz-adv-x="264" 
d="M-38 -157v73h34c55 0 75 21 75 71v423c0 11 -12 27 -24 27h-42v88h189c16 0 24 -16 24 -56v-491c0 -110 -63 -146 -171 -146c-34 0 -62 4 -85 11zM143 566c-44 0 -79 34 -79 77s35 78 79 78s79 -35 79 -78s-35 -77 -79 -77z" />
    <glyph glyph-name="k" unicode="k" horiz-adv-x="569" 
d="M9 0v83h35c12 0 25 14 25 25v479c0 11 -13 27 -25 27h-38v86h184c16 0 25 -12 25 -34v-398l132 129c16 17 12 40 -8 40h-20v88h237v-88h-28c-14 0 -32 -9 -42 -19l-112 -109l137 -198c14 -20 25 -28 39 -28h10v-83h-143l-143 212l-59 -57v-72h51v-83h-257z" />
    <glyph glyph-name="l" unicode="l" horiz-adv-x="294" 
d="M9 0v83h39c12 0 25 14 25 25v479c0 11 -13 27 -25 27h-42v86h188c17 0 25 -12 25 -34v-558c0 -12 14 -25 25 -25h41v-83h-276z" />
    <glyph glyph-name="m" unicode="m" horiz-adv-x="914" 
d="M9 0v83h35c12 0 25 14 25 25v302c0 11 -13 27 -25 27h-39v88h179c17 0 27 -14 30 -69c44 37 107 77 187 77c57 0 109 -19 127 -82c45 39 109 82 192 82c70 0 133 -29 133 -131v-294c0 -12 13 -25 25 -25h28v-83h-255v83h56v273c0 51 -17 63 -63 63c-37 0 -77 -8 -110 -19
v-317h57v-83h-259v83h56v273c0 51 -17 63 -63 63c-37 0 -77 -8 -110 -19v-317h57v-83h-263z" />
    <glyph glyph-name="n" unicode="n" horiz-adv-x="607" 
d="M9 0v83h35c12 0 25 14 25 25v302c0 11 -13 27 -25 27h-39v88h179c17 0 27 -14 30 -68c49 46 116 76 195 76c73 0 136 -29 136 -131v-294c0 -12 13 -25 25 -25h28v-83h-259v83h60v269c0 52 -20 67 -69 67c-42 0 -81 -9 -115 -20v-316h61v-83h-267z" />
    <glyph glyph-name="o" unicode="o" horiz-adv-x="578" 
d="M289 -7c-153 0 -276 99 -276 267c0 169 123 273 276 273s276 -104 276 -273c0 -168 -123 -267 -276 -267zM289 85c73 0 128 56 128 174c0 119 -55 178 -128 178s-128 -59 -128 -178c0 -118 55 -174 128 -174z" />
    <glyph glyph-name="p" unicode="p" horiz-adv-x="585" 
d="M9 -162v78h35c12 0 25 13 25 25v469c0 11 -13 27 -25 27h-39v88h179c16 0 26 -12 29 -61c39 39 90 69 160 69c99 0 198 -72 198 -259c0 -194 -115 -264 -226 -264c-60 0 -100 14 -130 36v-130h67v-78h-273zM302 428c-26 0 -58 -8 -87 -19v-293c22 -14 48 -23 85 -23
c60 0 123 28 123 168c0 133 -57 167 -121 167z" />
    <glyph glyph-name="q" unicode="q" horiz-adv-x="565" 
d="M313 -162v78h67v146c-34 -30 -82 -52 -148 -52c-105 0 -218 54 -218 251c0 194 120 272 222 272c71 0 116 -25 151 -65c12 45 36 57 51 57h88v-584c0 -12 13 -25 25 -25h38v-78h-276zM281 97c40 0 73 10 99 27v290c-25 9 -57 18 -87 18c-69 0 -131 -38 -131 -168
c0 -141 59 -167 119 -167z" />
    <glyph glyph-name="r" unicode="r" horiz-adv-x="403" 
d="M9 0v83h35c12 0 25 14 25 25v302c0 11 -13 27 -25 27h-39v88h179c17 0 28 -15 30 -76c35 43 76 81 145 81c11 0 22 -2 32 -5v-108h-25c-76 0 -122 -16 -151 -32v-302h73v-83h-279z" />
    <glyph glyph-name="s" unicode="s" horiz-adv-x="442" 
d="M203 -6c-95 0 -147 14 -190 28v118h84c12 -37 59 -60 105 -60c56 0 90 24 90 62c0 39 -23 55 -107 67c-113 16 -166 55 -166 158c0 104 80 164 214 164c82 0 138 -9 180 -23v-116h-81c-17 31 -49 51 -104 51c-54 0 -84 -22 -84 -55c0 -32 19 -51 108 -64
c127 -19 179 -54 179 -160c0 -103 -69 -170 -228 -170z" />
    <glyph glyph-name="t" unicode="t" horiz-adv-x="332" 
d="M5 437v88h62v140h146v-140h106v-88h-106v-288c0 -56 20 -66 74 -66h36v-78c-22 -7 -53 -13 -94 -13c-101 0 -162 32 -162 141v304h-62z" />
    <glyph glyph-name="u" unicode="u" horiz-adv-x="608" 
d="M205 -7c-73 0 -141 28 -141 130v289c0 12 -14 25 -25 25h-34v88h205v-356c0 -57 28 -73 74 -73c38 0 78 12 110 25v316h-69v88h215v-415c0 -11 13 -27 25 -27h34v-83h-174c-17 0 -26 13 -30 65c-48 -45 -106 -72 -190 -72z" />
    <glyph glyph-name="v" unicode="v" horiz-adv-x="580" 
d="M220 0l-164 409c-6 17 -18 28 -32 28h-19v88h255v-88h-66l107 -300h2l85 234c14 39 18 66 -26 66h-16v88h222v-88h-17c-16 0 -30 -12 -38 -31l-167 -406h-126z" />
    <glyph glyph-name="w" unicode="w" horiz-adv-x="816" 
d="M405 341h-2l-104 -341h-125l-118 409c-6 16 -18 28 -32 28h-19v88h232v-88h-46l69 -262h2l102 350h112l102 -350h2l53 196c13 46 8 66 -33 66h-15v88h219v-88h-17c-16 0 -32 -9 -38 -31l-119 -406h-125z" />
    <glyph glyph-name="x" unicode="x" horiz-adv-x="551" 
d="M490 111c16 -19 29 -28 43 -28h6v-83h-255v83h58l-94 117l-52 -67c-22 -28 -17 -50 12 -50h13v-83h-212v83h10c14 0 32 9 42 19l129 155l-128 152c-16 19 -25 28 -39 28h-18v88h261v-88h-56l91 -113l59 74c16 20 14 39 -12 39h-19v88h206v-88h-11c-13 0 -28 -8 -37 -19
l-127 -153z" />
    <glyph glyph-name="y" unicode="y" horiz-adv-x="590" 
d="M205 -162h-119v77c56 17 106 47 142 92l-173 402c-7 17 -17 28 -31 28h-19v88h254v-88h-69l113 -271l84 205c15 38 20 66 -24 66h-16v88h231v-88h-22c-14 0 -28 -12 -36 -31l-172 -387c-41 -90 -93 -149 -143 -181z" />
    <glyph glyph-name="z" unicode="z" horiz-adv-x="483" 
d="M11 0v91l291 345h-177l-14 -88h-84v177h443v-94l-292 -344h186l12 88h87v-175h-452z" />
    <glyph glyph-name="braceleft" unicode="{" horiz-adv-x="328" 
d="M90 79v174c0 28 -16 55 -56 55h-23v86h23c40 0 56 27 56 55v164c0 82 46 128 144 128h83v-86h-72c-15 0 -29 -18 -29 -31v-164c0 -54 -22 -89 -89 -107v-3c67 -18 89 -53 89 -107v-178c0 -13 14 -31 29 -31h72v-83h-83c-98 0 -144 46 -144 128z" />
    <glyph glyph-name="bar" unicode="|" horiz-adv-x="155" 
d="M125 741v-790h-95v790h95z" />
    <glyph glyph-name="braceright" unicode="}" horiz-adv-x="328" 
d="M238 613v-174c0 -28 16 -55 56 -55h23v-86h-23c-40 0 -56 -27 -56 -55v-164c0 -82 -46 -128 -144 -128h-83v83h72c15 0 29 18 29 31v167c0 54 22 89 89 107v3c-67 18 -89 53 -89 107v175c0 13 -14 31 -29 31h-72v86h83c98 0 144 -46 144 -128z" />
    <glyph glyph-name="asciitilde" unicode="~" horiz-adv-x="361" 
d="M240 339c22 0 32 11 40 28h70v-81c-19 -32 -50 -64 -103 -64c-47 0 -99 27 -126 27c-22 0 -32 -13 -40 -30h-70v81c19 32 50 62 103 62c47 0 99 -23 126 -23z" />
    <glyph glyph-name="exclamdown" unicode="&#xa1;" horiz-adv-x="204" 
d="M102 473c-45 0 -82 36 -82 81s37 80 82 80c46 0 82 -35 82 -80s-36 -81 -82 -81zM24 -72v86l42 408h72l42 -408v-86h-156z" />
    <glyph glyph-name="cent" unicode="&#xa2;" horiz-adv-x="502" 
d="M249 589h74v-57c68 -2 115 -13 146 -26v-123h-82c-15 28 -34 46 -64 53v-348c42 10 65 36 83 57h65v-105c-33 -19 -80 -40 -148 -45v-97h-74v96c-158 12 -236 110 -236 267c0 154 91 254 236 270v58zM162 260c0 -104 28 -157 87 -172v346c-55 -17 -87 -73 -87 -174z" />
    <glyph glyph-name="sterling" unicode="&#xa3;" horiz-adv-x="500" 
d="M11 309v87h43c-10 40 -18 78 -18 110c0 139 111 202 241 202c79 0 137 -16 198 -38v-143h-87c-20 44 -42 79 -106 79c-52 0 -87 -31 -87 -95c0 -24 6 -66 13 -115h164v-87h-153c4 -37 7 -73 7 -103c0 -27 -4 -51 -10 -73c50 -12 105 -16 163 -16l11 74h99v-191h-53
c-121 0 -214 14 -278 45c-21 -17 -46 -32 -76 -45h-71v83c52 8 84 48 84 108c0 36 -8 76 -18 118h-66z" />
    <glyph glyph-name="fraction" unicode="&#x2044;" horiz-adv-x="205" 
d="M-190 -34l493 763h92l-493 -763h-92z" />
    <glyph glyph-name="yen" unicode="&#xa5;" horiz-adv-x="598" 
d="M48 313v72h132l-124 206c-9 15 -20 23 -32 23h-13v86h267v-86h-65l110 -203h2l71 133c24 47 8 70 -34 70h-19v86h244v-86h-17c-15 0 -30 -10 -40 -27l-118 -202h138v-72h-173v-60h173v-72h-173v-67c0 -13 14 -31 29 -31h44v-83h-302v83h44c15 0 29 18 29 31v67h-173v72
h173v60h-173z" />
    <glyph glyph-name="florin" unicode="&#x192;" horiz-adv-x="364" 
d="M22 351v87h69l15 127c11 101 68 145 173 145c36 0 60 -7 80 -14v-82h-29c-41 0 -68 -14 -73 -54l-15 -122h90v-87h-100l-37 -305c-8 -66 -44 -122 -118 -146h-72v83c23 10 37 23 43 72l33 296h-59z" />
    <glyph glyph-name="section" unicode="&#xa7;" horiz-adv-x="524" 
d="M236 -133c-96 0 -146 15 -192 31v128h91c14 -43 43 -71 99 -71c64 0 90 26 90 68c0 48 -30 56 -140 87c-109 31 -168 75 -168 167c0 71 37 111 98 134c-37 28 -54 66 -54 122c0 107 79 175 214 175c91 0 137 -10 182 -27v-120h-91c-14 37 -34 58 -92 58
c-60 0 -86 -27 -86 -63c0 -41 25 -60 127 -85c131 -32 194 -70 194 -175c0 -63 -37 -108 -103 -132c42 -29 60 -65 60 -119c0 -104 -71 -178 -229 -178zM266 353l-66 17c-47 -12 -59 -34 -59 -66c0 -34 20 -54 102 -78l76 -22c36 13 57 36 57 70c0 40 -40 61 -110 79z" />
    <glyph glyph-name="quotesingle" unicode="'" horiz-adv-x="188" 
d="M58 476l-34 151v73h140v-73l-34 -151h-72z" />
    <glyph glyph-name="quotedblleft" unicode="&#x201c;" horiz-adv-x="363" 
d="M170 641c-40 -4 -60 -19 -60 -36c0 -18 15 -18 31 -29c18 -12 28 -28 28 -57c0 -38 -32 -66 -75 -66c-44 0 -83 29 -83 91c0 98 51 150 159 159v-62zM352 641c-40 -4 -60 -19 -60 -36c0 -18 15 -18 31 -29c18 -12 28 -28 28 -57c0 -38 -32 -66 -75 -66
c-44 0 -83 29 -83 91c0 98 51 150 159 159v-62z" />
    <glyph glyph-name="guillemotleft" unicode="&#xab;" horiz-adv-x="489" 
d="M169 40l-139 181v77l139 182h79v-51l-98 -166v-3l98 -167v-53h-79zM380 40l-139 181v77l139 182h79v-51l-98 -166v-3l98 -167v-53h-79z" />
    <glyph glyph-name="guilsinglleft" unicode="&#x2039;" horiz-adv-x="278" 
d="M169 40l-139 181v77l139 182h79v-51l-98 -166v-3l98 -167v-53h-79z" />
    <glyph glyph-name="guilsinglright" unicode="&#x203a;" horiz-adv-x="278" 
d="M30 40v51l98 166v3l-98 167v53h79l139 -181v-77l-139 -182h-79z" />
    <glyph glyph-name="endash" unicode="&#x2013;" horiz-adv-x="413" 
d="M26 231v103h361v-103h-361z" />
    <glyph glyph-name="dagger" unicode="&#x2020;" horiz-adv-x="443" 
d="M193 -49l-53 318v42l60 140l-143 -55l-46 30v87l46 30l144 -56l-52 132v30l24 51h97l24 -51v-30l-52 -132l144 56l46 -30v-87l-46 -30l-144 56l61 -139v-42l-53 -320h-57z" />
    <glyph glyph-name="daggerdbl" unicode="&#x2021;" horiz-adv-x="443" 
d="M173 -49l-24 51v30l52 132l-144 -56l-46 30v87l46 30l141 -55l-52 96v59l52 95l-141 -54l-46 30v87l46 30l144 -56l-52 132v30l24 51h97l24 -51v-30l-52 -132l144 56l46 -30v-87l-46 -30l-142 55l53 -96v-59l-52 -96l141 55l46 -30v-87l-46 -30l-144 56l52 -132v-30
l-24 -51h-97z" />
    <glyph glyph-name="periodcentered" unicode="&#xb7;" horiz-adv-x="204" 
d="M102 215c-46 0 -82 35 -82 80s36 81 82 81c45 0 82 -36 82 -81s-37 -80 -82 -80z" />
    <glyph glyph-name="paragraph" unicode="&#xb6;" horiz-adv-x="554" 
d="M240 -91v394c-132 6 -227 58 -227 198c0 153 110 199 254 199h276v-86h-38c-15 0 -29 -18 -29 -31v-674h-84v699h-68v-699h-84z" />
    <glyph glyph-name="bullet" unicode="&#x2022;" horiz-adv-x="320" 
d="M160 145c-76 0 -138 50 -138 134s62 136 138 136c77 0 138 -52 138 -136s-61 -134 -138 -134z" />
    <glyph glyph-name="quotesinglbase" unicode="&#x201a;" horiz-adv-x="181" 
d="M11 -37c40 4 60 19 60 36c0 18 -15 18 -31 29c-18 12 -28 28 -28 57c0 38 32 66 75 66c44 0 83 -29 83 -91c0 -98 -51 -150 -159 -159v62z" />
    <glyph glyph-name="quotedblbase" unicode="&#x201e;" horiz-adv-x="363" 
d="M193 -37c40 4 60 19 60 36c0 18 -15 18 -31 29c-18 12 -28 28 -28 57c0 38 32 66 75 66c44 0 83 -29 83 -91c0 -98 -51 -150 -159 -159v62zM11 -37c40 4 60 19 60 36c0 18 -15 18 -31 29c-18 12 -28 28 -28 57c0 38 32 66 75 66c44 0 83 -29 83 -91
c0 -98 -51 -150 -159 -159v62z" />
    <glyph glyph-name="quotedblright" unicode="&#x201d;" horiz-adv-x="363" 
d="M193 519c40 4 60 19 60 36c0 18 -15 18 -31 29c-18 12 -28 28 -28 57c0 38 32 66 75 66c44 0 83 -29 83 -91c0 -98 -51 -150 -159 -159v62zM11 519c40 4 60 19 60 36c0 18 -15 18 -31 29c-18 12 -28 28 -28 57c0 38 32 66 75 66c44 0 83 -29 83 -91
c0 -98 -51 -150 -159 -159v62z" />
    <glyph glyph-name="guillemotright" unicode="&#xbb;" horiz-adv-x="489" 
d="M30 40v51l98 166v3l-98 167v53h79l139 -181v-77l-139 -182h-79zM241 40v51l98 166v3l-98 167v53h79l139 -181v-77l-139 -182h-79z" />
    <glyph glyph-name="ellipsis" unicode="&#x2026;" horiz-adv-x="592" 
d="M102 -6c-46 0 -82 35 -82 80s36 81 82 81c45 0 82 -36 82 -81s-37 -80 -82 -80zM490 -6c-46 0 -82 35 -82 80s36 81 82 81c45 0 82 -36 82 -81s-37 -80 -82 -80zM296 -6c-46 0 -82 35 -82 80s36 81 82 81c45 0 82 -36 82 -81s-37 -80 -82 -80z" />
    <glyph glyph-name="perthousand" unicode="&#x2030;" horiz-adv-x="1145" 
d="M183 334c-92 0 -171 60 -171 187s79 187 171 187s171 -60 171 -187s-79 -187 -171 -187zM593 -8c-92 0 -171 60 -171 187s79 187 171 187s171 -60 171 -187s-79 -187 -171 -187zM962 -8c-92 0 -171 60 -171 187s79 187 171 187s171 -60 171 -187s-79 -187 -171 -187z
M681 729l-493 -763h-92l493 763h92zM962 66c38 0 59 32 59 111c0 80 -21 113 -59 113s-59 -33 -59 -113c0 -79 21 -111 59 -111zM183 408c38 0 59 32 59 111c0 80 -21 113 -59 113s-59 -33 -59 -113c0 -79 21 -111 59 -111zM593 66c38 0 59 32 59 111c0 80 -21 113 -59 113
s-59 -33 -59 -113c0 -79 21 -111 59 -111z" />
    <glyph glyph-name="questiondown" unicode="&#xbf;" horiz-adv-x="432" 
d="M236 -80c-136 0 -223 63 -223 183c0 80 40 118 99 162c78 58 122 88 117 157h84c11 -73 8 -118 -63 -192c-24 -25 -77 -73 -77 -132c0 -47 25 -76 68 -76c49 0 74 29 92 61h87v-129c-60 -21 -108 -34 -184 -34zM261 473c-45 0 -82 36 -82 81s37 80 82 80
c46 0 82 -35 82 -80s-36 -81 -82 -81z" />
    <glyph glyph-name="grave" unicode="`" horiz-adv-x="400" 
d="M245 562h-77l-97 88v50h146z" />
    <glyph glyph-name="acute" unicode="&#xb4;" horiz-adv-x="400" 
d="M155 562l28 138h146v-50l-97 -88h-77z" />
    <glyph glyph-name="circumflex" unicode="&#x2c6;" horiz-adv-x="400" 
d="M70 562v37l71 101h120l67 -101v-37h-53l-78 60l-78 -60h-49z" />
    <glyph glyph-name="tilde" unicode="&#x2dc;" horiz-adv-x="400" 
d="M32 564v73c18 32 46 59 99 59c47 0 104 -28 131 -28c22 0 33 12 40 32h66v-75c-18 -32 -46 -59 -99 -59c-47 0 -104 32 -131 32c-22 0 -33 -14 -40 -34h-66z" />
    <glyph glyph-name="macron" unicode="&#xaf;" horiz-adv-x="400" 
d="M333 679v-94h-266v94h266z" />
    <glyph glyph-name="breve" unicode="&#x2d8;" horiz-adv-x="400" 
d="M200 562c-79 0 -117 47 -133 88v50h82c6 -27 23 -43 51 -43s45 16 51 43h82v-50c-16 -41 -54 -88 -133 -88z" />
    <glyph glyph-name="dotaccent" unicode="&#x2d9;" horiz-adv-x="400" 
d="M200 566c-44 0 -79 34 -79 77s35 78 79 78s79 -35 79 -78s-35 -77 -79 -77z" />
    <glyph glyph-name="dieresis" unicode="&#xa8;" horiz-adv-x="400" 
d="M104 566c-42 0 -75 32 -75 73c0 40 33 73 75 73s75 -33 75 -73c0 -41 -33 -73 -75 -73zM296 566c-42 0 -75 32 -75 73c0 40 33 73 75 73s75 -33 75 -73c0 -41 -33 -73 -75 -73z" />
    <glyph glyph-name="ring" unicode="&#x2da;" horiz-adv-x="400" 
d="M200 566c-57 0 -105 38 -105 100s48 101 105 101s105 -39 105 -101s-48 -100 -105 -100zM200 612c31 0 53 21 53 54c0 34 -22 55 -53 55s-52 -21 -52 -55c0 -33 21 -54 52 -54z" />
    <glyph glyph-name="cedilla" unicode="&#xb8;" horiz-adv-x="400" 
d="M160 0h63v-25c58 -2 83 -29 83 -73c0 -48 -38 -77 -105 -77c-36 0 -59 8 -80 17v57h34c6 -8 17 -14 34 -14c19 0 28 8 28 22s-10 22 -35 22h-22v71z" />
    <glyph glyph-name="hungarumlaut" unicode="&#x2dd;" horiz-adv-x="400" 
d="M70 562l23 138h121v-50l-67 -88h-77zM233 562l23 138h121v-50l-67 -88h-77z" />
    <glyph glyph-name="ogonek" unicode="&#x2db;" horiz-adv-x="400" 
d="M271 0c-19 -18 -33 -32 -33 -57c0 -16 10 -27 41 -27h19v-64c-19 -11 -39 -17 -73 -17c-59 0 -96 28 -96 74s42 78 79 91h63z" />
    <glyph glyph-name="caron" unicode="&#x2c7;" horiz-adv-x="400" 
d="M138 562l-67 101v37h53l78 -60l78 60h49v-37l-71 -101h-120z" />
    <glyph glyph-name="emdash" unicode="&#x2014;" horiz-adv-x="673" 
d="M26 231v103h621v-103h-621z" />
    <glyph glyph-name="AE" unicode="&#xc6;" horiz-adv-x="975" 
d="M725 232l-8 80h-94v-222h228l14 123h99v-213h-564v83h38c15 0 29 18 29 31v102h-228l-24 -43c-32 -55 -15 -90 32 -90h41v-83h-280v83h23c19 0 27 11 38 31l258 469c9 16 -2 31 -18 31h-51v86h695v-200h-94l-15 107h-221v-208h93l9 80h90v-247h-90zM456 607l-169 -304
h180v304h-11z" />
    <glyph glyph-name="ordfeminine" unicode="&#xaa;" horiz-adv-x="455" 
d="M150 254c-81 0 -141 45 -141 132c0 93 71 135 174 135c36 0 60 -3 88 -9v43c0 41 -23 61 -73 61c-52 0 -78 -18 -99 -35h-60v93c43 19 100 34 186 34c120 0 180 -38 180 -140v-211c0 -10 11 -22 21 -22h22v-64c-19 -10 -46 -18 -80 -18c-52 0 -80 20 -91 54
c-33 -39 -75 -53 -127 -53zM201 332c28 0 51 11 70 28v89c-18 3 -38 5 -59 5c-46 0 -73 -19 -73 -61s24 -61 62 -61z" />
    <glyph glyph-name="Lslash" unicode="&#x141;" horiz-adv-x="567" 
d="M11 215v91l67 26v251c0 13 -14 31 -29 31h-38v86h317v-86h-94v-219l183 73v-91l-183 -73v-214h206l14 143h102v-233h-545v83h38c15 0 29 18 29 31v127z" />
    <glyph glyph-name="Oslash" unicode="&#xd8;" horiz-adv-x="722" 
d="M688 721l-83 -109c61 -61 99 -149 99 -262c0 -231 -158 -358 -343 -358c-68 0 -132 17 -186 50l-54 -71h-89l87 114c-62 61 -101 150 -101 265c0 231 158 358 343 358c69 0 134 -18 189 -52l49 65h89zM178 347c0 -63 9 -112 25 -150l274 363c-31 30 -71 44 -116 44
c-106 0 -183 -85 -183 -257zM361 92c105 0 183 84 183 255c0 62 -9 111 -25 150l-274 -363c31 -29 71 -42 116 -42z" />
    <glyph glyph-name="OE" unicode="&#x152;" horiz-adv-x="951" 
d="M390 0c-235 0 -372 107 -372 347c0 235 138 353 376 353h535v-200h-94l-15 107h-222v-208h94l9 80h90v-247h-90l-8 80h-95v-222h229l14 123h99v-213h-550zM442 607h-48c-145 0 -216 -77 -216 -260c0 -182 70 -257 216 -257h48v517z" />
    <glyph glyph-name="ordmasculine" unicode="&#xba;" horiz-adv-x="490" 
d="M246 253c-132 0 -236 84 -236 225c0 142 104 230 236 230c131 0 234 -88 234 -230c0 -141 -103 -225 -234 -225zM246 336c56 0 98 46 98 141c0 96 -42 143 -98 143c-57 0 -100 -47 -100 -143c0 -95 43 -141 100 -141z" />
    <glyph glyph-name="ae" unicode="&#xe6;" horiz-adv-x="830" 
d="M180 -6c-98 0 -168 53 -168 157c0 109 93 162 239 162h75v42c0 53 -29 78 -91 78c-63 0 -95 -22 -121 -43h-67v103c49 22 115 40 217 40c78 0 131 -15 162 -55c41 37 94 55 157 55c153 0 235 -80 235 -258c0 -18 -2 -40 -2 -45h-343c7 -101 51 -147 132 -147
c63 0 86 24 111 57h83v-96c-43 -26 -99 -51 -206 -51c-98 0 -170 31 -214 86c-69 -76 -128 -85 -199 -85zM234 80c41 0 77 16 111 56c-11 28 -18 59 -20 94h-71c-64 0 -100 -25 -100 -74c0 -53 31 -76 80 -76zM583 446c-60 0 -100 -39 -109 -133h198c-3 96 -30 133 -89 133z
" />
    <glyph glyph-name="dotlessi" unicode="&#x131;" horiz-adv-x="289" 
d="M9 0v83h38c12 0 24 14 24 25v302c0 11 -12 27 -24 27h-42v88h189c16 0 24 -16 24 -56v-361c0 -12 13 -25 25 -25h38v-83h-272z" />
    <glyph glyph-name="lslash" unicode="&#x142;" horiz-adv-x="293" 
d="M11 265v91l62 39v192c0 11 -13 27 -25 27h-42v86h188c17 0 25 -12 25 -34v-178l62 40v-91l-62 -40v-289c0 -12 14 -25 25 -25h41v-83h-276v83h39c12 0 25 14 25 25v196z" />
    <glyph glyph-name="oslash" unicode="&#xf8;" horiz-adv-x="578" 
d="M554 546l-69 -87c50 -47 80 -115 80 -199c0 -168 -123 -267 -276 -267c-53 0 -102 11 -144 34l-44 -56h-79l72 92c-50 46 -81 112 -81 197c0 169 123 273 276 273c54 0 104 -13 146 -37l40 50h79zM159 259c0 -40 5 -71 14 -96l195 247c-22 19 -49 28 -79 28
c-73 0 -130 -60 -130 -179zM289 84c73 0 130 57 130 175c0 39 -5 71 -15 97l-195 -247c22 -18 50 -25 80 -25z" />
    <glyph glyph-name="oe" unicode="&#x153;" horiz-adv-x="915" 
d="M282 -7c-153 0 -269 99 -269 267c0 169 116 273 269 273c83 0 153 -31 197 -86c40 55 103 86 189 86c157 0 235 -80 235 -258c0 -18 -2 -35 -2 -40h-344c6 -104 49 -152 133 -152c63 0 87 25 111 57h83v-96c-43 -26 -96 -51 -206 -51c-97 0 -162 29 -201 81
c-44 -53 -113 -81 -195 -81zM284 85c73 0 125 56 125 174c0 119 -52 178 -125 178s-123 -59 -123 -178c0 -118 50 -174 123 -174zM668 446c-61 0 -98 -38 -108 -128h197c-4 92 -29 128 -89 128z" />
    <glyph glyph-name="germandbls" unicode="&#xdf;" horiz-adv-x="623" 
d="M5 437v88h62c6 96 95 185 256 185c121 0 223 -39 223 -149c0 -52 -36 -92 -81 -125c-51 -37 -64 -49 -64 -69c0 -21 9 -28 69 -53c91 -37 140 -71 140 -161c0 -97 -64 -160 -188 -160c-63 0 -104 8 -145 22v116h77c10 -26 28 -52 69 -52c36 0 57 18 57 51
c0 34 -32 47 -100 74c-64 25 -104 65 -104 126c0 71 38 102 79 142c33 32 50 51 50 84s-26 58 -78 58c-83 0 -114 -55 -114 -104v-427h39v-83h-243v83h33c12 0 25 14 25 25v329h-62z" />
    <glyph glyph-name="onesuperior" unicode="&#xb9;" horiz-adv-x="247" 
d="M9 315v60h47c7 0 15 10 15 16v216l-39 -21h-25v69l96 45h80v-309c0 -6 8 -16 15 -16h42v-60h-231z" />
    <glyph glyph-name="trademark" unicode="&#x2122;" horiz-adv-x="679" 
d="M293 420v41h14c6 0 12 7 12 13v171c0 5 -6 12 -12 12h-14v43h142l44 -159h1l45 159h142v-43h-15c-5 0 -11 -7 -11 -12v-171c0 -6 6 -13 11 -13h15v-41h-134v41h27v180h-1l-65 -221h-51l-64 221h-1v-180h27v-41h-112zM78 420v41h15c7 0 12 7 12 13v181h-35l-5 -55h-50v100
h264v-100h-50l-6 55h-35v-181c0 -6 6 -13 12 -13h16v-41h-138z" />
    <glyph glyph-name="Eth" unicode="&#xd0;" horiz-adv-x="689" 
d="M11 302v87h67v194c0 13 -14 31 -29 31h-38v86h288c235 0 372 -107 372 -347c0 -235 -138 -353 -376 -353h-284v83h38c15 0 29 18 29 31v188h-67zM234 87h61c145 0 216 81 216 264c0 182 -70 257 -216 257h-61v-219h143v-87h-143v-215z" />
    <glyph glyph-name="onehalf" unicode="&#xbd;" horiz-adv-x="717" 
d="M422 0v42c0 69 44 111 94 146c39 29 78 50 78 84c0 29 -18 44 -44 44c-29 0 -48 -17 -59 -39h-58v93c34 12 75 21 128 21c88 0 145 -37 145 -113c0 -70 -57 -99 -106 -128c-40 -22 -75 -45 -82 -70h107l6 32h68v-112h-277zM59 -34l493 763h92l-493 -763h-92zM9 315v60h47
c7 0 15 10 15 16v216l-39 -21h-25v69l96 45h80v-309c0 -6 8 -16 15 -16h42v-60h-231z" />
    <glyph glyph-name="Thorn" unicode="&#xde;" horiz-adv-x="605" 
d="M11 0v83h38c15 0 29 18 29 31v469c0 13 -14 31 -29 31h-38v86h302v-86h-79v-73h90c154 0 268 -42 268 -189c0 -145 -115 -189 -272 -189h-86v-80h87v-83h-310zM320 449h-86v-199h86c81 0 112 35 112 100s-31 99 -112 99z" />
    <glyph glyph-name="onequarter" unicode="&#xbc;" horiz-adv-x="677" 
d="M479 0v60h26c6 0 15 10 15 16v23h-166v79l168 207h107v-221h41v-65h-41v-23c0 -6 8 -16 15 -16h26v-60h-191zM422 167v-3h100v124h-2zM67 -34l493 763h92l-493 -763h-92zM9 315v60h47c7 0 15 10 15 16v216l-39 -21h-25v69l96 45h80v-309c0 -6 8 -16 15 -16h42v-60h-231z
" />
    <glyph glyph-name="divide" unicode="&#xf7;" horiz-adv-x="509" 
d="M493 288h-477v115h477v-115zM255 444c-46 0 -82 35 -82 80s36 81 82 81c45 0 82 -36 82 -81s-37 -80 -82 -80zM255 86c-46 0 -82 35 -82 80s36 81 82 81c45 0 82 -36 82 -81s-37 -80 -82 -80z" />
    <glyph glyph-name="brokenbar" unicode="&#xa6;" horiz-adv-x="155" 
d="M30 -49v357h96l-1 -357h-95zM30 393v348h95l1 -348h-96z" />
    <glyph glyph-name="degree" unicode="&#xb0;" horiz-adv-x="348" 
d="M174 424c-80 0 -147 56 -147 141s67 141 147 141s147 -56 147 -141s-67 -141 -147 -141zM174 483c45 0 78 33 78 82c0 50 -33 82 -78 82s-76 -32 -76 -82c0 -49 31 -82 76 -82z" />
    <glyph glyph-name="thorn" unicode="&#xfe;" horiz-adv-x="554" 
d="M-22 -162v78h35c12 0 25 13 25 25v646c0 11 -13 27 -25 27h-38v86h184c16 0 25 -12 25 -34v-197c38 36 87 64 154 64c99 0 202 -72 202 -259c0 -194 -119 -264 -230 -264c-57 0 -97 13 -126 33v-127h67v-78h-273zM267 428c-25 0 -55 -8 -83 -18v-297
c21 -13 46 -20 81 -20c60 0 127 28 127 168c0 133 -61 167 -125 167z" />
    <glyph glyph-name="threequarters" unicode="&#xbe;" horiz-adv-x="678" 
d="M480 0v60h26c6 0 15 10 15 16v23h-166v79l168 207h107v-221h41v-65h-41v-23c0 -6 8 -16 15 -16h26v-60h-191zM423 167v-3h100v124h-2zM74 -34l493 763h92l-493 -763h-92zM128 309c-55 0 -92 8 -121 20v84h58c10 -16 28 -34 59 -34c29 0 55 16 55 50c0 32 -20 47 -60 47
h-33v65h30c40 0 61 17 61 46c0 28 -16 45 -46 45c-28 0 -46 -16 -56 -32h-56v85c34 12 78 21 124 21c85 0 140 -31 140 -102c0 -52 -33 -80 -83 -90v-3c58 -8 89 -37 89 -89c0 -72 -63 -113 -161 -113z" />
    <glyph glyph-name="twosuperior" unicode="&#xb2;" horiz-adv-x="307" 
d="M12 315v42c0 69 44 111 94 146c39 29 78 50 78 84c0 29 -18 44 -44 44c-29 0 -48 -17 -59 -39h-58v93c34 12 75 21 128 21c88 0 145 -37 145 -113c0 -70 -57 -99 -106 -128c-40 -22 -75 -45 -82 -70h107l6 32h68v-112h-277z" />
    <glyph glyph-name="registered" unicode="&#xae;" horiz-adv-x="386" 
d="M193 350c-96 0 -181 66 -181 179c0 114 85 179 181 179c95 0 181 -65 181 -179c0 -113 -86 -179 -181 -179zM193 383c79 0 142 51 142 146s-63 146 -142 146s-142 -51 -142 -146s63 -146 142 -146zM112 444v29h8c3 0 7 4 7 8v101c0 3 -4 7 -7 7h-8v30h86
c50 0 73 -16 73 -50c0 -21 -10 -33 -35 -40v-1c19 -3 26 -11 33 -36l3 -13c1 -4 4 -6 6 -6h6v-29h-62l-6 48c-3 15 -8 20 -22 20h-11v-39h17v-29h-88zM181 587v-46h12c18 0 23 9 23 24c0 14 -5 22 -23 22h-12z" />
    <glyph glyph-name="minus" unicode="&#x2212;" horiz-adv-x="509" 
d="M493 288h-477v115h477v-115z" />
    <glyph glyph-name="eth" unicode="&#xf0;" horiz-adv-x="578" 
d="M267 529h-74v24l42 39c-19 6 -39 11 -59 15v93h49c35 -7 68 -16 98 -27l28 26h74v-24l-36 -33c111 -76 176 -188 176 -352c0 -218 -123 -297 -276 -297s-276 98 -276 258s112 256 251 256c65 0 112 -30 141 -72c-18 55 -59 100 -103 126zM289 85c73 0 128 53 128 165
c0 113 -55 167 -128 167s-128 -54 -128 -167c0 -112 55 -165 128 -165z" />
    <glyph glyph-name="multiply" unicode="&#xd7;" horiz-adv-x="513" 
d="M404 116l-147 147l-147 -147l-76 76l147 147l-147 147l76 76l147 -147l147 147l75 -76l-147 -147l147 -147z" />
    <glyph glyph-name="threesuperior" unicode="&#xb3;" horiz-adv-x="300" 
d="M128 309c-55 0 -92 8 -121 20v84h58c10 -16 28 -34 59 -34c29 0 55 16 55 50c0 32 -20 47 -60 47h-33v65h30c40 0 61 17 61 46c0 28 -16 45 -46 45c-28 0 -46 -16 -56 -32h-56v85c34 12 78 21 124 21c85 0 140 -31 140 -102c0 -52 -33 -80 -83 -90v-3
c58 -8 89 -37 89 -89c0 -72 -63 -113 -161 -113z" />
    <glyph glyph-name="copyright" unicode="&#xa9;" horiz-adv-x="750" 
d="M375 -8c-191 0 -353 127 -353 358s162 358 353 358s353 -127 353 -358s-162 -358 -353 -358zM375 31c174 0 306 115 306 319s-132 319 -306 319s-306 -115 -306 -319s132 -319 306 -319zM382 154c-123 0 -193 68 -193 195c0 128 76 200 184 200c35 0 55 -3 67 -5h81v-131
h-70l-11 59c-11 4 -28 7 -46 7c-53 0 -90 -36 -90 -126c0 -86 28 -130 86 -130c37 0 63 18 82 42h51v-71c-33 -24 -83 -40 -141 -40z" />
    <glyph glyph-name="Aacute" unicode="&#xc1;" horiz-adv-x="729" 
d="M300 737l28 138h146v-50l-97 -88h-77zM8 0v83h23c19 0 31 12 38 31l170 469c6 18 -2 31 -18 31h-53v86h298l196 -589c5 -16 20 -28 34 -28h25v-83h-302v83h91l-43 133h-251l-15 -43c-20 -56 -15 -90 32 -90h41v-83h-266zM347 584l-100 -281h192l-90 281h-2z" />
    <glyph glyph-name="Acircumflex" unicode="&#xc2;" horiz-adv-x="729" 
d="M215 737v37l71 101h120l67 -101v-37h-53l-78 60l-78 -60h-49zM8 0v83h23c19 0 31 12 38 31l170 469c6 18 -2 31 -18 31h-53v86h298l196 -589c5 -16 20 -28 34 -28h25v-83h-302v83h91l-43 133h-251l-15 -43c-20 -56 -15 -90 32 -90h41v-83h-266zM347 584l-100 -281h192
l-90 281h-2z" />
    <glyph glyph-name="Adieresis" unicode="&#xc4;" horiz-adv-x="729" 
d="M8 0v83h23c19 0 31 12 38 31l170 469c6 18 -2 31 -18 31h-53v86h298l196 -589c5 -16 20 -28 34 -28h25v-83h-302v83h91l-43 133h-251l-15 -43c-20 -56 -15 -90 32 -90h41v-83h-266zM347 584l-100 -281h192l-90 281h-2zM249 741c-42 0 -75 32 -75 73c0 40 33 73 75 73
s75 -33 75 -73c0 -41 -33 -73 -75 -73zM441 741c-42 0 -75 32 -75 73c0 40 33 73 75 73s75 -33 75 -73c0 -41 -33 -73 -75 -73z" />
    <glyph glyph-name="Agrave" unicode="&#xc0;" horiz-adv-x="729" 
d="M390 737h-77l-97 88v50h146zM8 0v83h23c19 0 31 12 38 31l170 469c6 18 -2 31 -18 31h-53v86h298l196 -589c5 -16 20 -28 34 -28h25v-83h-302v83h91l-43 133h-251l-15 -43c-20 -56 -15 -90 32 -90h41v-83h-266zM347 584l-100 -281h192l-90 281h-2z" />
    <glyph glyph-name="Aring" unicode="&#xc5;" horiz-adv-x="729" 
d="M345 741c-57 0 -105 38 -105 100s48 101 105 101s105 -39 105 -101s-48 -100 -105 -100zM345 787c31 0 53 21 53 54c0 34 -22 55 -53 55s-52 -21 -52 -55c0 -33 21 -54 52 -54zM8 0v83h23c19 0 31 12 38 31l170 469c6 18 -2 31 -18 31h-53v86h298l196 -589
c5 -16 20 -28 34 -28h25v-83h-302v83h91l-43 133h-251l-15 -43c-20 -56 -15 -90 32 -90h41v-83h-266zM347 584l-100 -281h192l-90 281h-2z" />
    <glyph glyph-name="Atilde" unicode="&#xc3;" horiz-adv-x="729" 
d="M177 739v73c18 32 46 59 99 59c47 0 104 -28 131 -28c22 0 33 12 40 32h66v-75c-18 -32 -46 -59 -99 -59c-47 0 -104 32 -131 32c-22 0 -33 -14 -40 -34h-66zM8 0v83h23c19 0 31 12 38 31l170 469c6 18 -2 31 -18 31h-53v86h298l196 -589c5 -16 20 -28 34 -28h25v-83
h-302v83h91l-43 133h-251l-15 -43c-20 -56 -15 -90 32 -90h41v-83h-266zM347 584l-100 -281h192l-90 281h-2z" />
    <glyph glyph-name="Ccedilla" unicode="&#xc7;" horiz-adv-x="626" 
d="M337 -175c-36 0 -59 8 -80 17v57h34c6 -8 17 -14 34 -14c19 0 28 8 28 22s-10 22 -35 22h-22v68c-174 23 -279 145 -279 351c0 229 137 360 346 360c61 0 103 -5 121 -8h116v-226h-104l-16 115c-23 9 -65 17 -112 17c-108 0 -187 -75 -187 -252c0 -173 64 -263 185 -263
c80 0 131 36 170 86h72v-108c-60 -44 -144 -77 -249 -77v-17c58 -2 83 -29 83 -73c0 -48 -38 -77 -105 -77z" />
    <glyph glyph-name="Eacute" unicode="&#xc9;" horiz-adv-x="591" 
d="M260 737l28 138h146v-50l-97 -88h-77zM11 0v83h38c15 0 29 18 29 31v469c0 13 -14 31 -29 31h-38v86h558v-200h-94l-15 107h-226v-208h98l9 80h90v-247h-90l-8 80h-99v-222h233l14 121h99v-211h-569z" />
    <glyph glyph-name="Ecircumflex" unicode="&#xca;" horiz-adv-x="591" 
d="M175 737v37l71 101h120l67 -101v-37h-53l-78 60l-78 -60h-49zM11 0v83h38c15 0 29 18 29 31v469c0 13 -14 31 -29 31h-38v86h558v-200h-94l-15 107h-226v-208h98l9 80h90v-247h-90l-8 80h-99v-222h233l14 121h99v-211h-569z" />
    <glyph glyph-name="Edieresis" unicode="&#xcb;" horiz-adv-x="591" 
d="M11 0v83h38c15 0 29 18 29 31v469c0 13 -14 31 -29 31h-38v86h558v-200h-94l-15 107h-226v-208h98l9 80h90v-247h-90l-8 80h-99v-222h233l14 121h99v-211h-569zM209 741c-42 0 -75 32 -75 73c0 40 33 73 75 73s75 -33 75 -73c0 -41 -33 -73 -75 -73zM401 741
c-42 0 -75 32 -75 73c0 40 33 73 75 73s75 -33 75 -73c0 -41 -33 -73 -75 -73z" />
    <glyph glyph-name="Egrave" unicode="&#xc8;" horiz-adv-x="591" 
d="M350 737h-77l-97 88v50h146zM11 0v83h38c15 0 29 18 29 31v469c0 13 -14 31 -29 31h-38v86h558v-200h-94l-15 107h-226v-208h98l9 80h90v-247h-90l-8 80h-99v-222h233l14 121h99v-211h-569z" />
    <glyph glyph-name="Iacute" unicode="&#xcd;" horiz-adv-x="327" 
d="M118 737l28 138h146v-50l-97 -88h-77zM11 0v83h46c14 0 28 18 28 31v469c0 13 -14 31 -28 31h-46v86h305v-86h-46c-15 0 -28 -18 -28 -31v-469c0 -13 13 -31 28 -31h46v-83h-305z" />
    <glyph glyph-name="Icircumflex" unicode="&#xce;" horiz-adv-x="327" 
d="M33 737v37l71 101h120l67 -101v-37h-53l-78 60l-78 -60h-49zM11 0v83h46c14 0 28 18 28 31v469c0 13 -14 31 -28 31h-46v86h305v-86h-46c-15 0 -28 -18 -28 -31v-469c0 -13 13 -31 28 -31h46v-83h-305z" />
    <glyph glyph-name="Idieresis" unicode="&#xcf;" horiz-adv-x="327" 
d="M67 741c-42 0 -75 32 -75 73c0 40 33 73 75 73s75 -33 75 -73c0 -41 -33 -73 -75 -73zM259 741c-42 0 -75 32 -75 73c0 40 33 73 75 73s75 -33 75 -73c0 -41 -33 -73 -75 -73zM11 0v83h46c14 0 28 18 28 31v469c0 13 -14 31 -28 31h-46v86h305v-86h-46
c-15 0 -28 -18 -28 -31v-469c0 -13 13 -31 28 -31h46v-83h-305z" />
    <glyph glyph-name="Igrave" unicode="&#xcc;" horiz-adv-x="327" 
d="M208 737h-77l-97 88v50h146zM11 0v83h46c14 0 28 18 28 31v469c0 13 -14 31 -28 31h-46v86h305v-86h-46c-15 0 -28 -18 -28 -31v-469c0 -13 13 -31 28 -31h46v-83h-305z" />
    <glyph glyph-name="Ntilde" unicode="&#xd1;" horiz-adv-x="707" 
d="M187 739v73c18 32 46 59 99 59c47 0 104 -28 131 -28c22 0 33 12 40 32h66v-75c-18 -32 -46 -59 -99 -59c-47 0 -104 32 -131 32c-22 0 -33 -14 -40 -34h-66zM11 0v83h38c15 0 29 18 29 31v469c0 13 -14 31 -29 31h-38v86h224l278 -449h3v363h-78v86h258v-86h-37
c-14 0 -28 -18 -28 -31v-583h-132l-304 488h-3v-405h80v-83h-261z" />
    <glyph glyph-name="Oacute" unicode="&#xd3;" horiz-adv-x="722" 
d="M316 742l28 138h146v-50l-97 -88h-77zM361 -8c-185 0 -343 127 -343 358s158 358 343 358s343 -127 343 -358s-158 -358 -343 -358zM361 92c105 0 183 84 183 255c0 172 -78 257 -183 257c-106 0 -183 -85 -183 -257c0 -171 77 -255 183 -255z" />
    <glyph glyph-name="Ocircumflex" unicode="&#xd4;" horiz-adv-x="722" 
d="M231 742v37l71 101h120l67 -101v-37h-53l-78 60l-78 -60h-49zM361 -8c-185 0 -343 127 -343 358s158 358 343 358s343 -127 343 -358s-158 -358 -343 -358zM361 92c105 0 183 84 183 255c0 172 -78 257 -183 257c-106 0 -183 -85 -183 -257c0 -171 77 -255 183 -255z" />
    <glyph glyph-name="Odieresis" unicode="&#xd6;" horiz-adv-x="722" 
d="M265 746c-42 0 -75 32 -75 73c0 40 33 73 75 73s75 -33 75 -73c0 -41 -33 -73 -75 -73zM457 746c-42 0 -75 32 -75 73c0 40 33 73 75 73s75 -33 75 -73c0 -41 -33 -73 -75 -73zM361 -8c-185 0 -343 127 -343 358s158 358 343 358s343 -127 343 -358s-158 -358 -343 -358z
M361 92c105 0 183 84 183 255c0 172 -78 257 -183 257c-106 0 -183 -85 -183 -257c0 -171 77 -255 183 -255z" />
    <glyph glyph-name="Ograve" unicode="&#xd2;" horiz-adv-x="722" 
d="M361 -8c-185 0 -343 127 -343 358s158 358 343 358s343 -127 343 -358s-158 -358 -343 -358zM361 92c105 0 183 84 183 255c0 172 -78 257 -183 257c-106 0 -183 -85 -183 -257c0 -171 77 -255 183 -255zM406 742h-77l-97 88v50h146z" />
    <glyph glyph-name="Otilde" unicode="&#xd5;" horiz-adv-x="722" 
d="M193 744v73c18 32 46 59 99 59c47 0 104 -28 131 -28c22 0 33 12 40 32h66v-75c-18 -32 -46 -59 -99 -59c-47 0 -104 32 -131 32c-22 0 -33 -14 -40 -34h-66zM361 -8c-185 0 -343 127 -343 358s158 358 343 358s343 -127 343 -358s-158 -358 -343 -358zM361 92
c105 0 183 84 183 255c0 172 -78 257 -183 257c-106 0 -183 -85 -183 -257c0 -171 77 -255 183 -255z" />
    <glyph glyph-name="Scaron" unicode="&#x160;" horiz-adv-x="524" 
d="M207 742l-67 101v37h53l78 -60l78 60h49v-37l-71 -101h-120zM243 -8c-45 0 -82 4 -108 8h-119v211h106l14 -109c24 -9 52 -15 102 -15c85 0 122 39 122 100c0 81 -86 90 -183 118c-93 27 -152 82 -152 198c0 133 93 205 241 205c48 0 86 -4 106 -8h110v-191h-104l-14 92
c-21 8 -49 14 -92 14c-74 0 -115 -30 -115 -90c0 -73 73 -89 157 -111c126 -33 190 -77 190 -202c0 -143 -91 -220 -261 -220z" />
    <glyph glyph-name="Uacute" unicode="&#xda;" horiz-adv-x="714" 
d="M336 737l28 138h146v-50l-97 -88h-77zM378 92c90 0 144 34 144 165v357h-79v86h260v-86h-38c-15 0 -29 -18 -29 -31v-315c0 -180 -84 -276 -276 -276c-183 0 -281 96 -281 276v315c0 13 -14 31 -29 31h-39v86h303v-86h-79v-357c0 -131 53 -165 143 -165z" />
    <glyph glyph-name="Ucircumflex" unicode="&#xdb;" horiz-adv-x="714" 
d="M251 737v37l71 101h120l67 -101v-37h-53l-78 60l-78 -60h-49zM378 92c90 0 144 34 144 165v357h-79v86h260v-86h-38c-15 0 -29 -18 -29 -31v-315c0 -180 -84 -276 -276 -276c-183 0 -281 96 -281 276v315c0 13 -14 31 -29 31h-39v86h303v-86h-79v-357
c0 -131 53 -165 143 -165z" />
    <glyph glyph-name="Udieresis" unicode="&#xdc;" horiz-adv-x="714" 
d="M285 741c-42 0 -75 32 -75 73c0 40 33 73 75 73s75 -33 75 -73c0 -41 -33 -73 -75 -73zM477 741c-42 0 -75 32 -75 73c0 40 33 73 75 73s75 -33 75 -73c0 -41 -33 -73 -75 -73zM378 92c90 0 144 34 144 165v357h-79v86h260v-86h-38c-15 0 -29 -18 -29 -31v-315
c0 -180 -84 -276 -276 -276c-183 0 -281 96 -281 276v315c0 13 -14 31 -29 31h-39v86h303v-86h-79v-357c0 -131 53 -165 143 -165z" />
    <glyph glyph-name="Ugrave" unicode="&#xd9;" horiz-adv-x="714" 
d="M378 92c90 0 144 34 144 165v357h-79v86h260v-86h-38c-15 0 -29 -18 -29 -31v-315c0 -180 -84 -276 -276 -276c-183 0 -281 96 -281 276v315c0 13 -14 31 -29 31h-39v86h303v-86h-79v-357c0 -131 53 -165 143 -165zM426 737h-77l-97 88v50h146z" />
    <glyph glyph-name="Yacute" unicode="&#xdd;" horiz-adv-x="668" 
d="M302 737l28 138h146v-50l-97 -88h-77zM188 0v83h44c15 0 29 18 29 31v172l-195 305c-9 14 -20 23 -32 23h-23v86h287v-86h-79l141 -231h2l98 161c26 44 8 70 -34 70h-29v86h260v-86h-17c-15 0 -29 -10 -40 -27l-183 -295v-178c0 -13 14 -31 29 -31h44v-83h-302z" />
    <glyph glyph-name="Ydieresis" unicode="&#x178;" horiz-adv-x="668" 
d="M188 0v83h44c15 0 29 18 29 31v172l-195 305c-9 14 -20 23 -32 23h-23v86h287v-86h-79l141 -231h2l98 161c26 44 8 70 -34 70h-29v86h260v-86h-17c-15 0 -29 -10 -40 -27l-183 -295v-178c0 -13 14 -31 29 -31h44v-83h-302zM251 719c-42 0 -75 32 -75 73c0 40 33 73 75 73
s75 -33 75 -73c0 -41 -33 -73 -75 -73zM443 719c-42 0 -75 32 -75 73c0 40 33 73 75 73s75 -33 75 -73c0 -41 -33 -73 -75 -73z" />
    <glyph glyph-name="Zcaron" unicode="&#x17d;" horiz-adv-x="552" 
d="M223 737l-67 101v37h53l78 -60l78 60h49v-37l-71 -101h-120zM541 594l-365 -500v-4h252l14 123h99v-213h-530v103l365 500v4h-230l-15 -107h-94v200h504v-106z" />
    <glyph glyph-name="aacute" unicode="&#xe1;" horiz-adv-x="534" 
d="M180 -6c-98 0 -168 54 -168 158c0 110 86 160 207 160c44 0 74 -4 107 -12v55c0 53 -29 78 -91 78c-63 0 -95 -24 -121 -47h-67v107c49 22 115 40 217 40c136 0 208 -44 208 -164v-261c0 -12 13 -25 25 -25h28v-70c-20 -12 -50 -20 -88 -20c-61 0 -92 24 -105 66
c-39 -48 -88 -65 -152 -65zM234 80c37 0 67 14 92 37v112c-23 4 -49 6 -77 6c-59 0 -95 -24 -95 -77s31 -78 80 -78zM209 562l28 138h146v-50l-97 -88h-77z" />
    <glyph glyph-name="acircumflex" unicode="&#xe2;" horiz-adv-x="534" 
d="M124 562v37l71 101h120l67 -101v-37h-53l-78 60l-78 -60h-49zM180 -6c-98 0 -168 54 -168 158c0 110 86 160 207 160c44 0 74 -4 107 -12v55c0 53 -29 78 -91 78c-63 0 -95 -24 -121 -47h-67v107c49 22 115 40 217 40c136 0 208 -44 208 -164v-261c0 -12 13 -25 25 -25
h28v-70c-20 -12 -50 -20 -88 -20c-61 0 -92 24 -105 66c-39 -48 -88 -65 -152 -65zM234 80c37 0 67 14 92 37v112c-23 4 -49 6 -77 6c-59 0 -95 -24 -95 -77s31 -78 80 -78z" />
    <glyph glyph-name="adieresis" unicode="&#xe4;" horiz-adv-x="534" 
d="M180 -6c-98 0 -168 54 -168 158c0 110 86 160 207 160c44 0 74 -4 107 -12v55c0 53 -29 78 -91 78c-63 0 -95 -24 -121 -47h-67v107c49 22 115 40 217 40c136 0 208 -44 208 -164v-261c0 -12 13 -25 25 -25h28v-70c-20 -12 -50 -20 -88 -20c-61 0 -92 24 -105 66
c-39 -48 -88 -65 -152 -65zM234 80c37 0 67 14 92 37v112c-23 4 -49 6 -77 6c-59 0 -95 -24 -95 -77s31 -78 80 -78zM158 566c-42 0 -75 32 -75 73c0 40 33 73 75 73s75 -33 75 -73c0 -41 -33 -73 -75 -73zM350 566c-42 0 -75 32 -75 73c0 40 33 73 75 73s75 -33 75 -73
c0 -41 -33 -73 -75 -73z" />
    <glyph glyph-name="agrave" unicode="&#xe0;" horiz-adv-x="534" 
d="M180 -6c-98 0 -168 54 -168 158c0 110 86 160 207 160c44 0 74 -4 107 -12v55c0 53 -29 78 -91 78c-63 0 -95 -24 -121 -47h-67v107c49 22 115 40 217 40c136 0 208 -44 208 -164v-261c0 -12 13 -25 25 -25h28v-70c-20 -12 -50 -20 -88 -20c-61 0 -92 24 -105 66
c-39 -48 -88 -65 -152 -65zM234 80c37 0 67 14 92 37v112c-23 4 -49 6 -77 6c-59 0 -95 -24 -95 -77s31 -78 80 -78zM299 562h-77l-97 88v50h146z" />
    <glyph glyph-name="aring" unicode="&#xe5;" horiz-adv-x="534" 
d="M254 566c-57 0 -105 38 -105 100s48 101 105 101s105 -39 105 -101s-48 -100 -105 -100zM254 612c31 0 53 21 53 54c0 34 -22 55 -53 55s-52 -21 -52 -55c0 -33 21 -54 52 -54zM180 -6c-98 0 -168 54 -168 158c0 110 86 160 207 160c44 0 74 -4 107 -12v55
c0 53 -29 78 -91 78c-63 0 -95 -24 -121 -47h-67v107c49 22 115 40 217 40c136 0 208 -44 208 -164v-261c0 -12 13 -25 25 -25h28v-70c-20 -12 -50 -20 -88 -20c-61 0 -92 24 -105 66c-39 -48 -88 -65 -152 -65zM234 80c37 0 67 14 92 37v112c-23 4 -49 6 -77 6
c-59 0 -95 -24 -95 -77s31 -78 80 -78z" />
    <glyph glyph-name="atilde" unicode="&#xe3;" horiz-adv-x="534" 
d="M86 564v73c18 32 46 59 99 59c47 0 104 -28 131 -28c22 0 33 12 40 32h66v-75c-18 -32 -46 -59 -99 -59c-47 0 -104 32 -131 32c-22 0 -33 -14 -40 -34h-66zM180 -6c-98 0 -168 54 -168 158c0 110 86 160 207 160c44 0 74 -4 107 -12v55c0 53 -29 78 -91 78
c-63 0 -95 -24 -121 -47h-67v107c49 22 115 40 217 40c136 0 208 -44 208 -164v-261c0 -12 13 -25 25 -25h28v-70c-20 -12 -50 -20 -88 -20c-61 0 -92 24 -105 66c-39 -48 -88 -65 -152 -65zM234 80c37 0 67 14 92 37v112c-23 4 -49 6 -77 6c-59 0 -95 -24 -95 -77
s31 -78 80 -78z" />
    <glyph glyph-name="ccedilla" unicode="&#xe7;" horiz-adv-x="502" 
d="M268 -175c-36 0 -59 8 -80 17v57h34c6 -8 17 -14 34 -14c19 0 28 8 28 22s-10 22 -35 22h-22v68c-143 19 -214 115 -214 264c0 169 109 272 279 272c85 0 142 -12 177 -27v-120h-88c-18 36 -41 54 -92 54c-79 0 -127 -56 -127 -180c0 -125 41 -176 126 -176
c65 0 91 29 112 56h71v-103c-39 -22 -95 -43 -181 -44v-18c58 -2 83 -29 83 -73c0 -48 -38 -77 -105 -77z" />
    <glyph glyph-name="eacute" unicode="&#xe9;" horiz-adv-x="527" 
d="M229 562l28 138h146v-50l-97 -88h-77zM513 235h-351c6 -104 52 -152 136 -152c65 0 88 23 115 57h83v-96c-43 -26 -100 -51 -210 -51c-182 0 -273 102 -273 267c0 169 105 273 263 273c157 0 239 -80 239 -258c0 -18 -2 -35 -2 -40zM276 446c-61 0 -101 -38 -112 -128
h205c-5 92 -33 128 -93 128z" />
    <glyph glyph-name="ecircumflex" unicode="&#xea;" horiz-adv-x="527" 
d="M144 562v37l71 101h120l67 -101v-37h-53l-78 60l-78 -60h-49zM513 235h-351c6 -104 52 -152 136 -152c65 0 88 23 115 57h83v-96c-43 -26 -100 -51 -210 -51c-182 0 -273 102 -273 267c0 169 105 273 263 273c157 0 239 -80 239 -258c0 -18 -2 -35 -2 -40zM276 446
c-61 0 -101 -38 -112 -128h205c-5 92 -33 128 -93 128z" />
    <glyph glyph-name="edieresis" unicode="&#xeb;" horiz-adv-x="527" 
d="M178 566c-42 0 -75 32 -75 73c0 40 33 73 75 73s75 -33 75 -73c0 -41 -33 -73 -75 -73zM370 566c-42 0 -75 32 -75 73c0 40 33 73 75 73s75 -33 75 -73c0 -41 -33 -73 -75 -73zM513 235h-351c6 -104 52 -152 136 -152c65 0 88 23 115 57h83v-96
c-43 -26 -100 -51 -210 -51c-182 0 -273 102 -273 267c0 169 105 273 263 273c157 0 239 -80 239 -258c0 -18 -2 -35 -2 -40zM276 446c-61 0 -101 -38 -112 -128h205c-5 92 -33 128 -93 128z" />
    <glyph glyph-name="egrave" unicode="&#xe8;" horiz-adv-x="527" 
d="M319 562h-77l-97 88v50h146zM513 235h-351c6 -104 52 -152 136 -152c65 0 88 23 115 57h83v-96c-43 -26 -100 -51 -210 -51c-182 0 -273 102 -273 267c0 169 105 273 263 273c157 0 239 -80 239 -258c0 -18 -2 -35 -2 -40zM276 446c-61 0 -101 -38 -112 -128h205
c-5 92 -33 128 -93 128z" />
    <glyph glyph-name="iacute" unicode="&#xed;" horiz-adv-x="289" 
d="M9 0v83h38c12 0 24 14 24 25v302c0 11 -12 27 -24 27h-42v88h189c16 0 24 -16 24 -56v-361c0 -12 13 -25 25 -25h38v-83h-272zM90 562l28 138h146v-50l-97 -88h-77z" />
    <glyph glyph-name="icircumflex" unicode="&#xee;" horiz-adv-x="289" 
d="M9 0v83h38c12 0 24 14 24 25v302c0 11 -12 27 -24 27h-42v88h189c16 0 24 -16 24 -56v-361c0 -12 13 -25 25 -25h38v-83h-272zM5 562v37l71 101h120l67 -101v-37h-53l-78 60l-78 -60h-49z" />
    <glyph glyph-name="idieresis" unicode="&#xef;" horiz-adv-x="289" 
d="M9 0v83h38c12 0 24 14 24 25v302c0 11 -12 27 -24 27h-42v88h189c16 0 24 -16 24 -56v-361c0 -12 13 -25 25 -25h38v-83h-272zM39 566c-42 0 -75 32 -75 73c0 40 33 73 75 73s75 -33 75 -73c0 -41 -33 -73 -75 -73zM231 566c-42 0 -75 32 -75 73c0 40 33 73 75 73
s75 -33 75 -73c0 -41 -33 -73 -75 -73z" />
    <glyph glyph-name="igrave" unicode="&#xec;" horiz-adv-x="289" 
d="M9 0v83h38c12 0 24 14 24 25v302c0 11 -12 27 -24 27h-42v88h189c16 0 24 -16 24 -56v-361c0 -12 13 -25 25 -25h38v-83h-272zM180 562h-77l-97 88v50h146z" />
    <glyph glyph-name="ntilde" unicode="&#xf1;" horiz-adv-x="607" 
d="M135 564v73c18 32 46 59 99 59c47 0 104 -28 131 -28c22 0 33 12 40 32h66v-75c-18 -32 -46 -59 -99 -59c-47 0 -104 32 -131 32c-22 0 -33 -14 -40 -34h-66zM9 0v83h35c12 0 25 14 25 25v302c0 11 -13 27 -25 27h-39v88h179c17 0 27 -14 30 -68c49 46 116 76 195 76
c73 0 136 -29 136 -131v-294c0 -12 13 -25 25 -25h28v-83h-259v83h60v269c0 52 -20 67 -69 67c-42 0 -81 -9 -115 -20v-316h61v-83h-267z" />
    <glyph glyph-name="oacute" unicode="&#xf3;" horiz-adv-x="578" 
d="M244 562l28 138h146v-50l-97 -88h-77zM289 -7c-153 0 -276 99 -276 267c0 169 123 273 276 273s276 -104 276 -273c0 -168 -123 -267 -276 -267zM289 85c73 0 128 56 128 174c0 119 -55 178 -128 178s-128 -59 -128 -178c0 -118 55 -174 128 -174z" />
    <glyph glyph-name="ocircumflex" unicode="&#xf4;" horiz-adv-x="578" 
d="M159 562v37l71 101h120l67 -101v-37h-53l-78 60l-78 -60h-49zM289 -7c-153 0 -276 99 -276 267c0 169 123 273 276 273s276 -104 276 -273c0 -168 -123 -267 -276 -267zM289 85c73 0 128 56 128 174c0 119 -55 178 -128 178s-128 -59 -128 -178c0 -118 55 -174 128 -174z
" />
    <glyph glyph-name="odieresis" unicode="&#xf6;" horiz-adv-x="578" 
d="M193 566c-42 0 -75 32 -75 73c0 40 33 73 75 73s75 -33 75 -73c0 -41 -33 -73 -75 -73zM385 566c-42 0 -75 32 -75 73c0 40 33 73 75 73s75 -33 75 -73c0 -41 -33 -73 -75 -73zM289 -7c-153 0 -276 99 -276 267c0 169 123 273 276 273s276 -104 276 -273
c0 -168 -123 -267 -276 -267zM289 85c73 0 128 56 128 174c0 119 -55 178 -128 178s-128 -59 -128 -178c0 -118 55 -174 128 -174z" />
    <glyph glyph-name="ograve" unicode="&#xf2;" horiz-adv-x="578" 
d="M334 562h-77l-97 88v50h146zM289 -7c-153 0 -276 99 -276 267c0 169 123 273 276 273s276 -104 276 -273c0 -168 -123 -267 -276 -267zM289 85c73 0 128 56 128 174c0 119 -55 178 -128 178s-128 -59 -128 -178c0 -118 55 -174 128 -174z" />
    <glyph glyph-name="otilde" unicode="&#xf5;" horiz-adv-x="578" 
d="M121 564v73c18 32 46 59 99 59c47 0 104 -28 131 -28c22 0 33 12 40 32h66v-75c-18 -32 -46 -59 -99 -59c-47 0 -104 32 -131 32c-22 0 -33 -14 -40 -34h-66zM289 -7c-153 0 -276 99 -276 267c0 169 123 273 276 273s276 -104 276 -273c0 -168 -123 -267 -276 -267z
M289 85c73 0 128 56 128 174c0 119 -55 178 -128 178s-128 -59 -128 -178c0 -118 55 -174 128 -174z" />
    <glyph glyph-name="scaron" unicode="&#x161;" horiz-adv-x="442" 
d="M203 -6c-95 0 -147 14 -190 28v118h84c12 -37 59 -60 105 -60c56 0 90 24 90 62c0 39 -23 55 -107 67c-113 16 -166 55 -166 158c0 104 80 164 214 164c82 0 138 -9 180 -23v-116h-81c-17 31 -49 51 -104 51c-54 0 -84 -22 -84 -55c0 -32 19 -51 108 -64
c127 -19 179 -54 179 -160c0 -103 -69 -170 -228 -170zM167 562l-67 101v37h53l78 -60l78 60h49v-37l-71 -101h-120z" />
    <glyph glyph-name="uacute" unicode="&#xfa;" horiz-adv-x="608" 
d="M239 562l28 138h146v-50l-97 -88h-77zM205 -7c-73 0 -141 28 -141 130v289c0 12 -14 25 -25 25h-34v88h205v-356c0 -57 28 -73 74 -73c38 0 78 12 110 25v316h-69v88h215v-415c0 -11 13 -27 25 -27h34v-83h-174c-17 0 -26 13 -30 65c-48 -45 -106 -72 -190 -72z" />
    <glyph glyph-name="ucircumflex" unicode="&#xfb;" horiz-adv-x="608" 
d="M154 562v37l71 101h120l67 -101v-37h-53l-78 60l-78 -60h-49zM205 -7c-73 0 -141 28 -141 130v289c0 12 -14 25 -25 25h-34v88h205v-356c0 -57 28 -73 74 -73c38 0 78 12 110 25v316h-69v88h215v-415c0 -11 13 -27 25 -27h34v-83h-174c-17 0 -26 13 -30 65
c-48 -45 -106 -72 -190 -72z" />
    <glyph glyph-name="udieresis" unicode="&#xfc;" horiz-adv-x="608" 
d="M188 566c-42 0 -75 32 -75 73c0 40 33 73 75 73s75 -33 75 -73c0 -41 -33 -73 -75 -73zM380 566c-42 0 -75 32 -75 73c0 40 33 73 75 73s75 -33 75 -73c0 -41 -33 -73 -75 -73zM205 -7c-73 0 -141 28 -141 130v289c0 12 -14 25 -25 25h-34v88h205v-356
c0 -57 28 -73 74 -73c38 0 78 12 110 25v316h-69v88h215v-415c0 -11 13 -27 25 -27h34v-83h-174c-17 0 -26 13 -30 65c-48 -45 -106 -72 -190 -72z" />
    <glyph glyph-name="ugrave" unicode="&#xf9;" horiz-adv-x="608" 
d="M329 562h-77l-97 88v50h146zM205 -7c-73 0 -141 28 -141 130v289c0 12 -14 25 -25 25h-34v88h205v-356c0 -57 28 -73 74 -73c38 0 78 12 110 25v316h-69v88h215v-415c0 -11 13 -27 25 -27h34v-83h-174c-17 0 -26 13 -30 65c-48 -45 -106 -72 -190 -72z" />
    <glyph glyph-name="yacute" unicode="&#xfd;" horiz-adv-x="590" 
d="M205 -162h-119v77c56 17 106 47 142 92l-173 402c-7 17 -17 28 -31 28h-19v88h254v-88h-69l113 -271l84 205c15 38 20 66 -24 66h-16v88h231v-88h-22c-14 0 -28 -12 -36 -31l-172 -387c-41 -90 -93 -149 -143 -181zM258 562l28 138h146v-50l-97 -88h-77z" />
    <glyph glyph-name="ydieresis" unicode="&#xff;" horiz-adv-x="590" 
d="M205 -162h-119v77c56 17 106 47 142 92l-173 402c-7 17 -17 28 -31 28h-19v88h254v-88h-69l113 -271l84 205c15 38 20 66 -24 66h-16v88h231v-88h-22c-14 0 -28 -12 -36 -31l-172 -387c-41 -90 -93 -149 -143 -181zM207 566c-42 0 -75 32 -75 73c0 40 33 73 75 73
s75 -33 75 -73c0 -41 -33 -73 -75 -73zM399 566c-42 0 -75 32 -75 73c0 40 33 73 75 73s75 -33 75 -73c0 -41 -33 -73 -75 -73z" />
    <glyph glyph-name="zcaron" unicode="&#x17e;" horiz-adv-x="483" 
d="M188 562l-67 101v37h53l78 -60l78 60h49v-37l-71 -101h-120zM11 0v91l291 345h-177l-14 -88h-84v177h443v-94l-292 -344h186l12 88h87v-175h-452z" />
    <glyph glyph-name="oneeighth" unicode="&#x215b;" horiz-adv-x="726" 
d="M552 -6c-104 0 -162 45 -162 115c0 49 28 80 79 96v2c-41 13 -64 39 -64 80c0 64 62 104 147 104s146 -40 146 -104c0 -41 -21 -67 -63 -80v-2c51 -16 79 -47 79 -96c0 -70 -59 -115 -162 -115zM552 61c38 0 55 24 55 56s-17 57 -55 57c-39 0 -55 -25 -55 -57
s16 -56 55 -56zM552 233c28 0 43 17 43 45s-15 45 -43 45s-44 -17 -44 -45s16 -45 44 -45zM59 -34l493 763h92l-493 -763h-92zM9 315v60h47c7 0 15 10 15 16v216l-39 -21h-25v69l96 45h80v-309c0 -6 8 -16 15 -16h42v-60h-231z" />
    <glyph glyph-name="threeeighths" unicode="&#x215c;" horiz-adv-x="733" 
d="M559 -6c-104 0 -162 45 -162 115c0 49 28 80 79 96v2c-41 13 -64 39 -64 80c0 64 62 104 147 104s146 -40 146 -104c0 -41 -21 -67 -63 -80v-2c51 -16 79 -47 79 -96c0 -70 -59 -115 -162 -115zM559 61c38 0 55 24 55 56s-17 57 -55 57c-39 0 -55 -25 -55 -57
s16 -56 55 -56zM559 233c28 0 43 17 43 45s-15 45 -43 45s-44 -17 -44 -45s16 -45 44 -45zM66 -34l493 763h92l-493 -763h-92zM128 309c-55 0 -92 8 -121 20v84h58c10 -16 28 -34 59 -34c29 0 55 16 55 50c0 32 -20 47 -60 47h-33v65h30c40 0 61 17 61 46
c0 28 -16 45 -46 45c-28 0 -46 -16 -56 -32h-56v85c34 12 78 21 124 21c85 0 140 -31 140 -102c0 -52 -33 -80 -83 -90v-3c58 -8 89 -37 89 -89c0 -72 -63 -113 -161 -113z" />
    <glyph glyph-name="fiveeighths" unicode="&#x215d;" horiz-adv-x="729" 
d="M555 -6c-104 0 -162 45 -162 115c0 49 28 80 79 96v2c-41 13 -64 39 -64 80c0 64 62 104 147 104s146 -40 146 -104c0 -41 -21 -67 -63 -80v-2c51 -16 79 -47 79 -96c0 -70 -59 -115 -162 -115zM555 61c38 0 55 24 55 56s-17 57 -55 57c-39 0 -55 -25 -55 -57
s16 -56 55 -56zM555 233c28 0 43 17 43 45s-15 45 -43 45s-44 -17 -44 -45s16 -45 44 -45zM62 -34l493 763h92l-493 -763h-92zM128 309c-55 0 -92 11 -121 23v83h58c12 -24 29 -36 60 -36c29 0 54 19 54 58c0 38 -24 56 -50 56c-28 0 -43 -12 -52 -23h-63v230h254v-105h-67
l-6 28h-103v-89h2c14 11 40 23 73 23c68 0 120 -34 120 -118c0 -83 -63 -130 -159 -130z" />
    <glyph glyph-name="seveneighths" unicode="&#x215e;" horiz-adv-x="708" 
d="M534 -6c-104 0 -162 45 -162 115c0 49 28 80 79 96v2c-41 13 -64 39 -64 80c0 64 62 104 147 104s146 -40 146 -104c0 -41 -21 -67 -63 -80v-2c51 -16 79 -47 79 -96c0 -70 -59 -115 -162 -115zM534 61c38 0 55 24 55 56s-17 57 -55 57c-39 0 -55 -25 -55 -57
s16 -56 55 -56zM534 233c28 0 43 17 43 45s-15 45 -43 45s-44 -17 -44 -45s16 -45 44 -45zM28 -34l493 763h92l-493 -763h-92zM49 315v45l169 257v2h-138l-6 -46h-67v127h283v-87l-131 -298h-110z" />
    <glyph glyph-name="onethird" unicode="&#x2153;" horiz-adv-x="712" 
d="M540 -6c-55 0 -92 8 -121 20v84h58c10 -16 28 -34 59 -34c29 0 55 16 55 50c0 32 -20 47 -60 47h-33v65h30c40 0 61 17 61 46c0 28 -16 45 -46 45c-28 0 -46 -16 -56 -32h-56v85c34 12 78 21 124 21c85 0 140 -31 140 -102c0 -52 -33 -80 -83 -90v-3c58 -8 89 -37 89 -89
c0 -72 -63 -113 -161 -113zM9 315v60h47c7 0 15 10 15 16v216l-39 -21h-25v69l96 45h80v-309c0 -6 8 -16 15 -16h42v-60h-231zM59 -34l493 763h92l-493 -763h-92z" />
    <glyph glyph-name="twothirds" unicode="&#x2154;" horiz-adv-x="757" 
d="M585 -6c-55 0 -92 8 -121 20v84h58c10 -16 28 -34 59 -34c29 0 55 16 55 50c0 32 -20 47 -60 47h-33v65h30c40 0 61 17 61 46c0 28 -16 45 -46 45c-28 0 -46 -16 -56 -32h-56v85c34 12 78 21 124 21c85 0 140 -31 140 -102c0 -52 -33 -80 -83 -90v-3c58 -8 89 -37 89 -89
c0 -72 -63 -113 -161 -113zM104 -34l493 763h92l-493 -763h-92zM12 315v42c0 69 44 111 94 146c39 29 78 50 78 84c0 29 -18 44 -44 44c-29 0 -48 -17 -59 -39h-58v93c34 12 75 21 128 21c88 0 145 -37 145 -113c0 -70 -57 -99 -106 -128c-40 -22 -75 -45 -82 -70h107l6 32
h68v-112h-277z" />
    <glyph glyph-name="Euro" unicode="&#x20ac;" horiz-adv-x="582" 
d="M18 374v72h53c30 173 144 262 292 262c92 0 155 -12 200 -32v-150h-88c-16 48 -37 80 -109 80c-75 0 -124 -43 -139 -160h197l-15 -72h-187v-60h175l-15 -72h-154c15 -104 55 -151 139 -151c65 0 93 30 118 65h79v-112c-56 -31 -114 -52 -201 -52
c-152 0 -260 82 -291 250h-54v72h46c-1 11 -1 22 -1 34v26h-45z" />
    <glyph glyph-name="space_uni0326" unicode="&#xf6c3;" horiz-adv-x="400" 
d="M136 -219v55c32 3 45 13 45 26c0 12 -13 15 -23 22c-14 10 -21 22 -21 45c0 30 26 53 60 53c36 0 67 -23 67 -73c0 -79 -41 -121 -128 -128z" />
    <glyph glyph-name="paragraph.cap" horiz-adv-x="554" 
d="M240 0v303c-132 6 -227 58 -227 198c0 153 110 199 254 199h276v-86h-38c-15 0 -29 -18 -29 -31v-583h-84v608h-68v-608h-84z" />
    <glyph glyph-name="bullet.cap" horiz-adv-x="320" 
d="M160 192c-76 0 -138 50 -138 134s62 136 138 136c77 0 138 -52 138 -136s-61 -134 -138 -134z" />
    <glyph glyph-name="at.cap" horiz-adv-x="785" 
d="M398 -9c-188 0 -379 101 -379 337c0 249 209 384 387 384c184 0 360 -106 360 -297c0 -168 -106 -246 -215 -246c-75 0 -108 28 -122 66c-22 -35 -58 -66 -118 -66c-72 0 -114 47 -114 124c0 66 18 119 57 167c34 42 84 65 142 65c49 0 75 -16 96 -39c21 18 46 34 67 34
h41l-51 -226c-7 -33 -11 -60 20 -60c66 0 113 57 113 178c0 143 -119 227 -275 227c-148 0 -294 -100 -294 -312c0 -188 127 -265 287 -265c87 0 158 20 210 53h46v-56c-58 -42 -154 -68 -258 -68zM357 244c22 0 41 14 62 36l38 163c-9 4 -23 7 -40 7
c-64 0 -97 -70 -97 -156c0 -33 15 -50 37 -50z" />
    <glyph glyph-name="dagger.cap" horiz-adv-x="443" 
d="M193 0l-53 309v42l59 120l-142 -55l-46 30v87l46 30l142 -56l-50 112v30l24 51h97l24 -51v-30l-51 -112l143 56l46 -30v-87l-46 -30l-143 55l60 -118v-42l-53 -311h-57z" />
    <glyph glyph-name="daggerdbl.cap" horiz-adv-x="443" 
d="M173 0l-24 51v30l50 112l-142 -55l-46 30v87l46 30l141 -56l-52 101v40l52 100l-141 -55l-46 30v87l46 30l143 -56l-51 113v30l24 51h97l24 -51v-30l-51 -113l143 56l46 -30v-87l-46 -30l-142 55l53 -100v-40l-53 -100l142 55l46 -30v-87l-46 -30l-143 55l51 -112v-30
l-24 -51h-97z" />
    <glyph glyph-name="less.cap" horiz-adv-x="446" 
d="M376 0l-360 302v97l360 301h50v-86l-246 -264v-3l246 -265v-82h-50z" />
    <glyph glyph-name="greater.cap" horiz-adv-x="446" 
d="M20 0v82l246 265v3l-246 264v86h50l360 -301v-97l-360 -302h-50z" />
    <glyph glyph-name="guillemotleft.cap" horiz-adv-x="705" 
d="M337 0l-321 301v97l321 302h52v-86l-215 -261v-3l215 -267v-83h-52zM633 0l-321 301v97l321 302h52v-86l-215 -261v-3l215 -267v-83h-52z" />
    <glyph glyph-name="guillemotright.cap" horiz-adv-x="705" 
d="M20 0v83l215 264v3l-215 264v86h52l321 -301v-97l-321 -302h-52zM316 0v83l215 264v3l-215 264v86h52l321 -301v-97l-321 -302h-52z" />
    <glyph glyph-name="quotedblleft.cap" horiz-adv-x="1019" 
d="M992 614c-177 -19 -230 -97 -230 -158c0 -64 85 -69 150 -105c47 -26 89 -71 89 -164c0 -115 -86 -195 -215 -195c-132 0 -256 87 -256 278c0 255 148 415 462 430v-86zM480 614c-177 -19 -230 -97 -230 -158c0 -64 85 -69 150 -105c47 -26 89 -71 89 -164
c0 -115 -86 -195 -215 -195c-132 0 -256 87 -256 278c0 255 148 415 462 430v-86z" />
    <glyph glyph-name="quotedblright.cap" horiz-adv-x="1019" 
d="M27 83c177 20 231 100 231 161c0 64 -86 69 -151 105c-47 26 -89 71 -89 164c0 115 86 195 215 195c132 0 256 -87 256 -278c0 -255 -148 -415 -462 -430v83zM539 83c177 20 231 100 231 161c0 64 -86 69 -151 105c-47 26 -89 71 -89 164c0 115 86 195 215 195
c132 0 256 -87 256 -278c0 -255 -148 -415 -462 -430v83z" />
    <glyph glyph-name="quoteleft.cap" horiz-adv-x="507" 
d="M480 614c-177 -19 -230 -97 -230 -158c0 -64 85 -69 150 -105c47 -26 89 -71 89 -164c0 -115 -86 -195 -215 -195c-132 0 -256 87 -256 278c0 255 148 415 462 430v-86z" />
    <glyph glyph-name="quoteright.cap" horiz-adv-x="507" 
d="M27 83c177 20 230 100 230 161c0 64 -85 69 -150 105c-47 26 -89 71 -89 164c0 115 86 195 215 195c132 0 256 -87 256 -278c0 -255 -148 -415 -462 -430v83z" />
    <glyph glyph-name="hyphen.cap" horiz-adv-x="283" 
d="M26 278v109h231v-109h-231z" />
    <glyph glyph-name="endash.cap" horiz-adv-x="413" 
d="M26 281v103h361v-103h-361z" />
    <glyph glyph-name="emdash.cap" horiz-adv-x="673" 
d="M26 281v103h621v-103h-621z" />
    <glyph glyph-name="questiondown.cap" horiz-adv-x="432" 
d="M236 -8c-136 0 -223 63 -223 183c0 80 40 118 99 162c78 58 122 88 117 157h84c11 -73 8 -118 -63 -192c-24 -25 -77 -73 -77 -132c0 -47 25 -76 68 -76c49 0 74 29 92 61h87v-129c-60 -21 -108 -34 -184 -34zM261 545c-45 0 -82 36 -82 81s37 80 82 80
c46 0 82 -35 82 -80s-36 -81 -82 -81z" />
    <glyph glyph-name="exclamdown.cap" horiz-adv-x="204" 
d="M102 545c-45 0 -82 36 -82 81s37 80 82 80c46 0 82 -35 82 -80s-36 -81 -82 -81zM24 0v86l42 408h72l42 -408v-86h-156z" />
    <glyph glyph-name="ampersand.alt" horiz-adv-x="703" 
d="M271 -8c-165 0 -256 74 -256 199c0 106 61 161 145 199c-30 39 -46 76 -46 137c0 110 85 181 213 181c29 0 71 -5 81 -8h122v-180h-104l-16 74c-17 7 -28 12 -60 12c-63 0 -80 -32 -80 -77c0 -43 23 -72 58 -107l166 -167c18 47 30 101 33 158h129v-73
c-18 -53 -41 -115 -76 -171l59 -59c19 -17 29 -27 44 -27h9v-83h-156l-56 57c-53 -40 -121 -65 -209 -65zM297 91c41 0 78 15 110 41l-188 194c-24 -23 -44 -59 -44 -114c0 -67 37 -121 122 -121z" />
    <glyph glyph-name="zero.num" horiz-adv-x="379" 
d="M190 309c-97 0 -178 68 -178 199c0 130 83 198 178 198s177 -68 177 -198c0 -131 -80 -199 -177 -199zM190 381c39 0 61 36 61 124c0 89 -22 124 -61 124c-40 0 -61 -35 -61 -124c0 -88 21 -124 61 -124z" />
    <glyph glyph-name="one.num" horiz-adv-x="247" 
d="M9 315v60h47c7 0 15 10 15 16v216l-39 -21h-25v69l96 45h80v-309c0 -6 8 -16 15 -16h42v-60h-231z" />
    <glyph glyph-name="two.num" horiz-adv-x="307" 
d="M12 315v42c0 69 44 111 94 146c39 29 78 50 78 84c0 29 -18 44 -44 44c-29 0 -48 -17 -59 -39h-58v93c34 12 75 21 128 21c88 0 145 -37 145 -113c0 -70 -57 -99 -106 -128c-40 -22 -75 -45 -82 -70h107l6 32h68v-112h-277z" />
    <glyph glyph-name="three.num" horiz-adv-x="300" 
d="M128 309c-55 0 -92 8 -121 20v84h58c10 -16 28 -34 59 -34c29 0 55 16 55 50c0 32 -20 47 -60 47h-33v65h30c40 0 61 17 61 46c0 28 -16 45 -46 45c-28 0 -46 -16 -56 -32h-56v85c34 12 78 21 124 21c85 0 140 -31 140 -102c0 -52 -33 -80 -83 -90v-3
c58 -8 89 -37 89 -89c0 -72 -63 -113 -161 -113z" />
    <glyph glyph-name="four.num" horiz-adv-x="330" 
d="M132 315v60h26c6 0 15 10 15 16v23h-166v79l168 207h107v-221h41v-65h-41v-23c0 -6 8 -16 15 -16h26v-60h-191zM75 482v-3h100v124h-2z" />
    <glyph glyph-name="five.num" horiz-adv-x="298" 
d="M128 309c-55 0 -92 11 -121 23v83h58c12 -24 29 -36 60 -36c29 0 54 19 54 58c0 38 -24 56 -50 56c-28 0 -43 -12 -52 -23h-63v230h254v-105h-67l-6 28h-103v-89h2c14 11 40 23 73 23c68 0 120 -34 120 -118c0 -83 -63 -130 -159 -130z" />
    <glyph glyph-name="six.num" horiz-adv-x="344" 
d="M180 309c-97 0 -168 59 -168 190c0 132 74 207 203 207c44 0 77 -6 96 -11v-83h-54c-7 10 -20 24 -49 24c-51 0 -79 -41 -84 -115c20 23 52 38 93 38c67 0 116 -37 116 -114c0 -80 -58 -136 -153 -136zM176 494c-22 0 -40 -6 -52 -14c2 -84 19 -107 53 -107
c33 0 49 31 49 67s-18 54 -50 54z" />
    <glyph glyph-name="seven.num" horiz-adv-x="297" 
d="M49 315v45l169 257v2h-138l-6 -46h-67v127h283v-87l-131 -298h-110z" />
    <glyph glyph-name="eight.num" horiz-adv-x="348" 
d="M174 309c-104 0 -162 45 -162 115c0 49 28 80 79 96v2c-41 13 -64 39 -64 80c0 64 62 104 147 104s146 -40 146 -104c0 -41 -21 -67 -63 -80v-2c51 -16 79 -47 79 -96c0 -70 -59 -115 -162 -115zM174 376c38 0 55 24 55 56s-17 57 -55 57c-39 0 -55 -25 -55 -57
s16 -56 55 -56zM174 548c28 0 43 17 43 45s-15 45 -43 45s-44 -17 -44 -45s16 -45 44 -45z" />
    <glyph glyph-name="nine.num" horiz-adv-x="344" 
d="M128 309c-44 0 -82 7 -102 13v81h55c10 -12 23 -24 54 -24c53 0 80 35 84 113c-20 -21 -52 -37 -91 -37c-68 0 -117 39 -117 117c0 79 60 134 154 134c99 0 167 -55 167 -190s-68 -207 -204 -207zM169 518c21 0 38 6 51 13c-2 80 -19 110 -53 110c-32 0 -49 -27 -49 -66
c0 -38 20 -57 51 -57z" />
    <glyph glyph-name="zero.den" horiz-adv-x="379" 
d="M190 -6c-97 0 -178 68 -178 199c0 130 83 198 178 198s177 -68 177 -198c0 -131 -80 -199 -177 -199zM190 66c39 0 61 36 61 124c0 89 -22 124 -61 124c-40 0 -61 -35 -61 -124c0 -88 21 -124 61 -124z" />
    <glyph glyph-name="one.den" horiz-adv-x="247" 
d="M9 0v60h47c7 0 15 10 15 16v216l-39 -21h-25v69l96 45h80v-309c0 -6 8 -16 15 -16h42v-60h-231z" />
    <glyph glyph-name="two.den" horiz-adv-x="307" 
d="M12 0v42c0 69 44 111 94 146c39 29 78 50 78 84c0 29 -18 44 -44 44c-29 0 -48 -17 -59 -39h-58v93c34 12 75 21 128 21c88 0 145 -37 145 -113c0 -70 -57 -99 -106 -128c-40 -22 -75 -45 -82 -70h107l6 32h68v-112h-277z" />
    <glyph glyph-name="three.den" horiz-adv-x="300" 
d="M128 -6c-55 0 -92 8 -121 20v84h58c10 -16 28 -34 59 -34c29 0 55 16 55 50c0 32 -20 47 -60 47h-33v65h30c40 0 61 17 61 46c0 28 -16 45 -46 45c-28 0 -46 -16 -56 -32h-56v85c34 12 78 21 124 21c85 0 140 -31 140 -102c0 -52 -33 -80 -83 -90v-3c58 -8 89 -37 89 -89
c0 -72 -63 -113 -161 -113z" />
    <glyph glyph-name="four.den" horiz-adv-x="330" 
d="M132 0v60h26c6 0 15 10 15 16v23h-166v79l168 207h107v-221h41v-65h-41v-23c0 -6 8 -16 15 -16h26v-60h-191zM75 167v-3h100v124h-2z" />
    <glyph glyph-name="five.den" horiz-adv-x="298" 
d="M128 -6c-55 0 -92 11 -121 23v83h58c12 -24 29 -36 60 -36c29 0 54 19 54 58c0 38 -24 56 -50 56c-28 0 -43 -12 -52 -23h-63v230h254v-105h-67l-6 28h-103v-89h2c14 11 40 23 73 23c68 0 120 -34 120 -118c0 -83 -63 -130 -159 -130z" />
    <glyph glyph-name="six.den" horiz-adv-x="344" 
d="M180 -6c-97 0 -168 59 -168 190c0 132 74 207 203 207c44 0 77 -6 96 -11v-83h-54c-7 10 -20 24 -49 24c-51 0 -79 -41 -84 -115c20 23 52 38 93 38c67 0 116 -37 116 -114c0 -80 -58 -136 -153 -136zM176 179c-22 0 -40 -6 -52 -14c2 -84 19 -107 53 -107
c33 0 49 31 49 67s-18 54 -50 54z" />
    <glyph glyph-name="seven.den" horiz-adv-x="297" 
d="M49 0v45l169 257v2h-138l-6 -46h-67v127h283v-87l-131 -298h-110z" />
    <glyph glyph-name="eight.den" horiz-adv-x="348" 
d="M174 -6c-104 0 -162 45 -162 115c0 49 28 80 79 96v2c-41 13 -64 39 -64 80c0 64 62 104 147 104s146 -40 146 -104c0 -41 -21 -67 -63 -80v-2c51 -16 79 -47 79 -96c0 -70 -59 -115 -162 -115zM174 61c38 0 55 24 55 56s-17 57 -55 57c-39 0 -55 -25 -55 -57
s16 -56 55 -56zM174 233c28 0 43 17 43 45s-15 45 -43 45s-44 -17 -44 -45s16 -45 44 -45z" />
    <glyph glyph-name="nine.den" horiz-adv-x="344" 
d="M128 -6c-44 0 -82 7 -102 13v81h55c10 -12 23 -24 54 -24c53 0 80 35 84 113c-20 -21 -52 -37 -91 -37c-68 0 -117 39 -117 117c0 79 60 134 154 134c99 0 167 -55 167 -190s-68 -207 -204 -207zM169 203c21 0 38 6 51 13c-2 80 -19 110 -53 110c-32 0 -49 -27 -49 -66
c0 -38 20 -57 51 -57z" />
    <glyph glyph-name="dollar.tab" 
d="M52 18v160h89c16 -47 38 -82 108 -90v209c-117 30 -194 74 -194 206c0 123 83 194 212 204v57h74v-57c78 -3 132 -16 178 -30v-149h-87c-14 39 -36 74 -91 85v-198c132 -37 201 -75 201 -203c0 -131 -80 -206 -219 -218v-96h-74v95c-82 2 -134 12 -197 25zM182 525
c0 -50 30 -71 85 -89v177c-53 -10 -85 -39 -85 -88zM403 187c0 49 -28 71 -80 89v-185c51 12 80 47 80 96z" />
    <glyph glyph-name="Euro.tab" 
d="M32 374v72h53c30 173 139 262 287 262c92 0 150 -12 195 -32v-150h-88c-16 48 -32 80 -104 80c-75 0 -119 -43 -134 -160h187l-15 -72h-177v-60h165l-15 -72h-144c15 -104 50 -151 134 -151c65 0 88 30 113 65h79v-112c-56 -31 -109 -52 -196 -52
c-152 0 -255 82 -286 250h-54v72h46c-1 11 -1 22 -1 34v26h-45z" />
    <glyph glyph-name="sterling.tab" 
d="M61 309v87h43c-10 40 -18 78 -18 110c0 139 111 202 241 202c79 0 137 -16 198 -38v-143h-87c-20 44 -42 79 -106 79c-52 0 -87 -31 -87 -95c0 -24 6 -66 13 -115h164v-87h-153c4 -37 7 -73 7 -103c0 -27 -4 -51 -10 -73c50 -12 105 -16 163 -16l11 74h99v-191h-53
c-121 0 -214 14 -278 45c-21 -17 -46 -32 -76 -45h-71v83c52 8 84 48 84 108c0 36 -8 76 -18 118h-66z" />
    <glyph glyph-name="yen.tab" 
d="M49 313v72h132l-114 206c-8 15 -20 23 -32 23h-13v86h257v-86h-55l100 -203h2l61 133c22 48 8 70 -34 70h-9v86h234v-86h-17c-15 0 -31 -10 -40 -27l-108 -202h138v-72h-173v-60h173v-72h-173v-67c0 -13 14 -31 29 -31h44v-83h-302v83h44c15 0 29 18 29 31v67h-173v72
h173v60h-173z" />
    <glyph glyph-name="zero.tab" 
d="M300 -8c-138 0 -263 105 -263 358s125 358 263 358s263 -105 263 -358s-125 -358 -263 -358zM300 92c68 0 103 67 103 255c0 189 -35 257 -103 257c-69 0 -103 -68 -103 -257c0 -188 34 -255 103 -255z" />
    <glyph glyph-name="one.tab" 
d="M113 0v83h96c14 0 28 18 28 31v440l-93 -45h-35v83l180 108h105v-586c0 -13 13 -31 28 -31h103v-83h-412z" />
    <glyph glyph-name="two.tab" 
d="M422 115l11 76h99v-191h-476v63c0 131 95 205 185 271c73 54 144 101 144 173c0 60 -30 99 -90 99c-64 0 -100 -35 -120 -79h-87v143c61 22 133 38 212 38c151 0 245 -62 245 -200c0 -129 -114 -191 -213 -248c-75 -43 -137 -90 -147 -145h237z" />
    <glyph glyph-name="three.tab" 
d="M264 -8c-93 0 -153 13 -207 34v132h87c18 -34 55 -66 118 -66c64 0 117 37 117 110s-41 108 -126 108h-52v93h44c87 0 131 35 131 106c0 60 -30 95 -95 95c-59 0 -94 -29 -114 -62h-83v130c61 22 129 36 208 36c146 0 235 -54 235 -182c0 -96 -56 -143 -148 -163v-4
c107 -15 158 -70 158 -165c1 -132 -116 -202 -273 -202z" />
    <glyph glyph-name="four.tab" 
d="M295 83c14 0 28 18 28 31v53h-272v119l280 414h145v-435h74v-98h-74v-53c0 -13 13 -31 28 -31h46v-83h-301v83h46zM143 269v-4h180v275h-4z" />
    <glyph glyph-name="five.tab" 
d="M536 225c0 -151 -107 -233 -270 -233c-95 0 -155 20 -207 42v129h87c19 -42 55 -71 118 -71c64 0 117 38 117 127c0 87 -51 124 -107 124c-61 0 -87 -25 -107 -47h-93v404h434v-167h-99l-11 53h-212v-178h3c24 17 66 35 128 35c122 0 219 -66 219 -218z" />
    <glyph glyph-name="six.tab" 
d="M366 608c-104 0 -156 -80 -163 -235c37 43 87 71 154 71c119 0 206 -75 206 -212c0 -138 -100 -240 -254 -240s-267 112 -267 343c0 239 129 373 337 373c67 0 110 -8 146 -17v-123h-86c-12 15 -25 40 -73 40zM313 346c-51 0 -84 -19 -111 -38c3 -155 28 -223 107 -223
s98 67 98 142c0 76 -28 119 -94 119z" />
    <glyph glyph-name="seven.tab" 
d="M443 580v4h-278l-11 -91h-99v207h491v-127l-262 -573h-157v61z" />
    <glyph glyph-name="eight.tab" 
d="M428 377v-4c92 -28 138 -85 138 -174c0 -129 -97 -207 -266 -207s-266 78 -266 207c0 89 46 146 138 174v4c-74 24 -108 70 -108 145c0 117 98 186 236 186s236 -69 236 -186c0 -75 -33 -121 -108 -145zM300 88c73 0 111 52 111 119s-38 119 -111 119
c-74 0 -111 -52 -111 -119s37 -119 111 -119zM300 420c53 0 85 30 85 93s-32 96 -85 96c-54 0 -85 -33 -85 -96s31 -93 85 -93z" />
    <glyph glyph-name="nine.tab" 
d="M234 92c103 0 154 80 162 235c-37 -43 -86 -71 -153 -71c-119 0 -205 75 -205 212c0 138 99 240 253 240s266 -101 266 -343c0 -241 -128 -373 -336 -373c-67 0 -120 11 -156 24v124h84c15 -25 33 -48 85 -48zM287 354c51 0 83 18 110 37c-3 156 -28 224 -106 224
c-79 0 -97 -67 -97 -142c0 -76 27 -119 93 -119z" />
    <glyph glyph-name="plus.tab" 
d="M538 288h-177v-188h-122v188h-178v115h178v188h122v-188h177v-115z" />
    <glyph glyph-name="minus.tab" 
d="M539 288h-477v115h477v-115z" />
    <glyph glyph-name="multiply.tab" 
d="M448 116l-147 147l-147 -147l-76 76l147 147l-147 147l76 76l147 -147l147 147l75 -76l-147 -147l147 -147z" />
    <glyph glyph-name="divide.tab" 
d="M539 288h-477v115h477v-115zM301 444c-46 0 -82 35 -82 80s36 81 82 81c45 0 82 -36 82 -81s-37 -80 -82 -80zM301 86c-46 0 -82 35 -82 80s36 81 82 81c45 0 82 -36 82 -81s-37 -80 -82 -80z" />
    <glyph glyph-name="less.tab" 
d="M88 281v97l386 193h34v-108l-272 -130v-3l272 -132v-110h-34z" />
    <glyph glyph-name="equal.tab" 
d="M524 362h-447v115h447v-115zM524 152h-447v115h447v-115z" />
    <glyph glyph-name="greater.tab" 
d="M512 378v-97l-386 -193h-34v108l272 130v3l-272 132v110h34z" />
    <glyph glyph-name="comma.tab" horiz-adv-x="300" 
d="M67 -46c42 6 63 22 63 40c0 19 -15 20 -32 31c-19 13 -30 30 -30 60c0 40 34 70 79 70c46 0 87 -31 87 -96c0 -103 -53 -158 -167 -169v64z" />
    <glyph glyph-name="period.tab" horiz-adv-x="300" 
d="M150 -6c-46 0 -82 35 -82 80s36 81 82 81c45 0 82 -36 82 -81s-37 -80 -82 -80z" />
    <glyph glyph-name="colon.tab" horiz-adv-x="300" 
d="M150 284c-46 0 -82 35 -82 80s36 81 82 81c45 0 82 -36 82 -81s-37 -80 -82 -80zM150 -6c-46 0 -82 35 -82 80s36 81 82 81c45 0 82 -36 82 -81s-37 -80 -82 -80z" />
    <glyph glyph-name="semicolon.tab" horiz-adv-x="300" 
d="M65 -46c42 6 63 22 63 40c0 19 -15 20 -32 31c-19 13 -30 30 -30 60c0 40 34 70 79 70c46 0 87 -31 87 -96c0 -103 -53 -158 -167 -169v64zM150 284c-46 0 -82 35 -82 80s36 81 82 81c45 0 82 -36 82 -81s-37 -80 -82 -80z" />
    <glyph glyph-name="percent.tab" horiz-adv-x="800" 
d="M204 350c-87 0 -161 58 -161 179c0 122 74 179 161 179c88 0 162 -57 162 -179c0 -121 -74 -179 -162 -179zM693 729l-493 -763h-92l493 763h92zM204 421c37 0 55 31 55 106c0 77 -18 108 -55 108c-36 0 -54 -31 -54 -108c0 -75 18 -106 54 -106zM595 -8
c-87 0 -161 58 -161 179c0 122 74 179 161 179c88 0 162 -57 162 -179c0 -121 -74 -179 -162 -179zM595 63c37 0 55 31 55 106c0 77 -18 108 -55 108c-36 0 -54 -31 -54 -108c0 -75 18 -106 54 -106z" />
    <glyph glyph-name="perthousand.tab" horiz-adv-x="1200" 
d="M215 350c-87 0 -161 58 -161 179c0 122 74 179 161 179c88 0 162 -57 162 -179c0 -121 -74 -179 -162 -179zM709 729l-493 -763h-92l493 763h92zM215 421c37 0 55 31 55 106c0 77 -18 108 -55 108c-36 0 -54 -31 -54 -108c0 -75 18 -106 54 -106zM616 -8
c-87 0 -161 58 -161 179c0 122 74 179 161 179c88 0 162 -57 162 -179c0 -121 -74 -179 -162 -179zM616 63c37 0 55 31 55 106c0 77 -18 108 -55 108c-36 0 -54 -31 -54 -108c0 -75 18 -106 54 -106zM984 -8c-87 0 -161 58 -161 179c0 122 74 179 161 179
c88 0 162 -57 162 -179c0 -121 -74 -179 -162 -179zM984 63c37 0 55 31 55 106c0 77 -18 108 -55 108c-36 0 -54 -31 -54 -108c0 -75 18 -106 54 -106z" />
    <glyph glyph-name="cent.tab" 
d="M298 589h74v-57c68 -2 115 -13 146 -26v-123h-82c-15 28 -34 46 -64 53v-348c42 10 65 36 83 57h65v-105c-33 -19 -80 -40 -148 -45v-97h-74v96c-158 12 -236 110 -236 267c0 154 91 254 236 270v58zM211 260c0 -104 28 -157 87 -172v346c-55 -17 -87 -73 -87 -174z" />
    <glyph glyph-name="florin.tab" 
d="M140 351v87h69l15 127c11 101 68 145 173 145c36 0 60 -7 80 -14v-82h-29c-41 0 -68 -14 -73 -54l-15 -122h90v-87h-100l-37 -305c-8 -66 -44 -122 -118 -146h-72v83c23 10 37 23 43 72l33 296h-59z" />
    <glyph glyph-name="space.tab" horiz-adv-x="300" 
 />
    <glyph glyph-name="uni0237" unicode="&#x237;" horiz-adv-x="264" 
d="M47 -168c-34 0 -62 4 -85 11v73h34c55 0 75 21 75 71v423c0 11 -12 27 -24 27h-42v88h189c16 0 24 -16 24 -56v-491c0 -110 -63 -146 -171 -146z" />
    <glyph glyph-name="Amacron" unicode="&#x100;" horiz-adv-x="729" 
d="M478 854v-94h-266v94h266zM8 0v83h23c19 0 31 12 38 31l170 469c6 18 -2 31 -18 31h-53v86h298l196 -589c5 -16 20 -28 34 -28h25v-83h-302v83h91l-43 133h-251l-15 -43c-20 -56 -15 -90 32 -90h41v-83h-266zM347 584l-100 -281h192l-90 281h-2z" />
    <glyph glyph-name="amacron" unicode="&#x101;" horiz-adv-x="534" 
d="M387 679v-94h-266v94h266zM180 -6c-98 0 -168 54 -168 158c0 110 86 160 207 160c44 0 74 -4 107 -12v55c0 53 -29 78 -91 78c-63 0 -95 -24 -121 -47h-67v107c49 22 115 40 217 40c136 0 208 -44 208 -164v-261c0 -12 13 -25 25 -25h28v-70c-20 -12 -50 -20 -88 -20
c-61 0 -92 24 -105 66c-39 -48 -88 -65 -152 -65zM234 80c37 0 67 14 92 37v112c-23 4 -49 6 -77 6c-59 0 -95 -24 -95 -77s31 -78 80 -78z" />
    <glyph glyph-name="Abreve" unicode="&#x102;" horiz-adv-x="729" 
d="M345 737c-79 0 -117 47 -133 88v50h82c6 -27 23 -43 51 -43s45 16 51 43h82v-50c-16 -41 -54 -88 -133 -88zM8 0v83h23c19 0 31 12 38 31l170 469c6 18 -2 31 -18 31h-53v86h298l196 -589c5 -16 20 -28 34 -28h25v-83h-302v83h91l-43 133h-251l-15 -43
c-20 -56 -15 -90 32 -90h41v-83h-266zM347 584l-100 -281h192l-90 281h-2z" />
    <glyph glyph-name="abreve" unicode="&#x103;" horiz-adv-x="534" 
d="M254 562c-79 0 -117 47 -133 88v50h82c6 -27 23 -43 51 -43s45 16 51 43h82v-50c-16 -41 -54 -88 -133 -88zM180 -6c-98 0 -168 54 -168 158c0 110 86 160 207 160c44 0 74 -4 107 -12v55c0 53 -29 78 -91 78c-63 0 -95 -24 -121 -47h-67v107c49 22 115 40 217 40
c136 0 208 -44 208 -164v-261c0 -12 13 -25 25 -25h28v-70c-20 -12 -50 -20 -88 -20c-61 0 -92 24 -105 66c-39 -48 -88 -65 -152 -65zM234 80c37 0 67 14 92 37v112c-23 4 -49 6 -77 6c-59 0 -95 -24 -95 -77s31 -78 80 -78z" />
    <glyph glyph-name="Aogonek" unicode="&#x104;" horiz-adv-x="729" 
d="M648 -165c-59 0 -96 28 -96 74s42 78 79 91h-212v83h91l-43 133h-251l-15 -43c-20 -56 -15 -90 32 -90h41v-83h-266v83h23c19 0 31 12 38 31l170 469c6 18 -2 31 -18 31h-53v86h298l196 -589c5 -16 20 -28 34 -28h25v-83h-27c-19 -18 -33 -32 -33 -57
c0 -16 10 -27 41 -27h19v-64c-19 -11 -39 -17 -73 -17zM247 303h192l-90 281h-2z" />
    <glyph glyph-name="aogonek" unicode="&#x105;" horiz-adv-x="534" 
d="M452 -165c-59 0 -96 28 -96 74c0 40 31 69 63 85c-50 4 -76 27 -87 65c-39 -48 -88 -65 -152 -65c-98 0 -168 54 -168 158c0 110 86 160 207 160c44 0 74 -4 107 -12v55c0 53 -29 78 -91 78c-63 0 -95 -24 -121 -47h-67v107c49 22 115 40 217 40c136 0 208 -44 208 -164
v-261c0 -12 13 -25 25 -25h28v-70c-42 -21 -60 -47 -60 -67c0 -19 10 -30 41 -30h19v-64c-19 -11 -39 -17 -73 -17zM234 80c37 0 67 14 92 37v112c-23 4 -49 6 -77 6c-59 0 -95 -24 -95 -77s31 -78 80 -78z" />
    <glyph glyph-name="Cacute" unicode="&#x106;" horiz-adv-x="626" 
d="M311 742l28 138h146v-50l-97 -88h-77zM484 700h116v-226h-104l-16 115c-23 9 -65 17 -112 17c-108 0 -187 -75 -187 -252c0 -173 64 -263 185 -263c80 0 131 36 170 86h72v-108c-60 -44 -144 -77 -249 -77c-211 0 -342 127 -342 356s137 360 346 360c61 0 103 -5 121 -8z
" />
    <glyph glyph-name="cacute" unicode="&#x107;" horiz-adv-x="502" 
d="M230 562l28 138h146v-50l-97 -88h-77zM285 -7c-182 0 -272 100 -272 268c0 169 109 272 279 272c85 0 142 -12 177 -27v-120h-88c-18 36 -41 54 -92 54c-79 0 -127 -56 -127 -180c0 -125 41 -176 126 -176c65 0 91 29 112 56h71v-103c-39 -22 -97 -44 -186 -44z" />
    <glyph glyph-name="Ccircumflex" unicode="&#x108;" horiz-adv-x="626" 
d="M484 700h116v-226h-104l-16 115c-23 9 -65 17 -112 17c-108 0 -187 -75 -187 -252c0 -173 64 -263 185 -263c80 0 131 36 170 86h72v-108c-60 -44 -144 -77 -249 -77c-211 0 -342 127 -342 356s137 360 346 360c61 0 103 -5 121 -8zM226 742v37l71 101h120l67 -101v-37
h-53l-78 60l-78 -60h-49z" />
    <glyph glyph-name="ccircumflex" unicode="&#x109;" horiz-adv-x="502" 
d="M285 -7c-182 0 -272 100 -272 268c0 169 109 272 279 272c85 0 142 -12 177 -27v-120h-88c-18 36 -41 54 -92 54c-79 0 -127 -56 -127 -180c0 -125 41 -176 126 -176c65 0 91 29 112 56h71v-103c-39 -22 -97 -44 -186 -44zM145 562v37l71 101h120l67 -101v-37h-53l-78 60
l-78 -60h-49z" />
    <glyph glyph-name="Cdotaccent" unicode="&#x10a;" horiz-adv-x="626" 
d="M356 746c-44 0 -79 34 -79 77s35 78 79 78s79 -35 79 -78s-35 -77 -79 -77zM484 700h116v-226h-104l-16 115c-23 9 -65 17 -112 17c-108 0 -187 -75 -187 -252c0 -173 64 -263 185 -263c80 0 131 36 170 86h72v-108c-60 -44 -144 -77 -249 -77c-211 0 -342 127 -342 356
s137 360 346 360c61 0 103 -5 121 -8z" />
    <glyph glyph-name="cdotaccent" unicode="&#x10b;" horiz-adv-x="502" 
d="M275 566c-44 0 -79 34 -79 77s35 78 79 78s79 -35 79 -78s-35 -77 -79 -77zM285 -7c-182 0 -272 100 -272 268c0 169 109 272 279 272c85 0 142 -12 177 -27v-120h-88c-18 36 -41 54 -92 54c-79 0 -127 -56 -127 -180c0 -125 41 -176 126 -176c65 0 91 29 112 56h71v-103
c-39 -22 -97 -44 -186 -44z" />
    <glyph glyph-name="Ccaron" unicode="&#x10c;" horiz-adv-x="626" 
d="M294 742l-67 101v37h53l78 -60l78 60h49v-37l-71 -101h-120zM484 700h116v-226h-104l-16 115c-23 9 -65 17 -112 17c-108 0 -187 -75 -187 -252c0 -173 64 -263 185 -263c80 0 131 36 170 86h72v-108c-60 -44 -144 -77 -249 -77c-211 0 -342 127 -342 356
s137 360 346 360c61 0 103 -5 121 -8z" />
    <glyph glyph-name="ccaron" unicode="&#x10d;" horiz-adv-x="502" 
d="M213 562l-67 101v37h53l78 -60l78 60h49v-37l-71 -101h-120zM285 -7c-182 0 -272 100 -272 268c0 169 109 272 279 272c85 0 142 -12 177 -27v-120h-88c-18 36 -41 54 -92 54c-79 0 -127 -56 -127 -180c0 -125 41 -176 126 -176c65 0 91 29 112 56h71v-103
c-39 -22 -97 -44 -186 -44z" />
    <glyph glyph-name="Dcaron" unicode="&#x10e;" horiz-adv-x="689" 
d="M229 737l-67 101v37h53l78 -60l78 60h49v-37l-71 -101h-120zM11 0v83h38c15 0 29 18 29 31v469c0 13 -14 31 -29 31h-38v86h288c235 0 372 -107 372 -347c0 -235 -138 -353 -376 -353h-284zM234 87h61c145 0 216 81 216 264c0 182 -70 257 -216 257h-61v-521z" />
    <glyph glyph-name="dcaron" unicode="&#x10f;" horiz-adv-x="605" 
d="M232 -8c-105 0 -218 63 -218 264c0 198 124 277 226 277c73 0 116 -27 150 -68v149h-68v86h189c17 0 25 -13 25 -34v-556c0 -11 13 -27 25 -27h36v-83h-178c-15 0 -24 22 -27 59c-34 -39 -87 -67 -160 -67zM281 80c46 0 80 17 109 42v288c-26 12 -62 23 -97 23
c-69 0 -131 -40 -131 -173c0 -144 59 -180 119 -180zM560 556l6 144h116v-50l-48 -94h-74z" />
    <glyph glyph-name="Dcroat" unicode="&#x110;" horiz-adv-x="689" 
d="M11 0v83h38c15 0 29 18 29 31v188h-67v87h67v194c0 13 -14 31 -29 31h-38v86h288c235 0 372 -107 372 -347c0 -235 -138 -353 -376 -353h-284zM234 87h61c145 0 216 81 216 264c0 182 -70 257 -216 257h-61v-219h143v-87h-143v-215z" />
    <glyph glyph-name="dcroat" unicode="&#x111;" horiz-adv-x="605" 
d="M232 -8c-105 0 -218 63 -218 264c0 198 124 277 226 277c73 0 116 -27 150 -68v94h-88v73h88v68h121c17 0 25 -13 25 -34v-34h61v-73h-61v-449c0 -11 13 -27 25 -27h36v-83h-178c-15 0 -24 22 -27 59c-34 -39 -87 -67 -160 -67zM281 80c46 0 80 17 109 42v288
c-26 12 -62 23 -97 23c-69 0 -131 -40 -131 -173c0 -144 59 -180 119 -180z" />
    <glyph glyph-name="Emacron" unicode="&#x112;" horiz-adv-x="591" 
d="M438 854v-94h-266v94h266zM11 0v83h38c15 0 29 18 29 31v469c0 13 -14 31 -29 31h-38v86h558v-200h-94l-15 107h-226v-208h98l9 80h90v-247h-90l-8 80h-99v-222h233l14 121h99v-211h-569z" />
    <glyph glyph-name="emacron" unicode="&#x113;" horiz-adv-x="527" 
d="M407 679v-94h-266v94h266zM513 235h-351c6 -104 52 -152 136 -152c65 0 88 23 115 57h83v-96c-43 -26 -100 -51 -210 -51c-182 0 -273 102 -273 267c0 169 105 273 263 273c157 0 239 -80 239 -258c0 -18 -2 -35 -2 -40zM276 446c-61 0 -101 -38 -112 -128h205
c-5 92 -33 128 -93 128z" />
    <glyph glyph-name="Edotaccent" unicode="&#x116;" horiz-adv-x="591" 
d="M305 741c-44 0 -79 34 -79 77s35 78 79 78s79 -35 79 -78s-35 -77 -79 -77zM11 0v83h38c15 0 29 18 29 31v469c0 13 -14 31 -29 31h-38v86h558v-200h-94l-15 107h-226v-208h98l9 80h90v-247h-90l-8 80h-99v-222h233l14 121h99v-211h-569z" />
    <glyph glyph-name="edotaccent" unicode="&#x117;" horiz-adv-x="527" 
d="M274 566c-44 0 -79 34 -79 77s35 78 79 78s79 -35 79 -78s-35 -77 -79 -77zM513 235h-351c6 -104 52 -152 136 -152c65 0 88 23 115 57h83v-96c-43 -26 -100 -51 -210 -51c-182 0 -273 102 -273 267c0 169 105 273 263 273c157 0 239 -80 239 -258c0 -18 -2 -35 -2 -40z
M276 446c-61 0 -101 -38 -112 -128h205c-5 92 -33 128 -93 128z" />
    <glyph glyph-name="Eogonek" unicode="&#x118;" horiz-adv-x="591" 
d="M11 0v83h38c15 0 29 18 29 31v469c0 13 -14 31 -29 31h-38v86h558v-200h-94l-15 107h-226v-208h98l9 80h90v-247h-90l-8 80h-99v-222h233l14 121h99v-211h-38c-19 -18 -33 -32 -33 -57c0 -16 10 -27 41 -27h19v-64c-19 -11 -39 -17 -73 -17c-59 0 -96 28 -96 74
s42 78 79 91h-468z" />
    <glyph glyph-name="eogonek" unicode="&#x119;" horiz-adv-x="527" 
d="M389 -165c-59 0 -96 28 -96 74c0 44 38 75 74 89c-24 -3 -50 -5 -81 -5c-182 0 -273 102 -273 267c0 169 105 273 263 273c157 0 239 -80 239 -258c0 -18 -2 -35 -2 -40h-351c6 -104 52 -152 136 -152c65 0 88 23 115 57h83v-96c-59 -33 -94 -69 -94 -97
c0 -20 10 -31 41 -31h19v-64c-19 -11 -39 -17 -73 -17zM164 318h205c-5 92 -33 128 -93 128c-61 0 -101 -38 -112 -128z" />
    <glyph glyph-name="Ecaron" unicode="&#x11a;" horiz-adv-x="591" 
d="M11 0v83h38c15 0 29 18 29 31v469c0 13 -14 31 -29 31h-38v86h558v-200h-94l-15 107h-226v-208h98l9 80h90v-247h-90l-8 80h-99v-222h233l14 121h99v-211h-569zM243 737l-67 101v37h53l78 -60l78 60h49v-37l-71 -101h-120z" />
    <glyph glyph-name="ecaron" unicode="&#x11b;" horiz-adv-x="527" 
d="M212 562l-67 101v37h53l78 -60l78 60h49v-37l-71 -101h-120zM513 235h-351c6 -104 52 -152 136 -152c65 0 88 23 115 57h83v-96c-43 -26 -100 -51 -210 -51c-182 0 -273 102 -273 267c0 169 105 273 263 273c157 0 239 -80 239 -258c0 -18 -2 -35 -2 -40zM276 446
c-61 0 -101 -38 -112 -128h205c-5 92 -33 128 -93 128z" />
    <glyph glyph-name="Ebreve" unicode="&#x114;" horiz-adv-x="591" 
d="M11 0v83h38c15 0 29 18 29 31v469c0 13 -14 31 -29 31h-38v86h558v-200h-94l-15 107h-226v-208h98l9 80h90v-247h-90l-8 80h-99v-222h233l14 121h99v-211h-569zM305 742c-79 0 -117 47 -133 88v50h82c6 -27 23 -43 51 -43s45 16 51 43h82v-50c-16 -41 -54 -88 -133 -88z
" />
    <glyph glyph-name="ebreve" unicode="&#x115;" horiz-adv-x="527" 
d="M513 235h-351c6 -104 52 -152 136 -152c65 0 88 23 115 57h83v-96c-43 -26 -100 -51 -210 -51c-182 0 -273 102 -273 267c0 169 105 273 263 273c157 0 239 -80 239 -258c0 -18 -2 -35 -2 -40zM276 446c-61 0 -101 -38 -112 -128h205c-5 92 -33 128 -93 128zM274 562
c-79 0 -117 47 -133 88v50h82c6 -27 23 -43 51 -43s45 16 51 43h82v-50c-16 -41 -54 -88 -133 -88z" />
    <glyph glyph-name="Gcircumflex" unicode="&#x11c;" horiz-adv-x="660" 
d="M230 742v37l71 101h120l67 -101v-37h-53l-78 60l-78 -60h-49zM345 -8c-201 0 -328 127 -328 356s136 360 348 360c56 0 95 -5 112 -8h114v-220h-104l-16 109c-23 9 -59 17 -106 17c-105 0 -184 -75 -184 -252c0 -173 60 -263 171 -263c45 0 69 4 94 12v144h-69v86h275
v-86h-24c-15 0 -29 -18 -29 -31v-216h-82s-8 22 -28 22c-39 -19 -78 -30 -144 -30z" />
    <glyph glyph-name="gcircumflex" unicode="&#x11d;" horiz-adv-x="512" 
d="M126 562v37l71 101h120l67 -101v-37h-53l-78 60l-78 -60h-49zM217 -175c-162 0 -225 49 -225 121c0 60 47 92 92 110c-25 13 -43 42 -43 76c0 44 26 78 61 101c-44 29 -69 73 -69 129c0 103 85 171 212 171c25 0 49 -3 71 -8h184v-88h-31c-9 0 -22 -9 -22 -18
c6 -17 10 -37 10 -57c0 -102 -85 -165 -212 -165c-36 0 -68 5 -96 14c-3 -11 -4 -25 -4 -34c0 -23 15 -32 44 -32h146c112 0 165 -41 165 -131c0 -111 -78 -189 -283 -189zM223 -89c97 0 144 26 144 69c0 30 -18 46 -70 46h-178c-5 -15 -6 -30 -6 -46c0 -45 30 -69 110 -69z
M245 272c49 0 82 31 82 90c0 60 -33 90 -82 90s-82 -30 -82 -90c0 -59 33 -90 82 -90z" />
    <glyph glyph-name="Gbreve" unicode="&#x11e;" horiz-adv-x="660" 
d="M345 -8c-201 0 -328 127 -328 356s136 360 348 360c56 0 95 -5 112 -8h114v-220h-104l-16 109c-23 9 -59 17 -106 17c-105 0 -184 -75 -184 -252c0 -173 60 -263 171 -263c45 0 69 4 94 12v144h-69v86h275v-86h-24c-15 0 -29 -18 -29 -31v-216h-82s-8 22 -28 22
c-39 -19 -78 -30 -144 -30zM360 742c-79 0 -117 47 -133 88v50h82c6 -27 23 -43 51 -43s45 16 51 43h82v-50c-16 -41 -54 -88 -133 -88z" />
    <glyph glyph-name="gbreve" unicode="&#x11f;" horiz-adv-x="512" 
d="M256 562c-79 0 -117 47 -133 88v50h82c6 -27 23 -43 51 -43s45 16 51 43h82v-50c-16 -41 -54 -88 -133 -88zM217 -175c-162 0 -225 49 -225 121c0 60 47 92 92 110c-25 13 -43 42 -43 76c0 44 26 78 61 101c-44 29 -69 73 -69 129c0 103 85 171 212 171c25 0 49 -3 71 -8
h184v-88h-31c-9 0 -22 -9 -22 -18c6 -17 10 -37 10 -57c0 -102 -85 -165 -212 -165c-36 0 -68 5 -96 14c-3 -11 -4 -25 -4 -34c0 -23 15 -32 44 -32h146c112 0 165 -41 165 -131c0 -111 -78 -189 -283 -189zM223 -89c97 0 144 26 144 69c0 30 -18 46 -70 46h-178
c-5 -15 -6 -30 -6 -46c0 -45 30 -69 110 -69zM245 272c49 0 82 31 82 90c0 60 -33 90 -82 90s-82 -30 -82 -90c0 -59 33 -90 82 -90z" />
    <glyph glyph-name="Gdotaccent" unicode="&#x120;" horiz-adv-x="660" 
d="M360 746c-44 0 -79 34 -79 77s35 78 79 78s79 -35 79 -78s-35 -77 -79 -77zM345 -8c-201 0 -328 127 -328 356s136 360 348 360c56 0 95 -5 112 -8h114v-220h-104l-16 109c-23 9 -59 17 -106 17c-105 0 -184 -75 -184 -252c0 -173 60 -263 171 -263c45 0 69 4 94 12v144
h-69v86h275v-86h-24c-15 0 -29 -18 -29 -31v-216h-82s-8 22 -28 22c-39 -19 -78 -30 -144 -30z" />
    <glyph glyph-name="gdotaccent" unicode="&#x121;" horiz-adv-x="512" 
d="M256 566c-44 0 -79 34 -79 77s35 78 79 78s79 -35 79 -78s-35 -77 -79 -77zM217 -175c-162 0 -225 49 -225 121c0 60 47 92 92 110c-25 13 -43 42 -43 76c0 44 26 78 61 101c-44 29 -69 73 -69 129c0 103 85 171 212 171c25 0 49 -3 71 -8h184v-88h-31
c-9 0 -22 -9 -22 -18c6 -17 10 -37 10 -57c0 -102 -85 -165 -212 -165c-36 0 -68 5 -96 14c-3 -11 -4 -25 -4 -34c0 -23 15 -32 44 -32h146c112 0 165 -41 165 -131c0 -111 -78 -189 -283 -189zM223 -89c97 0 144 26 144 69c0 30 -18 46 -70 46h-178c-5 -15 -6 -30 -6 -46
c0 -45 30 -69 110 -69zM245 272c49 0 82 31 82 90c0 60 -33 90 -82 90s-82 -30 -82 -90c0 -59 33 -90 82 -90z" />
    <glyph glyph-name="Gcommaaccent" unicode="&#x122;" horiz-adv-x="660" 
d="M345 -8c-201 0 -328 127 -328 356s136 360 348 360c56 0 95 -5 112 -8h114v-220h-104l-16 109c-23 9 -59 17 -106 17c-105 0 -184 -75 -184 -252c0 -173 60 -263 171 -263c45 0 69 4 94 12v144h-69v86h275v-86h-24c-15 0 -29 -18 -29 -31v-216h-82s-8 22 -28 22
c-39 -19 -78 -30 -144 -30zM278 -219v55c32 3 45 13 45 26c0 12 -13 15 -23 22c-14 10 -21 22 -21 45c0 30 26 53 60 53c36 0 67 -23 67 -73c0 -79 -41 -121 -128 -128z" />
    <glyph glyph-name="gcommaaccent" unicode="&#x123;" horiz-adv-x="512" 
d="M256 557c-36 0 -67 23 -67 73c0 79 41 121 128 128v-55c-32 -3 -45 -13 -45 -26c0 -12 13 -15 23 -22c14 -10 21 -22 21 -45c0 -30 -26 -53 -60 -53zM217 -175c-162 0 -225 49 -225 121c0 60 47 92 92 110c-25 13 -43 42 -43 76c0 44 26 78 61 101c-44 29 -69 73 -69 129
c0 103 85 171 212 171c25 0 49 -3 71 -8h184v-88h-31c-9 0 -22 -9 -22 -18c6 -17 10 -37 10 -57c0 -102 -85 -165 -212 -165c-36 0 -68 5 -96 14c-3 -11 -4 -25 -4 -34c0 -23 15 -32 44 -32h146c112 0 165 -41 165 -131c0 -111 -78 -189 -283 -189zM223 -89
c97 0 144 26 144 69c0 30 -18 46 -70 46h-178c-5 -15 -6 -30 -6 -46c0 -45 30 -69 110 -69zM245 272c49 0 82 31 82 90c0 60 -33 90 -82 90s-82 -30 -82 -90c0 -59 33 -90 82 -90z" />
    <glyph glyph-name="Hcircumflex" unicode="&#x124;" horiz-adv-x="726" 
d="M233 737v37l71 101h120l67 -101v-37h-53l-78 60l-78 -60h-49zM11 0v83h38c15 0 29 18 29 31v469c0 13 -14 31 -29 31h-38v86h302v-86h-79v-212h257v212h-79v86h303v-86h-39c-15 0 -29 -18 -29 -31v-469c0 -13 14 -31 29 -31h39v-83h-303v83h79v230h-257v-230h79v-83h-302
z" />
    <glyph glyph-name="hcircumflex" unicode="&#x125;" horiz-adv-x="607" 
d="M180 715v37l71 101h120l67 -101v-37h-53l-78 60l-78 -60h-49zM339 0v83h60v269c0 52 -20 67 -69 67c-42 0 -81 -9 -115 -20v-316h61v-83h-267v83h35c12 0 25 14 25 25v479c0 11 -13 27 -25 27h-38v86h184c16 0 25 -12 25 -34v-208c48 45 116 75 194 75
c73 0 136 -29 136 -131v-294c0 -12 13 -25 25 -25h28v-83h-259z" />
    <glyph glyph-name="Hbar" unicode="&#x126;" horiz-adv-x="726" 
d="M11 0v83h38c15 0 29 18 29 31v364h-71v63h71v42c0 13 -14 31 -29 31h-38v86h302v-86h-79v-73h257v73h-79v86h303v-86h-39c-15 0 -29 -18 -29 -31v-42h70v-63h-70v-364c0 -13 14 -31 29 -31h39v-83h-303v83h79v230h-257v-230h79v-83h-302zM234 402h257v76h-257v-76z" />
    <glyph glyph-name="hbar" unicode="&#x127;" horiz-adv-x="607" 
d="M9 0v83h35c12 0 25 14 25 25v451h-60v73h60v68h121c16 0 25 -12 25 -34v-34h97v-73h-97v-101c48 45 116 75 194 75c73 0 136 -29 136 -131v-294c0 -12 13 -25 25 -25h28v-83h-259v83h60v269c0 52 -20 67 -69 67c-42 0 -81 -9 -115 -20v-316h61v-83h-267z" />
    <glyph glyph-name="Imacron" unicode="&#x12a;" horiz-adv-x="327" 
d="M296 854v-94h-266v94h266zM11 0v83h46c14 0 28 18 28 31v469c0 13 -14 31 -28 31h-46v86h305v-86h-46c-15 0 -28 -18 -28 -31v-469c0 -13 13 -31 28 -31h46v-83h-305z" />
    <glyph glyph-name="imacron" unicode="&#x12b;" horiz-adv-x="289" 
d="M9 0v83h38c12 0 24 14 24 25v302c0 11 -12 27 -24 27h-42v88h189c16 0 24 -16 24 -56v-361c0 -12 13 -25 25 -25h38v-83h-272zM268 679v-94h-266v94h266z" />
    <glyph glyph-name="Iogonek" unicode="&#x12e;" horiz-adv-x="327" 
d="M213 -165c-59 0 -96 28 -96 74s42 78 79 91h-185v83h46c14 0 28 18 28 31v469c0 13 -14 31 -28 31h-46v86h305v-86h-46c-15 0 -28 -18 -28 -31v-469c0 -13 13 -31 28 -31h46v-83h-57c-19 -20 -33 -31 -33 -57c0 -16 10 -27 41 -27h19v-64c-19 -11 -39 -17 -73 -17z" />
    <glyph glyph-name="iogonek" unicode="&#x12f;" horiz-adv-x="289" 
d="M181 -165c-59 0 -96 28 -96 74s42 78 79 91h-155v83h38c12 0 24 14 24 25v302c0 11 -12 27 -24 27h-42v88h189c16 0 24 -16 24 -56v-361c0 -12 13 -25 25 -25h38v-83h-54c-19 -18 -33 -32 -33 -57c0 -16 10 -27 41 -27h19v-64c-19 -11 -39 -17 -73 -17zM143 566
c-44 0 -79 34 -79 77s35 78 79 78s79 -35 79 -78s-35 -77 -79 -77z" />
    <glyph glyph-name="Idotaccent" unicode="&#x130;" horiz-adv-x="327" 
d="M163 741c-44 0 -79 34 -79 77s35 78 79 78s79 -35 79 -78s-35 -77 -79 -77zM11 0v83h46c14 0 28 18 28 31v469c0 13 -14 31 -28 31h-46v86h305v-86h-46c-15 0 -28 -18 -28 -31v-469c0 -13 13 -31 28 -31h46v-83h-305z" />
    <glyph glyph-name="idotaccent" horiz-adv-x="289" 
d="M9 0v83h38c12 0 24 14 24 25v302c0 11 -12 27 -24 27h-42v88h189c16 0 24 -16 24 -56v-361c0 -12 13 -25 25 -25h38v-83h-272zM143 566c-44 0 -79 34 -79 77s35 78 79 78s79 -35 79 -78s-35 -77 -79 -77z" />
    <glyph glyph-name="Jcircumflex" unicode="&#x134;" horiz-adv-x="492" 
d="M199 737v37l71 101h120l67 -101v-37h-53l-78 60l-78 -60h-49zM250 177v406c0 13 -14 31 -28 31h-46v86h305v-86h-46c-15 0 -28 -18 -28 -31v-409c0 -125 -73 -182 -227 -182c-72 0 -120 14 -167 35v108h83c17 -25 38 -43 81 -43c50 0 73 29 73 85z" />
    <glyph glyph-name="jcircumflex" unicode="&#x135;" horiz-adv-x="264" 
d="M47 -168c-34 0 -62 4 -85 11v73h34c55 0 75 21 75 71v423c0 11 -12 27 -24 27h-42v88h189c16 0 24 -16 24 -56v-491c0 -110 -63 -146 -171 -146zM2 562v37l71 101h120l67 -101v-37h-53l-78 60l-78 -60h-49z" />
    <glyph glyph-name="Kcommaaccent" unicode="&#x136;" horiz-adv-x="695" 
d="M316 -219v55c32 3 45 13 45 26c0 12 -13 15 -23 22c-14 10 -21 22 -21 45c0 30 26 53 60 53c36 0 67 -23 67 -73c0 -79 -41 -121 -128 -128zM11 0v83h38c15 0 29 18 29 31v469c0 13 -14 31 -29 31h-38v86h291v-86h-68v-268l195 206c38 40 28 62 -11 62h-10v86h267v-86
h-24c-17 0 -28 -14 -52 -32l-177 -172l203 -300c9 -12 18 -27 33 -27h26v-83h-211v75l-152 236l-87 -85v-143h68v-83h-291z" />
    <glyph glyph-name="kcommaaccent" unicode="&#x137;" horiz-adv-x="569" 
d="M268 -219v55c32 3 45 13 45 26c0 12 -13 15 -23 22c-14 10 -21 22 -21 45c0 30 26 53 60 53c36 0 67 -23 67 -73c0 -79 -41 -121 -128 -128zM9 0v83h35c12 0 25 14 25 25v479c0 11 -13 27 -25 27h-38v86h184c16 0 25 -12 25 -34v-398l132 129c16 17 12 40 -8 40h-20v88
h237v-88h-28c-14 0 -32 -9 -42 -19l-112 -109l137 -198c14 -20 25 -28 39 -28h10v-83h-143l-143 212l-59 -57v-72h51v-83h-257z" />
    <glyph glyph-name="Lacute" unicode="&#x139;" horiz-adv-x="567" 
d="M120 737l28 138h146v-50l-97 -88h-77zM11 0v83h38c15 0 29 18 29 31v469c0 13 -14 31 -29 31h-38v86h317v-86h-94v-524h206l14 144h102v-234h-545z" />
    <glyph glyph-name="lacute" unicode="&#x13a;" horiz-adv-x="294" 
d="M81 715l28 138h146v-50l-97 -88h-77zM9 0v83h39c12 0 25 14 25 25v479c0 11 -13 27 -25 27h-42v86h188c17 0 25 -12 25 -34v-558c0 -12 14 -25 25 -25h41v-83h-276z" />
    <glyph glyph-name="Lcommaaccent" unicode="&#x13b;" horiz-adv-x="567" 
d="M222 -219v55c32 3 45 13 45 26c0 12 -13 15 -23 22c-14 10 -21 22 -21 45c0 30 26 53 60 53c36 0 67 -23 67 -73c0 -79 -41 -121 -128 -128zM11 0v83h38c15 0 29 18 29 31v469c0 13 -14 31 -29 31h-38v86h317v-86h-94v-524h206l14 144h102v-234h-545z" />
    <glyph glyph-name="lcommaaccent" unicode="&#x13c;" horiz-adv-x="294" 
d="M86 -219v55c32 3 45 13 45 26c0 12 -13 15 -23 22c-14 10 -21 22 -21 45c0 30 26 53 60 53c36 0 67 -23 67 -73c0 -79 -41 -121 -128 -128zM9 0v83h39c12 0 25 14 25 25v479c0 11 -13 27 -25 27h-42v86h188c17 0 25 -12 25 -34v-558c0 -12 14 -25 25 -25h41v-83h-276z
" />
    <glyph glyph-name="Lcaron" unicode="&#x13d;" horiz-adv-x="567" 
d="M11 0v83h38c15 0 29 18 29 31v469c0 13 -14 31 -29 31h-38v86h317v-86h-94v-524h206l14 144h102v-234h-545zM378 556l6 144h116v-50l-48 -94h-74z" />
    <glyph glyph-name="lcaron" unicode="&#x13e;" horiz-adv-x="294" 
d="M9 0v83h39c12 0 25 14 25 25v479c0 11 -13 27 -25 27h-42v86h188c17 0 25 -12 25 -34v-558c0 -12 14 -25 25 -25h41v-83h-276zM243 556l6 144h116v-50l-48 -94h-74z" />
    <glyph glyph-name="Nacute" unicode="&#x143;" horiz-adv-x="707" 
d="M11 0v83h38c15 0 29 18 29 31v469c0 13 -14 31 -29 31h-38v86h224l278 -449h3v363h-78v86h258v-86h-37c-14 0 -28 -18 -28 -31v-583h-132l-304 488h-3v-405h80v-83h-261zM310 737l28 138h146v-50l-97 -88h-77z" />
    <glyph glyph-name="nacute" unicode="&#x144;" horiz-adv-x="607" 
d="M9 0v83h35c12 0 25 14 25 25v302c0 11 -13 27 -25 27h-39v88h179c17 0 27 -14 30 -68c49 46 116 76 195 76c73 0 136 -29 136 -131v-294c0 -12 13 -25 25 -25h28v-83h-259v83h60v269c0 52 -20 67 -69 67c-42 0 -81 -9 -115 -20v-316h61v-83h-267zM258 562l28 138h146v-50
l-97 -88h-77z" />
    <glyph glyph-name="Ncommaaccent" unicode="&#x145;" horiz-adv-x="707" 
d="M11 0v83h38c15 0 29 18 29 31v469c0 13 -14 31 -29 31h-38v86h224l278 -449h3v363h-78v86h258v-86h-37c-14 0 -28 -18 -28 -31v-583h-132l-304 488h-3v-405h80v-83h-261zM308 -219v55c32 3 45 13 45 26c0 12 -13 15 -23 22c-14 10 -21 22 -21 45c0 30 26 53 60 53
c36 0 67 -23 67 -73c0 -79 -41 -121 -128 -128z" />
    <glyph glyph-name="ncommaaccent" unicode="&#x146;" horiz-adv-x="607" 
d="M9 0v83h35c12 0 25 14 25 25v302c0 11 -13 27 -25 27h-39v88h179c17 0 27 -14 30 -68c49 46 116 76 195 76c73 0 136 -29 136 -131v-294c0 -12 13 -25 25 -25h28v-83h-259v83h60v269c0 52 -20 67 -69 67c-42 0 -81 -9 -115 -20v-316h61v-83h-267zM247 -219v55
c32 3 45 13 45 26c0 12 -13 15 -23 22c-14 10 -21 22 -21 45c0 30 26 53 60 53c36 0 67 -23 67 -73c0 -79 -41 -121 -128 -128z" />
    <glyph glyph-name="Ncaron" unicode="&#x147;" horiz-adv-x="707" 
d="M293 737l-67 101v37h53l78 -60l78 60h49v-37l-71 -101h-120zM11 0v83h38c15 0 29 18 29 31v469c0 13 -14 31 -29 31h-38v86h224l278 -449h3v363h-78v86h258v-86h-37c-14 0 -28 -18 -28 -31v-583h-132l-304 488h-3v-405h80v-83h-261z" />
    <glyph glyph-name="ncaron" unicode="&#x148;" horiz-adv-x="607" 
d="M9 0v83h35c12 0 25 14 25 25v302c0 11 -13 27 -25 27h-39v88h179c17 0 27 -14 30 -68c49 46 116 76 195 76c73 0 136 -29 136 -131v-294c0 -12 13 -25 25 -25h28v-83h-259v83h60v269c0 52 -20 67 -69 67c-42 0 -81 -9 -115 -20v-316h61v-83h-267zM241 562l-67 101v37h53
l78 -60l78 60h49v-37l-71 -101h-120z" />
    <glyph glyph-name="Omacron" unicode="&#x14c;" horiz-adv-x="722" 
d="M494 859v-94h-266v94h266zM361 -8c-185 0 -343 127 -343 358s158 358 343 358s343 -127 343 -358s-158 -358 -343 -358zM361 92c105 0 183 84 183 255c0 172 -78 257 -183 257c-106 0 -183 -85 -183 -257c0 -171 77 -255 183 -255z" />
    <glyph glyph-name="omacron" unicode="&#x14d;" horiz-adv-x="578" 
d="M422 679v-94h-266v94h266zM289 -7c-153 0 -276 99 -276 267c0 169 123 273 276 273s276 -104 276 -273c0 -168 -123 -267 -276 -267zM289 85c73 0 128 56 128 174c0 119 -55 178 -128 178s-128 -59 -128 -178c0 -118 55 -174 128 -174z" />
    <glyph glyph-name="Ohungarumlaut" unicode="&#x150;" horiz-adv-x="722" 
d="M361 -8c-185 0 -343 127 -343 358s158 358 343 358s343 -127 343 -358s-158 -358 -343 -358zM361 92c105 0 183 84 183 255c0 172 -78 257 -183 257c-106 0 -183 -85 -183 -257c0 -171 77 -255 183 -255zM231 742l23 138h121v-50l-67 -88h-77zM394 742l23 138h121v-50
l-67 -88h-77z" />
    <glyph glyph-name="ohungarumlaut" unicode="&#x151;" horiz-adv-x="578" 
d="M289 -7c-153 0 -276 99 -276 267c0 169 123 273 276 273s276 -104 276 -273c0 -168 -123 -267 -276 -267zM289 85c73 0 128 56 128 174c0 119 -55 178 -128 178s-128 -59 -128 -178c0 -118 55 -174 128 -174zM159 562l23 138h121v-50l-67 -88h-77zM322 562l23 138h121
v-50l-67 -88h-77z" />
    <glyph glyph-name="Racute" unicode="&#x154;" horiz-adv-x="662" 
d="M249 737l28 138h146v-50l-97 -88h-77zM298 301h-64v-218h87v-83h-310v83h38c15 0 29 18 29 31v469c0 13 -14 31 -29 31h-38v86h302c174 0 278 -64 278 -197c0 -94 -57 -138 -160 -158v-4c79 -15 113 -47 143 -161l19 -72c5 -18 16 -25 25 -25h33v-83h-199l-33 190
c-11 85 -38 111 -121 111zM234 608v-229h75c101 0 122 48 122 115c0 68 -21 114 -122 114h-75z" />
    <glyph glyph-name="racute" unicode="&#x155;" horiz-adv-x="403" 
d="M9 0v83h35c12 0 25 14 25 25v302c0 11 -13 27 -25 27h-39v88h179c17 0 28 -15 30 -76c35 43 76 81 145 81c11 0 22 -2 32 -5v-108h-25c-76 0 -122 -16 -151 -32v-302h73v-83h-279zM173 562l28 138h146v-50l-97 -88h-77z" />
    <glyph glyph-name="Rcommaaccent" unicode="&#x156;" horiz-adv-x="662" 
d="M270 -219v55c32 3 45 13 45 26c0 12 -13 15 -23 22c-14 10 -21 22 -21 45c0 30 26 53 60 53c36 0 67 -23 67 -73c0 -79 -41 -121 -128 -128zM298 301h-64v-218h87v-83h-310v83h38c15 0 29 18 29 31v469c0 13 -14 31 -29 31h-38v86h302c174 0 278 -64 278 -197
c0 -94 -57 -138 -160 -158v-4c79 -15 113 -47 143 -161l19 -72c5 -18 16 -25 25 -25h33v-83h-199l-33 190c-11 85 -38 111 -121 111zM234 608v-229h75c101 0 122 48 122 115c0 68 -21 114 -122 114h-75z" />
    <glyph glyph-name="rcommaaccent" unicode="&#x157;" horiz-adv-x="403" 
d="M9 0v83h35c12 0 25 14 25 25v302c0 11 -13 27 -25 27h-39v88h179c17 0 28 -15 30 -76c35 43 76 81 145 81c11 0 22 -2 32 -5v-108h-25c-76 0 -122 -16 -151 -32v-302h73v-83h-279zM79 -219v55c32 3 45 13 45 26c0 12 -13 15 -23 22c-14 10 -21 22 -21 45
c0 30 26 53 60 53c36 0 67 -23 67 -73c0 -79 -41 -121 -128 -128z" />
    <glyph glyph-name="Rcaron" unicode="&#x158;" horiz-adv-x="662" 
d="M232 737l-67 101v37h53l78 -60l78 60h49v-37l-71 -101h-120zM298 301h-64v-218h87v-83h-310v83h38c15 0 29 18 29 31v469c0 13 -14 31 -29 31h-38v86h302c174 0 278 -64 278 -197c0 -94 -57 -138 -160 -158v-4c79 -15 113 -47 143 -161l19 -72c5 -18 16 -25 25 -25h33
v-83h-199l-33 190c-11 85 -38 111 -121 111zM234 608v-229h75c101 0 122 48 122 115c0 68 -21 114 -122 114h-75z" />
    <glyph glyph-name="rcaron" unicode="&#x159;" horiz-adv-x="403" 
d="M156 562l-67 101v37h53l78 -60l78 60h49v-37l-71 -101h-120zM9 0v83h35c12 0 25 14 25 25v302c0 11 -13 27 -25 27h-39v88h179c17 0 28 -15 30 -76c35 43 76 81 145 81c11 0 22 -2 32 -5v-108h-25c-76 0 -122 -16 -151 -32v-302h73v-83h-279z" />
    <glyph glyph-name="Sacute" unicode="&#x15a;" horiz-adv-x="524" 
d="M224 742l28 138h146v-50l-97 -88h-77zM243 -8c-45 0 -82 4 -108 8h-119v211h106l14 -109c24 -9 52 -15 102 -15c85 0 122 39 122 100c0 81 -86 90 -183 118c-93 27 -152 82 -152 198c0 133 93 205 241 205c48 0 86 -4 106 -8h110v-191h-104l-14 92c-21 8 -49 14 -92 14
c-74 0 -115 -30 -115 -90c0 -73 73 -89 157 -111c126 -33 190 -77 190 -202c0 -143 -91 -220 -261 -220z" />
    <glyph glyph-name="sacute" unicode="&#x15b;" horiz-adv-x="442" 
d="M184 562l28 138h146v-50l-97 -88h-77zM203 -6c-95 0 -147 14 -190 28v118h84c12 -37 59 -60 105 -60c56 0 90 24 90 62c0 39 -23 55 -107 67c-113 16 -166 55 -166 158c0 104 80 164 214 164c82 0 138 -9 180 -23v-116h-81c-17 31 -49 51 -104 51c-54 0 -84 -22 -84 -55
c0 -32 19 -51 108 -64c127 -19 179 -54 179 -160c0 -103 -69 -170 -228 -170z" />
    <glyph glyph-name="Scircumflex" unicode="&#x15c;" horiz-adv-x="524" 
d="M243 -8c-45 0 -82 4 -108 8h-119v211h106l14 -109c24 -9 52 -15 102 -15c85 0 122 39 122 100c0 81 -86 90 -183 118c-93 27 -152 82 -152 198c0 133 93 205 241 205c48 0 86 -4 106 -8h110v-191h-104l-14 92c-21 8 -49 14 -92 14c-74 0 -115 -30 -115 -90
c0 -73 73 -89 157 -111c126 -33 190 -77 190 -202c0 -143 -91 -220 -261 -220zM139 742v37l71 101h120l67 -101v-37h-53l-78 60l-78 -60h-49z" />
    <glyph glyph-name="scircumflex" unicode="&#x15d;" horiz-adv-x="442" 
d="M203 -6c-95 0 -147 14 -190 28v118h84c12 -37 59 -60 105 -60c56 0 90 24 90 62c0 39 -23 55 -107 67c-113 16 -166 55 -166 158c0 104 80 164 214 164c82 0 138 -9 180 -23v-116h-81c-17 31 -49 51 -104 51c-54 0 -84 -22 -84 -55c0 -32 19 -51 108 -64
c127 -19 179 -54 179 -160c0 -103 -69 -170 -228 -170zM99 562v37l71 101h120l67 -101v-37h-53l-78 60l-78 -60h-49z" />
    <glyph glyph-name="Scedilla" unicode="&#x15e;" horiz-adv-x="524" 
d="M250 -175c-36 0 -59 8 -80 17v57h34c6 -8 17 -14 34 -14c19 0 28 8 28 22s-10 22 -35 22h-22v64c-30 1 -55 4 -74 7h-119v211h106l14 -109c24 -9 52 -15 102 -15c85 0 122 39 122 100c0 81 -86 90 -183 118c-93 27 -152 82 -152 198c0 133 93 205 241 205
c48 0 86 -4 106 -8h110v-191h-104l-14 92c-21 8 -49 14 -92 14c-74 0 -115 -30 -115 -90c0 -73 73 -89 157 -111c126 -33 190 -77 190 -202c0 -135 -81 -211 -232 -219v-18c58 -2 83 -29 83 -73c0 -48 -38 -77 -105 -77z" />
    <glyph glyph-name="scedilla" unicode="&#x15f;" horiz-adv-x="442" 
d="M213 -175c-36 0 -59 8 -80 17v57h34c6 -8 17 -14 34 -14c19 0 28 8 28 22s-10 22 -35 22h-22v66c-76 2 -121 14 -159 27v118h84c12 -37 59 -60 105 -60c56 0 90 24 90 62c0 39 -23 55 -107 67c-113 16 -166 55 -166 158c0 104 80 164 214 164c82 0 138 -9 180 -23v-116
h-81c-17 31 -49 51 -104 51c-54 0 -84 -22 -84 -55c0 -32 19 -51 108 -64c127 -19 179 -54 179 -160c0 -96 -60 -161 -196 -169v-20c58 -2 83 -29 83 -73c0 -48 -38 -77 -105 -77z" />
    <glyph glyph-name="Scommaaccent" unicode="&#x218;" horiz-adv-x="524" 
d="M188 -219v55c32 3 45 13 45 26c0 12 -13 15 -23 22c-14 10 -21 22 -21 45c0 30 26 53 60 53c36 0 67 -23 67 -73c0 -79 -41 -121 -128 -128zM243 -8c-45 0 -82 4 -108 8h-119v211h106l14 -109c24 -9 52 -15 102 -15c85 0 122 39 122 100c0 81 -86 90 -183 118
c-93 27 -152 82 -152 198c0 133 93 205 241 205c48 0 86 -4 106 -8h110v-191h-104l-14 92c-21 8 -49 14 -92 14c-74 0 -115 -30 -115 -90c0 -73 73 -89 157 -111c126 -33 190 -77 190 -202c0 -143 -91 -220 -261 -220z" />
    <glyph glyph-name="scommaaccent" unicode="&#x219;" horiz-adv-x="442" 
d="M203 -6c-95 0 -147 14 -190 28v118h84c12 -37 59 -60 105 -60c56 0 90 24 90 62c0 39 -23 55 -107 67c-113 16 -166 55 -166 158c0 104 80 164 214 164c82 0 138 -9 180 -23v-116h-81c-17 31 -49 51 -104 51c-54 0 -84 -22 -84 -55c0 -32 19 -51 108 -64
c127 -19 179 -54 179 -160c0 -103 -69 -170 -228 -170zM160 -219v55c32 3 45 13 45 26c0 12 -13 15 -23 22c-14 10 -21 22 -21 45c0 30 26 53 60 53c36 0 67 -23 67 -73c0 -79 -41 -121 -128 -128z" />
    <glyph glyph-name="Tcommaaccent" unicode="&#x162;" horiz-adv-x="633" 
d="M255 -219v55c32 3 45 13 45 26c0 12 -13 15 -23 22c-14 10 -21 22 -21 45c0 30 26 53 60 53c36 0 67 -23 67 -73c0 -79 -41 -121 -128 -128zM165 0v83h44c15 0 29 18 29 31v496h-113l-11 -146h-97v236h599v-236h-97l-12 146h-113v-496c0 -13 14 -31 29 -31h44v-83h-302z
" />
    <glyph glyph-name="tcommaaccent" unicode="&#x163;" horiz-adv-x="332" 
d="M133 -219v55c32 3 45 13 45 26c0 12 -13 15 -23 22c-14 10 -21 22 -21 45c0 30 26 53 60 53c36 0 67 -23 67 -73c0 -79 -41 -121 -128 -128zM5 437v88h62v140h146v-140h106v-88h-106v-288c0 -56 20 -66 74 -66h36v-78c-22 -7 -53 -13 -94 -13c-101 0 -162 32 -162 141
v304h-62z" />
    <glyph glyph-name="Tcaron" unicode="&#x164;" horiz-adv-x="633" 
d="M254 737l-67 101v37h53l78 -60l78 60h49v-37l-71 -101h-120zM165 0v83h44c15 0 29 18 29 31v496h-113l-11 -146h-97v236h599v-236h-97l-12 146h-113v-496c0 -13 14 -31 29 -31h44v-83h-302z" />
    <glyph glyph-name="tcaron" unicode="&#x165;" horiz-adv-x="332" 
d="M229 -8c-101 0 -162 32 -162 141v304h-62v88h62v140h146v-140h106v-88h-106v-288c0 -56 20 -66 74 -66h36v-78c-22 -7 -53 -13 -94 -13zM244 556l7 144h116v-50l-49 -94h-74z" />
    <glyph glyph-name="Umacron" unicode="&#x16a;" horiz-adv-x="714" 
d="M514 854v-94h-266v94h266zM378 92c90 0 144 34 144 165v357h-79v86h260v-86h-38c-15 0 -29 -18 -29 -31v-315c0 -180 -84 -276 -276 -276c-183 0 -281 96 -281 276v315c0 13 -14 31 -29 31h-39v86h303v-86h-79v-357c0 -131 53 -165 143 -165z" />
    <glyph glyph-name="umacron" unicode="&#x16b;" horiz-adv-x="608" 
d="M417 679v-94h-266v94h266zM205 -7c-73 0 -141 28 -141 130v289c0 12 -14 25 -25 25h-34v88h205v-356c0 -57 28 -73 74 -73c38 0 78 12 110 25v316h-69v88h215v-415c0 -11 13 -27 25 -27h34v-83h-174c-17 0 -26 13 -30 65c-48 -45 -106 -72 -190 -72z" />
    <glyph glyph-name="Ubreve" unicode="&#x16c;" horiz-adv-x="714" 
d="M381 737c-79 0 -117 47 -133 88v50h82c6 -27 23 -43 51 -43s45 16 51 43h82v-50c-16 -41 -54 -88 -133 -88zM378 92c90 0 144 34 144 165v357h-79v86h260v-86h-38c-15 0 -29 -18 -29 -31v-315c0 -180 -84 -276 -276 -276c-183 0 -281 96 -281 276v315c0 13 -14 31 -29 31
h-39v86h303v-86h-79v-357c0 -131 53 -165 143 -165z" />
    <glyph glyph-name="ubreve" unicode="&#x16d;" horiz-adv-x="608" 
d="M284 562c-79 0 -117 47 -133 88v50h82c6 -27 23 -43 51 -43s45 16 51 43h82v-50c-16 -41 -54 -88 -133 -88zM205 -7c-73 0 -141 28 -141 130v289c0 12 -14 25 -25 25h-34v88h205v-356c0 -57 28 -73 74 -73c38 0 78 12 110 25v316h-69v88h215v-415c0 -11 13 -27 25 -27h34
v-83h-174c-17 0 -26 13 -30 65c-48 -45 -106 -72 -190 -72z" />
    <glyph glyph-name="Uring" unicode="&#x16e;" horiz-adv-x="714" 
d="M381 727c-57 0 -105 38 -105 100s48 101 105 101s105 -39 105 -101s-48 -100 -105 -100zM381 773c31 0 53 21 53 54c0 34 -22 55 -53 55s-52 -21 -52 -55c0 -33 21 -54 52 -54zM378 92c90 0 144 34 144 165v357h-79v86h260v-86h-38c-15 0 -29 -18 -29 -31v-315
c0 -180 -84 -276 -276 -276c-183 0 -281 96 -281 276v315c0 13 -14 31 -29 31h-39v86h303v-86h-79v-357c0 -131 53 -165 143 -165z" />
    <glyph glyph-name="uring" unicode="&#x16f;" horiz-adv-x="608" 
d="M284 566c-57 0 -105 38 -105 100s48 101 105 101s105 -39 105 -101s-48 -100 -105 -100zM284 612c31 0 53 21 53 54c0 34 -22 55 -53 55s-52 -21 -52 -55c0 -33 21 -54 52 -54zM205 -7c-73 0 -141 28 -141 130v289c0 12 -14 25 -25 25h-34v88h205v-356
c0 -57 28 -73 74 -73c38 0 78 12 110 25v316h-69v88h215v-415c0 -11 13 -27 25 -27h34v-83h-174c-17 0 -26 13 -30 65c-48 -45 -106 -72 -190 -72z" />
    <glyph glyph-name="Uhungarumlaut" unicode="&#x170;" horiz-adv-x="714" 
d="M251 737l23 138h121v-50l-67 -88h-77zM414 737l23 138h121v-50l-67 -88h-77zM378 92c90 0 144 34 144 165v357h-79v86h260v-86h-38c-15 0 -29 -18 -29 -31v-315c0 -180 -84 -276 -276 -276c-183 0 -281 96 -281 276v315c0 13 -14 31 -29 31h-39v86h303v-86h-79v-357
c0 -131 53 -165 143 -165z" />
    <glyph glyph-name="uhungarumlaut" unicode="&#x171;" horiz-adv-x="608" 
d="M154 562l23 138h121v-50l-67 -88h-77zM317 562l23 138h121v-50l-67 -88h-77zM205 -7c-73 0 -141 28 -141 130v289c0 12 -14 25 -25 25h-34v88h205v-356c0 -57 28 -73 74 -73c38 0 78 12 110 25v316h-69v88h215v-415c0 -11 13 -27 25 -27h34v-83h-174c-17 0 -26 13 -30 65
c-48 -45 -106 -72 -190 -72z" />
    <glyph glyph-name="Uogonek" unicode="&#x172;" horiz-adv-x="714" 
d="M408 -165c-59 0 -96 28 -96 74c0 39 29 67 60 83h-12c-183 0 -281 96 -281 276v315c0 13 -14 31 -29 31h-39v86h303v-86h-79v-357c0 -131 53 -165 143 -165s144 34 144 165v357h-79v86h260v-86h-38c-15 0 -29 -18 -29 -31v-315c0 -151 -59 -230 -160 -261
c-36 -12 -55 -39 -55 -64c0 -16 10 -27 41 -27h19v-64c-19 -11 -39 -17 -73 -17z" />
    <glyph glyph-name="uogonek" unicode="&#x173;" horiz-adv-x="608" 
d="M526 -165c-59 0 -96 28 -96 74s42 78 79 91h-84c-17 0 -26 13 -30 65c-48 -45 -106 -72 -190 -72c-73 0 -141 28 -141 130v289c0 12 -14 25 -25 25h-34v88h205v-356c0 -57 28 -73 74 -73c38 0 78 12 110 25v316h-69v88h215v-415c0 -11 13 -27 25 -27h34v-83h-27
c-19 -20 -33 -31 -33 -57c0 -16 10 -27 41 -27h19v-64c-19 -11 -39 -17 -73 -17z" />
    <glyph glyph-name="Zacute" unicode="&#x179;" horiz-adv-x="552" 
d="M240 737l28 138h146v-50l-97 -88h-77zM541 594l-365 -500v-4h252l14 123h99v-213h-530v103l365 500v4h-230l-15 -107h-94v200h504v-106z" />
    <glyph glyph-name="zacute" unicode="&#x17a;" horiz-adv-x="483" 
d="M205 562l28 138h146v-50l-97 -88h-77zM11 0v91l291 345h-177l-14 -88h-84v177h443v-94l-292 -344h186l12 88h87v-175h-452z" />
    <glyph glyph-name="Zdotaccent" unicode="&#x17b;" horiz-adv-x="552" 
d="M285 741c-44 0 -79 34 -79 77s35 78 79 78s79 -35 79 -78s-35 -77 -79 -77zM541 594l-365 -500v-4h252l14 123h99v-213h-530v103l365 500v4h-230l-15 -107h-94v200h504v-106z" />
    <glyph glyph-name="zdotaccent" unicode="&#x17c;" horiz-adv-x="483" 
d="M250 566c-44 0 -79 34 -79 77s35 78 79 78s79 -35 79 -78s-35 -77 -79 -77zM11 0v91l291 345h-177l-14 -88h-84v177h443v-94l-292 -344h186l12 88h87v-175h-452z" />
    <glyph glyph-name="Scaron.titling" horiz-adv-x="524" 
d="M243 -8c-45 0 -82 4 -108 8h-119v211h106l14 -109c24 -9 52 -15 102 -15c85 0 122 39 122 100c0 81 -86 90 -183 118c-93 27 -152 82 -152 198c0 133 93 205 241 205c48 0 86 -4 106 -8h110v-191h-104l-14 92c-21 8 -49 14 -92 14c-74 0 -115 -30 -115 -90
c0 -73 73 -89 157 -111c126 -33 190 -77 190 -202c0 -143 -91 -220 -261 -220zM207 720l-67 101v37h53l78 -60l78 60h49v-37l-71 -101h-120z" />
    <glyph glyph-name="Yacute.titling" horiz-adv-x="668" 
d="M302 715l28 138h146v-50l-97 -88h-77zM188 0v83h44c15 0 29 18 29 31v172l-195 305c-9 14 -20 23 -32 23h-23v86h287v-86h-79l141 -231h2l98 161c26 44 8 70 -34 70h-29v86h260v-86h-17c-15 0 -29 -10 -40 -27l-183 -295v-178c0 -13 14 -31 29 -31h44v-83h-302z" />
    <glyph glyph-name="Zcaron.titling" horiz-adv-x="552" 
d="M223 715l-67 101v37h53l78 -60l78 60h49v-37l-71 -101h-120zM541 594l-365 -500v-4h252l14 123h99v-213h-530v103l365 500v4h-230l-15 -107h-94v200h504v-106z" />
    <glyph glyph-name="Adieresis.titling" horiz-adv-x="729" 
d="M249 719c-42 0 -75 32 -75 73c0 40 33 73 75 73s75 -33 75 -73c0 -41 -33 -73 -75 -73zM441 719c-42 0 -75 32 -75 73c0 40 33 73 75 73s75 -33 75 -73c0 -41 -33 -73 -75 -73zM8 0v83h23c19 0 31 12 38 31l170 469c6 18 -2 31 -18 31h-53v86h298l196 -589
c5 -16 20 -28 34 -28h25v-83h-302v83h91l-43 133h-251l-15 -43c-20 -56 -15 -90 32 -90h41v-83h-266zM347 584l-100 -281h192l-90 281h-2z" />
    <glyph glyph-name="Aring.titling" horiz-adv-x="729" 
d="M345 719c-57 0 -105 38 -105 100s48 101 105 101s105 -39 105 -101s-48 -100 -105 -100zM345 765c31 0 53 21 53 54c0 34 -22 55 -53 55s-52 -21 -52 -55c0 -33 21 -54 52 -54zM8 0v83h23c19 0 31 12 38 31l170 469c6 18 -2 31 -18 31h-53v86h298l196 -589
c5 -16 20 -28 34 -28h25v-83h-302v83h91l-43 133h-251l-15 -43c-20 -56 -15 -90 32 -90h41v-83h-266zM347 584l-100 -281h192l-90 281h-2z" />
    <glyph glyph-name="Eacute.titling" horiz-adv-x="591" 
d="M260 715l28 138h146v-50l-97 -88h-77zM11 0v83h38c15 0 29 18 29 31v469c0 13 -14 31 -29 31h-38v86h558v-200h-94l-15 107h-226v-208h98l9 80h90v-247h-90l-8 80h-99v-222h233l14 121h99v-211h-569z" />
    <glyph glyph-name="Ntilde.titling" horiz-adv-x="707" 
d="M187 717v73c18 32 46 59 99 59c47 0 104 -28 131 -28c22 0 33 12 40 32h66v-75c-18 -32 -46 -59 -99 -59c-47 0 -104 32 -131 32c-22 0 -33 -14 -40 -34h-66zM11 0v83h38c15 0 29 18 29 31v469c0 13 -14 31 -29 31h-38v86h224l278 -449h3v363h-78v86h258v-86h-37
c-14 0 -28 -18 -28 -31v-583h-132l-304 488h-3v-405h80v-83h-261z" />
    <glyph glyph-name="Odieresis.titling" horiz-adv-x="722" 
d="M361 -8c-185 0 -343 127 -343 358s158 358 343 358s343 -127 343 -358s-158 -358 -343 -358zM361 92c105 0 183 84 183 255c0 172 -78 257 -183 257c-106 0 -183 -85 -183 -257c0 -171 77 -255 183 -255zM265 724c-42 0 -75 32 -75 73c0 40 33 73 75 73s75 -33 75 -73
c0 -41 -33 -73 -75 -73zM457 724c-42 0 -75 32 -75 73c0 40 33 73 75 73s75 -33 75 -73c0 -41 -33 -73 -75 -73z" />
    <glyph glyph-name="Udieresis.titling" horiz-adv-x="714" 
d="M285 719c-42 0 -75 32 -75 73c0 40 33 73 75 73s75 -33 75 -73c0 -41 -33 -73 -75 -73zM477 719c-42 0 -75 32 -75 73c0 40 33 73 75 73s75 -33 75 -73c0 -41 -33 -73 -75 -73zM378 92c90 0 144 34 144 165v357h-79v86h260v-86h-38c-15 0 -29 -18 -29 -31v-315
c0 -180 -84 -276 -276 -276c-183 0 -281 96 -281 276v315c0 13 -14 31 -29 31h-39v86h303v-86h-79v-357c0 -131 53 -165 143 -165z" />
    <glyph glyph-name="Agrave.titling" horiz-adv-x="729" 
d="M390 715h-77l-97 88v50h146zM8 0v83h23c19 0 31 12 38 31l170 469c6 18 -2 31 -18 31h-53v86h298l196 -589c5 -16 20 -28 34 -28h25v-83h-302v83h91l-43 133h-251l-15 -43c-20 -56 -15 -90 32 -90h41v-83h-266zM347 584l-100 -281h192l-90 281h-2z" />
    <glyph glyph-name="Atilde.titling" horiz-adv-x="729" 
d="M177 717v73c18 32 46 59 99 59c47 0 104 -28 131 -28c22 0 33 12 40 32h66v-75c-18 -32 -46 -59 -99 -59c-47 0 -104 32 -131 32c-22 0 -33 -14 -40 -34h-66zM8 0v83h23c19 0 31 12 38 31l170 469c6 18 -2 31 -18 31h-53v86h298l196 -589c5 -16 20 -28 34 -28h25v-83
h-302v83h91l-43 133h-251l-15 -43c-20 -56 -15 -90 32 -90h41v-83h-266zM347 584l-100 -281h192l-90 281h-2z" />
    <glyph glyph-name="Otilde.titling" horiz-adv-x="722" 
d="M193 722v73c18 32 46 59 99 59c47 0 104 -28 131 -28c22 0 33 12 40 32h66v-75c-18 -32 -46 -59 -99 -59c-47 0 -104 32 -131 32c-22 0 -33 -14 -40 -34h-66zM361 -8c-185 0 -343 127 -343 358s158 358 343 358s343 -127 343 -358s-158 -358 -343 -358zM361 92
c105 0 183 84 183 255c0 172 -78 257 -183 257c-106 0 -183 -85 -183 -257c0 -171 77 -255 183 -255z" />
    <glyph glyph-name="Acircumflex.titling" horiz-adv-x="729" 
d="M8 0v83h23c19 0 31 12 38 31l170 469c6 18 -2 31 -18 31h-53v86h298l196 -589c5 -16 20 -28 34 -28h25v-83h-302v83h91l-43 133h-251l-15 -43c-20 -56 -15 -90 32 -90h41v-83h-266zM347 584l-100 -281h192l-90 281h-2zM215 715v37l71 101h120l67 -101v-37h-53l-78 60
l-78 -60h-49z" />
    <glyph glyph-name="Ecircumflex.titling" horiz-adv-x="591" 
d="M175 715v37l71 101h120l67 -101v-37h-53l-78 60l-78 -60h-49zM11 0v83h38c15 0 29 18 29 31v469c0 13 -14 31 -29 31h-38v86h558v-200h-94l-15 107h-226v-208h98l9 80h90v-247h-90l-8 80h-99v-222h233l14 121h99v-211h-569z" />
    <glyph glyph-name="Aacute.titling" horiz-adv-x="729" 
d="M8 0v83h23c19 0 31 12 38 31l170 469c6 18 -2 31 -18 31h-53v86h298l196 -589c5 -16 20 -28 34 -28h25v-83h-302v83h91l-43 133h-251l-15 -43c-20 -56 -15 -90 32 -90h41v-83h-266zM347 584l-100 -281h192l-90 281h-2zM300 715l28 138h146v-50l-97 -88h-77z" />
    <glyph glyph-name="Edieresis.titling" horiz-adv-x="591" 
d="M209 719c-42 0 -75 32 -75 73c0 40 33 73 75 73s75 -33 75 -73c0 -41 -33 -73 -75 -73zM401 719c-42 0 -75 32 -75 73c0 40 33 73 75 73s75 -33 75 -73c0 -41 -33 -73 -75 -73zM11 0v83h38c15 0 29 18 29 31v469c0 13 -14 31 -29 31h-38v86h558v-200h-94l-15 107h-226
v-208h98l9 80h90v-247h-90l-8 80h-99v-222h233l14 121h99v-211h-569z" />
    <glyph glyph-name="Egrave.titling" horiz-adv-x="591" 
d="M350 715h-77l-97 88v50h146zM11 0v83h38c15 0 29 18 29 31v469c0 13 -14 31 -29 31h-38v86h558v-200h-94l-15 107h-226v-208h98l9 80h90v-247h-90l-8 80h-99v-222h233l14 121h99v-211h-569z" />
    <glyph glyph-name="Iacute.titling" horiz-adv-x="327" 
d="M118 715l28 138h146v-50l-97 -88h-77zM11 0v83h46c14 0 28 18 28 31v469c0 13 -14 31 -28 31h-46v86h305v-86h-46c-15 0 -28 -18 -28 -31v-469c0 -13 13 -31 28 -31h46v-83h-305z" />
    <glyph glyph-name="Icircumflex.titling" horiz-adv-x="327" 
d="M33 715v37l71 101h120l67 -101v-37h-53l-78 60l-78 -60h-49zM11 0v83h46c14 0 28 18 28 31v469c0 13 -14 31 -28 31h-46v86h305v-86h-46c-15 0 -28 -18 -28 -31v-469c0 -13 13 -31 28 -31h46v-83h-305z" />
    <glyph glyph-name="Idieresis.titling" horiz-adv-x="327" 
d="M67 719c-42 0 -75 32 -75 73c0 40 33 73 75 73s75 -33 75 -73c0 -41 -33 -73 -75 -73zM259 719c-42 0 -75 32 -75 73c0 40 33 73 75 73s75 -33 75 -73c0 -41 -33 -73 -75 -73zM11 0v83h46c14 0 28 18 28 31v469c0 13 -14 31 -28 31h-46v86h305v-86h-46
c-15 0 -28 -18 -28 -31v-469c0 -13 13 -31 28 -31h46v-83h-305z" />
    <glyph glyph-name="Igrave.titling" horiz-adv-x="327" 
d="M208 715h-77l-97 88v50h146zM11 0v83h46c14 0 28 18 28 31v469c0 13 -14 31 -28 31h-46v86h305v-86h-46c-15 0 -28 -18 -28 -31v-469c0 -13 13 -31 28 -31h46v-83h-305z" />
    <glyph glyph-name="Oacute.titling" horiz-adv-x="722" 
d="M316 720l28 138h146v-50l-97 -88h-77zM361 -8c-185 0 -343 127 -343 358s158 358 343 358s343 -127 343 -358s-158 -358 -343 -358zM361 92c105 0 183 84 183 255c0 172 -78 257 -183 257c-106 0 -183 -85 -183 -257c0 -171 77 -255 183 -255z" />
    <glyph glyph-name="Ocircumflex.titling" horiz-adv-x="722" 
d="M231 720v37l71 101h120l67 -101v-37h-53l-78 60l-78 -60h-49zM361 -8c-185 0 -343 127 -343 358s158 358 343 358s343 -127 343 -358s-158 -358 -343 -358zM361 92c105 0 183 84 183 255c0 172 -78 257 -183 257c-106 0 -183 -85 -183 -257c0 -171 77 -255 183 -255z" />
    <glyph glyph-name="Ograve.titling" horiz-adv-x="722" 
d="M406 720h-77l-97 88v50h146zM361 -8c-185 0 -343 127 -343 358s158 358 343 358s343 -127 343 -358s-158 -358 -343 -358zM361 92c105 0 183 84 183 255c0 172 -78 257 -183 257c-106 0 -183 -85 -183 -257c0 -171 77 -255 183 -255z" />
    <glyph glyph-name="Uacute.titling" horiz-adv-x="714" 
d="M336 715l28 138h146v-50l-97 -88h-77zM378 92c90 0 144 34 144 165v357h-79v86h260v-86h-38c-15 0 -29 -18 -29 -31v-315c0 -180 -84 -276 -276 -276c-183 0 -281 96 -281 276v315c0 13 -14 31 -29 31h-39v86h303v-86h-79v-357c0 -131 53 -165 143 -165z" />
    <glyph glyph-name="Ucircumflex.titling" horiz-adv-x="714" 
d="M251 715v37l71 101h120l67 -101v-37h-53l-78 60l-78 -60h-49zM378 92c90 0 144 34 144 165v357h-79v86h260v-86h-38c-15 0 -29 -18 -29 -31v-315c0 -180 -84 -276 -276 -276c-183 0 -281 96 -281 276v315c0 13 -14 31 -29 31h-39v86h303v-86h-79v-357
c0 -131 53 -165 143 -165z" />
    <glyph glyph-name="Ugrave.titling" horiz-adv-x="714" 
d="M426 715h-77l-97 88v50h146zM378 92c90 0 144 34 144 165v357h-79v86h260v-86h-38c-15 0 -29 -18 -29 -31v-315c0 -180 -84 -276 -276 -276c-183 0 -281 96 -281 276v315c0 13 -14 31 -29 31h-39v86h303v-86h-79v-357c0 -131 53 -165 143 -165z" />
    <glyph glyph-name="Ydieresis.titling" horiz-adv-x="668" 
d="M188 0v83h44c15 0 29 18 29 31v172l-195 305c-9 14 -20 23 -32 23h-23v86h287v-86h-79l141 -231h2l98 161c26 44 8 70 -34 70h-29v86h260v-86h-17c-15 0 -29 -10 -40 -27l-183 -295v-178c0 -13 14 -31 29 -31h44v-83h-302zM251 719c-42 0 -75 32 -75 73c0 40 33 73 75 73
s75 -33 75 -73c0 -41 -33 -73 -75 -73zM443 719c-42 0 -75 32 -75 73c0 40 33 73 75 73s75 -33 75 -73c0 -41 -33 -73 -75 -73z" />
    <glyph glyph-name="Amacron.titling" horiz-adv-x="729" 
d="M478 832v-94h-266v94h266zM8 0v83h23c19 0 31 12 38 31l170 469c6 18 -2 31 -18 31h-53v86h298l196 -589c5 -16 20 -28 34 -28h25v-83h-302v83h91l-43 133h-251l-15 -43c-20 -56 -15 -90 32 -90h41v-83h-266zM347 584l-100 -281h192l-90 281h-2z" />
    <glyph glyph-name="Abreve.titling" horiz-adv-x="729" 
d="M345 715c-79 0 -117 47 -133 88v50h82c6 -27 23 -43 51 -43s45 16 51 43h82v-50c-16 -41 -54 -88 -133 -88zM8 0v83h23c19 0 31 12 38 31l170 469c6 18 -2 31 -18 31h-53v86h298l196 -589c5 -16 20 -28 34 -28h25v-83h-302v83h91l-43 133h-251l-15 -43
c-20 -56 -15 -90 32 -90h41v-83h-266zM347 584l-100 -281h192l-90 281h-2z" />
    <glyph glyph-name="Cacute.titling" horiz-adv-x="626" 
d="M484 700h116v-226h-104l-16 115c-23 9 -65 17 -112 17c-108 0 -187 -75 -187 -252c0 -173 64 -263 185 -263c80 0 131 36 170 86h72v-108c-60 -44 -144 -77 -249 -77c-211 0 -342 127 -342 356s137 360 346 360c61 0 103 -5 121 -8zM311 720l28 138h146v-50l-97 -88h-77z
" />
    <glyph glyph-name="Ccircumflex.titling" horiz-adv-x="626" 
d="M484 700h116v-226h-104l-16 115c-23 9 -65 17 -112 17c-108 0 -187 -75 -187 -252c0 -173 64 -263 185 -263c80 0 131 36 170 86h72v-108c-60 -44 -144 -77 -249 -77c-211 0 -342 127 -342 356s137 360 346 360c61 0 103 -5 121 -8zM226 720v37l71 101h120l67 -101v-37
h-53l-78 60l-78 -60h-49z" />
    <glyph glyph-name="Cdotaccent.titling" horiz-adv-x="626" 
d="M356 724c-44 0 -79 34 -79 77s35 78 79 78s79 -35 79 -78s-35 -77 -79 -77zM484 700h116v-226h-104l-16 115c-23 9 -65 17 -112 17c-108 0 -187 -75 -187 -252c0 -173 64 -263 185 -263c80 0 131 36 170 86h72v-108c-60 -44 -144 -77 -249 -77c-211 0 -342 127 -342 356
s137 360 346 360c61 0 103 -5 121 -8z" />
    <glyph glyph-name="Ccaron.titling" horiz-adv-x="626" 
d="M484 700h116v-226h-104l-16 115c-23 9 -65 17 -112 17c-108 0 -187 -75 -187 -252c0 -173 64 -263 185 -263c80 0 131 36 170 86h72v-108c-60 -44 -144 -77 -249 -77c-211 0 -342 127 -342 356s137 360 346 360c61 0 103 -5 121 -8zM294 720l-67 101v37h53l78 -60l78 60
h49v-37l-71 -101h-120z" />
    <glyph glyph-name="Dcaron.titling" horiz-adv-x="689" 
d="M229 715l-67 101v37h53l78 -60l78 60h49v-37l-71 -101h-120zM11 0v83h38c15 0 29 18 29 31v469c0 13 -14 31 -29 31h-38v86h288c235 0 372 -107 372 -347c0 -235 -138 -353 -376 -353h-284zM234 87h61c145 0 216 81 216 264c0 182 -70 257 -216 257h-61v-521z" />
    <glyph glyph-name="Emacron.titling" horiz-adv-x="591" 
d="M438 832v-94h-266v94h266zM11 0v83h38c15 0 29 18 29 31v469c0 13 -14 31 -29 31h-38v86h558v-200h-94l-15 107h-226v-208h98l9 80h90v-247h-90l-8 80h-99v-222h233l14 121h99v-211h-569z" />
    <glyph glyph-name="Edotaccent.titling" horiz-adv-x="591" 
d="M305 719c-44 0 -79 34 -79 77s35 78 79 78s79 -35 79 -78s-35 -77 -79 -77zM11 0v83h38c15 0 29 18 29 31v469c0 13 -14 31 -29 31h-38v86h558v-200h-94l-15 107h-226v-208h98l9 80h90v-247h-90l-8 80h-99v-222h233l14 121h99v-211h-569z" />
    <glyph glyph-name="Ecaron.titling" horiz-adv-x="591" 
d="M11 0v83h38c15 0 29 18 29 31v469c0 13 -14 31 -29 31h-38v86h558v-200h-94l-15 107h-226v-208h98l9 80h90v-247h-90l-8 80h-99v-222h233l14 121h99v-211h-569zM243 715l-67 101v37h53l78 -60l78 60h49v-37l-71 -101h-120z" />
    <glyph glyph-name="Ebreve.titling" horiz-adv-x="591" 
d="M11 0v83h38c15 0 29 18 29 31v469c0 13 -14 31 -29 31h-38v86h558v-200h-94l-15 107h-226v-208h98l9 80h90v-247h-90l-8 80h-99v-222h233l14 121h99v-211h-569zM305 720c-79 0 -117 47 -133 88v50h82c6 -27 23 -43 51 -43s45 16 51 43h82v-50c-16 -41 -54 -88 -133 -88z
" />
    <glyph glyph-name="Gcircumflex.titling" horiz-adv-x="660" 
d="M345 -8c-201 0 -328 127 -328 356s136 360 348 360c56 0 95 -5 112 -8h114v-220h-104l-16 109c-23 9 -59 17 -106 17c-105 0 -184 -75 -184 -252c0 -173 60 -263 171 -263c45 0 69 4 94 12v144h-69v86h275v-86h-24c-15 0 -29 -18 -29 -31v-216h-82s-8 22 -28 22
c-39 -19 -78 -30 -144 -30zM230 720v37l71 101h120l67 -101v-37h-53l-78 60l-78 -60h-49z" />
    <glyph glyph-name="Gbreve.titling" horiz-adv-x="660" 
d="M345 -8c-201 0 -328 127 -328 356s136 360 348 360c56 0 95 -5 112 -8h114v-220h-104l-16 109c-23 9 -59 17 -106 17c-105 0 -184 -75 -184 -252c0 -173 60 -263 171 -263c45 0 69 4 94 12v144h-69v86h275v-86h-24c-15 0 -29 -18 -29 -31v-216h-82s-8 22 -28 22
c-39 -19 -78 -30 -144 -30zM360 720c-79 0 -117 47 -133 88v50h82c6 -27 23 -43 51 -43s45 16 51 43h82v-50c-16 -41 -54 -88 -133 -88z" />
    <glyph glyph-name="Gdotaccent.titling" horiz-adv-x="660" 
d="M360 724c-44 0 -79 34 -79 77s35 78 79 78s79 -35 79 -78s-35 -77 -79 -77zM345 -8c-201 0 -328 127 -328 356s136 360 348 360c56 0 95 -5 112 -8h114v-220h-104l-16 109c-23 9 -59 17 -106 17c-105 0 -184 -75 -184 -252c0 -173 60 -263 171 -263c45 0 69 4 94 12v144
h-69v86h275v-86h-24c-15 0 -29 -18 -29 -31v-216h-82s-8 22 -28 22c-39 -19 -78 -30 -144 -30z" />
    <glyph glyph-name="Hcircumflex.titling" horiz-adv-x="726" 
d="M11 0v83h38c15 0 29 18 29 31v469c0 13 -14 31 -29 31h-38v86h302v-86h-79v-212h257v212h-79v86h303v-86h-39c-15 0 -29 -18 -29 -31v-469c0 -13 14 -31 29 -31h39v-83h-303v83h79v230h-257v-230h79v-83h-302zM233 715v37l71 101h120l67 -101v-37h-53l-78 60l-78 -60h-49
z" />
    <glyph glyph-name="Imacron.titling" horiz-adv-x="327" 
d="M296 832v-94h-266v94h266zM11 0v83h46c14 0 28 18 28 31v469c0 13 -14 31 -28 31h-46v86h305v-86h-46c-15 0 -28 -18 -28 -31v-469c0 -13 13 -31 28 -31h46v-83h-305z" />
    <glyph glyph-name="Idotaccent.titling" horiz-adv-x="327" 
d="M163 719c-44 0 -79 34 -79 77s35 78 79 78s79 -35 79 -78s-35 -77 -79 -77zM11 0v83h46c14 0 28 18 28 31v469c0 13 -14 31 -28 31h-46v86h305v-86h-46c-15 0 -28 -18 -28 -31v-469c0 -13 13 -31 28 -31h46v-83h-305z" />
    <glyph glyph-name="Jcircumflex.titling" horiz-adv-x="492" 
d="M199 715v37l71 101h120l67 -101v-37h-53l-78 60l-78 -60h-49zM250 177v406c0 13 -14 31 -28 31h-46v86h305v-86h-46c-15 0 -28 -18 -28 -31v-409c0 -125 -73 -182 -227 -182c-72 0 -120 14 -167 35v108h83c17 -25 38 -43 81 -43c50 0 73 29 73 85z" />
    <glyph glyph-name="Lacute.titling" horiz-adv-x="567" 
d="M120 715l28 138h146v-50l-97 -88h-77zM11 0v83h38c15 0 29 18 29 31v469c0 13 -14 31 -29 31h-38v86h317v-86h-94v-524h206l14 144h102v-234h-545z" />
    <glyph glyph-name="Nacute.titling" horiz-adv-x="707" 
d="M11 0v83h38c15 0 29 18 29 31v469c0 13 -14 31 -29 31h-38v86h224l278 -449h3v363h-78v86h258v-86h-37c-14 0 -28 -18 -28 -31v-583h-132l-304 488h-3v-405h80v-83h-261zM310 715l28 138h146v-50l-97 -88h-77z" />
    <glyph glyph-name="Ncaron.titling" horiz-adv-x="707" 
d="M11 0v83h38c15 0 29 18 29 31v469c0 13 -14 31 -29 31h-38v86h224l278 -449h3v363h-78v86h258v-86h-37c-14 0 -28 -18 -28 -31v-583h-132l-304 488h-3v-405h80v-83h-261zM293 715l-67 101v37h53l78 -60l78 60h49v-37l-71 -101h-120z" />
    <glyph glyph-name="Omacron.titling" horiz-adv-x="722" 
d="M494 837v-94h-266v94h266zM361 -8c-185 0 -343 127 -343 358s158 358 343 358s343 -127 343 -358s-158 -358 -343 -358zM361 92c105 0 183 84 183 255c0 172 -78 257 -183 257c-106 0 -183 -85 -183 -257c0 -171 77 -255 183 -255z" />
    <glyph glyph-name="Ohungarumlaut.titling" horiz-adv-x="722" 
d="M231 720l23 138h121v-50l-67 -88h-77zM394 720l23 138h121v-50l-67 -88h-77zM361 -8c-185 0 -343 127 -343 358s158 358 343 358s343 -127 343 -358s-158 -358 -343 -358zM361 92c105 0 183 84 183 255c0 172 -78 257 -183 257c-106 0 -183 -85 -183 -257
c0 -171 77 -255 183 -255z" />
    <glyph glyph-name="Racute.titling" horiz-adv-x="662" 
d="M249 715l28 138h146v-50l-97 -88h-77zM298 301h-64v-218h87v-83h-310v83h38c15 0 29 18 29 31v469c0 13 -14 31 -29 31h-38v86h302c174 0 278 -64 278 -197c0 -94 -57 -138 -160 -158v-4c79 -15 113 -47 143 -161l19 -72c5 -18 16 -25 25 -25h33v-83h-199l-33 190
c-11 85 -38 111 -121 111zM234 608v-229h75c101 0 122 48 122 115c0 68 -21 114 -122 114h-75z" />
    <glyph glyph-name="Rcaron.titling" horiz-adv-x="662" 
d="M232 715l-67 101v37h53l78 -60l78 60h49v-37l-71 -101h-120zM298 301h-64v-218h87v-83h-310v83h38c15 0 29 18 29 31v469c0 13 -14 31 -29 31h-38v86h302c174 0 278 -64 278 -197c0 -94 -57 -138 -160 -158v-4c79 -15 113 -47 143 -161l19 -72c5 -18 16 -25 25 -25h33
v-83h-199l-33 190c-11 85 -38 111 -121 111zM234 608v-229h75c101 0 122 48 122 115c0 68 -21 114 -122 114h-75z" />
    <glyph glyph-name="Sacute.titling" horiz-adv-x="524" 
d="M243 -8c-45 0 -82 4 -108 8h-119v211h106l14 -109c24 -9 52 -15 102 -15c85 0 122 39 122 100c0 81 -86 90 -183 118c-93 27 -152 82 -152 198c0 133 93 205 241 205c48 0 86 -4 106 -8h110v-191h-104l-14 92c-21 8 -49 14 -92 14c-74 0 -115 -30 -115 -90
c0 -73 73 -89 157 -111c126 -33 190 -77 190 -202c0 -143 -91 -220 -261 -220zM224 720l28 138h146v-50l-97 -88h-77z" />
    <glyph glyph-name="Scircumflex.titling" horiz-adv-x="524" 
d="M139 720v37l71 101h120l67 -101v-37h-53l-78 60l-78 -60h-49zM243 -8c-45 0 -82 4 -108 8h-119v211h106l14 -109c24 -9 52 -15 102 -15c85 0 122 39 122 100c0 81 -86 90 -183 118c-93 27 -152 82 -152 198c0 133 93 205 241 205c48 0 86 -4 106 -8h110v-191h-104l-14 92
c-21 8 -49 14 -92 14c-74 0 -115 -30 -115 -90c0 -73 73 -89 157 -111c126 -33 190 -77 190 -202c0 -143 -91 -220 -261 -220z" />
    <glyph glyph-name="Tcaron.titling" horiz-adv-x="633" 
d="M254 715l-67 101v37h53l78 -60l78 60h49v-37l-71 -101h-120zM165 0v83h44c15 0 29 18 29 31v496h-113l-11 -146h-97v236h599v-236h-97l-12 146h-113v-496c0 -13 14 -31 29 -31h44v-83h-302z" />
    <glyph glyph-name="Umacron.titling" horiz-adv-x="714" 
d="M514 832v-94h-266v94h266zM378 92c90 0 144 34 144 165v357h-79v86h260v-86h-38c-15 0 -29 -18 -29 -31v-315c0 -180 -84 -276 -276 -276c-183 0 -281 96 -281 276v315c0 13 -14 31 -29 31h-39v86h303v-86h-79v-357c0 -131 53 -165 143 -165z" />
    <glyph glyph-name="Ubreve.titling" horiz-adv-x="714" 
d="M381 715c-79 0 -117 47 -133 88v50h82c6 -27 23 -43 51 -43s45 16 51 43h82v-50c-16 -41 -54 -88 -133 -88zM378 92c90 0 144 34 144 165v357h-79v86h260v-86h-38c-15 0 -29 -18 -29 -31v-315c0 -180 -84 -276 -276 -276c-183 0 -281 96 -281 276v315c0 13 -14 31 -29 31
h-39v86h303v-86h-79v-357c0 -131 53 -165 143 -165z" />
    <glyph glyph-name="Uring.titling" horiz-adv-x="714" 
d="M377 701c-57 0 -105 38 -105 100s48 101 105 101s105 -39 105 -101s-48 -100 -105 -100zM377 747c31 0 53 21 53 54c0 34 -22 55 -53 55s-52 -21 -52 -55c0 -33 21 -54 52 -54zM378 92c90 0 144 34 144 165v357h-79v86h260v-86h-38c-15 0 -29 -18 -29 -31v-315
c0 -180 -84 -276 -276 -276c-183 0 -281 96 -281 276v315c0 13 -14 31 -29 31h-39v86h303v-86h-79v-357c0 -131 53 -165 143 -165z" />
    <glyph glyph-name="Uhungarumlaut.titling" horiz-adv-x="714" 
d="M251 715l23 138h121v-50l-67 -88h-77zM414 715l23 138h121v-50l-67 -88h-77zM378 92c90 0 144 34 144 165v357h-79v86h260v-86h-38c-15 0 -29 -18 -29 -31v-315c0 -180 -84 -276 -276 -276c-183 0 -281 96 -281 276v315c0 13 -14 31 -29 31h-39v86h303v-86h-79v-357
c0 -131 53 -165 143 -165z" />
    <glyph glyph-name="Zacute.titling" horiz-adv-x="552" 
d="M240 715l28 138h146v-50l-97 -88h-77zM541 594l-365 -500v-4h252l14 123h99v-213h-530v103l365 500v4h-230l-15 -107h-94v200h504v-106z" />
    <glyph glyph-name="Zdotaccent.titling" horiz-adv-x="552" 
d="M285 719c-44 0 -79 34 -79 77s35 78 79 78s79 -35 79 -78s-35 -77 -79 -77zM541 594l-365 -500v-4h252l14 123h99v-213h-530v103l365 500v4h-230l-15 -107h-94v200h504v-106z" />
    <glyph glyph-name="uni2009" unicode="&#x2009;" horiz-adv-x="101" 
 />
    </font>
</defs>
</svg>
