<?xml version="1.0" encoding="utf-8"?>
<!DOCTYPE svg PUBLIC "-//W3C//DTD SVG 1.1//EN" "http://www.w3.org/Graphics/SVG/1.1/DTD/svg11.dtd">
<svg version="1.1" xmlns="http://www.w3.org/2000/svg" xmlns:xlink="http://www.w3.org/1999/xlink" width="32" height="32" viewBox="0 0 32 32">
<path fill="#0d0d0d" class="icons-background" d="M32 18h-0.5c-0.7-1.2-2-2-3.5-2s-2.8 0.8-3.5 2h-1.1c-0.7-1.2-2-2-3.5-2-1.2 0-2.3 0.5-3 1.4v10.6c0 2.2-1.8 4-4 4s-4-1.8-4-4c0-0.6 0.4-1 1-1s1 0.4 1 1c0 1.1 0.9 2 2 2s2-0.9 2-2v-10.6c-0.7-0.8-1.8-1.4-3-1.4-1.5 0-2.8 0.8-3.5 2h-0.9c-0.7-1.2-2-2-3.5-2s-2.8 0.8-3.5 2h-0.5c0-8.5 6.6-15.4 15-15.9v-1.1c0-0.6 0.4-1 1-1s1 0.4 1 1v1.1c8.4 0.5 15 7.4 15 15.9z"></path>
</svg>
