<?xml version="1.0" encoding="utf-8"?>
<!DOCTYPE svg PUBLIC "-//W3C//DTD SVG 1.1//EN" "http://www.w3.org/Graphics/SVG/1.1/DTD/svg11.dtd">
<svg aria-labelledby="title" version="1.1" xmlns="http://www.w3.org/2000/svg" xmlns:xlink="http://www.w3.org/1999/xlink" width="32" height="32" viewBox="0 0 32 32">
<title id="title" lang="en">Wallet</title>

<path fill="#0d0d0d" class="icons-background" d="M27 8h3c1 0 2 1 2 2v1h-1l-4-3zM4.5 8h-1.5c-1.6 0-3 1.4-3 3v18c0 1.6 1.4 3 3 3h26c1.6 0 3-1.4 3-3v-1h-10c-1.1 0-2-0.9-2-2v-6c0-1.1 0.9-2 2-2h10v-4h-28.5c-0.8 0-1.5-0.7-1.5-1.5v-1c0-0.8 0.7-1.5 1.5-1.5h0.5l0.5-2zM7.4 7c-0.5-0.1-1 0.2-1.2 0.7l-1.2 4.3h24l-21.6-5zM15.2 0.1c-0.4-0.2-0.8-0.1-1.1 0.2l-3.1 4.7 18 6-13.8-10.9zM22.3 20c-0.2 0-0.3 0.1-0.3 0.3v5.5c0 0.2 0.1 0.3 0.3 0.3h9.7v-6h-9.7zM26.5 23c0 0.8-0.7 1.5-1.5 1.5s-1.5-0.7-1.5-1.5c0-0.8 0.7-1.5 1.5-1.5s1.5 0.7 1.5 1.5z"></path>
</svg>