<?xml version="1.0" encoding="utf-8"?>
<!DOCTYPE svg PUBLIC "-//W3C//DTD SVG 1.0//EN" "http://www.w3.org/TR/2001/REC-SVG-20010904/DTD/svg10.dtd">
<svg aria-labelledby="title" version="1.0" xmlns="http://www.w3.org/2000/svg" xmlns:xlink="http://www.w3.org/1999/xlink" x="0px" y="0px" width="32px" height="32px" viewBox="0 0 32 32" enable-background="new 0 0 32 32" xml:space="preserve">
<title id="title" lang="en">Radio-off</title>

<g>
<path fill="#FFFFFF" d="M16,31.5c-8.5,0-15.5-7-15.5-15.5S7.5,0.5,16,0.5s15.5,7,15.5,15.5S24.5,31.5,16,31.5z"/>
<path fill="#78BE20" d="M16,1c8.3,0,15,6.7,15,15s-6.7,15-15,15S1,24.3,1,16S7.7,1,16,1 M16,0C7.2,0,0,7.2,0,16s7.2,16,16,16 c8.8,0,16-7.2,16-16S24.8,0,16,0L16,0z"/>
</g>
</svg>
