<?xml version="1.0" encoding="utf-8"?>
<!DOCTYPE svg PUBLIC "-//W3C//DTD SVG 1.1//EN" "http://www.w3.org/Graphics/SVG/1.1/DTD/svg11.dtd">
<svg version="1.1" xmlns="http://www.w3.org/2000/svg" xmlns:xlink="http://www.w3.org/1999/xlink" width="32" height="32" viewBox="0 0 32 32">
<path fill="#2d373e" class="icons-background" d="M22 0c-5.5 0-10 4.5-10 10 0 0.6 0.1 1.2 0.2 1.8l-12.2 13.2v5c0 1.1 0.9 2 2 2h2v-2h4v-4h4v-4h4l2.6-2.6c1.1 0.4 2.2 0.6 3.4 0.6 5.5 0 10-4.5 10-10s-4.5-10-10-10zM25 10c-1.7 0-3-1.3-3-3s1.3-3 3-3c1.7 0 3 1.3 3 3s-1.3 3-3 3z"></path>
</svg>
