<?xml version="1.0" encoding="utf-8"?>
<!DOCTYPE svg PUBLIC "-//W3C//DTD SVG 1.1//EN" "http://www.w3.org/Graphics/SVG/1.1/DTD/svg11.dtd">
<svg aria-labelledby="title" version="1.1" xmlns="http://www.w3.org/2000/svg" xmlns:xlink="http://www.w3.org/1999/xlink" width="32" height="32" viewBox="0 0 32 32">
<title id="title" lang="en">Android</title>

<path fill="#20262d" class="icons-background" d="M28 10c-1.1 0-2 0.9-2 2v8c0 1.1 0.9 2 2 2s2-0.9 2-2v-8c0-1.1-0.9-2-2-2zM4 10c-1.1 0-2 0.9-2 2v8c0 1.1 0.9 2 2 2s2-0.9 2-2v-8c0-1.1-0.9-2-2-2zM7 23c0 1.7 1.3 3 3 3h1v4c0 1.1 0.9 2 2 2s2-0.9 2-2v-4h2v4c0 1.1 0.9 2 2 2s2-0.9 2-2v-4h1c1.7 0 3-1.3 3-3v-11h-18v11zM19.7 2.8l1.3-2.4c0-0.2 0-0.3-0.1-0.4s-0.3 0-0.3 0.1l-1.3 2.5c-1.1-0.4-2.2-0.6-3.3-0.6s-2.2 0.2-3.2 0.6l-1.3-2.5c-0.1-0.1-0.2-0.1-0.4-0.1-0.1 0.1-0.1 0.2-0.1 0.4l1.3 2.4c-2.8 1.3-4.9 4-5.3 7.2h18c-0.4-3.2-2.5-5.9-5.3-7.2zM12.5 8c-0.8 0-1.5-0.7-1.5-1.5s0.7-1.5 1.5-1.5 1.5 0.7 1.5 1.5-0.7 1.5-1.5 1.5zM19.5 8c-0.8 0-1.5-0.7-1.5-1.5s0.7-1.5 1.5-1.5 1.5 0.7 1.5 1.5-0.7 1.5-1.5 1.5z"></path>
</svg>