<?xml version="1.0" encoding="utf-8"?>
<!-- Generator: Adobe Illustrator 18.1.1, SVG Export Plug-In . SVG Version: 6.00 Build 0)  -->
<!DOCTYPE svg PUBLIC "-//W3C//DTD SVG 1.1//EN" "http://www.w3.org/Graphics/SVG/1.1/DTD/svg11.dtd">
<svg version="1.1" id="Art" xmlns="http://www.w3.org/2000/svg" xmlns:xlink="http://www.w3.org/1999/xlink" x="0px" y="0px"
	 width="26px" height="44px" viewBox="0 0 26 44" enable-background="new 0 0 26 44" xml:space="preserve">
<rect opacity="0" fill="#FFFFFF" width="26" height="44"/>
<g>
	<g>
		<polygon fill="#685AC0" points="0,3 0,16 6.5,9.5 		"/>
		<polygon fill="#A094FC" points="13,3 0,3 6.5,9.5 		"/>
		<polygon fill="#685AC0" points="13,16 13,3 6.5,9.5 		"/>
		<polygon fill="#20024E" points="0,16 13,16 6.5,9.5 		"/>
		<polygon fill="#C2BFEB" points="13,3 13,16 19.5,9.5 		"/>
		<polygon fill="#685AC0" points="26,3 13,3 19.5,9.5 		"/>
		<polygon fill="#20024E" points="26,16 26,3 19.5,9.5 		"/>
		<polygon fill="#685AC0" points="13,16 26,16 19.5,9.5 		"/>
		<polygon fill="#C2BFEB" points="13,16 13,29 19.5,22.5 		"/>
		<polygon fill="#A094FC" points="26,16 13,16 19.5,22.5 		"/>
		<polygon fill="#685AC0" points="26,29 26,16 19.5,22.5 		"/>
		<polygon fill="#20024E" points="13,29 26,29 19.5,22.5 		"/>
		<polygon fill="#685AC0" points="0,16 0,29 6.5,22.5 		"/>
		<polygon fill="#C2BFEB" points="13,16 0,16 6.5,22.5 		"/>
		<polygon fill="#20024E" points="13,29 13,16 6.5,22.5 		"/>
		<polygon fill="#A094FC" points="0,29 13,29 6.5,22.5 		"/>
		<polygon fill="#C2BFEB" points="13,29 13,42 19.5,35.5 		"/>
		<polygon fill="#685AC0" points="26,29 13,29 19.5,35.5 		"/>
		<polygon fill="#C2BFEB" points="13,29 0,29 6.5,35.5 		"/>
		<polygon fill="#20024E" points="13,42 13,29 6.5,35.5 		"/>
	</g>
</g>
</svg>
