<?xml version="1.0" encoding="utf-8"?>
<!-- Generator: Adobe Illustrator 18.1.1, SVG Export Plug-In . SVG Version: 6.00 Build 0)  -->
<!DOCTYPE svg PUBLIC "-//W3C//DTD SVG 1.1//EN" "http://www.w3.org/Graphics/SVG/1.1/DTD/svg11.dtd">
<svg version="1.1" id="Art" xmlns="http://www.w3.org/2000/svg" xmlns:xlink="http://www.w3.org/1999/xlink" x="0px" y="0px"
	 width="143px" height="65px" viewBox="0 0 143 65" enable-background="new 0 0 143 65" xml:space="preserve">
<rect opacity="0" fill="#FFFFFF" width="143" height="65"/>
<g>
	<g>
		<g>
			<polygon fill="#685AC0" points="0,14 0,27 6.5,20.5 			"/>
			<polygon fill="#A094FC" points="13,14 0,14 6.5,20.5 			"/>
			<polygon fill="#685AC0" points="13,27 13,14 6.5,20.5 			"/>
			<polygon fill="#20024E" points="0,27 13,27 6.5,20.5 			"/>
			<polygon fill="#C2BFEB" points="13,14 13,27 19.5,20.5 			"/>
			<polygon fill="#685AC0" points="26,14 13,14 19.5,20.5 			"/>
			<polygon fill="#20024E" points="26,27 26,14 19.5,20.5 			"/>
			<polygon fill="#685AC0" points="13,27 26,27 19.5,20.5 			"/>
			<polygon fill="#C2BFEB" points="13,27 13,40 19.5,33.5 			"/>
			<polygon fill="#A094FC" points="26,27 13,27 19.5,33.5 			"/>
			<polygon fill="#685AC0" points="26,40 26,27 19.5,33.5 			"/>
			<polygon fill="#20024E" points="13,40 26,40 19.5,33.5 			"/>
			<polygon fill="#685AC0" points="0,27 0,40 6.5,33.5 			"/>
			<polygon fill="#C2BFEB" points="13,27 0,27 6.5,33.5 			"/>
			<polygon fill="#20024E" points="13,40 13,27 6.5,33.5 			"/>
			<polygon fill="#A094FC" points="0,40 13,40 6.5,33.5 			"/>
			<polygon fill="#C2BFEB" points="13,40 13,53 19.5,46.5 			"/>
			<polygon fill="#685AC0" points="26,40 13,40 19.5,46.5 			"/>
			<polygon fill="#C2BFEB" points="13,40 0,40 6.5,46.5 			"/>
			<polygon fill="#20024E" points="13,53 13,40 6.5,46.5 			"/>
		</g>
	</g>
	<g>
		<path fill="#20024E" d="M64.5,51.6h4.9v-1.1h-1.7V36.3c0-0.5-0.3-0.6-0.5-0.6h-2.8v1.1h1.2c0.2,0,0.5,0.3,0.5,0.5V50
			c0,0.3-0.2,0.5-0.5,0.5h-1.1V51.6z"/>
		<path fill="#20024E" d="M89.9,39.6c-3.5,0-5.8,2.4-5.8,6.1c0,3.6,2.3,6,5.8,6c3.5,0,5.8-2.4,5.8-6C95.7,42,93.4,39.6,89.9,39.6
			 M89.9,50.5c-2.6,0-4.2-1.9-4.2-4.9c0-3,1.6-4.9,4.2-4.9c2.6,0,4.2,1.9,4.2,4.9C94.1,48.6,92.5,50.5,89.9,50.5"/>
		<path fill="#20024E" d="M109.9,51.6h5.1v-1.1h-1.9l0-7.5l0,0c1.2-1.3,2.3-2.2,3.9-2.2h0.1v-1.2c0,0-0.1,0-0.2,0
			c-0.5,0-2,0.2-3.6,1.9l-0.2,0.2v-1.4c0-0.5-0.3-0.6-0.5-0.6h-2.8v1.1h1.2c0.2,0,0.5,0.3,0.5,0.5V50c0,0.2-0.2,0.5-0.5,0.5h-1.1
			V51.6z"/>
		<path fill="#20024E" d="M140.8,44.5h-7.4l0-0.1c0.3-2.4,1.7-3.8,3.9-3.8c2.2,0,3.4,1.2,3.5,3.8L140.8,44.5z M137.2,39.4
			c-3.2,0-5.4,2.3-5.5,5.8l0,0.4c0,3.7,2.5,6.2,6.1,6.2c1.6,0,3-0.5,4-1.4c0.1-0.1,0.2-0.2,0.3-0.3l0,0v-0.9H141l-0.1,0.1
			c-0.8,0.9-1.9,1.3-3.2,1.3c-2.6,0-4.3-1.8-4.4-4.8l0-0.1h8.9l0.1,0l0-0.3c0-0.1,0-0.2,0-0.3c0-1.9-0.5-3.3-1.4-4.2
			C140.1,39.9,138.8,39.4,137.2,39.4"/>
		<path fill="#20024E" d="M61.7,44.5h-7.4l0-0.1c0.3-2.4,1.7-3.8,3.9-3.8c2.2,0,3.4,1.2,3.5,3.8L61.7,44.5z M58.1,39.4
			c-3.2,0-5.4,2.3-5.5,5.8l0,0.4c0,3.7,2.5,6.2,6.1,6.2c1.6,0,3-0.5,4-1.4c0.1-0.1,0.2-0.2,0.3-0.3l0,0v-0.9h-1.1l-0.1,0.1
			c-0.8,0.9-1.9,1.3-3.2,1.3c-2.6,0-4.3-1.8-4.4-4.8l0-0.1h8.9l0.1,0l0-0.3c0-0.1,0-0.2,0-0.3c0-1.9-0.5-3.3-1.4-4.2
			C61,39.9,59.7,39.4,58.1,39.4"/>
		<path fill="#20024E" d="M73.4,50.3l0.2,0.1c0.6,0.5,1.6,1.2,3.5,1.2c1,0,2.5-0.2,3.7-1.3c1.1-1.1,1.7-2.7,1.7-4.8
			c0-2.1-0.5-3.7-1.5-4.7c-1-1-2.3-1.3-3.2-1.3c-1.6,0-3,0.6-4.2,1.9l-0.2,0.2v-5.4c0-0.5-0.3-0.5-0.5-0.5h-2.8v1.1h1.2
			c0.3,0,0.5,0.3,0.5,0.5l0,12.6c0,0.2-0.2,0.5-0.5,0.5h-0.6v1.1h2.7V50.3z M77,50.5c-1.5,0-2.5-0.4-3.5-1.5l0,0V43l0,0
			c1.2-1.4,2.5-2.2,3.9-2.2c2.4,0,3.5,1.5,3.5,4.7C80.9,50,78.1,50.5,77,50.5"/>
		<path fill="#20024E" d="M96,40.8h1.2c0.3,0,0.5,0.3,0.5,0.5l0,7.7c0.1,1.7,1.2,2.7,3.2,2.7c2,0,3.5-1,4.5-1.8l0.2-0.1v1.8h3.2
			v-1.1h-1.1c-0.3,0-0.5-0.2-0.5-0.5V39.7h-3.3v1.1h1.7v7.8l0,0c-1,0.8-2.6,1.8-4.3,1.8c-1.4,0-2-0.6-2-2.1v-8.6H96V40.8z"/>
		<path fill="#20024E" d="M126.1,51.6h5v-1.1h-1c-0.2,0-0.5-0.3-0.5-0.5v-7.4c0-2-1.1-3-3.3-3c-1.9,0-3.5,1-4.6,1.8l-0.2,0.1v-1.3
			c0-0.5-0.3-0.6-0.5-0.6h-2.8v1.1h1.2c0.3,0,0.5,0.3,0.5,0.5V50c0,0.2-0.2,0.5-0.5,0.5h-1.1v1.1h5.1v-1.1h-1.9v-7.7l0,0
			c1.5-1.2,2.9-1.8,4.3-1.8c1.3,0,2.1,0.3,2.1,2.1v7.5h-1.9V51.6z"/>
		<path fill="#20024E" d="M66.4,31.8h5.1v-1.1h-1c-0.2,0-0.5-0.3-0.5-0.5v-7.4c0-2-1.1-3-3.3-3c-1.9,0-3.5,1-4.6,1.8l-0.2,0.1v-1.3
			c0-0.5-0.3-0.5-0.5-0.5h-2.9v1.1h1.3c0.3,0,0.5,0.3,0.5,0.5v8.6c0,0.3-0.2,0.5-0.5,0.5h-1.1v1.1h5.2v-1.1h-2V23l0,0
			c1.5-1.2,2.9-1.8,4.3-1.8c1.3,0,2.1,0.3,2.1,2.1v7.5h-2V31.8z"/>
		<path fill="#20024E" d="M102.3,31.8h5.1v-1.1h-1.9v-9.6h2.7V20h-2.7v-1c0-1.7,0.9-1.9,1.8-1.9c0.3,0,0.6,0,0.8,0.1
			c0.2,0.1,0.3,0.1,0.4,0.2h0.8v-1.2l-0.1,0c-0.7-0.2-1.2-0.2-2.2-0.2c-2.1,0-3.1,1-3.1,3v1h-1.7v1.1h1.7v9.1c0,0.2-0.2,0.5-0.5,0.5
			h-1.1V31.8z"/>
		<path fill="#20024E" d="M51.5,24.9c-3,0-4.8,1.3-4.8,3.5c0,2.2,1.5,3.5,4,3.5c1.4,0,2.5-0.5,3.5-1.4l0.2-0.2l0,1.4h3v-1.1h-1
			c-0.2,0-0.5-0.2-0.5-0.5v-7c0-2.3-1.3-3.4-4.1-3.4c-2.1,0-3.5,0.5-4.3,1l-0.1,0v1.3l0.9,0l0,0c0.6-0.5,1.6-1.1,3.4-1.1
			c1.8,0,2.6,0.7,2.6,2.3v1.9l-0.1,0C53.4,25,52.6,24.9,51.5,24.9 M50.9,30.8c-1.8,0-2.6-0.8-2.6-2.3c0-1.6,1.1-2.4,3.4-2.4
			c0.8,0,1.7,0.1,2.6,0.3l0.1,0V29l0,0C53.7,29.9,52.7,30.8,50.9,30.8"/>
		<path fill="#20024E" d="M81.8,31.8H84v-1.1h-0.5c-0.3,0-0.7-0.3-1-0.7l-3.6-5.1l3.2-3.3c0.2-0.2,0.7-0.5,1-0.5h0.9V20h-4.4v1.1
			h0.8c0.1,0,0.2,0.1,0.2,0.1c0,0.1,0,0.2-0.1,0.3l-4.6,4.8v-9.9c0-0.5-0.3-0.6-0.5-0.6h-2.8v1.1h1.2c0.2,0,0.5,0.3,0.5,0.5v12.6
			c0,0.2-0.2,0.5-0.5,0.5h-1.1v1.1h5.1v-1.1h-1.9V28l1.9-2l0.1,0.1L81.8,31.8z"/>
		<path fill="#20024E" d="M95.5,19.8c-3.5,0-5.8,2.4-5.8,6c0,3.6,2.3,6,5.8,6c3.5,0,5.8-2.4,5.8-6C101.3,22.3,98.9,19.8,95.5,19.8
			 M95.5,30.8c-2.6,0-4.2-1.9-4.2-4.9c0-3,1.6-4.9,4.2-4.9c2.6,0,4.2,1.9,4.2,4.9C99.7,28.9,98,30.8,95.5,30.8"/>
		<path fill="#20024E" d="M33.2,31.8h6.4c3.7,0,5.7-1.6,5.7-4.4c0-2-1-3.3-3-3.9L42,23.4l0.3-0.1c1.5-0.6,2.3-1.7,2.3-3.3
			c0-2.7-1.8-4-5.3-4h-6.1v1.1h1.2c0.3,0,0.6,0.4,0.6,0.6v12.4c0,0.3-0.3,0.6-0.6,0.6h-1.2V31.8z M39.6,30.7h-3v-6.6h2.7
			c3,0,4.3,1,4.3,3.2C43.6,29.6,42.3,30.7,39.6,30.7 M39.2,23h-2.6v-5.8h2.6c2.5,0,3.6,0.9,3.6,2.9C42.9,22,41.7,23,39.2,23"/>
		<path fill="#20024E" d="M50.5,36.8h1.2v-1h-4.3l-4.9,13.5l-0.1-0.3l-4.8-13.2h-4.3v1h1.1c0.3,0,0.7,0.4,0.7,0.7v12.5
			c0,0.3-0.2,0.7-0.7,0.7h-1.1v1h4.9v-1h-1.8V36.8h0.1l5.3,14.7h1.1l5.3-14.7h0.1v13.7h-1.8v1h5.1v-1h-1.1c-0.3,0-0.6-0.3-0.6-0.5
			V37.4C49.9,37.1,50.2,36.8,50.5,36.8"/>
	</g>
</g>
</svg>
